<svg width="32" height="32" viewBox="0 0 32 32" fill="none" xmlns="http://www.w3.org/2000/svg">
<path d="M22.6659 14.6663H12.5459L16.9459 10.2796C17.1969 10.0285 17.338 9.688 17.338 9.33293C17.338 8.97786 17.1969 8.63733 16.9459 8.38626C16.6948 8.13519 16.3543 7.99414 15.9992 7.99414C15.6441 7.99414 15.3036 8.13519 15.0525 8.38626L8.38588 15.0529C8.26449 15.1797 8.16934 15.3293 8.10588 15.4929C7.97252 15.8175 7.97252 16.1816 8.10588 16.5063C8.16934 16.6699 8.26449 16.8195 8.38588 16.9463L15.0525 23.6129C15.1765 23.7379 15.324 23.8371 15.4864 23.9048C15.6489 23.9725 15.8232 24.0073 15.9992 24.0073C16.1752 24.0073 16.3495 23.9725 16.512 23.9048C16.6745 23.8371 16.8219 23.7379 16.9459 23.6129C17.0708 23.489 17.17 23.3415 17.2377 23.179C17.3054 23.0166 17.3403 22.8423 17.3403 22.6663C17.3403 22.4902 17.3054 22.316 17.2377 22.1535C17.17 21.991 17.0708 21.8435 16.9459 21.7196L12.5459 17.3329H22.6659C23.0195 17.3329 23.3586 17.1925 23.6087 16.9424C23.8587 16.6924 23.9992 16.3532 23.9992 15.9996C23.9992 15.646 23.8587 15.3068 23.6087 15.0568C23.3586 14.8067 23.0195 14.6663 22.6659 14.6663Z" fill="white"/>
</svg>
