<svg xmlns="http://www.w3.org/2000/svg" width="16" height="16" viewBox="0 0 16 16" fill="none">
  <path d="M8.01388 1.93994C5.80721 1.93994 4.01388 3.73327 4.01388 5.93994V7.86661C4.01388 8.27327 3.84055 8.89327 3.63388 9.23994L2.86721 10.5133C2.39388 11.2999 2.72055 12.1733 3.58721 12.4666C6.46055 13.4266 9.56055 13.4266 12.4339 12.4666C13.2405 12.1999 13.5939 11.2466 13.1539 10.5133L12.3872 9.23994C12.1872 8.89327 12.0139 8.27327 12.0139 7.86661V5.93994C12.0139 3.73994 10.2139 1.93994 8.01388 1.93994Z" stroke="currentColor" stroke-miterlimit="10" stroke-linecap="round"/>
  <path d="M9.24645 2.13346C9.03979 2.07346 8.82645 2.02679 8.60645 2.00012C7.96645 1.92012 7.35312 1.96679 6.77979 2.13346C6.97312 1.64012 7.45312 1.29346 8.01312 1.29346C8.57312 1.29346 9.05312 1.64012 9.24645 2.13346Z" stroke="currentColor" stroke-miterlimit="10" stroke-linecap="round" stroke-linejoin="round"/>
  <path d="M10.0132 12.7065C10.0132 13.8065 9.11318 14.7065 8.01318 14.7065C7.46652 14.7065 6.95985 14.4799 6.59985 14.1199C6.23985 13.7599 6.01318 13.2532 6.01318 12.7065" stroke="currentColor" stroke-miterlimit="10"/>
</svg>
