<svg width="28" height="28" viewBox="0 0 28 28" fill="none" xmlns="http://www.w3.org/2000/svg">
  <rect width="28" height="28" rx="14" fill="white"/>
  <path d="M10.0422 11.1263C10.2663 9.10922 11.9712 7.58325 14.0007 7.58325V7.58325C16.0301 7.58325 17.735 9.10922 17.9591 11.1263L18.1387 12.742C18.2308 13.5709 18.5005 14.3701 18.9296 15.0852L19.3417 15.7721C19.4863 16.0131 19.5587 16.1336 19.5917 16.2251C19.7998 16.8015 19.4452 17.4279 18.8438 17.546C18.7484 17.5647 18.6078 17.5647 18.3267 17.5647H9.67456C9.39347 17.5647 9.25293 17.5647 9.15751 17.546C8.5561 17.4279 8.20145 16.8015 8.40962 16.2251C8.44265 16.1336 8.51496 16.0131 8.65957 15.7721L9.07169 15.0852C9.50076 14.3701 9.77055 13.5709 9.86264 12.742L10.0422 11.1263Z" stroke="#5A597D" stroke-width="2"/>
  <path d="M12.2298 19.5898C12.3342 19.9147 12.5644 20.2017 12.8846 20.4065C13.2048 20.6112 13.5971 20.7222 14.0007 20.7222C14.4042 20.7222 14.7965 20.6112 15.1167 20.4065C15.4369 20.2017 15.6671 19.9147 15.7715 19.5898" stroke="#5A597D" stroke-width="2" stroke-linecap="round"/>
</svg>
