<svg width="12" height="12" viewBox="0 0 12 12" fill="none" xmlns="http://www.w3.org/2000/svg">
  <path fill-rule="evenodd" clip-rule="evenodd" d="M6 0C2.68629 0 0 2.68629 0 6C0 9.31371 2.68629 12 6 12H9C9.93188 12 10.3978 12 10.7654 11.8478C11.2554 11.6448 11.6448 11.2554 11.8478 10.7654C12 10.3978 12 9.93188 12 9V6C12 2.68629 9.31371 0 6 0ZM3.33366 5.33325C3.33366 4.96506 3.63214 4.66658 4.00033 4.66658H8.00033C8.36852 4.66658 8.66699 4.96506 8.66699 5.33325C8.66699 5.70144 8.36852 5.99992 8.00033 5.99992H4.00033C3.63214 5.99992 3.33366 5.70144 3.33366 5.33325ZM5.33366 7.99992C5.33366 7.63173 5.63214 7.33325 6.00033 7.33325H8.00033C8.36852 7.33325 8.66699 7.63173 8.66699 7.99992C8.66699 8.36811 8.36852 8.66658 8.00033 8.66658H6.00033C5.63214 8.66658 5.33366 8.36811 5.33366 7.99992Z" fill="white"/>
</svg>
