<svg width="50" height="50" viewBox="0 0 50 50" fill="none" xmlns="http://www.w3.org/2000/svg">
  <circle cx="25" cy="25" r="25" fill="#ED5BAC"/>
  <path opacity="0.5" d="M31.6121 14.2604L32.8021 13.3472V13.3472L31.6121 14.2604ZM28.6865 11.8594L29.35 10.5141V10.5141L28.6865 11.8594ZM21.3149 11.8594L21.9783 13.2047L21.3149 11.8594ZM18.3893 14.2604L17.1993 13.3472V13.3472L18.3893 14.2604ZM33.8947 19.2394L34.5298 17.8805L33.8947 19.2394ZM33.5122 18.9255L34.7211 18.0374L33.5122 18.9255ZM31.96 30.7074L30.8993 31.7681L31.96 30.7074ZM18.0406 30.7074L16.9799 29.6468L18.0406 30.7074ZM16.1067 19.2394L16.7419 20.5983L16.1067 19.2394ZM16.4892 18.9255L15.2803 18.0374L16.4892 18.9255ZM14.5 20.8334H15.031V17.8334H14.5V20.8334ZM11.5 23.8334C11.5 22.1766 12.8431 20.8334 14.5 20.8334V17.8334C11.1863 17.8334 8.5 20.5197 8.5 23.8334H11.5ZM11.5 26.5003V23.8334H8.5V26.5003H11.5ZM14.5 29.5003C12.8431 29.5003 11.5 28.1572 11.5 26.5003H8.5C8.5 29.814 11.1863 32.5003 14.5 32.5003V29.5003ZM16.3335 29.5003H14.5V32.5003H16.3335V29.5003ZM16.8335 24.7594V29.0003H19.8335V24.7594H16.8335ZM20.3335 21.2594C18.4005 21.2594 16.8335 22.8264 16.8335 24.7594H19.8335C19.8335 24.4833 20.0574 24.2594 20.3335 24.2594V21.2594ZM29.6671 21.2594H20.3335V24.2594H29.6671V21.2594ZM33.1671 24.7594C33.1671 22.8264 31.6001 21.2594 29.6671 21.2594V24.2594C29.9432 24.2594 30.1671 24.4833 30.1671 24.7594H33.1671ZM33.1671 29.0003V24.7594H30.1671V29.0003H33.1671ZM35.5006 29.5003H33.6671V32.5003H35.5006V29.5003ZM38.5006 26.5003C38.5006 28.1572 37.1574 29.5003 35.5006 29.5003V32.5003C38.8143 32.5003 41.5006 29.814 41.5006 26.5003H38.5006ZM38.5006 23.8334V26.5003H41.5006V23.8334H38.5006ZM35.5006 20.8334C37.1574 20.8334 38.5006 22.1766 38.5006 23.8334H41.5006C41.5006 20.5197 38.8143 17.8334 35.5006 17.8334V20.8334ZM34.9704 20.8334H35.5006V17.8334H34.9704V20.8334ZM34.6453 17.4151C34.351 15.9357 33.7204 14.5439 32.8021 13.3472L30.4221 15.1735C31.0602 16.0051 31.4984 16.9723 31.7029 18.0003L34.6453 17.4151ZM32.8021 13.3472C31.8839 12.1506 30.7027 11.1812 29.35 10.5141L28.0231 13.2047C28.9632 13.6683 29.784 14.342 30.4221 15.1735L32.8021 13.3472ZM29.35 10.5141C27.9972 9.84698 26.509 9.5 25.0007 9.5V12.5C26.0489 12.5 27.083 12.7411 28.0231 13.2047L29.35 10.5141ZM25.0007 9.5C23.4924 9.5 22.0043 9.84698 20.6515 10.5141L21.9783 13.2047C22.9184 12.7411 23.9525 12.5 25.0007 12.5V9.5ZM20.6515 10.5141C19.2987 11.1812 18.1175 12.1506 17.1993 13.3472L19.5793 15.1735C20.2174 14.342 21.0383 13.6683 21.9783 13.2047L20.6515 10.5141ZM17.1993 13.3472C16.2811 14.5439 15.6504 15.9357 15.3562 17.4151L18.2985 18.0003C18.503 16.9723 18.9413 16.0051 19.5793 15.1735L17.1993 13.3472ZM34.9704 17.8334C34.8218 17.8334 34.7049 17.8334 34.6043 17.8321C34.5034 17.8308 34.4376 17.8283 34.3924 17.8252C34.2872 17.818 34.3814 17.8111 34.5298 17.8805L33.2596 20.5983C33.6092 20.7617 33.9499 20.8018 34.1865 20.8181C34.421 20.8343 34.7003 20.8334 34.9704 20.8334V17.8334ZM31.7029 18.0003C31.7681 18.328 31.8293 18.6389 31.8938 18.8869C31.9522 19.1111 32.0584 19.48 32.3033 19.8135L34.7211 18.0374C34.7864 18.1262 34.8138 18.1944 34.8179 18.2048C34.8218 18.2147 34.8143 18.1973 34.7971 18.1313C34.7599 17.9883 34.7178 17.7799 34.6453 17.4151L31.7029 18.0003ZM34.5298 17.8805C34.5167 17.8743 34.5666 17.8963 34.6325 17.9504C34.6984 18.0045 34.7297 18.0491 34.7211 18.0374L32.3033 19.8135C32.5657 20.1706 32.8582 20.4106 33.2596 20.5983L34.5298 17.8805ZM30.1671 29.0003C30.1671 29.4293 30.1639 29.902 30.2171 30.2975C30.276 30.7361 30.4277 31.2965 30.8993 31.7681L33.0206 29.6468C33.0983 29.7245 33.1496 29.8105 33.1778 29.879C33.2011 29.9356 33.198 29.9547 33.1903 29.8977C33.1825 29.8398 33.1752 29.7451 33.1712 29.5858C33.1672 29.4272 33.1671 29.2416 33.1671 29.0003H30.1671ZM33.6671 29.5003C33.4258 29.5003 33.2402 29.5002 33.0816 29.4962C32.9223 29.4922 32.8276 29.4849 32.7697 29.4771C32.7127 29.4694 32.7318 29.4663 32.7884 29.4896C32.8569 29.5178 32.9429 29.5691 33.0206 29.6468L30.8993 31.7681C31.3709 32.2397 31.9313 32.3914 32.3699 32.4503C32.7654 32.5035 33.2381 32.5003 33.6671 32.5003V29.5003ZM16.3335 32.5003C16.7625 32.5003 17.2351 32.5035 17.6306 32.4503C18.0693 32.3914 18.6297 32.2397 19.1013 31.7681L16.9799 29.6468C17.0576 29.5691 17.1436 29.5178 17.2122 29.4896C17.2687 29.4663 17.2879 29.4694 17.2309 29.4771C17.173 29.4849 17.0782 29.4922 16.9189 29.4962C16.7604 29.5002 16.5748 29.5003 16.3335 29.5003V32.5003ZM16.8335 29.0003C16.8335 29.2416 16.8334 29.4272 16.8294 29.5858C16.8254 29.7451 16.818 29.8398 16.8103 29.8977C16.8026 29.9547 16.7995 29.9356 16.8227 29.879C16.8509 29.8105 16.9022 29.7245 16.9799 29.6468L19.1013 31.7681C19.5729 31.2965 19.7245 30.7361 19.7835 30.2975C19.8367 29.902 19.8335 29.4293 19.8335 29.0003H16.8335ZM15.031 20.8334C15.3011 20.8334 15.5805 20.8343 15.815 20.8181C16.0516 20.8018 16.3922 20.7617 16.7419 20.5983L15.4716 17.8805C15.62 17.8111 15.7142 17.818 15.609 17.8252C15.5639 17.8283 15.498 17.8308 15.3971 17.8321C15.2965 17.8334 15.1796 17.8334 15.031 17.8334V20.8334ZM15.3562 17.4151C15.2836 17.7799 15.2415 17.9883 15.2043 18.1313C15.1871 18.1973 15.1796 18.2147 15.1835 18.2048C15.1876 18.1944 15.2151 18.1262 15.2803 18.0374L17.6981 19.8135C17.943 19.48 18.0493 19.1111 18.1076 18.8869C18.1721 18.6389 18.2333 18.328 18.2985 18.0003L15.3562 17.4151ZM16.7419 20.5983C17.1433 20.4106 17.4358 20.1706 17.6981 19.8135L15.2803 18.0374C15.2717 18.0491 15.3031 18.0045 15.3689 17.9504C15.4348 17.8963 15.4847 17.8743 15.4716 17.8805L16.7419 20.5983Z" fill="white"/>
  <rect x="18.334" y="22.667" width="13.3336" height="16.667" rx="2" stroke="white" stroke-width="3"/>
  <path d="M24.166 31.0005H25.8327" stroke="white" stroke-width="3" stroke-linecap="round"/>
</svg>
