<svg xmlns="http://www.w3.org/2000/svg" width="29" height="28" viewBox="0 0 29 28" fill="none">
  <path fill-rule="evenodd" clip-rule="evenodd" d="M8.56858 5.87995C7.22136 5.87995 6.12922 6.97209 6.12922 8.31931V16.5177C6.12922 17.8649 7.22136 18.9571 8.56858 18.9571H16.767C18.1142 18.9571 19.2063 17.8649 19.2063 16.5177V8.31931C19.2063 6.97209 18.1142 5.87995 16.767 5.87995H8.56858ZM4.44922 8.31931C4.44922 6.04425 6.29352 4.19995 8.56858 4.19995H16.767C19.0421 4.19995 20.8863 6.04425 20.8863 8.31931V16.5177C20.8863 18.7928 19.0421 20.6371 16.767 20.6371H8.56858C6.29352 20.6371 4.44922 18.7928 4.44922 16.5177V8.31931Z" fill="currentColor"/>
  <path fill-rule="evenodd" clip-rule="evenodd" d="M23.2103 10.6421C23.6743 10.6421 24.0503 11.0182 24.0503 11.4821V19.6805C24.0503 21.9555 22.2061 23.7999 19.931 23.7999H11.7326C11.2687 23.7999 10.8926 23.4238 10.8926 22.9599C10.8926 22.496 11.2687 22.1199 11.7326 22.1199H19.931C21.2782 22.1199 22.3703 21.0277 22.3703 19.6805V11.4821C22.3703 11.0182 22.7464 10.6421 23.2103 10.6421Z" fill="currentColor"/>
</svg>
