<svg width="40" height="40" viewBox="0 0 40 40" fill="none" xmlns="http://www.w3.org/2000/svg">
  <g>
    <circle opacity="0.1" cx="20" cy="20" r="20" fill="#ED5BAC"/>
    <ellipse cx="20" cy="13.8285" rx="8" ry="3.42857" stroke="#D61F85" stroke-width="2"/>
    <path
      d="M12 20.6855C12 20.6855 12 23.3634 12 25.257C12 27.1505 15.5817 28.6855 20 28.6855C24.4183 28.6855 28 27.1505 28 25.257C28 24.3118 28 20.6855 28 20.6855"
      stroke="#D61F85" stroke-width="2" stroke-linecap="square"/>
    <path
      d="M12 13.8286C12 13.8286 12 17.6494 12 19.5429C12 21.4364 15.5817 22.9715 20 22.9715C24.4183 22.9715 28 21.4364 28 19.5429C28 18.5977 28 13.8286 28 13.8286"
      stroke="#D61F85" stroke-width="2"/>
  </g>
</svg>
