<svg width="14" height="14" viewBox="0 0 14 14" fill="none" xmlns="http://www.w3.org/2000/svg">
<path d="M4.83583 7.75185C4.78116 7.80608 4.73776 7.87059 4.70815 7.94168C4.67853 8.01276 4.66328 8.08901 4.66328 8.16602C4.66328 8.24302 4.67853 8.31927 4.70815 8.39035C4.73776 8.46144 4.78116 8.52595 4.83583 8.58018L6.58583 10.3302C6.64006 10.3849 6.70458 10.4283 6.77566 10.4579C6.84675 10.4875 6.92299 10.5027 7 10.5027C7.07701 10.5027 7.15325 10.4875 7.22434 10.4579C7.29542 10.4283 7.35994 10.3849 7.41417 10.3302L9.16417 8.58018C9.27401 8.47034 9.33572 8.32136 9.33572 8.16602C9.33572 8.01067 9.27401 7.86169 9.16417 7.75185C9.05432 7.642 8.90534 7.5803 8.75 7.5803C8.59466 7.5803 8.44568 7.642 8.33583 7.75185L7.58333 8.51018V1.74935C7.58333 1.59464 7.52187 1.44627 7.41248 1.33687C7.30308 1.22747 7.15471 1.16602 7 1.16602C6.84529 1.16602 6.69692 1.22747 6.58752 1.33687C6.47812 1.44627 6.41667 1.59464 6.41667 1.74935V8.51018L5.66417 7.75185C5.60994 7.69717 5.54542 7.65378 5.47434 7.62416C5.40325 7.59455 5.32701 7.5793 5.25 7.5793C5.17299 7.5793 5.09675 7.59455 5.02566 7.62416C4.95458 7.65378 4.89006 7.69717 4.83583 7.75185ZM10.5 5.24935H9.33333C9.17862 5.24935 9.03025 5.31081 8.92085 5.4202C8.81146 5.5296 8.75 5.67797 8.75 5.83268C8.75 5.98739 8.81146 6.13576 8.92085 6.24516C9.03025 6.35456 9.17862 6.41602 9.33333 6.41602H10.5C10.6547 6.41602 10.8031 6.47747 10.9125 6.58687C11.0219 6.69627 11.0833 6.84464 11.0833 6.99935V11.0827C11.0833 11.2374 11.0219 11.3858 10.9125 11.4952C10.8031 11.6046 10.6547 11.666 10.5 11.666H3.5C3.34529 11.666 3.19692 11.6046 3.08752 11.4952C2.97812 11.3858 2.91667 11.2374 2.91667 11.0827V6.99935C2.91667 6.84464 2.97812 6.69627 3.08752 6.58687C3.19692 6.47747 3.34529 6.41602 3.5 6.41602H4.66667C4.82138 6.41602 4.96975 6.35456 5.07915 6.24516C5.18854 6.13576 5.25 5.98739 5.25 5.83268C5.25 5.67797 5.18854 5.5296 5.07915 5.4202C4.96975 5.31081 4.82138 5.24935 4.66667 5.24935H3.5C3.03587 5.24935 2.59075 5.43372 2.26256 5.76191C1.93437 6.0901 1.75 6.53522 1.75 6.99935V11.0827C1.75 11.5468 1.93437 11.9919 2.26256 12.3201C2.59075 12.6483 3.03587 12.8327 3.5 12.8327H10.5C10.9641 12.8327 11.4092 12.6483 11.7374 12.3201C12.0656 11.9919 12.25 11.5468 12.25 11.0827V6.99935C12.25 6.53522 12.0656 6.0901 11.7374 5.76191C11.4092 5.43372 10.9641 5.24935 10.5 5.24935Z" fill="#D61F85"/>
</svg>
