<svg width="20" height="20" viewBox="0 0 16 16" fill="none" xmlns="http://www.w3.org/2000/svg">
<circle cx="8" cy="8" r="8" fill="#9090BB"/>
<path fill-rule="evenodd" clip-rule="evenodd" d="M10.519 7.30089L11.2165 6.60345C11.6816 6.13834 11.6816 5.38425 11.2165 4.91914C10.7514 4.45404 9.99728 4.45404 9.53217 4.91914L8.82449 5.62683C9.22757 6.32396 9.81216 6.90371 10.519 7.30089ZM8.09724 6.35407L5.75672 8.6946C5.33166 9.11966 5.11913 9.33219 4.97939 9.59328C4.83966 9.85438 4.78071 10.1491 4.66282 10.7386L4.62635 10.9209C4.55983 11.2535 4.52657 11.4198 4.62118 11.5144C4.71578 11.609 4.88209 11.5758 5.2147 11.5093L5.39706 11.4728C5.98651 11.3549 6.28124 11.296 6.54233 11.1562C6.80343 11.0165 7.01596 10.804 7.44102 10.3789L9.78979 8.03013C9.10852 7.60054 8.53123 7.02744 8.09724 6.35407Z" fill="white"/>
</svg>
