<svg xmlns="http://www.w3.org/2000/svg" width="29" height="28" viewBox="0 0 29 28" fill="none">
  <path fill-rule="evenodd" clip-rule="evenodd" d="M10 6.9C8.42599 6.9 7.15 8.17599 7.15 9.75V19.25C7.15 20.824 8.42599 22.1 10 22.1H19.5C21.074 22.1 22.35 20.824 22.35 19.25V13.55C22.35 13.0253 22.7753 12.6 23.3 12.6C23.8247 12.6 24.25 13.0253 24.25 13.55V19.25C24.25 21.8733 22.1233 24 19.5 24H10C7.37664 24 5.25 21.8733 5.25 19.25V9.75C5.25 7.12665 7.37665 5 10 5H15.7C16.2247 5 16.65 5.42533 16.65 5.95C16.65 6.47467 16.2247 6.9 15.7 6.9H10Z" fill="currentColor"/>
  <path fill-rule="evenodd" clip-rule="evenodd" d="M21.6475 6.85714C21.4499 6.85714 21.2603 6.93569 21.1206 7.07538L21.1205 7.07543L13.8061 14.3898L13.4548 15.7952L14.8602 15.4438L22.1745 8.12948L22.1746 8.12944C22.3143 7.9897 22.3929 7.80016 22.3929 7.60246C22.3929 7.40477 22.3143 7.21522 22.1746 7.07546L22.1745 7.07538C22.0348 6.93571 21.8452 6.85714 21.6475 6.85714ZM19.8073 5.76224C20.2954 5.27414 20.9574 5 21.6475 5C22.3376 5 22.9997 5.27411 23.4877 5.76221C23.4877 5.76224 23.4878 5.76227 23.4878 5.7623C23.9759 6.25038 24.25 6.91231 24.25 7.60246C24.25 8.29264 23.9759 8.95459 23.4877 9.44268C23.4877 9.44269 23.4877 9.4427 23.4877 9.44271L15.9915 16.9389C15.8725 17.0579 15.7234 17.1423 15.5601 17.1832L12.4038 17.9723C12.0874 18.0514 11.7526 17.9586 11.522 17.728C11.2914 17.4974 11.1986 17.1626 11.2777 16.8462L12.0668 13.6899C12.1076 13.5266 12.1921 13.3775 12.3111 13.2585L19.8073 5.7623C19.8073 5.76228 19.8073 5.76226 19.8073 5.76224Z" fill="currentColor"/>
  <path fill-rule="evenodd" clip-rule="evenodd" d="M17.5429 8.29289C17.9334 7.90237 18.5666 7.90237 18.9571 8.29289L20.9571 10.2929C21.3476 10.6834 21.3476 11.3166 20.9571 11.7071C20.5666 12.0976 19.9334 12.0976 19.5429 11.7071L17.5429 9.70711C17.1524 9.31658 17.1524 8.68342 17.5429 8.29289Z" fill="currentColor"/>
</svg>
