<svg xmlns="http://www.w3.org/2000/svg" width="40" height="40" viewBox="0 0 40 40" fill="none">
  <path d="M7.91003 29.3211C7.91003 30.4131 8.76803 31.2711 9.86003 31.2711H30.53C30.959 31.2711 31.31 30.9201 31.31 30.4911V29.6721C31.31 29.2431 30.959 28.8921 30.53 28.8921H10.991C10.601 28.8921 10.25 28.5411 10.25 28.1511V8.65109C10.25 8.22209 9.89903 7.87109 9.47003 7.87109H8.69003C8.26103 7.87109 7.91003 8.22209 7.91003 8.65109V29.3211Z" fill="currentColor"/>
  <path d="M13.916 23.081C13.604 23.081 13.331 22.964 13.097 22.73C12.629 22.262 12.629 21.521 13.097 21.092L19.337 14.891C19.805 14.423 20.546 14.423 20.975 14.891L23.978 17.894L29.243 12.551C29.711 12.083 30.452 12.083 30.881 12.551C31.349 13.019 31.349 13.76 30.881 14.189L24.836 20.312C24.602 20.546 24.329 20.663 24.017 20.663C23.705 20.663 23.393 20.546 23.198 20.312L20.156 17.309L14.774 22.73C14.54 22.964 14.228 23.081 13.916 23.081Z" fill="currentColor"/>
</svg>
