<svg width="64" height="64" viewBox="0 0 64 64" fill="none" xmlns="http://www.w3.org/2000/svg">
<circle cx="32" cy="32" r="32" fill="#D61F85"/>
<path d="M26.8223 27.7363H32.6655V43.44" stroke="white" stroke-width="4" stroke-linecap="round" stroke-linejoin="round"/>
<path d="M26 43.8057H38.5995" stroke="white" stroke-width="4" stroke-miterlimit="10" stroke-linecap="round"/>
<path d="M32 23C31.4067 23 30.8266 22.8241 30.3333 22.4944C29.8399 22.1648 29.4554 21.6962 29.2284 21.1481C29.0013 20.5999 28.9419 19.9967 29.0576 19.4147C29.1734 18.8328 29.4591 18.2982 29.8787 17.8787C30.2982 17.4591 30.8328 17.1734 31.4147 17.0576C31.9967 16.9419 32.5999 17.0013 33.1481 17.2284C33.6962 17.4554 34.1648 17.8399 34.4944 18.3333C34.8241 18.8266 35 19.4067 35 20C35 20.7957 34.6839 21.5587 34.1213 22.1213C33.5587 22.6839 32.7957 23 32 23Z" fill="white"/>
</svg>
