<svg width="14" height="14" viewBox="0 0 14 14" fill="none" xmlns="http://www.w3.org/2000/svg">
  <path fill-rule="evenodd" clip-rule="evenodd"
        d="M0 7C0 10.866 3.13401 14 7 14C10.866 14 14 10.866 14 7C14 3.13401 10.866 0 7 0C3.13401 0 0 3.13401 0 7ZM7 6.325C7.37279 6.325 7.675 6.62721 7.675 7L7.675 11.2C7.675 11.5728 7.37279 11.875 7 11.875C6.62721 11.875 6.325 11.5728 6.325 11.2V7C6.325 6.62721 6.62721 6.325 7 6.325ZM6.325 4C6.325 4.37279 6.62721 4.675 7 4.675C7.37279 4.675 7.675 4.37279 7.675 4V3.5C7.675 3.12721 7.37279 2.825 7 2.825C6.62721 2.825 6.325 3.12721 6.325 3.5V4Z"
        fill="#9090BB"/>
</svg>
