<svg width="225" height="153" viewBox="0 0 225 153" fill="none" xmlns="http://www.w3.org/2000/svg">
<g clip-path="url(#clip0_48_114)">
<path d="M52.1636 27.5088C51.8392 31.5409 52.8329 35.3411 54.2296 39.0628C55.978 43.7124 57.7946 48.345 60.4206 52.5784C65.191 60.2675 70.4361 67.6324 76.8696 74.0389C79.7585 76.918 82.8967 79.5788 86.1339 82.0588C89.9175 84.9584 93.8957 87.6022 98.0993 89.8946C101.012 91.4808 103.826 90.2664 104.591 87.0495C106.431 79.3059 106.069 71.6851 103.894 64.0096C102.197 58.0126 99.6052 52.5613 95.8968 47.5911C94.1825 45.2953 92.4308 43.0234 90.8156 40.6627C80.9297 24.9026 89.5897 3.45234 108.081 0.440163C121.849 -1.80447 134.658 6.64531 137.919 20.1984C138.407 22.2281 138.418 24.367 138.838 26.4206C139.848 31.3636 140.767 36.3406 142.116 41.1949C142.98 44.3094 144.434 47.2807 145.807 50.2314C148.706 56.4536 152.835 61.881 157.086 67.2231C162.669 74.2435 169.26 80.1314 176.714 85.1222C181.423 88.2742 186.351 91.0066 191.391 93.5719C197.261 96.5568 203.053 99.6952 208.95 102.626C212.057 104.171 214.994 105.904 217.405 108.414C223.046 114.285 225.59 121.296 224.754 129.394C223.569 140.897 215.305 149.923 203.971 152.294C189.595 155.303 175.229 145.403 173.054 130.912C172.425 126.733 171.971 122.524 171.555 118.317C170.991 112.621 169.175 107.323 166.815 102.151C164.677 97.4642 161.689 93.3161 158.759 89.1338C152.951 80.8444 145.831 73.8342 137.543 68.0247C134.313 65.7631 131.004 63.6105 127.688 61.4751C126.893 60.9634 125.95 60.6188 125.028 60.3766C122.682 59.7592 120.661 60.8917 120.152 63.2455C119.571 65.9302 119.128 68.649 118.786 71.3746C118.171 76.2903 118.404 81.1957 119.616 86.0057C120.613 89.9662 121.989 93.8073 123.778 97.4983C125.889 101.848 128.566 105.781 131.837 109.346C135.594 113.439 137.728 118.3 138.36 123.84C139.92 137.523 130.475 149.95 116.98 152.342C103.102 154.798 89.4736 145.413 86.9534 131.662C86.4446 128.882 86.53 126.092 86.6905 123.274C86.7998 121.35 86.5198 119.385 86.2602 117.458C85.6695 113.067 83.7606 109.117 81.9781 105.129C78.3653 97.0549 73.366 89.8604 67.759 83.0788C62.8792 77.1772 57.1117 72.2275 50.9138 67.745C47.6425 65.381 44.3916 62.9965 40.7822 61.1578C40.0822 60.7996 39.3241 60.5165 38.5592 60.3289C36.4352 59.8069 34.4136 60.8747 33.939 63.0135C33.2936 65.9131 32.8087 68.8605 32.4399 71.8079C31.8389 76.611 32.1394 81.4107 33.3277 86.0944C34.4 90.3278 35.9059 94.4316 37.8933 98.3477C39.9353 102.376 42.4896 106.02 45.5492 109.349C49.1621 113.279 51.3475 117.935 51.9861 123.257C53.0105 131.84 50.5075 139.263 44.3438 145.338C40.0343 149.589 34.7892 151.953 28.7348 152.574C16.3597 153.843 4.53086 145.976 1.21169 133.791C-1.33915 124.427 0.778013 116.018 7.36171 108.865C9.11008 106.968 10.7389 105.007 11.9273 102.759C13.7269 99.3541 15.6494 95.9462 16.8855 92.3268C19.1291 85.7532 20.2354 78.9 19.2452 71.9477C18.0363 63.4604 15.4855 55.4268 10.2233 48.4473C8.27687 45.8684 6.40216 43.2314 4.58208 40.5638C1.20145 35.5901 -0.212274 30.0263 0.286284 24.0804C1.31755 11.7179 10.534 2.59951 21.5467 0.597083C35.5712 -1.95115 48.9879 7.21158 51.7778 21.1535C51.9895 22.2042 52.0885 23.2856 52.1534 24.3568C52.2149 25.404 52.1671 26.4581 52.1671 27.5088H52.1636Z" fill="white"/>
<path d="M112.451 51.9712C98.3036 51.9985 86.3127 40.5263 86.395 25.8372C86.4738 11.8714 97.6798 -0.0374358 112.584 8.84378e-05C127.29 0.0376127 138.719 11.8032 138.64 26.1408C138.561 40.6934 126.629 52.053 112.451 51.9712Z" fill="white"/>
<path d="M198.843 52.1416C184.696 52.1689 172.705 40.6967 172.788 26.0076C172.866 12.0418 184.069 0.132974 198.977 0.170499C213.683 0.208023 225.112 11.9736 225.033 26.3113C224.954 40.8638 213.021 52.2235 198.843 52.1416Z" fill="#D64495"/>
<path d="M198.843 152.829C184.696 152.857 172.705 141.384 172.788 126.695C172.866 112.73 184.069 100.821 198.977 100.858C213.683 100.896 225.112 112.661 225.033 126.999C224.954 141.552 213.021 152.911 198.843 152.829Z" fill="white"/>
<path d="M112.451 152.829C98.3036 152.857 86.3127 141.384 86.395 126.695C86.4738 112.73 97.6763 100.821 112.584 100.858C127.29 100.896 138.719 112.661 138.64 126.999C138.561 141.552 126.629 152.911 112.451 152.829Z" fill="#D64495"/>
<path d="M26.2262 52.1416C12.079 52.1689 0.088072 40.6967 0.170343 26.0076C0.249186 12.0418 11.4551 0.132974 26.3599 0.170499C41.0658 0.208023 52.4945 11.9736 52.4157 26.3113C52.3368 40.8638 40.4042 52.2235 26.2262 52.1416Z" fill="#D64495"/>
<path d="M26.2262 152.829C12.079 152.857 0.088072 141.384 0.170343 126.695C0.249186 112.73 11.4517 100.821 26.3599 100.858C41.0658 100.896 52.4945 112.661 52.4157 126.999C52.3368 141.552 40.4042 152.911 26.2262 152.829Z" fill="#D64495"/>
</g>
<defs>
<clipPath id="clip0_48_114">
<rect width="225" height="153" fill="white"/>
</clipPath>
</defs>
</svg>
