<svg width="66" height="20" viewBox="0 0 66 20" fill="none" xmlns="http://www.w3.org/2000/svg">
<rect width="66" height="20" rx="10" fill="#63B64E"/>
<path d="M15.4165 14.07C14.7698 14.07 14.1798 13.92 13.6465 13.62C13.1131 13.3133 12.6898 12.89 12.3765 12.35C12.0698 11.8033 11.9165 11.19 11.9165 10.51C11.9165 9.83 12.0698 9.22 12.3765 8.68C12.6898 8.13333 13.1131 7.71 13.6465 7.41C14.1798 7.10333 14.7698 6.95 15.4165 6.95C16.0698 6.95 16.6631 7.10333 17.1965 7.41C17.7298 7.71 18.1498 8.13 18.4565 8.67C18.7631 9.21 18.9165 9.82333 18.9165 10.51C18.9165 11.1967 18.7631 11.81 18.4565 12.35C18.1498 12.89 17.7298 13.3133 17.1965 13.62C16.6631 13.92 16.0698 14.07 15.4165 14.07ZM15.4165 13.28C15.9031 13.28 16.3398 13.1667 16.7265 12.94C17.1198 12.7133 17.4265 12.39 17.6465 11.97C17.8731 11.55 17.9865 11.0633 17.9865 10.51C17.9865 9.95 17.8731 9.46333 17.6465 9.05C17.4265 8.63 17.1231 8.30667 16.7365 8.08C16.3498 7.85333 15.9098 7.74 15.4165 7.74C14.9231 7.74 14.4831 7.85333 14.0965 8.08C13.7098 8.30667 13.4031 8.63 13.1765 9.05C12.9565 9.46333 12.8465 9.95 12.8465 10.51C12.8465 11.0633 12.9565 11.55 13.1765 11.97C13.4031 12.39 13.7098 12.7133 14.0965 12.94C14.4898 13.1667 14.9298 13.28 15.4165 13.28ZM22.7878 8.42C23.4545 8.42 23.9945 8.62333 24.4078 9.03C24.8211 9.43 25.0278 10.01 25.0278 10.77V14H24.1278V10.9C24.1278 10.3533 23.9911 9.93667 23.7178 9.65C23.4445 9.35667 23.0711 9.21 22.5978 9.21C22.1178 9.21 21.7345 9.36 21.4478 9.66C21.1678 9.96 21.0278 10.3967 21.0278 10.97V14H20.1178V8.52H21.0278V9.3C21.2078 9.02 21.4511 8.80333 21.7578 8.65C22.0711 8.49667 22.4145 8.42 22.7878 8.42ZM28.7743 8.43C29.2476 8.43 29.661 8.53333 30.0143 8.74C30.3743 8.94667 30.641 9.20667 30.8143 9.52V8.52H31.7343V14.12C31.7343 14.62 31.6276 15.0633 31.4143 15.45C31.201 15.8433 30.8943 16.15 30.4943 16.37C30.101 16.59 29.641 16.7 29.1143 16.7C28.3943 16.7 27.7943 16.53 27.3143 16.19C26.8343 15.85 26.551 15.3867 26.4643 14.8H27.3643C27.4643 15.1333 27.671 15.4 27.9843 15.6C28.2976 15.8067 28.6743 15.91 29.1143 15.91C29.6143 15.91 30.021 15.7533 30.3343 15.44C30.6543 15.1267 30.8143 14.6867 30.8143 14.12V12.97C30.6343 13.29 30.3676 13.5567 30.0143 13.77C29.661 13.9833 29.2476 14.09 28.7743 14.09C28.2876 14.09 27.8443 13.97 27.4443 13.73C27.051 13.49 26.741 13.1533 26.5143 12.72C26.2876 12.2867 26.1743 11.7933 26.1743 11.24C26.1743 10.68 26.2876 10.19 26.5143 9.77C26.741 9.34333 27.051 9.01333 27.4443 8.78C27.8443 8.54667 28.2876 8.43 28.7743 8.43ZM30.8143 11.25C30.8143 10.8367 30.731 10.4767 30.5643 10.17C30.3976 9.86333 30.171 9.63 29.8843 9.47C29.6043 9.30333 29.2943 9.22 28.9543 9.22C28.6143 9.22 28.3043 9.3 28.0243 9.46C27.7443 9.62 27.521 9.85333 27.3543 10.16C27.1876 10.4667 27.1043 10.8267 27.1043 11.24C27.1043 11.66 27.1876 12.0267 27.3543 12.34C27.521 12.6467 27.7443 12.8833 28.0243 13.05C28.3043 13.21 28.6143 13.29 28.9543 13.29C29.2943 13.29 29.6043 13.21 29.8843 13.05C30.171 12.8833 30.3976 12.6467 30.5643 12.34C30.731 12.0267 30.8143 11.6633 30.8143 11.25ZM35.6621 14.09C35.1488 14.09 34.6821 13.9733 34.2621 13.74C33.8488 13.5067 33.5221 13.1767 33.2821 12.75C33.0488 12.3167 32.9321 11.8167 32.9321 11.25C32.9321 10.69 33.0521 10.1967 33.2921 9.77C33.5388 9.33667 33.8721 9.00667 34.2921 8.78C34.7121 8.54667 35.1821 8.43 35.7021 8.43C36.2221 8.43 36.6921 8.54667 37.1121 8.78C37.5321 9.00667 37.8621 9.33333 38.1021 9.76C38.3488 10.1867 38.4721 10.6833 38.4721 11.25C38.4721 11.8167 38.3454 12.3167 38.0921 12.75C37.8454 13.1767 37.5088 13.5067 37.0821 13.74C36.6554 13.9733 36.1821 14.09 35.6621 14.09ZM35.6621 13.29C35.9888 13.29 36.2954 13.2133 36.5821 13.06C36.8688 12.9067 37.0988 12.6767 37.2721 12.37C37.4521 12.0633 37.5421 11.69 37.5421 11.25C37.5421 10.81 37.4554 10.4367 37.2821 10.13C37.1088 9.82333 36.8821 9.59667 36.6021 9.45C36.3221 9.29667 36.0188 9.22 35.6921 9.22C35.3588 9.22 35.0521 9.29667 34.7721 9.45C34.4988 9.59667 34.2788 9.82333 34.1121 10.13C33.9454 10.4367 33.8621 10.81 33.8621 11.25C33.8621 11.6967 33.9421 12.0733 34.1021 12.38C34.2688 12.6867 34.4888 12.9167 34.7621 13.07C35.0354 13.2167 35.3354 13.29 35.6621 13.29ZM40.1386 7.63C39.9653 7.63 39.8186 7.57 39.6986 7.45C39.5786 7.33 39.5186 7.18333 39.5186 7.01C39.5186 6.83667 39.5786 6.69 39.6986 6.57C39.8186 6.45 39.9653 6.39 40.1386 6.39C40.3053 6.39 40.4453 6.45 40.5586 6.57C40.6786 6.69 40.7386 6.83667 40.7386 7.01C40.7386 7.18333 40.6786 7.33 40.5586 7.45C40.4453 7.57 40.3053 7.63 40.1386 7.63ZM40.5786 8.52V14H39.6686V8.52H40.5786ZM44.7995 8.42C45.4662 8.42 46.0062 8.62333 46.4195 9.03C46.8329 9.43 47.0395 10.01 47.0395 10.77V14H46.1395V10.9C46.1395 10.3533 46.0029 9.93667 45.7295 9.65C45.4562 9.35667 45.0829 9.21 44.6095 9.21C44.1295 9.21 43.7462 9.36 43.4595 9.66C43.1795 9.96 43.0395 10.3967 43.0395 10.97V14H42.1295V8.52H43.0395V9.3C43.2195 9.02 43.4629 8.80333 43.7695 8.65C44.0829 8.49667 44.4262 8.42 44.7995 8.42ZM50.786 8.43C51.2593 8.43 51.6727 8.53333 52.026 8.74C52.386 8.94667 52.6527 9.20667 52.826 9.52V8.52H53.746V14.12C53.746 14.62 53.6393 15.0633 53.426 15.45C53.2127 15.8433 52.906 16.15 52.506 16.37C52.1127 16.59 51.6527 16.7 51.126 16.7C50.406 16.7 49.806 16.53 49.326 16.19C48.846 15.85 48.5627 15.3867 48.476 14.8H49.376C49.476 15.1333 49.6827 15.4 49.996 15.6C50.3093 15.8067 50.686 15.91 51.126 15.91C51.626 15.91 52.0327 15.7533 52.346 15.44C52.666 15.1267 52.826 14.6867 52.826 14.12V12.97C52.646 13.29 52.3793 13.5567 52.026 13.77C51.6727 13.9833 51.2593 14.09 50.786 14.09C50.2993 14.09 49.856 13.97 49.456 13.73C49.0627 13.49 48.7527 13.1533 48.526 12.72C48.2993 12.2867 48.186 11.7933 48.186 11.24C48.186 10.68 48.2993 10.19 48.526 9.77C48.7527 9.34333 49.0627 9.01333 49.456 8.78C49.856 8.54667 50.2993 8.43 50.786 8.43ZM52.826 11.25C52.826 10.8367 52.7427 10.4767 52.576 10.17C52.4093 9.86333 52.1827 9.63 51.896 9.47C51.616 9.30333 51.306 9.22 50.966 9.22C50.626 9.22 50.316 9.3 50.036 9.46C49.756 9.62 49.5327 9.85333 49.366 10.16C49.1993 10.4667 49.116 10.8267 49.116 11.24C49.116 11.66 49.1993 12.0267 49.366 12.34C49.5327 12.6467 49.756 12.8833 50.036 13.05C50.316 13.21 50.626 13.29 50.966 13.29C51.306 13.29 51.616 13.21 51.896 13.05C52.1827 12.8833 52.4093 12.6467 52.576 12.34C52.7427 12.0267 52.826 11.6633 52.826 11.25Z" fill="white"/>
</svg>
