<svg width="20" height="20" viewBox="0 0 20 20" fill="none" xmlns="http://www.w3.org/2000/svg">
  <circle cx="10" cy="10" r="10" fill="#D61F85"/>
  <path d="M14.5 9.49976C14.3674 9.49976 14.2402 9.55243 14.1464 9.6462C14.0527 9.73997 14 9.86715 14 9.99976C14.006 10.9363 13.6851 11.8455 13.0928 12.571C12.5005 13.2964 11.6738 13.7926 10.755 13.9741C9.8362 14.1555 8.88289 14.0109 8.05925 13.5651C7.23561 13.1194 6.5932 12.4003 6.24266 11.5319C5.89212 10.6634 5.8554 9.69991 6.13881 8.80729C6.42222 7.91467 7.00804 7.14882 7.79535 6.64165C8.58267 6.13447 9.5222 5.91771 10.4521 6.02871C11.3821 6.13971 12.2442 6.57152 12.89 7.24976H11.69C11.5574 7.24976 11.4302 7.30243 11.3364 7.3962C11.2427 7.48997 11.19 7.61715 11.19 7.74976C11.19 7.88236 11.2427 8.00954 11.3364 8.10331C11.4302 8.19708 11.5574 8.24976 11.69 8.24976H13.955C14.0876 8.24976 14.2148 8.19708 14.3086 8.10331C14.4023 8.00954 14.455 7.88236 14.455 7.74976V5.49976C14.455 5.36715 14.4023 5.23997 14.3086 5.1462C14.2148 5.05243 14.0876 4.99976 13.955 4.99976C13.8224 4.99976 13.6952 5.05243 13.6014 5.1462C13.5077 5.23997 13.455 5.36715 13.455 5.49976V6.38476C12.6223 5.58878 11.5404 5.10473 10.392 5.01442C9.24364 4.92411 8.09932 5.23308 7.15246 5.8891C6.20561 6.54512 5.51431 7.50796 5.19542 8.61485C4.87653 9.72174 4.94961 10.9048 5.40231 11.964C5.855 13.0232 6.65955 13.8937 7.67995 14.4282C8.70035 14.9627 9.874 15.1285 11.0025 14.8975C12.131 14.6665 13.1452 14.053 13.8736 13.1606C14.6019 12.2682 14.9998 11.1517 15 9.99976C15 9.86715 14.9473 9.73997 14.8536 9.6462C14.7598 9.55243 14.6326 9.49976 14.5 9.49976Z" fill="white"/>
</svg>
