<svg width="305" height="160" viewBox="0 0 305 160" fill="none" xmlns="http://www.w3.org/2000/svg">
<rect width="305" height="160" fill="none"/>
<path d="M289.851 18.5653C288.705 18.637 274.974 11.5692 267.163 12.0481C259.35 12.528 254.396 14.5835 251.244 18.6262C248.093 22.668 249.927 24.8583 249.544 27.1114C249.163 29.3659 248.832 32.2912 251.524 34.6959C255.049 37.8445 260.142 39.6829 268.478 36.5104C276.814 33.3366 282.152 27.8057 285.02 24.6429C286.761 22.7228 288.375 20.6927 289.851 18.5653V18.5653ZM288.525 19.214L249.489 27.6042L249.725 26.2481L288.525 19.214Z" fill="url(#paint0_linear_10470_37706)"/>
<path d="M303.243 78.843C302.572 79.0982 293.054 77.427 288.484 79.1607C283.914 80.8952 281.344 83.0396 280.223 86.0355C279.102 89.0307 280.607 89.9975 280.801 91.4125C280.997 92.8281 281.349 94.6345 283.406 95.5701C286.099 96.7951 289.483 96.9478 293.86 93.51C298.237 90.0715 300.384 85.7826 301.501 83.3641C302.179 81.896 302.761 80.3858 303.243 78.843V78.843ZM302.573 79.4759L280.861 91.7167L280.747 90.8639L302.573 79.4759Z" fill="url(#paint1_linear_10470_37706)"/>
<path d="M31.0683 101.734C30.2702 102.554 15.3329 106.529 9.88688 112.115C4.44055 117.703 2.17509 122.539 2.58812 127.637C3.0015 132.733 5.84164 133.123 7.08709 135.043C8.33421 136.965 10.074 139.347 13.6933 139.321C18.4324 139.286 23.4416 137.233 27.4488 129.306C31.4544 121.378 31.6469 113.717 31.6209 109.459C31.6047 106.875 31.4202 104.294 31.0683 101.734ZM30.5281 103.101L7.38055 135.445L6.63528 134.285L30.5281 103.101Z" fill="url(#paint2_linear_10470_37706)"/>
<path d="M56.6817 43.7534C55.6159 43.3284 46.2762 31.0806 39.0163 28.1756C31.7547 25.2708 26.3931 25.0103 21.7981 27.3135C17.2049 29.6165 17.9129 32.3775 16.5928 34.2484C15.273 36.1208 13.709 38.6208 15.0988 41.9419C16.919 46.2905 20.7219 50.1263 29.6211 50.8238C38.5201 51.5196 45.7324 48.8066 49.6904 47.1765C52.0928 46.1867 54.4281 45.0433 56.6817 43.7534V43.7534ZM55.2031 43.7723L16.3298 34.6697L17.1296 33.5462L55.2031 43.7723Z" fill="url(#paint3_linear_10470_37706)"/>
<path d="M253.865 148.588C254.427 148.317 262.819 149.059 266.657 147.213C270.496 145.366 272.565 143.313 273.314 140.627C274.061 137.942 272.681 137.215 272.405 136.001C272.129 134.786 271.687 133.243 269.83 132.584C267.398 131.721 264.449 131.84 260.906 135.152C257.364 138.464 255.824 142.349 255.036 144.532C254.558 145.858 254.166 147.213 253.865 148.588V148.588ZM254.398 147.989L272.331 135.741L272.494 136.473L254.398 147.989Z" fill="url(#paint4_linear_10470_37706)"/>
<g clip-path="url(#clip0_10470_37706)">
<path d="M159.214 154.701C196.281 154.701 226.33 124.839 226.33 88.0022C226.33 51.1657 196.281 21.3037 159.214 21.3037C122.147 21.3037 92.0977 51.1657 92.0977 88.0022C92.0977 124.839 122.147 154.701 159.214 154.701Z" fill="#EAEAF2"/>
<path opacity="0.4" d="M145.827 140.508C182.895 140.508 212.944 110.646 212.944 73.8099C212.944 36.9733 182.895 7.11133 145.827 7.11133C108.76 7.11133 78.7109 36.9733 78.7109 73.8099C78.7109 110.646 108.76 140.508 145.827 140.508Z" fill="white"/>
<path d="M86.7617 88.0021C86.7617 127.702 119.262 160.004 159.215 160.004C199.164 160.004 231.668 127.707 231.668 88.0021C231.668 48.2976 199.164 16 159.215 16C119.266 16 86.7617 48.2976 86.7617 88.0021ZM100.866 88.0021C100.866 56.0281 127.041 30.0161 159.21 30.0161C191.385 30.0161 217.56 56.0281 217.56 88.0021C217.56 119.976 191.385 145.988 159.21 145.988C127.041 145.988 100.866 119.976 100.866 88.0021Z" fill="#DDDDED"/>
<path d="M163.47 40.4725C163.47 37.2297 161.547 34.6094 159.189 34.6094C156.833 34.6094 154.908 37.2297 154.908 40.4725V87.912C154.908 91.1526 156.833 93.7729 159.189 93.7729C161.547 93.7729 163.47 91.1526 163.47 87.912V40.4725Z" fill="#A4A4CC"/>
<path d="M195.35 94.1375C198.601 94.1375 201.245 92.2228 201.245 89.8767C201.245 87.5373 198.599 85.6272 195.345 85.6272L160.801 85.6182C157.549 85.6182 154.906 87.5306 154.91 89.8677C154.906 92.2139 157.549 94.1285 160.79 94.1285L195.35 94.1375Z" fill="#9090BB"/>
</g>
<defs>
<linearGradient id="paint0_linear_10470_37706" x1="274.516" y1="12.3775" x2="256.798" y2="44.9153" gradientUnits="userSpaceOnUse">
<stop offset="0.00520833" stop-color="#EBEBFA"/>
<stop offset="1" stop-color="#EBEBFA" stop-opacity="0"/>
</linearGradient>
<linearGradient id="paint1_linear_10470_37706" x1="292.933" y1="77.9942" x2="288.405" y2="100.676" gradientUnits="userSpaceOnUse">
<stop offset="0.00520833" stop-color="#EBEBFA"/>
<stop offset="1" stop-color="#EBEBFA" stop-opacity="0"/>
</linearGradient>
<linearGradient id="paint2_linear_10470_37706" x1="30.9742" y1="99.7266" x2="10.1655" y2="142.496" gradientUnits="userSpaceOnUse">
<stop offset="0.00520833" stop-color="#EBEBFA"/>
<stop offset="1" stop-color="#EBEBFA" stop-opacity="0"/>
</linearGradient>
<linearGradient id="paint3_linear_10470_37706" x1="45.5129" y1="31.6147" x2="18.2434" y2="56.1885" gradientUnits="userSpaceOnUse">
<stop offset="0.00520833" stop-color="#EBEBFA"/>
<stop offset="1" stop-color="#EBEBFA" stop-opacity="0"/>
</linearGradient>
<linearGradient id="paint4_linear_10470_37706" x1="269.232" y1="128.888" x2="263.044" y2="154.684" gradientUnits="userSpaceOnUse">
<stop offset="0.00520833" stop-color="#EBEBFA"/>
<stop offset="1" stop-color="#EBEBFA" stop-opacity="0"/>
</linearGradient>
<clipPath id="clip0_10470_37706">
<rect x="86.7617" y="16" width="144.902" height="144" rx="70" fill="white"/>
</clipPath>
</defs>
</svg>
