<svg width="369" height="159" viewBox="0 0 369 159" fill="none" xmlns="http://www.w3.org/2000/svg">
<g clip-path="url(#clip0_10470_36859)">
<rect width="369" height="159" fill="none"/>
<path d="M114.85 32.3945C114.85 26.8717 119.327 22.3945 124.85 22.3945H262.32C270.604 22.3945 277.32 29.1103 277.32 37.3945V144.521C277.32 150.044 272.843 154.521 267.32 154.521H124.85C119.327 154.521 114.85 150.044 114.85 144.521V32.3945Z" fill="#EAEAF2"/>
<path d="M99.1973 36.873C99.1973 31.3502 103.674 26.873 109.197 26.873H267.318C272.841 26.873 277.318 31.3502 277.318 36.873V149C277.318 154.523 272.841 159 267.318 159H109.197C103.674 159 99.1973 154.523 99.1973 149V36.873Z" fill="#F6F6FA"/>
<path d="M99.1973 112.284C256.108 120.076 277.318 38.0703 277.318 38.0703V149C277.318 154.523 272.841 159 267.318 159H109.197C103.674 159 99.1973 154.523 99.1973 149V112.284Z" fill="#EAEAF2"/>
<path d="M91 110.837C91 115.255 94.5817 118.837 99 118.837H154.703C159.122 118.837 162.703 115.255 162.703 110.837V84.7965C162.703 80.3783 159.122 76.7966 154.703 76.7966H99C94.5817 76.7966 91 80.3783 91 84.7966V110.837Z" fill="#F6F6FA"/>
<path d="M91 84.7959C91 80.3776 94.5817 76.7959 99 76.7959H154.703C159.122 76.7959 162.703 80.3776 162.703 84.7959V110.836C162.703 115.255 159.122 118.836 154.703 118.836H99C94.5817 118.836 91 115.255 91 110.836V84.7959Z" fill="#CCCCDD"/>
<path d="M142.59 111.831C150.317 111.831 156.581 105.557 156.581 97.8172C156.581 90.0778 150.317 83.8037 142.59 83.8037C134.864 83.8037 128.6 90.0778 128.6 97.8172C128.6 105.557 134.864 111.831 142.59 111.831Z" fill="#9090BB"/>
<path d="M322.84 15.591C321.885 15.6511 310.444 9.71565 303.935 10.1179C297.425 10.5209 293.298 12.2471 290.672 15.6421C288.046 19.0363 289.574 20.8757 289.255 22.7679C288.938 24.6611 288.662 27.1178 290.905 29.1373C293.842 31.7813 298.085 33.3252 305.031 30.661C311.977 27.9957 316.424 23.3509 318.814 20.6948C320.265 19.0824 321.609 17.3775 322.84 15.591V15.591ZM321.734 16.1357L289.209 23.1817L289.406 22.0429L321.734 16.1357Z" fill="url(#paint0_linear_10470_36859)"/>
<path d="M367.535 65.4649C366.977 65.6792 359.046 64.2757 355.238 65.7316C351.43 67.1882 349.289 68.9891 348.355 71.5051C347.421 74.0204 348.675 74.8322 348.837 76.0205C349 77.2094 349.293 78.7264 351.007 79.5121C353.251 80.5408 356.07 80.669 359.718 77.782C363.365 74.8944 365.153 71.2927 366.084 69.2616C366.649 68.0287 367.134 66.7605 367.535 65.4649V65.4649ZM366.977 65.9964L348.886 76.276L348.792 75.5599L366.977 65.9964Z" fill="url(#paint1_linear_10470_36859)"/>
<path d="M25.8873 83.0521C25.2223 83.7412 12.7763 87.0796 8.2386 91.7704C3.70063 96.4627 1.81302 100.524 2.15716 104.805C2.5016 109.085 4.86804 109.412 5.90577 111.025C6.94489 112.639 8.39451 114.639 11.4101 114.617C15.3589 114.588 19.5326 112.864 22.8715 106.207C26.209 99.5495 26.3694 93.1156 26.3477 89.54C26.3343 87.3697 26.1805 85.2025 25.8873 83.0521ZM25.4372 84.2008L6.15029 111.362L5.52931 110.388L25.4372 84.2008Z" fill="url(#paint2_linear_10470_36859)"/>
<path d="M60.9449 41.9525C60.0568 41.5955 52.2749 31.3099 46.2258 28.8703C40.1753 26.431 35.7079 26.2122 31.8794 28.1464C28.0522 30.0804 28.6421 32.3991 27.5422 33.9702C26.4425 35.5427 25.1394 37.6421 26.2974 40.4312C27.814 44.083 30.9826 47.3043 38.3976 47.89C45.8124 48.4744 51.8217 46.1961 55.1197 44.8271C57.1213 43.9959 59.0671 43.0356 60.9449 41.9525V41.9525ZM59.7129 41.9683L27.3231 34.324L27.9895 33.3805L59.7129 41.9683Z" fill="url(#paint3_linear_10470_36859)"/>
<path d="M316.356 122.544C316.825 122.316 323.818 122.939 327.016 121.389C330.214 119.838 331.938 118.113 332.562 115.858C333.185 113.603 332.035 112.992 331.805 111.972C331.574 110.952 331.206 109.657 329.659 109.103C327.633 108.378 325.175 108.479 322.224 111.26C319.273 114.041 317.989 117.304 317.332 119.137C316.934 120.25 316.608 121.388 316.356 122.544V122.544ZM316.801 122.04L331.743 111.754L331.879 112.369L316.801 122.04Z" fill="url(#paint4_linear_10470_36859)"/>
<path d="M61.9136 128.346C62.3474 128.635 65.3435 134.983 68.2975 136.959C71.2523 138.935 73.612 139.551 75.8729 138.95C78.1331 138.348 78.0792 137.047 78.843 136.333C79.6068 135.618 80.5385 134.646 80.2343 133.031C79.8357 130.917 78.507 128.847 74.6154 127.705C70.7238 126.565 67.2602 127.106 65.346 127.466C64.1842 127.685 63.0377 127.979 61.9136 128.346V128.346ZM62.5729 128.475L78.9998 136.169L78.5379 136.597L62.5729 128.475Z" fill="url(#paint5_linear_10470_36859)"/>
</g>
<defs>
<linearGradient id="paint0_linear_10470_36859" x1="310.062" y1="10.3945" x2="295.12" y2="37.6207" gradientUnits="userSpaceOnUse">
<stop offset="0.00520833" stop-color="#EBEBFA"/>
<stop offset="1" stop-color="#EBEBFA" stop-opacity="0"/>
</linearGradient>
<linearGradient id="paint1_linear_10470_36859" x1="358.945" y1="64.752" x2="355.115" y2="83.7883" gradientUnits="userSpaceOnUse">
<stop offset="0.00520833" stop-color="#EBEBFA"/>
<stop offset="1" stop-color="#EBEBFA" stop-opacity="0"/>
</linearGradient>
<linearGradient id="paint2_linear_10470_36859" x1="25.8089" y1="81.3666" x2="8.24932" y2="117.175" gradientUnits="userSpaceOnUse">
<stop offset="0.00520833" stop-color="#EBEBFA"/>
<stop offset="1" stop-color="#EBEBFA" stop-opacity="0"/>
</linearGradient>
<linearGradient id="paint3_linear_10470_36859" x1="51.6389" y1="31.7585" x2="28.7576" y2="52.2164" gradientUnits="userSpaceOnUse">
<stop offset="0.00520833" stop-color="#EBEBFA"/>
<stop offset="1" stop-color="#EBEBFA" stop-opacity="0"/>
</linearGradient>
<linearGradient id="paint4_linear_10470_36859" x1="329.161" y1="106" x2="323.928" y2="127.644" gradientUnits="userSpaceOnUse">
<stop offset="0.00520833" stop-color="#EBEBFA"/>
<stop offset="1" stop-color="#EBEBFA" stop-opacity="0"/>
</linearGradient>
<linearGradient id="paint5_linear_10470_36859" x1="82.6604" y1="131.033" x2="61.3394" y2="137.456" gradientUnits="userSpaceOnUse">
<stop offset="0.00520833" stop-color="#EBEBFA"/>
<stop offset="1" stop-color="#EBEBFA" stop-opacity="0"/>
</linearGradient>
<clipPath id="clip0_10470_36859">
<rect width="369" height="159" fill="white"/>
</clipPath>
</defs>
</svg>
