<svg width="40" height="40" viewBox="0 0 40 40" fill="none" xmlns="http://www.w3.org/2000/svg">
  <g>
    <circle opacity="0.1" cx="20" cy="20" r="20" fill="#ED5BAC"/>
    <path id="outline"
          d="M22.4004 11.1997H17.6004C14.2063 11.1997 12.5092 11.1997 11.4548 12.2709C10.4004 13.342 10.4004 15.066 10.4004 18.514V20.9521C10.4004 24.4001 10.4004 26.1241 11.4548 27.1952C12.5092 28.2664 14.2063 28.2664 17.6004 28.2664H22.4004C25.7945 28.2664 27.4916 28.2664 28.546 27.1952C29.6004 26.1241 29.6004 24.4001 29.6004 20.9521V18.514C29.6004 15.066 29.6004 13.342 28.546 12.2709C27.4916 11.1997 25.7945 11.1997 22.4004 11.1997Z"
          stroke="#D61F85" stroke-width="2"/>
    <path id="buckle" d="M14.668 15.4663H17.868" stroke="#D61F85" stroke-width="2" stroke-linecap="round"/>
    <path id="pocket"
          d="M23.1996 21.9995V21.7328C23.1996 20.79 23.1996 20.3186 23.4925 20.0257C23.7854 19.7328 24.2568 19.7328 25.1996 19.7328H27.5996C28.5424 19.7328 29.0138 19.7328 29.3067 20.0257C29.5996 20.3186 29.5996 20.79 29.5996 21.7328V21.9995C29.5996 22.9423 29.5996 23.4137 29.3067 23.7066C29.0138 23.9995 28.5424 23.9995 27.5996 23.9995H25.1996C24.2568 23.9995 23.7854 23.9995 23.4925 23.7066C23.1996 23.4137 23.1996 22.9423 23.1996 21.9995Z"
          stroke="#D61F85" stroke-width="2"/>
  </g>
</svg>
