<?xml version="1.0" standalone="no"?>
<!DOCTYPE svg PUBLIC "-//W3C//DTD SVG 20010904//EN"
 "http://www.w3.org/TR/2001/REC-SVG-20010904/DTD/svg10.dtd">
<svg version="1.0" xmlns="http://www.w3.org/2000/svg"
 width="64" height="64" viewBox="0 0 225.000000 225.000000"
 preserveAspectRatio="xMidYMid meet">
<metadata>
Created by potrace 1.16, written by Peter Selinger 2001-2019
</metadata>
<g transform="translate(0.000000,225.000000) scale(0.100000,-0.100000)"
fill="#000000" stroke="none">
<path d="M890 2215 c-396 -62 -675 -307 -804 -705 -99 -306 -84 -681 38 -946
175 -377 542 -563 1071 -541 220 10 349 40 512 120 346 169 539 553 519 1032
-9 221 -44 367 -125 527 -178 349 -526 531 -1004 527 -67 -1 -160 -7 -207 -14z
m353 -30 c77 -20 173 -70 193 -100 20 -31 74 -49 131 -42 41 4 48 2 79 -29 57
-58 50 -64 -75 -64 -63 0 -112 -4 -116 -10 -4 -6 23 -10 74 -10 44 0 82 -4 85
-9 3 -5 -6 -21 -20 -36 -18 -19 -30 -25 -42 -19 -26 12 -138 17 -210 9 -109
-12 -97 -49 51 -157 134 -98 193 -156 225 -225 87 -188 -13 -493 -206 -627
-21 -14 -111 -58 -198 -96 -179 -78 -214 -107 -240 -196 -42 -145 66 -284 218
-284 147 1 251 133 218 278 -15 70 -81 140 -150 161 l-45 13 50 23 c28 12 85
43 127 69 91 55 96 54 157 -27 69 -91 94 -157 99 -269 4 -82 1 -109 -17 -165
-86 -267 -383 -395 -639 -276 -67 31 -158 115 -199 184 -111 186 -71 433 93
578 62 55 118 83 219 110 44 12 100 34 126 47 94 52 170 148 189 240 25 120
-31 205 -248 375 -115 90 -117 91 -162 85 -59 -7 -83 6 -41 24 17 6 35 18 41
25 14 17 -29 31 -122 41 -38 3 -68 10 -68 14 0 12 52 48 94 65 29 12 36 21 36
43 0 38 -21 65 -69 87 -22 10 -38 22 -35 26 12 20 84 29 148 19 55 -9 72 -8
103 6 l38 16 -84 39 c-46 22 -82 41 -80 43 2 3 33 -2 69 -9 72 -16 165 -20
140 -6 -8 4 -44 14 -80 21 -36 7 -69 17 -74 21 -17 15 156 10 217 -6z m-59
-623 c36 -17 91 -54 121 -83 99 -94 118 -175 66 -284 -43 -93 -136 -166 -251
-200 -23 -7 -22 -5 12 33 108 119 47 303 -108 328 -126 20 -234 -86 -222 -217
8 -78 53 -127 147 -159 l51 -17 -59 -37 c-33 -20 -80 -59 -106 -88 l-46 -52
-35 19 c-44 24 -116 101 -143 153 -111 218 -29 481 184 590 81 41 132 52 231
48 78 -3 102 -8 158 -34z m-414 -799 c0 -5 -11 -30 -25 -56 -13 -27 -27 -68
-31 -93 -3 -24 -8 -44 -9 -44 -19 0 -160 -32 -194 -44 -59 -22 -64 -21 -57 12
20 82 150 203 234 217 20 4 42 8 47 10 18 6 35 5 35 -2z"/>
</g>
</svg>
