<svg width="28" height="25" viewBox="0 0 28 25" fill="none" xmlns="http://www.w3.org/2000/svg">
  <path opacity="0.5" d="M17 2H11C6.75736 2 4.63604 2 3.31802 3.33894C2 4.67788 2 6.83287 2 11.1429V14.1905C2 18.5005 2 20.6555 3.31802 21.9944C4.63604 23.3333 6.75736 23.3333 11 23.3333H17C21.2426 23.3333 23.364 23.3333 24.682 21.9944C26 20.6555 26 18.5005 26 14.1905V11.1429C26 6.83287 26 4.67788 24.682 3.33894C23.364 2 21.2426 2 17 2Z" stroke="white" stroke-width="3"/>
  <path d="M7.3331 7.3331H11.3331" stroke="white" stroke-width="3" stroke-linecap="round"/>
  <path d="M18 15.9998V14.6665C18 13.7237 18 13.2523 18.2929 12.9594C18.5858 12.6665 19.0572 12.6665 20 12.6665H24C24.9428 12.6665 25.4142 12.6665 25.7071 12.9594C26 13.2523 26 13.7237 26 14.6665V15.9998C26 16.9426 26 17.414 25.7071 17.7069C25.4142 17.9998 24.9428 17.9998 24 17.9998H20C19.0572 17.9998 18.5858 17.9998 18.2929 17.7069C18 17.414 18 16.9426 18 15.9998Z" stroke="white" stroke-width="3"/>
</svg>
