<?xml version="1.0" encoding="UTF-8"?>
<svg width="348px" height="84px" viewBox="0 0 348 84" version="1.1" xmlns="http://www.w3.org/2000/svg" xmlns:xlink="http://www.w3.org/1999/xlink">
    <!-- Generator: Sketch 54.1 (76490) - https://sketchapp.com -->
    <title>connection-failed</title>
    <desc>Created with Sketch.</desc>
    <defs>
        <linearGradient x1="82.9946157%" y1="50%" x2="0%" y2="50%" id="linearGradient-1">
            <stop stop-color="#FFFFFF" offset="15.4745566%"></stop>
            <stop stop-color="#FFFFFF" stop-opacity="0" offset="100%"></stop>
        </linearGradient>
        <linearGradient x1="38.2390203%" y1="50%" x2="100%" y2="50%" id="linearGradient-2">
            <stop stop-color="#FFFFFF" offset="24.107897%"></stop>
            <stop stop-color="#FFFFFF" stop-opacity="0" offset="100%"></stop>
        </linearGradient>
    </defs>
    <g id="Screens" stroke="none" stroke-width="1" fill="none" fill-rule="evenodd">
        <g id="1.2.2-Connection-Failed" transform="translate(-226.000000, -273.000000)">
            <g id="Window" transform="translate(80.000000, 69.000000)">
                <g id="Connected" transform="translate(0.000000, 22.000000)">
                    <g id="Connection-graphic" transform="translate(120.000000, 168.000000)">
                        <g id="connection-failed">
                            <rect id="Area" x="0" y="0" width="400" height="112"></rect>
                            <path d="M286,71 L316.542073,75.1326681 C316.843389,75.1734393 317.150034,75.1449713 317.438694,75.0494285 L372,56.9903722" id="Node-path" stroke="url(#linearGradient-1)" stroke-width="4" stroke-linecap="round" stroke-linejoin="round"></path>
                            <path d="M28,56 L83.6184864,43.2818702 C83.8704396,43.2242567 84.1311713,43.2160243 84.3862572,43.2576285 L131.495473,50.9410815" id="Client-path" stroke="url(#linearGradient-2)" stroke-width="4" stroke-linecap="round" stroke-linejoin="round"></path>
                            <polygon id="Path" stroke="#FFFFFF" stroke-width="4" stroke-linecap="round" stroke-linejoin="round" points="200 16 152 96 248 96"></polygon>
                            <path d="M200,40 C204,40 202,73 200,73 C198,73 196,40 200,40 Z" id="Path-2" fill="#FFFFFF"></path>
                            <circle id="Oval" fill="#FFFFFF" cx="200" cy="81" r="3"></circle>
                        </g>
                    </g>
                </g>
            </g>
        </g>
    </g>
</svg>