<svg width="517" height="494" viewBox="0 0 517 494" fill="none" xmlns="http://www.w3.org/2000/svg">
  <rect width="517" height="443" rx="20" fill="#F6F6FA"/>
  <g filter="url(#filter0_d_10011_31842)">
    <path d="M144 240.279C144 234.756 148.477 230.279 154 230.279H373.352C378.875 230.279 383.352 234.756 383.352 240.279V397.447C383.352 402.97 378.875 407.447 373.352 407.447H154C148.477 407.447 144 402.97 144 397.447V240.279Z" fill="url(#paint0_linear_10011_31842)"/>
    <g filter="url(#filter1_d_10011_31842)">
      <g filter="url(#filter2_d_10011_31842)">
        <path d="M133.09 345.475C133.09 349.893 136.672 353.475 141.09 353.475H221.301C225.719 353.475 229.301 349.893 229.301 345.475V305.156C229.301 300.738 225.719 297.156 221.301 297.156H141.09C136.672 297.156 133.09 300.738 133.09 305.156V345.475Z" fill="#A7A7CE"/>
        <path d="M133.09 305.156C133.09 300.738 136.672 297.156 141.09 297.156H221.301C225.719 297.156 229.301 300.738 229.301 305.156V345.474C229.301 349.893 225.719 353.474 221.301 353.474H141.09C136.672 353.474 133.09 349.893 133.09 345.474V305.156Z" fill="url(#paint1_linear_10011_31842)"/>
      </g>
      <g filter="url(#filter3_d_10011_31842)">
        <path d="M202.315 344.088C212.683 344.088 221.087 335.684 221.087 325.316C221.087 314.948 212.683 306.543 202.315 306.543C191.947 306.543 183.542 314.948 183.542 325.316C183.542 335.684 191.947 344.088 202.315 344.088Z" fill="url(#paint2_linear_10011_31842)"/>
      </g>
    </g>
  </g>
  <g filter="url(#filter4_d_10011_31842)">
    <path d="M194 123C194 117.477 198.477 113 204 113H322C327.523 113 332 117.477 332 123V240C332 245.523 327.523 250 322 250H204C198.477 250 194 245.523 194 240V123Z" fill="url(#paint3_linear_10011_31842)"/>
    <path d="M230.143 151.882C230.143 150.225 231.486 148.882 233.143 148.882H254.786V173.346H230.143V151.882ZM292.857 148.882C294.514 148.882 295.857 150.225 295.857 151.882V173.346H271.214V148.882H292.857ZM271.214 193.733H279.429V185.578H271.214V177.423H279.429V185.578H287.643V177.423H295.857V185.578H287.643V193.733H295.857V205.965H287.643V214.12H279.429V205.965H267.107V214.12H258.893V197.81H271.214V193.733ZM279.429 193.733V205.965H287.643V193.733H279.429ZM233.143 214.12C231.486 214.12 230.143 212.777 230.143 211.12V189.656H254.786V214.12H233.143ZM238.357 157.037V165.191H246.571V157.037H238.357ZM279.429 157.037V165.191H287.643V157.037H279.429ZM238.357 197.81V205.965H246.571V197.81H238.357ZM230.143 177.423H238.357V185.578H230.143V177.423ZM250.679 177.423H267.107V193.733H258.893V185.578H250.679V177.423ZM258.893 157.037H267.107V173.346H258.893V157.037ZM222.412 139.222C221.308 139.222 220.412 140.117 220.412 141.222V153.688C220.412 155.537 218.913 157.037 217.063 157.037C215.214 157.037 213.714 155.537 213.714 153.688V140.727C213.714 138.564 214.58 136.49 216.12 134.961C217.661 133.431 219.75 132.572 221.929 132.572H235.033C236.869 132.572 238.357 134.061 238.357 135.897C238.357 137.733 236.869 139.222 235.033 139.222H222.412ZM304.071 132.572C306.25 132.572 308.339 133.431 309.88 134.961C311.42 136.49 312.286 138.564 312.286 140.727V153.688C312.286 155.537 310.786 157.037 308.937 157.037C307.087 157.037 305.588 155.537 305.588 153.688V141.222C305.588 140.117 304.693 139.222 303.588 139.222H290.968C289.131 139.222 287.643 137.733 287.643 135.897C287.643 134.061 289.131 132.572 290.968 132.572H304.071ZM217.063 205.965C218.913 205.965 220.412 207.464 220.412 209.314V221.78C220.412 222.885 221.308 223.78 222.412 223.78H235.033C236.869 223.78 238.357 225.269 238.357 227.105C238.357 228.941 236.869 230.429 235.033 230.429H221.929C219.75 230.429 217.661 229.57 216.12 228.041C214.58 226.512 213.714 224.437 213.714 222.275V209.314C213.714 207.464 215.214 205.965 217.063 205.965ZM303.588 223.78C304.693 223.78 305.588 222.885 305.588 221.78V209.314C305.588 207.464 307.087 205.965 308.937 205.965C310.786 205.965 312.286 207.464 312.286 209.314V222.275C312.286 224.437 311.42 226.512 309.88 228.041C308.339 229.57 306.25 230.429 304.071 230.429H290.968C289.131 230.429 287.643 228.941 287.643 227.105C287.643 225.269 289.131 223.78 290.968 223.78H303.588Z" fill="#63B64E"/>
  </g>
  <g filter="url(#filter5_i_10011_31842)">
    <path d="M219.041 29.4313C220.188 30.5819 220.967 32.0464 221.282 33.6398C221.596 35.2332 221.432 36.884 220.809 38.3839C220.186 39.8838 219.132 41.1655 217.781 42.0672C216.43 42.9688 214.843 43.45 213.219 43.45C211.595 43.45 210.007 42.9688 208.656 42.0672C207.305 41.1655 206.252 39.8838 205.629 38.3839C205.006 36.884 204.841 35.2332 205.156 33.6398C205.47 32.0464 206.25 30.5819 207.396 29.4313C208.157 28.661 209.064 28.0496 210.064 27.6322C211.063 27.2149 212.136 27 213.219 27C214.302 27 215.374 27.2149 216.374 27.6322C217.373 28.0496 218.28 28.661 219.041 29.4313Z" fill="#C68ECF"/>
  </g>
  <g filter="url(#filter6_i_10011_31842)">
    <path d="M366.688 121.33C367.316 121.96 367.743 122.761 367.915 123.633C368.087 124.504 367.997 125.408 367.656 126.228C367.315 127.049 366.738 127.75 365.998 128.243C365.259 128.737 364.389 129 363.5 129C362.611 129 361.741 128.737 361.002 128.243C360.262 127.75 359.685 127.049 359.344 126.228C359.003 125.408 358.913 124.504 359.085 123.633C359.257 122.761 359.684 121.96 360.312 121.33C360.729 120.909 361.225 120.574 361.773 120.346C362.32 120.118 362.907 120 363.5 120C364.093 120 364.68 120.118 365.227 120.346C365.775 120.574 366.271 120.909 366.688 121.33Z" fill="#C68ECF"/>
  </g>
  <g filter="url(#filter7_i_10011_31842)">
    <path d="M190.834 94.1824C191.392 94.742 191.771 95.4542 191.924 96.2291C192.077 97.004 191.997 97.8068 191.694 98.5362C191.391 99.2657 190.878 99.889 190.221 100.327C189.563 100.766 188.79 101 188 101C187.21 101 186.437 100.766 185.779 100.327C185.122 99.889 184.609 99.2657 184.306 98.5362C184.003 97.8068 183.923 97.004 184.076 96.2291C184.229 95.4542 184.608 94.742 185.166 94.1824C185.537 93.8078 185.978 93.5104 186.464 93.3075C186.951 93.1045 187.473 93 188 93C188.527 93 189.049 93.1045 189.536 93.3075C190.022 93.5104 190.463 93.8078 190.834 94.1824Z" fill="#D61F85"/>
  </g>
  <g filter="url(#filter8_i_10011_31842)">
    <path d="M390.542 207.478C391.24 208.177 391.714 209.068 391.905 210.036C392.097 211.005 391.997 212.009 391.618 212.92C391.239 213.832 390.598 214.611 389.776 215.159C388.954 215.707 387.988 216 387 216C386.012 216 385.046 215.707 384.224 215.159C383.402 214.611 382.761 213.832 382.382 212.92C382.003 212.009 381.903 211.005 382.095 210.036C382.286 209.068 382.76 208.177 383.458 207.478C383.921 207.01 384.473 206.638 385.081 206.384C385.689 206.131 386.341 206 387 206C387.659 206 388.311 206.131 388.919 206.384C389.527 206.638 390.079 207.01 390.542 207.478Z" fill="#63B64E"/>
  </g>
  <g filter="url(#filter9_i_10011_31842)">
    <path d="M136.542 220.478C137.24 221.177 137.714 222.068 137.905 223.036C138.097 224.005 137.997 225.009 137.618 225.92C137.239 226.832 136.598 227.611 135.776 228.159C134.954 228.707 133.988 229 133 229C132.012 229 131.046 228.707 130.224 228.159C129.402 227.611 128.761 226.832 128.382 225.92C128.003 225.009 127.903 224.005 128.095 223.036C128.286 222.068 128.76 221.177 129.458 220.478C129.921 220.01 130.473 219.638 131.081 219.384C131.689 219.131 132.341 219 133 219C133.659 219 134.311 219.131 134.919 219.384C135.527 219.638 136.079 220.01 136.542 220.478Z" fill="#5BB1EF"/>
  </g>
  <g filter="url(#filter10_i_10011_31842)">
    <path d="M417 159.5C417 161.972 416.267 164.389 414.893 166.445C413.52 168.5 411.568 170.102 409.284 171.048C406.999 171.995 404.486 172.242 402.061 171.76C399.637 171.277 397.409 170.087 395.661 168.339C393.913 166.591 392.722 164.363 392.24 161.939C391.758 159.514 392.005 157.001 392.952 154.716C393.898 152.432 395.5 150.48 397.555 149.107C399.611 147.733 402.028 147 404.5 147C407.815 147 410.995 148.317 413.339 150.661C415.683 153.005 417 156.185 417 159.5Z" fill="#5BB1EF"/>
  </g>
  <g filter="url(#filter11_i_10011_31842)">
    <path d="M158.441 152.221C158.441 153.649 158.018 155.045 157.225 156.232C156.431 157.42 155.303 158.345 153.984 158.892C152.665 159.438 151.213 159.581 149.812 159.303C148.411 159.024 147.125 158.336 146.115 157.327C145.105 156.317 144.417 155.03 144.139 153.629C143.86 152.229 144.003 150.777 144.55 149.457C145.096 148.138 146.022 147.01 147.209 146.217C148.397 145.423 149.793 145 151.221 145C153.136 145 154.972 145.761 156.327 147.115C157.681 148.469 158.441 150.306 158.441 152.221Z" fill="#63B64E"/>
  </g>
  <g filter="url(#filter12_i_10011_31842)">
    <path d="M344.895 37.5791C346.111 38.7997 346.938 40.3532 347.271 42.0434C347.605 43.7337 347.43 45.4849 346.77 47.0759C346.109 48.667 344.991 50.0266 343.558 50.9831C342.125 51.9396 340.441 52.45 338.718 52.45C336.995 52.45 335.311 51.9396 333.878 50.9831C332.445 50.0266 331.328 48.667 330.667 47.0759C330.006 45.4849 329.831 43.7337 330.165 42.0434C330.499 40.3532 331.326 38.7997 332.541 37.5791C333.349 36.762 334.311 36.1134 335.371 35.6706C336.432 35.2279 337.569 35 338.718 35C339.867 35 341.005 35.2279 342.065 35.6706C343.125 36.1134 344.087 36.762 344.895 37.5791Z" fill="#D61F85"/>
  </g>
  <defs>
    <filter id="filter0_d_10011_31842" x="116.09" y="223.279" width="284.262" height="211.168" filterUnits="userSpaceOnUse" color-interpolation-filters="sRGB">
      <feFlood flood-opacity="0" result="BackgroundImageFix"/>
      <feColorMatrix in="SourceAlpha" type="matrix" values="0 0 0 0 0 0 0 0 0 0 0 0 0 0 0 0 0 0 127 0" result="hardAlpha"/>
      <feOffset dy="10"/>
      <feGaussianBlur stdDeviation="8.5"/>
      <feComposite in2="hardAlpha" operator="out"/>
      <feColorMatrix type="matrix" values="0 0 0 0 0.256076 0 0 0 0 0.256076 0 0 0 0 0.491667 0 0 0 0.1 0"/>
      <feBlend mode="normal" in2="BackgroundImageFix" result="effect1_dropShadow_10011_31842"/>
      <feBlend mode="normal" in="SourceGraphic" in2="effect1_dropShadow_10011_31842" result="shape"/>
    </filter>
    <filter id="filter1_d_10011_31842" x="53.0903" y="277.156" width="256.21" height="216.318" filterUnits="userSpaceOnUse" color-interpolation-filters="sRGB">
      <feFlood flood-opacity="0" result="BackgroundImageFix"/>
      <feColorMatrix in="SourceAlpha" type="matrix" values="0 0 0 0 0 0 0 0 0 0 0 0 0 0 0 0 0 0 127 0" result="hardAlpha"/>
      <feOffset dy="60"/>
      <feGaussianBlur stdDeviation="40"/>
      <feComposite in2="hardAlpha" operator="out"/>
      <feColorMatrix type="matrix" values="0 0 0 0 0.823529 0 0 0 0 0.45098 0 0 0 0 0.733333 0 0 0 0.2 0"/>
      <feBlend mode="normal" in2="BackgroundImageFix" result="effect1_dropShadow_10011_31842"/>
      <feBlend mode="normal" in="SourceGraphic" in2="effect1_dropShadow_10011_31842" result="shape"/>
    </filter>
    <filter id="filter2_d_10011_31842" x="129.09" y="297.156" width="104.21" height="64.3184" filterUnits="userSpaceOnUse" color-interpolation-filters="sRGB">
      <feFlood flood-opacity="0" result="BackgroundImageFix"/>
      <feColorMatrix in="SourceAlpha" type="matrix" values="0 0 0 0 0 0 0 0 0 0 0 0 0 0 0 0 0 0 127 0" result="hardAlpha"/>
      <feOffset dy="4"/>
      <feGaussianBlur stdDeviation="2"/>
      <feComposite in2="hardAlpha" operator="out"/>
      <feColorMatrix type="matrix" values="0 0 0 0 0 0 0 0 0 0 0 0 0 0 0 0 0 0 0.16 0"/>
      <feBlend mode="normal" in2="BackgroundImageFix" result="effect1_dropShadow_10011_31842"/>
      <feBlend mode="normal" in="SourceGraphic" in2="effect1_dropShadow_10011_31842" result="shape"/>
    </filter>
    <filter id="filter3_d_10011_31842" x="179.542" y="306.543" width="45.5454" height="45.5449" filterUnits="userSpaceOnUse" color-interpolation-filters="sRGB">
      <feFlood flood-opacity="0" result="BackgroundImageFix"/>
      <feColorMatrix in="SourceAlpha" type="matrix" values="0 0 0 0 0 0 0 0 0 0 0 0 0 0 0 0 0 0 127 0" result="hardAlpha"/>
      <feOffset dy="4"/>
      <feGaussianBlur stdDeviation="2"/>
      <feComposite in2="hardAlpha" operator="out"/>
      <feColorMatrix type="matrix" values="0 0 0 0 0 0 0 0 0 0 0 0 0 0 0 0 0 0 0.06 0"/>
      <feBlend mode="normal" in2="BackgroundImageFix" result="effect1_dropShadow_10011_31842"/>
      <feBlend mode="normal" in="SourceGraphic" in2="effect1_dropShadow_10011_31842" result="shape"/>
    </filter>
    <filter id="filter4_d_10011_31842" x="174" y="103" width="178" height="177" filterUnits="userSpaceOnUse" color-interpolation-filters="sRGB">
      <feFlood flood-opacity="0" result="BackgroundImageFix"/>
      <feColorMatrix in="SourceAlpha" type="matrix" values="0 0 0 0 0 0 0 0 0 0 0 0 0 0 0 0 0 0 127 0" result="hardAlpha"/>
      <feOffset dy="10"/>
      <feGaussianBlur stdDeviation="10"/>
      <feComposite in2="hardAlpha" operator="out"/>
      <feColorMatrix type="matrix" values="0 0 0 0 0.256076 0 0 0 0 0.256076 0 0 0 0 0.491667 0 0 0 0.15 0"/>
      <feBlend mode="normal" in2="BackgroundImageFix" result="effect1_dropShadow_10011_31842"/>
      <feBlend mode="normal" in="SourceGraphic" in2="effect1_dropShadow_10011_31842" result="shape"/>
    </filter>
    <filter id="filter5_i_10011_31842" x="205" y="27" width="16.4375" height="20.4492" filterUnits="userSpaceOnUse" color-interpolation-filters="sRGB">
      <feFlood flood-opacity="0" result="BackgroundImageFix"/>
      <feBlend mode="normal" in="SourceGraphic" in2="BackgroundImageFix" result="shape"/>
      <feColorMatrix in="SourceAlpha" type="matrix" values="0 0 0 0 0 0 0 0 0 0 0 0 0 0 0 0 0 0 127 0" result="hardAlpha"/>
      <feOffset dy="4"/>
      <feGaussianBlur stdDeviation="5.5"/>
      <feComposite in2="hardAlpha" operator="arithmetic" k2="-1" k3="1"/>
      <feColorMatrix type="matrix" values="0 0 0 0 1 0 0 0 0 1 0 0 0 0 1 0 0 0 0.12 0"/>
      <feBlend mode="normal" in2="shape" result="effect1_innerShadow_10011_31842"/>
    </filter>
    <filter id="filter6_i_10011_31842" x="359" y="120" width="9" height="13" filterUnits="userSpaceOnUse" color-interpolation-filters="sRGB">
      <feFlood flood-opacity="0" result="BackgroundImageFix"/>
      <feBlend mode="normal" in="SourceGraphic" in2="BackgroundImageFix" result="shape"/>
      <feColorMatrix in="SourceAlpha" type="matrix" values="0 0 0 0 0 0 0 0 0 0 0 0 0 0 0 0 0 0 127 0" result="hardAlpha"/>
      <feOffset dy="4"/>
      <feGaussianBlur stdDeviation="5.5"/>
      <feComposite in2="hardAlpha" operator="arithmetic" k2="-1" k3="1"/>
      <feColorMatrix type="matrix" values="0 0 0 0 1 0 0 0 0 1 0 0 0 0 1 0 0 0 0.12 0"/>
      <feBlend mode="normal" in2="shape" result="effect1_innerShadow_10011_31842"/>
    </filter>
    <filter id="filter7_i_10011_31842" x="184" y="93" width="8" height="12" filterUnits="userSpaceOnUse" color-interpolation-filters="sRGB">
      <feFlood flood-opacity="0" result="BackgroundImageFix"/>
      <feBlend mode="normal" in="SourceGraphic" in2="BackgroundImageFix" result="shape"/>
      <feColorMatrix in="SourceAlpha" type="matrix" values="0 0 0 0 0 0 0 0 0 0 0 0 0 0 0 0 0 0 127 0" result="hardAlpha"/>
      <feOffset dy="4"/>
      <feGaussianBlur stdDeviation="5.5"/>
      <feComposite in2="hardAlpha" operator="arithmetic" k2="-1" k3="1"/>
      <feColorMatrix type="matrix" values="0 0 0 0 1 0 0 0 0 1 0 0 0 0 1 0 0 0 0.12 0"/>
      <feBlend mode="normal" in2="shape" result="effect1_innerShadow_10011_31842"/>
    </filter>
    <filter id="filter8_i_10011_31842" x="382" y="206" width="10" height="14" filterUnits="userSpaceOnUse" color-interpolation-filters="sRGB">
      <feFlood flood-opacity="0" result="BackgroundImageFix"/>
      <feBlend mode="normal" in="SourceGraphic" in2="BackgroundImageFix" result="shape"/>
      <feColorMatrix in="SourceAlpha" type="matrix" values="0 0 0 0 0 0 0 0 0 0 0 0 0 0 0 0 0 0 127 0" result="hardAlpha"/>
      <feOffset dy="4"/>
      <feGaussianBlur stdDeviation="5.5"/>
      <feComposite in2="hardAlpha" operator="arithmetic" k2="-1" k3="1"/>
      <feColorMatrix type="matrix" values="0 0 0 0 1 0 0 0 0 1 0 0 0 0 1 0 0 0 0.12 0"/>
      <feBlend mode="normal" in2="shape" result="effect1_innerShadow_10011_31842"/>
    </filter>
    <filter id="filter9_i_10011_31842" x="128" y="219" width="10" height="14" filterUnits="userSpaceOnUse" color-interpolation-filters="sRGB">
      <feFlood flood-opacity="0" result="BackgroundImageFix"/>
      <feBlend mode="normal" in="SourceGraphic" in2="BackgroundImageFix" result="shape"/>
      <feColorMatrix in="SourceAlpha" type="matrix" values="0 0 0 0 0 0 0 0 0 0 0 0 0 0 0 0 0 0 127 0" result="hardAlpha"/>
      <feOffset dy="4"/>
      <feGaussianBlur stdDeviation="5.5"/>
      <feComposite in2="hardAlpha" operator="arithmetic" k2="-1" k3="1"/>
      <feColorMatrix type="matrix" values="0 0 0 0 1 0 0 0 0 1 0 0 0 0 1 0 0 0 0.12 0"/>
      <feBlend mode="normal" in2="shape" result="effect1_innerShadow_10011_31842"/>
    </filter>
    <filter id="filter10_i_10011_31842" x="392" y="147" width="25" height="29" filterUnits="userSpaceOnUse" color-interpolation-filters="sRGB">
      <feFlood flood-opacity="0" result="BackgroundImageFix"/>
      <feBlend mode="normal" in="SourceGraphic" in2="BackgroundImageFix" result="shape"/>
      <feColorMatrix in="SourceAlpha" type="matrix" values="0 0 0 0 0 0 0 0 0 0 0 0 0 0 0 0 0 0 127 0" result="hardAlpha"/>
      <feOffset dy="4"/>
      <feGaussianBlur stdDeviation="5.5"/>
      <feComposite in2="hardAlpha" operator="arithmetic" k2="-1" k3="1"/>
      <feColorMatrix type="matrix" values="0 0 0 0 1 0 0 0 0 1 0 0 0 0 1 0 0 0 0.12 0"/>
      <feBlend mode="normal" in2="shape" result="effect1_innerShadow_10011_31842"/>
    </filter>
    <filter id="filter11_i_10011_31842" x="144" y="145" width="14.4414" height="18.4414" filterUnits="userSpaceOnUse" color-interpolation-filters="sRGB">
      <feFlood flood-opacity="0" result="BackgroundImageFix"/>
      <feBlend mode="normal" in="SourceGraphic" in2="BackgroundImageFix" result="shape"/>
      <feColorMatrix in="SourceAlpha" type="matrix" values="0 0 0 0 0 0 0 0 0 0 0 0 0 0 0 0 0 0 127 0" result="hardAlpha"/>
      <feOffset dy="4"/>
      <feGaussianBlur stdDeviation="5.5"/>
      <feComposite in2="hardAlpha" operator="arithmetic" k2="-1" k3="1"/>
      <feColorMatrix type="matrix" values="0 0 0 0 1 0 0 0 0 1 0 0 0 0 1 0 0 0 0.12 0"/>
      <feBlend mode="normal" in2="shape" result="effect1_innerShadow_10011_31842"/>
    </filter>
    <filter id="filter12_i_10011_31842" x="330" y="35" width="17.4365" height="21.4492" filterUnits="userSpaceOnUse" color-interpolation-filters="sRGB">
      <feFlood flood-opacity="0" result="BackgroundImageFix"/>
      <feBlend mode="normal" in="SourceGraphic" in2="BackgroundImageFix" result="shape"/>
      <feColorMatrix in="SourceAlpha" type="matrix" values="0 0 0 0 0 0 0 0 0 0 0 0 0 0 0 0 0 0 127 0" result="hardAlpha"/>
      <feOffset dy="4"/>
      <feGaussianBlur stdDeviation="5.5"/>
      <feComposite in2="hardAlpha" operator="arithmetic" k2="-1" k3="1"/>
      <feColorMatrix type="matrix" values="0 0 0 0 1 0 0 0 0 1 0 0 0 0 1 0 0 0 0.12 0"/>
      <feBlend mode="normal" in2="shape" result="effect1_innerShadow_10011_31842"/>
    </filter>
    <linearGradient id="paint0_linear_10011_31842" x1="263.676" y1="230.279" x2="263.676" y2="407.447" gradientUnits="userSpaceOnUse">
      <stop stop-color="#E1E1FA"/>
      <stop offset="1" stop-color="#B4B4E2"/>
    </linearGradient>
    <linearGradient id="paint1_linear_10011_31842" x1="181.195" y1="297.156" x2="181.195" y2="353.474" gradientUnits="userSpaceOnUse">
      <stop stop-color="#D1D1EC"/>
      <stop offset="1" stop-color="#A7A7DB"/>
    </linearGradient>
    <linearGradient id="paint2_linear_10011_31842" x1="202.315" y1="306.543" x2="202.315" y2="344.088" gradientUnits="userSpaceOnUse">
      <stop offset="0.114583" stop-color="#554B7D"/>
      <stop offset="1" stop-color="#6A6493"/>
    </linearGradient>
    <linearGradient id="paint3_linear_10011_31842" x1="263" y1="113" x2="263" y2="250" gradientUnits="userSpaceOnUse">
      <stop stop-color="#E9E9FF"/>
      <stop offset="1" stop-color="#B8B8E4"/>
    </linearGradient>
  </defs>
</svg>
