<svg width="186" height="160" viewBox="0 0 186 160" fill="none" xmlns="http://www.w3.org/2000/svg">
<g opacity="0.4">
<path opacity="0.4" d="M137.195 28.2342L90.9852 11.207L45.2325 28.0059C39.3833 30.8353 34.2701 32.5228 34.2701 38.1562V65.9047C34.166 85.3767 39.3776 104.508 49.3434 121.237C59.1504 137.934 73.8446 151.22 91.4419 159.301C110.144 153.071 124.101 136.462 132.64 122.239C142.597 105.516 147.808 86.3953 147.713 66.9325V41.988C147.713 34.0326 143.602 30.1501 137.195 28.2342Z" fill="#B7B6EB"/>
<path d="M128.059 39.5155L90.9851 25.8633L54.2789 39.3252C49.5843 41.5963 45.4734 42.9539 45.4734 47.4328V69.7382C45.3907 85.3666 49.5759 100.721 57.5777 114.146C65.4331 127.568 77.2239 138.251 91.353 144.749C106.35 139.75 117.554 126.415 124.405 115.021C132.397 101.593 136.577 86.2401 136.497 70.6136V50.554C136.497 44.172 133.198 41.0507 128.059 39.5155Z" fill="#B7B6EB"/>
</g>
<path opacity="0.3" d="M159.792 141.351C159.792 141.351 159.995 141.047 160.427 140.476L160.795 140.006C160.922 139.816 161.023 139.6 161.163 139.372C161.488 138.853 161.764 138.305 161.987 137.735C162.114 137.405 162.267 137.075 162.393 136.707C162.52 136.339 162.609 135.933 162.723 135.527C162.844 135.112 162.933 134.687 162.99 134.258C163.086 133.776 163.153 133.289 163.193 132.799C163.386 130.465 163.279 128.116 162.876 125.808C161.671 119.461 159.497 113.338 156.43 107.652C152.486 100.094 147.865 92.9087 142.626 86.1839C136.318 78.0038 129.441 70.2789 122.046 63.0664C113.592 54.7669 104.566 47.0717 95.0332 40.0378C89.958 36.3203 84.6672 32.7296 79.0591 29.3419C73.347 25.8581 67.4133 22.7513 61.296 20.0416C55.0012 17.1571 48.3682 15.0769 41.5535 13.8499C38.0763 13.2325 34.5255 13.1469 31.0225 13.5962C29.2714 13.852 27.5637 14.3473 25.9474 15.068C24.3216 15.7979 22.8679 16.862 21.6809 18.1912C20.4938 19.5204 19.6001 21.0847 19.0578 22.7822C18.5287 24.4727 18.23 26.2267 18.1697 27.997C18.1247 31.5315 18.6167 35.0523 19.6288 38.4391C21.6201 45.0717 24.4378 51.4275 28.0155 57.3569C31.4127 63.1157 35.1761 68.6506 39.2824 73.9273C43.2918 79.1167 47.4661 83.9889 51.7293 88.5819C59.8299 97.2476 68.5299 105.333 77.7649 112.778C85.7949 119.289 94.2746 125.225 103.141 130.541C110.398 134.979 118.042 138.75 125.979 141.808C131.959 144.2 138.271 145.659 144.694 146.134C147.035 146.276 149.385 146.114 151.685 145.652C152.166 145.564 152.64 145.445 153.106 145.297C153.541 145.191 153.965 145.046 154.375 144.866L155.517 144.409C155.859 144.244 156.176 144.054 156.481 143.889C157.026 143.609 157.541 143.274 158.016 142.886C158.232 142.734 158.435 142.594 158.6 142.455L159.031 142.036C159.551 141.541 159.83 141.3 159.83 141.3L159.069 142.062L158.638 142.493C158.473 142.633 158.27 142.772 158.054 142.937C157.554 143.374 157.01 143.756 156.43 144.079L155.466 144.612L154.324 145.081C153.914 145.26 153.489 145.405 153.055 145.513C152.584 145.664 152.105 145.791 151.621 145.893C149.314 146.363 146.956 146.538 144.605 146.414C138.159 145.961 131.821 144.518 125.814 142.138C117.835 139.098 110.148 135.34 102.849 130.909C93.9852 125.589 85.5058 119.653 77.4731 113.146C68.2261 105.692 59.5174 97.5936 51.4121 88.9118C47.1489 84.306 42.9619 79.4339 38.9398 74.2318C34.8151 68.9468 31.0388 63.3989 27.6349 57.6233C24.0377 51.6571 21.203 45.2632 19.1974 38.5914C18.1771 35.1673 17.685 31.6075 17.7383 28.035C17.7977 26.2221 18.1007 24.4255 18.6391 22.6934C19.2435 20.9614 20.1642 19.3567 21.3543 17.9608C22.597 16.5946 24.0864 15.4754 25.7444 14.6619C27.3991 13.9296 29.1444 13.4218 30.9337 13.1521C34.4793 12.7002 38.073 12.79 41.5916 13.4185C48.4395 14.6556 55.1059 16.7442 61.4355 19.6356C67.5519 22.3619 73.4853 25.4812 79.1987 28.9739C84.8194 32.3743 90.1483 35.9777 95.1981 39.6953C104.765 46.7765 113.821 54.5226 122.3 62.8761C129.69 70.1164 136.562 77.8666 142.867 86.0697C148.11 92.8231 152.722 100.043 156.646 107.639C159.684 113.337 161.824 119.47 162.99 125.821C163.386 128.142 163.484 130.504 163.282 132.85C163.282 133.37 163.129 133.852 163.066 134.309C163.002 134.759 162.909 135.204 162.787 135.641C162.66 136.047 162.546 136.453 162.444 136.821C162.343 137.189 162.152 137.532 162.026 137.849C161.792 138.423 161.507 138.975 161.175 139.499C161.036 139.727 160.922 139.943 160.807 140.12L160.427 140.59L159.792 141.351Z" fill="#5BB1EF"/>
<path opacity="0.3" d="M185.333 79.685C185.333 79.685 185.333 79.317 185.231 78.6065C185.231 78.4289 185.231 78.2259 185.231 78.0102C185.231 77.7945 185.13 77.5534 185.079 77.2996C184.974 76.6939 184.812 76.0992 184.597 75.5233C184.483 75.2061 184.368 74.8509 184.216 74.4829L183.683 73.3918C183.488 72.984 183.259 72.5935 182.998 72.2245C182.756 71.7839 182.485 71.36 182.186 70.9557C180.783 69.0564 179.137 67.35 177.289 65.8805C172.179 61.9588 166.496 58.8476 160.439 56.6564C152.465 53.6409 144.235 51.352 135.85 49.8176C125.678 47.9525 115.388 46.8036 105.056 46.3791C93.2106 45.8004 81.339 46.0591 69.5299 47.1531C63.2875 47.7494 56.9308 48.6122 50.498 49.8176C43.9206 51.0162 37.4277 52.6394 31.0601 54.677C24.449 56.7234 18.1194 59.5877 12.2185 63.2033C9.20565 65.0514 6.49295 67.3491 4.17433 70.0168C3.03687 71.3798 2.08935 72.8908 1.35761 74.5083C0.63159 76.1353 0.256364 77.897 0.256364 79.6786C0.256364 81.4603 0.63159 83.2219 1.35761 84.849C2.08935 86.4665 3.03687 87.9774 4.17433 89.3405C6.49217 92.0076 9.19993 94.309 12.2058 96.1666C18.1074 99.8024 24.4416 102.684 31.0601 104.744C37.4288 106.781 43.9214 108.408 50.498 109.616C56.9435 110.885 63.3001 111.671 69.5299 112.268C81.339 113.361 93.2106 113.62 105.056 113.042C115.375 112.584 125.648 111.397 135.799 109.489C144.187 107.952 152.42 105.668 160.401 102.663C166.464 100.435 172.148 97.2851 177.251 93.3245C179.099 91.855 180.745 90.1486 182.148 88.2493C182.446 87.8419 182.721 87.4183 182.973 86.9805C183.225 86.6084 183.45 86.2183 183.645 85.8132L184.191 84.7221C184.33 84.3541 184.445 84.0116 184.559 83.6817C184.774 83.1058 184.936 82.5111 185.041 81.9054C185.041 81.6516 185.155 81.4105 185.193 81.1948C185.231 80.9791 185.193 80.7761 185.193 80.5985C185.257 79.888 185.295 79.52 185.295 79.52C185.295 79.52 185.295 79.888 185.295 80.5985V81.2075C185.295 81.4232 185.206 81.6643 185.155 81.918C185.061 82.5291 184.904 83.1287 184.686 83.707C184.571 84.0369 184.47 84.3922 184.318 84.7601C184.165 85.1281 183.975 85.4834 183.785 85.864C183.592 86.2746 183.368 86.6692 183.112 87.044C182.865 87.4815 182.594 87.9051 182.3 88.3128C180.893 90.2081 179.247 91.9139 177.403 93.3879C172.295 97.3454 166.608 100.491 160.541 102.714C152.561 105.752 144.322 108.062 135.926 109.616C125.759 111.542 115.469 112.746 105.132 113.219C93.2876 113.809 81.4161 113.563 69.606 112.483C63.3636 111.9 56.9815 111.037 50.5741 109.832C43.9785 108.635 37.4683 107.007 31.0855 104.959C24.4334 102.909 18.065 100.032 12.1297 96.395C9.08744 94.5209 6.34913 92.1933 4.00939 89.4927C2.8483 88.0974 1.87961 86.5526 1.12923 84.8997C0.423548 83.205 0.0405718 81.3934 0 79.5581C0.0401472 77.7255 0.42764 75.9172 1.14192 74.2291C1.88719 72.5735 2.85629 71.0281 4.02208 69.6361C6.32847 66.9997 9.0138 64.7206 11.9901 62.8734C17.9223 59.2393 24.2862 56.3621 30.9332 54.3091C37.3166 52.26 43.8266 50.6282 50.4219 49.4242C56.88 48.1554 63.2621 47.3688 69.4538 46.7724C81.2639 45.6931 93.1354 45.4472 104.98 46.0366C115.313 46.5076 125.6 47.716 135.761 49.6526C144.196 51.1865 152.474 53.4884 160.49 56.5295C166.556 58.7482 172.244 61.8895 177.352 65.8424C179.196 67.3165 180.842 69.0223 182.25 70.9176C182.543 71.3253 182.814 71.7489 183.062 72.1864C183.312 72.5645 183.536 72.9586 183.734 73.3664L184.267 74.4829C184.419 74.8382 184.521 75.1934 184.635 75.5233C184.851 76.1023 185.009 76.7017 185.104 77.3123C185.104 77.5661 185.206 77.8071 185.244 78.0355V78.6319C185.32 79.3678 185.333 79.685 185.333 79.685Z" fill="#5BB1EF"/>
<path opacity="0.3" d="M151.481 2.93626L150.58 2.35262L150.086 1.97198C149.895 1.85779 149.667 1.76898 149.438 1.65478C148.894 1.36812 148.325 1.13035 147.738 0.944258L146.685 0.601683L145.48 0.360614C145.041 0.266125 144.596 0.206728 144.148 0.182983C143.663 0.122607 143.176 0.0887197 142.688 0.0814775C140.342 0.0508169 138.001 0.319431 135.723 0.880819C129.497 2.50113 123.557 5.06869 118.112 8.49358C110.845 12.9408 103.995 18.0368 97.6463 23.7191C89.9079 30.614 82.6701 38.051 75.9879 45.9738C68.2703 54.9766 61.2022 64.5166 54.8372 74.5216C51.4875 79.8125 48.2648 85.3698 45.2704 91.1936C42.1704 97.1257 39.4621 103.254 37.1629 109.54C34.7191 116.02 33.0992 122.78 32.3414 129.663C31.965 133.173 32.1233 136.72 32.8109 140.182C33.1926 141.913 33.8027 143.585 34.6253 145.155C35.4697 146.724 36.6328 148.099 38.04 149.191C39.4472 150.284 41.0673 151.07 42.7963 151.499C44.5237 151.913 46.2996 152.088 48.0745 152.02C51.5982 151.827 55.0722 151.1 58.3771 149.863C64.8564 147.413 71.003 144.161 76.6731 140.182C82.1925 136.405 87.4568 132.268 92.4315 127.798C97.3418 123.446 101.909 118.917 106.198 114.374C114.301 105.716 121.78 96.494 128.579 86.7782C134.557 78.3534 139.933 69.5176 144.668 60.3365C148.594 52.7683 151.83 44.8612 154.336 36.7116C156.303 30.5795 157.321 24.1828 157.356 17.7431C157.333 15.3979 157.008 13.0654 156.391 10.8028C156.29 10.308 156.074 9.86388 155.935 9.40712C155.798 8.97206 155.628 8.54793 155.427 8.13832C155.241 7.75768 155.063 7.38974 154.894 7.03447C154.691 6.70459 154.488 6.40007 154.298 6.10825C153.98 5.58218 153.61 5.08915 153.194 4.63645C153.029 4.44613 152.877 4.24312 152.725 4.09087L152.281 3.68485L151.481 2.94895C151.481 2.94895 151.773 3.17734 152.306 3.65948L152.763 4.0528C152.915 4.20506 153.067 4.39538 153.245 4.59839C153.666 5.04858 154.044 5.53707 154.374 6.0575C154.564 6.34932 154.78 6.65383 154.97 6.99641C155.161 7.33898 155.326 7.70693 155.516 8.10026C155.729 8.50595 155.903 8.93075 156.036 9.36905C156.188 9.82582 156.404 10.2699 156.518 10.7647C157.149 13.0385 157.486 15.3837 157.521 17.7431C157.513 24.2018 156.512 30.6209 154.552 36.775C152.069 44.9477 148.846 52.8768 144.922 60.4634C140.222 69.6723 134.871 78.5341 128.909 86.9812C122.119 96.728 114.64 105.976 106.528 114.654C102.239 119.234 97.6463 123.751 92.7487 128.115C87.758 132.59 82.4814 136.735 76.9522 140.524C71.2601 144.533 65.0825 147.802 58.5674 150.256C55.2233 151.516 51.7061 152.256 48.1379 152.451C46.3248 152.514 44.5113 152.335 42.7455 151.918C40.9764 151.431 39.3119 150.622 37.8353 149.533C36.4128 148.369 35.2208 146.948 34.3208 145.346C33.4734 143.746 32.846 142.038 32.4556 140.271C31.7558 136.767 31.5975 133.177 31.9862 129.625C32.7452 122.708 34.3693 115.914 36.8203 109.401C39.1188 103.104 41.8228 96.963 44.9152 91.0159C47.9222 85.1668 51.145 79.5968 54.5073 74.3186C60.8943 64.3047 67.9835 54.7563 75.7215 45.7454C82.4294 37.8648 89.6883 30.4703 97.4433 23.6176C103.81 17.9246 110.686 12.828 117.985 8.39208C123.475 4.94687 129.467 2.37845 135.748 0.779318C138.035 0.218738 140.385 -0.0414419 142.739 0.00535292C143.232 0.0161853 143.723 0.0543078 144.211 0.119545C144.664 0.14826 145.113 0.211886 145.556 0.309861L146.825 0.563621C147.205 0.677812 147.548 0.80469 147.878 0.918881C148.465 1.10887 149.034 1.3509 149.578 1.6421C149.806 1.76898 150.035 1.85779 150.225 1.97198L150.72 2.31456L151.481 2.93626Z" fill="#5BB1EF"/>
<g filter="url(#filter0_d_662_2828)">
<rect x="52.7486" y="58.0723" width="75.3319" height="65.7377" rx="30" fill="url(#paint0_linear_662_2828)"/>
<path d="M118.664 58.0723H113.956L66.8733 58.0723L62.1651 58.0723C59.6677 58.0723 57.2726 59.0617 55.5066 60.8229C53.7407 62.584 52.7486 64.9727 52.7486 67.4634V114.419C52.7486 116.91 53.7407 119.298 55.5066 121.059C57.2726 122.821 59.6677 123.81 62.1651 123.81H118.664C121.161 123.81 123.557 122.821 125.322 121.059C127.088 119.298 128.08 116.91 128.08 114.419V67.4634C128.08 64.9727 127.088 62.584 125.322 60.8229C123.557 59.0617 121.161 58.0723 118.664 58.0723ZM95.1228 94.336V105.028H85.7063V94.336C82.9049 92.7114 80.9981 89.7156 80.9981 86.2456C80.9981 83.7549 81.9902 81.3663 83.7561 79.6051C85.522 77.8439 87.9171 76.8545 90.4145 76.8545C92.912 76.8545 95.3071 77.8439 97.073 79.6051C98.8389 81.3663 99.831 83.7549 99.831 86.2456C99.831 89.7109 97.9242 92.7067 95.1228 94.336Z" fill="url(#paint1_linear_662_2828)"/>
<path fill-rule="evenodd" clip-rule="evenodd" d="M114.161 58.0718V53.3932C114.161 40.4942 103.574 30 90.5615 30C77.5488 30 66.962 40.4942 66.962 53.3932V58.0718H76.4018V53.3932C76.4018 45.6547 82.7548 39.3573 90.5615 39.3573C98.3682 39.3573 104.721 45.6547 104.721 53.3932V58.0718H114.161Z" fill="url(#paint2_linear_662_2828)"/>
</g>
<defs>
<filter id="filter0_d_662_2828" x="32.7486" y="20" width="115.332" height="133.81" filterUnits="userSpaceOnUse" color-interpolation-filters="sRGB">
<feFlood flood-opacity="0" result="BackgroundImageFix"/>
<feColorMatrix in="SourceAlpha" type="matrix" values="0 0 0 0 0 0 0 0 0 0 0 0 0 0 0 0 0 0 127 0" result="hardAlpha"/>
<feOffset dy="10"/>
<feGaussianBlur stdDeviation="10"/>
<feComposite in2="hardAlpha" operator="out"/>
<feColorMatrix type="matrix" values="0 0 0 0 0.133333 0 0 0 0 0.117647 0 0 0 0 0.223529 0 0 0 0.4 0"/>
<feBlend mode="normal" in2="BackgroundImageFix" result="effect1_dropShadow_662_2828"/>
<feBlend mode="normal" in="SourceGraphic" in2="effect1_dropShadow_662_2828" result="shape"/>
</filter>
<linearGradient id="paint0_linear_662_2828" x1="90.4145" y1="58.0723" x2="90.4145" y2="123.81" gradientUnits="userSpaceOnUse">
<stop offset="0.293821" stop-color="#413975"/>
<stop offset="0.77889" stop-color="#2D294D"/>
</linearGradient>
<linearGradient id="paint1_linear_662_2828" x1="90.4145" y1="58.0723" x2="90.4145" y2="123.81" gradientUnits="userSpaceOnUse">
<stop stop-color="#CBCBE4"/>
<stop offset="1" stop-color="#B8B8DD"/>
</linearGradient>
<linearGradient id="paint2_linear_662_2828" x1="90.5615" y1="30" x2="90.5615" y2="58.0718" gradientUnits="userSpaceOnUse">
<stop offset="0.293821" stop-color="#413975"/>
<stop offset="0.77889" stop-color="#2D294D"/>
</linearGradient>
</defs>
</svg>
