<svg width="575" height="333" viewBox="0 0 575 333" fill="none" xmlns="http://www.w3.org/2000/svg">
  <g opacity="0.4">
    <path opacity="0.4" d="M473.97 164.234L427.761 147.207L382.008 164.006C376.159 166.836 371.046 168.523 371.046 174.156V201.905C370.942 221.377 376.153 240.508 386.119 257.237C395.926 273.934 410.62 287.22 428.218 295.301C446.92 289.071 460.876 272.463 469.415 258.239C479.372 241.516 484.584 222.396 484.489 202.933V177.988C484.489 170.033 480.378 166.15 473.97 164.234Z" fill="#B7B6EB"/>
    <path d="M464.835 175.515L427.761 161.863L391.055 175.325C386.36 177.596 382.249 178.954 382.249 183.433V205.738C382.166 221.366 386.352 236.721 394.353 250.146C402.209 263.568 414 274.251 428.129 280.749C443.126 275.75 454.329 262.415 461.181 251.021C469.173 237.593 473.353 222.24 473.272 206.613V186.554C473.272 180.172 469.974 177.05 464.835 175.515Z" fill="#B7B6EB"/>
  </g>
  <path opacity="0.3" d="M496.568 277.351C496.568 277.351 496.771 277.047 497.202 276.476L497.57 276.006C497.697 275.816 497.799 275.6 497.938 275.372C498.264 274.853 498.54 274.305 498.763 273.735C498.89 273.405 499.042 273.075 499.169 272.707C499.296 272.339 499.385 271.933 499.499 271.527C499.619 271.112 499.708 270.687 499.765 270.258C499.861 269.776 499.929 269.289 499.968 268.799C500.161 266.465 500.055 264.116 499.651 261.808C498.446 255.461 496.272 249.338 493.206 243.652C489.261 236.094 484.641 228.909 479.401 222.184C473.093 214.004 466.216 206.279 458.821 199.066C450.368 190.767 441.341 183.072 431.809 176.038C426.733 172.32 421.443 168.73 415.835 165.342C410.122 161.858 404.189 158.751 398.071 156.042C391.777 153.157 385.144 151.077 378.329 149.85C374.852 149.232 371.301 149.147 367.798 149.596C366.047 149.852 364.339 150.347 362.723 151.068C361.097 151.798 359.643 152.862 358.456 154.191C357.269 155.52 356.375 157.085 355.833 158.782C355.304 160.473 355.005 162.227 354.945 163.997C354.9 167.531 355.392 171.052 356.404 174.439C358.396 181.072 361.213 187.428 364.791 193.357C368.188 199.116 371.952 204.651 376.058 209.927C380.067 215.117 384.242 219.989 388.505 224.582C396.605 233.248 405.305 241.333 414.54 248.778C422.57 255.289 431.05 261.225 439.916 266.541C447.173 270.979 454.817 274.75 462.755 277.808C468.734 280.2 475.046 281.659 481.469 282.134C483.811 282.276 486.161 282.114 488.46 281.652C488.941 281.564 489.416 281.445 489.881 281.297C490.316 281.191 490.741 281.046 491.15 280.866L492.292 280.409C492.635 280.244 492.952 280.054 493.256 279.889C493.802 279.609 494.317 279.274 494.792 278.886C495.007 278.734 495.21 278.594 495.375 278.455L495.807 278.036C496.327 277.541 496.606 277.3 496.606 277.3L495.845 278.062L495.413 278.493C495.248 278.633 495.045 278.772 494.83 278.937C494.33 279.374 493.785 279.756 493.206 280.079L492.241 280.612L491.099 281.081C490.689 281.26 490.265 281.405 489.831 281.513C489.359 281.664 488.881 281.791 488.397 281.893C486.089 282.363 483.732 282.538 481.38 282.414C474.935 281.961 468.597 280.518 462.59 278.138C454.61 275.098 446.923 271.34 439.624 266.909C430.761 261.589 422.281 255.653 414.249 249.146C405.001 241.692 396.293 233.594 388.187 224.912C383.924 220.306 379.737 215.434 375.715 210.232C371.591 204.947 367.814 199.399 364.41 193.623C360.813 187.657 357.978 181.263 355.973 174.591C354.952 171.167 354.46 167.608 354.514 164.035C354.573 162.222 354.876 160.425 355.415 158.693C356.019 156.961 356.94 155.357 358.13 153.961C359.372 152.595 360.862 151.475 362.52 150.662C364.175 149.93 365.92 149.422 367.709 149.152C371.255 148.7 374.848 148.79 378.367 149.419C385.215 150.656 391.881 152.744 398.211 155.636C404.327 158.362 410.261 161.481 415.974 164.974C421.595 168.374 426.924 171.978 431.974 175.695C441.54 182.776 450.597 190.523 459.075 198.876C466.465 206.116 473.338 213.867 479.642 222.07C484.885 228.823 489.497 236.043 493.421 243.639C496.46 249.337 498.6 255.47 499.765 261.821C500.162 264.142 500.26 266.504 500.057 268.85C500.057 269.37 499.905 269.852 499.841 270.309C499.778 270.759 499.685 271.204 499.562 271.641C499.435 272.047 499.321 272.453 499.22 272.821C499.118 273.189 498.928 273.532 498.801 273.849C498.567 274.423 498.283 274.975 497.951 275.499C497.811 275.727 497.697 275.943 497.583 276.12L497.202 276.59L496.568 277.351Z" fill="#5BB1EF"/>
  <path opacity="0.3" d="M522.108 215.685C522.108 215.685 522.108 215.317 522.007 214.606C522.007 214.429 522.007 214.226 522.007 214.01C522.007 213.794 521.905 213.553 521.854 213.3C521.749 212.694 521.588 212.099 521.372 211.523C521.258 211.206 521.144 210.851 520.992 210.483L520.459 209.392C520.264 208.984 520.035 208.593 519.774 208.224C519.531 207.784 519.26 207.36 518.961 206.956C517.559 205.056 515.912 203.35 514.064 201.88C508.954 197.959 503.271 194.848 497.214 192.656C489.241 189.641 481.011 187.352 472.625 185.818C462.454 183.953 452.164 182.804 441.831 182.379C429.986 181.8 418.114 182.059 406.305 183.153C400.063 183.749 393.706 184.612 387.273 185.818C380.696 187.016 374.203 188.639 367.835 190.677C361.224 192.723 354.895 195.588 348.994 199.203C345.981 201.051 343.268 203.349 340.95 206.017C339.812 207.38 338.865 208.891 338.133 210.508C337.407 212.135 337.032 213.897 337.032 215.679C337.032 217.46 337.407 219.222 338.133 220.849C338.865 222.466 339.812 223.977 340.95 225.34C343.268 228.008 345.975 230.309 348.981 232.167C354.883 235.802 361.217 238.684 367.835 240.744C374.204 242.781 380.697 244.408 387.273 245.616C393.719 246.885 400.075 247.671 406.305 248.268C418.114 249.361 429.986 249.62 441.831 249.042C452.15 248.584 462.423 247.397 472.574 245.489C480.962 243.952 489.196 241.668 497.176 238.663C503.24 236.435 508.923 233.285 514.026 229.325C515.874 227.855 517.521 226.149 518.923 224.249C519.221 223.842 519.497 223.418 519.748 222.981C520.001 222.608 520.225 222.218 520.421 221.813L520.966 220.722C521.106 220.354 521.22 220.012 521.334 219.682C521.55 219.106 521.711 218.511 521.816 217.905C521.816 217.652 521.93 217.411 521.969 217.195C522.007 216.979 521.969 216.776 521.969 216.598C522.032 215.888 522.07 215.52 522.07 215.52C522.07 215.52 522.07 215.888 522.07 216.598V217.208C522.07 217.423 521.981 217.664 521.93 217.918C521.837 218.529 521.679 219.129 521.461 219.707C521.347 220.037 521.245 220.392 521.093 220.76C520.941 221.128 520.75 221.483 520.56 221.864C520.368 222.275 520.143 222.669 519.888 223.044C519.641 223.481 519.369 223.905 519.076 224.313C517.668 226.208 516.022 227.914 514.178 229.388C509.071 233.345 503.383 236.491 497.316 238.714C489.336 241.752 481.097 244.062 472.701 245.616C462.535 247.542 452.244 248.746 441.908 249.219C430.063 249.809 418.191 249.563 406.381 248.483C400.139 247.9 393.757 247.037 387.349 245.832C380.754 244.635 374.244 243.007 367.861 240.959C361.209 238.909 354.84 236.032 348.905 232.395C345.863 230.521 343.124 228.193 340.785 225.493C339.624 224.097 338.655 222.553 337.905 220.9C337.199 219.205 336.816 217.393 336.775 215.558C336.815 213.726 337.203 211.917 337.917 210.229C338.663 208.574 339.632 207.028 340.797 205.636C343.104 203 345.789 200.721 348.765 198.873C354.698 195.239 361.061 192.362 367.709 190.309C374.092 188.26 380.602 186.628 387.197 185.424C393.655 184.155 400.037 183.369 406.229 182.772C418.039 181.693 429.911 181.447 441.755 182.037C452.089 182.508 462.375 183.716 472.536 185.653C480.972 187.187 489.249 189.488 497.265 192.529C503.331 194.748 509.019 197.889 514.127 201.842C515.971 203.316 517.617 205.022 519.025 206.918C519.319 207.325 519.59 207.749 519.837 208.186C520.087 208.564 520.312 208.959 520.509 209.366L521.042 210.483C521.195 210.838 521.296 211.193 521.41 211.523C521.627 212.102 521.784 212.702 521.88 213.312C521.88 213.566 521.981 213.807 522.019 214.036V214.632C522.095 215.368 522.108 215.685 522.108 215.685Z" fill="#5BB1EF"/>
  <path opacity="0.3" d="M488.257 138.936L487.356 138.353L486.861 137.972C486.671 137.858 486.442 137.769 486.214 137.655C485.669 137.368 485.1 137.13 484.514 136.944L483.46 136.602L482.255 136.361C481.816 136.266 481.371 136.207 480.923 136.183C480.439 136.123 479.952 136.089 479.464 136.081C477.117 136.051 474.777 136.319 472.498 136.881C466.272 138.501 460.333 141.069 454.887 144.494C447.62 148.941 440.77 154.037 434.422 159.719C426.683 166.614 419.445 174.051 412.763 181.974C405.046 190.977 397.978 200.517 391.612 210.522C388.263 215.812 385.04 221.37 382.046 227.194C378.946 233.126 376.237 239.254 373.938 245.54C371.494 252.02 369.875 258.78 369.117 265.663C368.74 269.173 368.899 272.72 369.586 276.182C369.968 277.913 370.578 279.585 371.401 281.155C372.245 282.724 373.408 284.099 374.815 285.191C376.223 286.284 377.843 287.07 379.572 287.499C381.299 287.913 383.075 288.088 384.85 288.02C388.374 287.827 391.847 287.1 395.152 285.863C401.632 283.413 407.778 280.161 413.448 276.182C418.968 272.405 424.232 268.268 429.207 263.798C434.117 259.446 438.685 254.917 442.973 250.374C451.076 241.716 458.555 232.494 465.355 222.778C471.332 214.353 476.708 205.518 481.443 196.337C485.37 188.768 488.606 180.861 491.111 172.712C493.078 166.579 494.097 160.183 494.131 153.743C494.108 151.398 493.784 149.065 493.167 146.803C493.065 146.308 492.85 145.864 492.71 145.407C492.573 144.972 492.403 144.548 492.202 144.138C492.016 143.758 491.839 143.39 491.67 143.034C491.467 142.705 491.264 142.4 491.073 142.108C490.755 141.582 490.385 141.089 489.969 140.636C489.804 140.446 489.652 140.243 489.5 140.091L489.056 139.685L488.257 138.949C488.257 138.949 488.548 139.177 489.081 139.659L489.538 140.053C489.69 140.205 489.843 140.395 490.02 140.598C490.441 141.049 490.819 141.537 491.149 142.058C491.34 142.349 491.555 142.654 491.746 142.996C491.936 143.339 492.101 143.707 492.291 144.1C492.504 144.506 492.678 144.931 492.812 145.369C492.964 145.826 493.179 146.27 493.294 146.765C493.924 149.038 494.261 151.384 494.296 153.743C494.288 160.202 493.287 166.621 491.327 172.775C488.845 180.948 485.621 188.877 481.697 196.463C476.997 205.672 471.646 214.534 465.685 222.981C458.895 232.728 451.415 241.976 443.303 250.654C439.015 255.234 434.422 259.751 429.524 264.115C424.533 268.59 419.257 272.735 413.728 276.524C408.035 280.533 401.858 283.802 395.343 286.256C391.999 287.516 388.481 288.256 384.913 288.451C383.1 288.514 381.287 288.335 379.521 287.918C377.752 287.431 376.087 286.622 374.611 285.533C373.188 284.369 371.996 282.948 371.096 281.346C370.249 279.746 369.621 278.038 369.231 276.271C368.531 272.767 368.373 269.177 368.761 265.625C369.521 258.708 371.145 251.914 373.596 245.401C375.894 239.104 378.598 232.963 381.691 227.016C384.698 221.167 387.92 215.597 391.283 210.319C397.67 200.305 404.759 190.756 412.497 181.745C419.205 173.865 426.464 166.47 434.219 159.618C440.586 153.925 447.462 148.828 454.76 144.392C460.25 140.947 466.243 138.378 472.523 136.779C474.81 136.219 477.16 135.959 479.515 136.005C480.007 136.016 480.498 136.054 480.986 136.12C481.439 136.148 481.889 136.212 482.331 136.31L483.6 136.564C483.981 136.678 484.323 136.805 484.653 136.919C485.24 137.109 485.809 137.351 486.353 137.642C486.582 137.769 486.81 137.858 487 137.972L487.495 138.315L488.257 138.936Z" fill="#5BB1EF"/>
  <path d="M337.093 254.137C337.672 254.718 338.066 255.458 338.225 256.262C338.383 257.067 338.3 257.901 337.986 258.659C337.671 259.417 337.139 260.064 336.456 260.519C335.774 260.975 334.972 261.218 334.152 261.218C333.331 261.218 332.529 260.975 331.847 260.519C331.164 260.064 330.632 259.417 330.318 258.659C330.003 257.901 329.92 257.067 330.079 256.262C330.237 255.458 330.631 254.718 331.21 254.137C331.595 253.748 332.053 253.439 332.558 253.228C333.063 253.017 333.604 252.908 334.152 252.908C334.699 252.908 335.24 253.017 335.745 253.228C336.25 253.439 336.708 253.748 337.093 254.137Z" fill="#D61F85"/>
  <path d="M573.093 60.2281C573.672 60.8094 574.066 61.5491 574.225 62.354C574.383 63.1589 574.3 63.9928 573.986 64.7504C573.671 65.5081 573.139 66.1555 572.456 66.611C571.774 67.0665 570.972 67.3095 570.152 67.3095C569.331 67.3095 568.529 67.0665 567.847 66.611C567.164 66.1555 566.632 65.5081 566.318 64.7504C566.003 63.9928 565.92 63.1589 566.079 62.354C566.237 61.5491 566.631 60.8094 567.21 60.2281C567.595 59.8391 568.053 59.5302 568.558 59.3194C569.063 59.1085 569.604 59 570.152 59C570.699 59 571.24 59.1085 571.745 59.3194C572.25 59.5302 572.708 59.8391 573.093 60.2281Z" fill="#5BB1EF"/>
  <path d="M7.09287 288.228C7.67185 288.809 8.06564 289.549 8.22451 290.354C8.38339 291.159 8.30022 291.993 7.98553 292.75C7.67083 293.508 7.13871 294.156 6.45634 294.611C5.77397 295.066 4.97196 295.31 4.15155 295.31C3.33114 295.31 2.52913 295.066 1.84676 294.611C1.16439 294.156 0.63227 293.508 0.317573 292.75C0.00287598 291.993 -0.0802838 291.159 0.0785905 290.354C0.237465 289.549 0.631249 288.809 1.21023 288.228C1.59491 287.839 2.05295 287.53 2.55784 287.319C3.06272 287.109 3.60442 287 4.15155 287C4.69868 287 5.24038 287.109 5.74526 287.319C6.25015 287.53 6.70819 287.839 7.09287 288.228Z" fill="#D61F85"/>
  <path d="M124.397 322.478C125.164 323.177 125.685 324.068 125.896 325.036C126.106 326.005 125.996 327.009 125.579 327.92C125.162 328.832 124.457 329.611 123.553 330.159C122.649 330.707 121.587 331 120.5 331C119.413 331 118.351 330.707 117.447 330.159C116.543 329.611 115.838 328.832 115.421 327.92C115.004 327.009 114.894 326.005 115.104 325.036C115.315 324.068 115.836 323.177 116.603 322.478C117.113 322.01 117.72 321.638 118.389 321.384C119.058 321.131 119.775 321 120.5 321C121.225 321 121.942 321.131 122.611 321.384C123.28 321.638 123.887 322.01 124.397 322.478Z" fill="#D61F85"/>
  <path d="M480.02 306.681C480.566 307.229 480.937 307.927 481.087 308.685C481.236 309.444 481.158 310.23 480.861 310.945C480.565 311.659 480.063 312.269 479.42 312.699C478.777 313.128 478.021 313.357 477.247 313.357C476.474 313.357 475.718 313.128 475.074 312.699C474.431 312.269 473.93 311.659 473.633 310.945C473.336 310.23 473.258 309.444 473.408 308.685C473.557 307.927 473.929 307.229 474.474 306.681C474.837 306.315 475.269 306.023 475.745 305.825C476.221 305.626 476.731 305.524 477.247 305.524C477.763 305.524 478.274 305.626 478.75 305.825C479.225 306.023 479.657 306.315 480.02 306.681Z" fill="#C68ECF"/>
  <path d="M155.686 276.158C156.232 276.706 156.603 277.403 156.753 278.162C156.903 278.921 156.825 279.707 156.528 280.421C156.231 281.135 155.73 281.745 155.086 282.175C154.443 282.604 153.687 282.833 152.914 282.833C152.14 282.833 151.384 282.604 150.741 282.175C150.098 281.745 149.596 281.135 149.299 280.421C149.003 279.707 148.924 278.921 149.074 278.162C149.224 277.403 149.595 276.706 150.141 276.158C150.504 275.791 150.935 275.5 151.411 275.301C151.887 275.102 152.398 275 152.914 275C153.429 275 153.94 275.102 154.416 275.301C154.892 275.5 155.324 275.791 155.686 276.158Z" fill="#C68ECF"/>
  <path d="M530 144.81C530 145.987 529.651 147.138 528.997 148.117C528.343 149.095 527.413 149.858 526.325 150.309C525.238 150.759 524.041 150.877 522.886 150.648C521.732 150.418 520.671 149.851 519.839 149.019C519.006 148.186 518.439 147.125 518.21 145.971C517.98 144.816 518.098 143.619 518.548 142.532C518.999 141.444 519.762 140.514 520.741 139.86C521.72 139.206 522.87 138.857 524.048 138.857C525.626 138.857 527.14 139.484 528.257 140.601C529.373 141.717 530 143.231 530 144.81Z" fill="#5BB1EF"/>
  <path d="M389.258 150.867C389.258 151.547 389.056 152.212 388.678 152.777C388.3 153.343 387.763 153.783 387.135 154.044C386.507 154.304 385.815 154.372 385.148 154.239C384.481 154.107 383.869 153.779 383.388 153.298C382.907 152.817 382.58 152.205 382.447 151.538C382.314 150.871 382.382 150.179 382.643 149.551C382.903 148.923 383.344 148.386 383.909 148.008C384.474 147.63 385.139 147.428 385.819 147.428C386.731 147.428 387.606 147.791 388.251 148.436C388.895 149.08 389.258 149.955 389.258 150.867Z" fill="#63B64E"/>
  <path d="M357.546 265.233C357.546 265.406 357.495 265.575 357.399 265.719C357.302 265.863 357.166 265.975 357.006 266.042C356.846 266.108 356.67 266.125 356.5 266.092C356.33 266.058 356.174 265.974 356.052 265.852C355.929 265.73 355.846 265.574 355.812 265.404C355.778 265.234 355.796 265.058 355.862 264.898C355.928 264.738 356.04 264.601 356.184 264.505C356.328 264.409 356.497 264.357 356.671 264.357C356.903 264.357 357.125 264.45 357.29 264.614C357.454 264.778 357.546 265.001 357.546 265.233Z" fill="#5BB1EF"/>
  <path d="M378.116 169.782C378.116 170.143 378.009 170.497 377.808 170.798C377.607 171.098 377.321 171.333 376.987 171.471C376.653 171.609 376.285 171.646 375.931 171.575C375.576 171.505 375.25 171.33 374.994 171.075C374.739 170.819 374.564 170.493 374.494 170.138C374.423 169.784 374.459 169.416 374.598 169.082C374.736 168.748 374.971 168.462 375.271 168.261C375.572 168.06 375.926 167.953 376.287 167.953C376.772 167.953 377.237 168.146 377.58 168.489C377.923 168.832 378.116 169.297 378.116 169.782Z" fill="#63B64E"/>
  <path d="M497.943 280.686C497.943 281.047 497.835 281.401 497.635 281.702C497.434 282.002 497.148 282.237 496.814 282.375C496.48 282.514 496.112 282.55 495.757 282.479C495.403 282.409 495.077 282.234 494.821 281.979C494.565 281.723 494.391 281.397 494.321 281.042C494.25 280.688 494.286 280.32 494.425 279.986C494.563 279.652 494.798 279.366 495.098 279.165C495.399 278.964 495.753 278.857 496.114 278.857C496.599 278.857 497.064 279.05 497.407 279.393C497.75 279.736 497.943 280.201 497.943 280.686Z" fill="#C68ECF"/>
  <path d="M250.657 330.829C250.657 331.19 250.55 331.544 250.349 331.844C250.148 332.145 249.862 332.38 249.528 332.518C249.194 332.656 248.827 332.693 248.472 332.622C248.117 332.551 247.791 332.377 247.536 332.122C247.28 331.866 247.106 331.54 247.035 331.185C246.965 330.831 247.001 330.463 247.139 330.129C247.278 329.795 247.512 329.509 247.813 329.308C248.113 329.107 248.467 329 248.829 329C249.314 329 249.779 329.193 250.122 329.536C250.464 329.878 250.657 330.344 250.657 330.829Z" fill="#C68ECF"/>
  <path d="M528.132 176.563C528.14 177.068 527.997 177.563 527.722 177.986C527.447 178.409 527.052 178.74 526.588 178.939C526.124 179.137 525.612 179.192 525.116 179.098C524.621 179.004 524.164 178.765 523.805 178.411C523.446 178.057 523.2 177.604 523.099 177.11C522.998 176.616 523.046 176.103 523.237 175.636C523.428 175.169 523.754 174.77 524.173 174.489C524.592 174.208 525.085 174.057 525.59 174.057C525.922 174.053 526.252 174.114 526.56 174.237C526.868 174.361 527.149 174.545 527.385 174.778C527.622 175.011 527.81 175.289 527.938 175.596C528.066 175.902 528.132 176.231 528.132 176.563Z" fill="#63B64E"/>
  <path d="M533.905 68.9524C533.905 70.1296 533.556 71.2805 532.902 72.2593C532.248 73.2382 531.318 74.0011 530.23 74.4517C529.143 74.9022 527.946 75.0201 526.791 74.7904C525.636 74.5607 524.576 73.9938 523.743 73.1613C522.911 72.3289 522.344 71.2683 522.114 70.1136C521.885 68.959 522.003 67.7622 522.453 66.6745C522.904 65.5868 523.667 64.6572 524.645 64.0032C525.624 63.3491 526.775 63 527.952 63C529.531 63 531.045 63.6271 532.161 64.7434C533.278 65.8597 533.905 67.3737 533.905 68.9524Z" fill="#63B64E"/>
  <path d="M219 286.5C219 287.192 218.795 287.869 218.41 288.444C218.026 289.02 217.479 289.469 216.839 289.734C216.2 289.998 215.496 290.068 214.817 289.933C214.138 289.798 213.515 289.464 213.025 288.975C212.536 288.485 212.202 287.862 212.067 287.183C211.932 286.504 212.002 285.8 212.266 285.161C212.531 284.521 212.98 283.974 213.556 283.59C214.131 283.205 214.808 283 215.5 283C216.428 283 217.318 283.369 217.975 284.025C218.631 284.682 219 285.572 219 286.5Z" fill="#63B64E"/>
  <path d="M83 263C83 263.791 82.7654 264.564 82.3259 265.222C81.8864 265.88 81.2616 266.393 80.5307 266.696C79.7998 266.998 78.9956 267.077 78.2196 266.923C77.4437 266.769 76.731 266.388 76.1716 265.828C75.6122 265.269 75.2312 264.556 75.0769 263.78C74.9225 263.004 75.0017 262.2 75.3045 261.469C75.6072 260.738 76.1199 260.114 76.7777 259.674C77.4355 259.235 78.2089 259 79 259C80.0609 259 81.0783 259.421 81.8284 260.172C82.5786 260.922 83 261.939 83 263Z" fill="#5BB1EF"/>
  <path d="M361 327.5C361 328.39 360.736 329.26 360.242 330C359.747 330.74 359.044 331.317 358.222 331.657C357.4 331.998 356.495 332.087 355.622 331.914C354.749 331.74 353.947 331.311 353.318 330.682C352.689 330.053 352.26 329.251 352.086 328.378C351.913 327.505 352.002 326.6 352.343 325.778C352.683 324.956 353.26 324.253 354 323.758C354.74 323.264 355.61 323 356.5 323C357.693 323 358.838 323.474 359.682 324.318C360.526 325.162 361 326.307 361 327.5Z" fill="#5BB1EF"/>
  <path d="M528.085 2.50615C528.092 3.01056 527.95 3.50572 527.675 3.92869C527.4 4.35166 527.005 4.68331 526.541 4.88143C526.077 5.07954 525.565 5.13517 525.069 5.04126C524.574 4.94735 524.117 4.70814 523.758 4.35404C523.399 3.99995 523.153 3.54698 523.052 3.05276C522.95 2.55854 522.999 2.0454 523.19 1.57863C523.381 1.11185 523.707 0.712535 524.126 0.431473C524.545 0.150411 525.038 0.000324049 525.542 0.000271068C525.875 -0.00461423 526.204 0.0565776 526.513 0.180321C526.821 0.304063 527.102 0.487879 527.338 0.721059C527.575 0.954239 527.763 1.23214 527.891 1.53859C528.019 1.84505 528.085 2.17395 528.085 2.50615Z" fill="#63B64E"/>
  <path d="M256.085 239.506C256.092 240.011 255.95 240.506 255.675 240.929C255.4 241.352 255.005 241.683 254.541 241.881C254.077 242.08 253.565 242.135 253.069 242.041C252.574 241.947 252.117 241.708 251.758 241.354C251.399 241 251.153 240.547 251.052 240.053C250.95 239.559 250.999 239.045 251.19 238.579C251.381 238.112 251.707 237.713 252.126 237.431C252.545 237.15 253.038 237 253.542 237C253.875 236.995 254.204 237.057 254.513 237.18C254.821 237.304 255.102 237.488 255.338 237.721C255.575 237.954 255.763 238.232 255.891 238.539C256.019 238.845 256.085 239.174 256.085 239.506Z" fill="#63B64E"/>
  <path d="M545.085 325.506C545.092 326.011 544.95 326.506 544.675 326.929C544.4 327.352 544.005 327.683 543.541 327.881C543.077 328.08 542.565 328.135 542.069 328.041C541.574 327.947 541.117 327.708 540.758 327.354C540.399 327 540.153 326.547 540.052 326.053C539.95 325.559 539.999 325.045 540.19 324.579C540.381 324.112 540.707 323.713 541.126 323.431C541.545 323.15 542.038 323 542.542 323C542.875 322.995 543.204 323.057 543.513 323.18C543.821 323.304 544.102 323.488 544.338 323.721C544.575 323.954 544.763 324.232 544.891 324.539C545.019 324.845 545.085 325.174 545.085 325.506Z" fill="#63B64E"/>
  <g filter="url(#filter0_d_614_1216)">
    <rect x="389.524" y="194.072" width="75.3319" height="65.7377" rx="30" fill="url(#paint0_linear_614_1216)"/>
    <path d="M455.439 194.072H450.731L403.649 194.072L398.941 194.072C396.443 194.072 394.048 195.061 392.282 196.823C390.516 198.584 389.524 200.972 389.524 203.463V250.419C389.524 252.909 390.516 255.298 392.282 257.059C394.048 258.82 396.443 259.81 398.941 259.81H455.439C457.937 259.81 460.332 258.82 462.098 257.059C463.864 255.298 464.856 252.909 464.856 250.419V203.463C464.856 200.972 463.864 198.584 462.098 196.823C460.332 195.061 457.937 194.072 455.439 194.072ZM431.898 230.336V241.028H422.482V230.336C419.68 228.711 417.774 225.715 417.774 222.245C417.774 219.755 418.766 217.366 420.532 215.605C422.297 213.844 424.693 212.854 427.19 212.854C429.687 212.854 432.083 213.844 433.848 215.605C435.614 217.366 436.606 219.755 436.606 222.245C436.606 225.711 434.7 228.706 431.898 230.336Z" fill="url(#paint1_linear_614_1216)"/>
    <path fill-rule="evenodd" clip-rule="evenodd" d="M450.936 194.072V189.393C450.936 176.494 440.35 166 427.337 166C414.324 166 403.737 176.494 403.737 189.393V194.072H413.177V189.393C413.177 181.655 419.53 175.357 427.337 175.357C435.144 175.357 441.497 181.655 441.497 189.393V194.072H450.936Z" fill="url(#paint2_linear_614_1216)"/>
  </g>
  <defs>
    <filter id="filter0_d_614_1216" x="369.524" y="156" width="115.332" height="133.81" filterUnits="userSpaceOnUse" color-interpolation-filters="sRGB">
      <feFlood flood-opacity="0" result="BackgroundImageFix"/>
      <feColorMatrix in="SourceAlpha" type="matrix" values="0 0 0 0 0 0 0 0 0 0 0 0 0 0 0 0 0 0 127 0" result="hardAlpha"/>
      <feOffset dy="10"/>
      <feGaussianBlur stdDeviation="10"/>
      <feComposite in2="hardAlpha" operator="out"/>
      <feColorMatrix type="matrix" values="0 0 0 0 0.133333 0 0 0 0 0.117647 0 0 0 0 0.223529 0 0 0 0.4 0"/>
      <feBlend mode="normal" in2="BackgroundImageFix" result="effect1_dropShadow_614_1216"/>
      <feBlend mode="normal" in="SourceGraphic" in2="effect1_dropShadow_614_1216" result="shape"/>
    </filter>
    <linearGradient id="paint0_linear_614_1216" x1="427.19" y1="194.072" x2="427.19" y2="259.81" gradientUnits="userSpaceOnUse">
      <stop offset="0.293821" stop-color="#413975"/>
      <stop offset="0.77889" stop-color="#2D294D"/>
    </linearGradient>
    <linearGradient id="paint1_linear_614_1216" x1="427.19" y1="194.072" x2="427.19" y2="259.81" gradientUnits="userSpaceOnUse">
      <stop stop-color="#CBCBE4"/>
      <stop offset="1" stop-color="#B8B8DD"/>
    </linearGradient>
    <linearGradient id="paint2_linear_614_1216" x1="427.337" y1="166" x2="427.337" y2="194.072" gradientUnits="userSpaceOnUse">
      <stop offset="0.293821" stop-color="#413975"/>
      <stop offset="0.77889" stop-color="#2D294D"/>
    </linearGradient>
  </defs>
</svg>
