<svg width="595" height="593" viewBox="0 0 595 593" fill="none" xmlns="http://www.w3.org/2000/svg">
<g filter="url(#filter0_d_10114_33085)">
<ellipse cx="152" cy="180.5" rx="92" ry="91.5" fill="url(#paint0_linear_10114_33085)"/>
<path d="M96.8008 181.643C96.8008 212.499 122.122 237.685 153.147 237.687H153.15H153.152C184.178 237.687 209.501 212.5 209.501 181.643C209.501 150.784 184.177 125.6 153.151 125.6C122.163 125.6 96.8008 150.758 96.8008 181.643ZM103.404 181.643C103.404 171.822 106.297 162.66 111.279 154.955L117.549 156.473C118.651 156.747 119.543 157.498 119.998 158.533C120.452 159.567 120.397 160.731 119.847 161.727C117.458 166.052 118.894 171.633 123.116 174.432L137.382 183.891L140.662 190.415C141.779 192.637 141.343 195.31 139.577 197.067L137.609 199.024C136.32 200.306 136.32 202.385 137.609 203.668L141.549 207.586C142.643 208.674 143.245 210.121 143.245 211.66C143.245 218.333 144.774 224.947 147.662 230.816C122.805 228.091 103.404 207.08 103.404 181.643ZM146.569 187.478L145.286 184.927H145.768C149.063 184.927 152.026 186.748 153.499 189.68C156.099 194.85 161.325 198.062 167.137 198.062H169.66V201.346C169.66 204.001 168.613 206.491 166.713 208.357C160.619 214.341 156.061 220.322 152.919 226.481C150.932 221.905 149.849 216.713 149.849 211.66C149.849 208.367 148.56 205.271 146.218 202.943L144.606 201.339C148.083 197.582 148.881 192.078 146.569 187.478ZM158.116 230.874C160.931 224.856 165.295 218.979 171.353 213.03C174.519 209.921 176.263 205.771 176.263 201.346V194.779C176.263 192.965 174.785 191.495 172.961 191.495H167.137C163.842 191.495 160.879 189.674 159.406 186.742C156.806 181.572 151.58 178.36 145.768 178.36H141.984L140.981 176.362C139.201 172.823 140.815 168.518 144.654 166.559C147.809 164.95 149.849 161.428 149.849 157.587V155.373C149.849 153.562 151.33 152.089 153.151 152.089H157.135C163.926 152.089 168.69 145.428 166.518 139.083L164.647 133.504C172.052 135.252 178.82 138.652 184.537 143.288L183.529 146.296C183.368 146.777 183.092 147.221 182.731 147.579L179.164 151.127C177.293 152.988 176.263 155.462 176.263 158.093V161.94C176.263 167.373 180.707 171.792 186.168 171.792C187.989 171.792 189.47 173.265 189.47 175.076V180.093C189.47 180.6 189.349 181.108 189.122 181.561L187.994 183.805C186.447 186.882 186.609 190.465 188.427 193.39C190.245 196.316 193.395 198.06 196.853 198.06H200.078C193.782 215.806 177.585 228.946 158.116 230.874ZM202.897 181.643C202.897 185.016 202.555 188.31 201.905 191.495H196.853C195.192 191.495 194.335 190.406 194.044 189.937C193.753 189.469 193.157 188.22 193.9 186.742L195.028 184.499C195.712 183.138 196.074 181.614 196.074 180.093V175.076C196.074 169.644 191.63 165.224 186.168 165.224C184.348 165.224 182.867 163.751 182.867 161.94V158.093C182.867 157.216 183.21 156.391 183.834 155.771L187.401 152.224C188.482 151.148 189.31 149.817 189.794 148.373L189.832 148.259C197.942 157.065 202.897 168.789 202.897 181.643ZM153.151 132.167C154.547 132.167 155.929 132.228 157.297 132.34L160.26 141.179C160.99 143.312 159.399 145.521 157.135 145.521H153.151C147.689 145.521 143.246 149.941 143.246 155.373V157.587C143.246 158.968 142.6 160.226 141.64 160.716C136.488 163.344 133.556 168.363 133.641 173.517L126.779 168.968C125.385 168.044 124.883 166.252 125.635 164.888C127.179 162.094 127.329 158.819 126.05 155.905C124.769 152.988 122.254 150.873 119.132 150.097L115.589 149.239C124.717 138.787 138.171 132.167 153.151 132.167Z" fill="#63B64E"/>
</g>
<g filter="url(#filter1_d_10114_33085)">
<circle cx="380" cy="166" r="44" fill="url(#paint1_linear_10114_33085)"/>
<path d="M408.599 167.739C408.599 160.051 405.476 153.075 400.423 147.992C400.383 147.94 400.341 147.889 400.293 147.841C400.246 147.794 400.194 147.752 400.142 147.713C395.019 142.699 387.988 139.6 380.241 139.6C372.494 139.6 365.464 142.699 360.34 147.713C360.288 147.752 360.237 147.794 360.189 147.841C360.141 147.889 360.099 147.939 360.059 147.992C355.007 153.075 351.883 160.051 351.883 167.739C351.883 175.254 354.832 182.319 360.187 187.634C360.187 187.635 360.188 187.636 360.189 187.637C360.189 187.637 360.19 187.637 360.19 187.638C360.191 187.639 360.192 187.639 360.193 187.64C360.465 187.91 360.822 188.045 361.179 188.045C361.536 188.045 361.893 187.91 362.165 187.64C362.188 187.617 362.209 187.592 362.23 187.568L366.528 183.303C367.073 182.762 367.073 181.886 366.528 181.346C365.983 180.805 365.1 180.805 364.556 181.346L361.202 184.674C357.291 180.355 355.022 174.92 354.71 169.123H359.453C360.224 169.123 360.848 168.503 360.848 167.739C360.848 166.974 360.224 166.355 359.453 166.355H354.711C355.035 160.4 357.438 154.985 361.211 150.813L364.556 154.132C364.828 154.402 365.185 154.537 365.542 154.537C365.899 154.537 366.256 154.402 366.528 154.132C367.073 153.591 367.073 152.715 366.528 152.175L363.184 148.856C367.388 145.112 372.845 142.727 378.846 142.406V147.112C378.846 147.876 379.471 148.496 380.241 148.496C381.011 148.496 381.636 147.876 381.636 147.112V142.406C387.637 142.727 393.094 145.112 397.299 148.856L393.954 152.175C393.409 152.715 393.409 153.592 393.954 154.132C394.226 154.402 394.583 154.537 394.94 154.537C395.297 154.537 395.654 154.402 395.926 154.132L399.271 150.813C403.044 154.985 405.447 160.4 405.771 166.355H401.028C400.258 166.355 399.634 166.974 399.634 167.739C399.634 168.503 400.258 169.123 401.028 169.123H405.772C405.46 174.92 403.191 180.356 399.28 184.674L395.926 181.346C395.382 180.805 394.499 180.805 393.954 181.346C393.409 181.886 393.409 182.762 393.954 183.303L398.321 187.636C398.593 187.906 398.95 188.042 399.307 188.042C399.486 188.042 399.664 188.008 399.832 187.94C400 187.873 400.157 187.771 400.293 187.636C405.65 182.321 408.599 175.255 408.599 167.739Z" fill="#9090BB"/>
<path d="M386.649 151.869C385.934 151.585 385.122 151.93 384.836 152.639L380.806 162.622C380.618 162.602 380.43 162.588 380.242 162.588C378.279 162.588 376.506 163.667 375.614 165.404C374.682 167.219 374.921 169.389 376.252 171.206C376.389 171.392 376.56 171.562 376.748 171.698C377.83 172.478 379.038 172.891 380.242 172.891C382.205 172.891 383.978 171.812 384.87 170.075C385.802 168.259 385.563 166.09 384.232 164.274C384.096 164.088 383.925 163.917 383.736 163.781C383.634 163.707 383.53 163.64 383.426 163.574L387.425 153.668C387.711 152.959 387.364 152.153 386.649 151.869ZM382.384 168.819C381.971 169.623 381.15 170.123 380.242 170.123C379.646 170.123 379.046 169.916 378.459 169.509C377.789 168.555 377.658 167.521 378.1 166.66C378.513 165.856 379.333 165.356 380.242 165.356C380.532 165.356 380.822 165.406 381.112 165.503C381.121 165.507 381.13 165.512 381.14 165.515C381.17 165.527 381.201 165.537 381.232 165.547C381.497 165.648 381.762 165.788 382.025 165.97C382.694 166.924 382.826 167.958 382.384 168.819Z" fill="#9090BB"/>
</g>
<g filter="url(#filter2_d_10114_33085)">
<circle cx="290" cy="189" r="66" fill="url(#paint2_linear_10114_33085)"/>
<path d="M289.569 181.525C285.597 181.525 282.365 184.757 282.365 188.729C282.365 192.701 285.597 195.932 289.569 195.932C293.54 195.932 296.772 192.701 296.772 188.729C296.772 184.757 293.54 181.525 289.569 181.525ZM289.569 191.13C288.245 191.13 287.167 190.053 287.167 188.729C287.167 187.405 288.245 186.328 289.569 186.328C290.893 186.328 291.97 187.405 291.97 188.729C291.97 190.053 290.893 191.13 289.569 191.13Z" fill="#C68ECF"/>
<path d="M316.554 191.13C317.545 193.925 320.214 195.932 323.344 195.932C327.316 195.932 330.547 192.701 330.547 188.729C330.547 184.757 327.316 181.525 323.344 181.525C320.214 181.525 317.545 183.533 316.554 186.328H306.204C305.914 184.306 305.263 182.4 304.318 180.676L318.718 178.292C319.877 178.1 320.727 177.098 320.727 175.923V169.907C323.522 168.916 325.529 166.247 325.529 163.117C325.529 159.145 322.298 155.914 318.326 155.914C314.354 155.914 311.122 159.145 311.122 163.117C311.122 166.247 313.13 168.916 315.925 169.908V173.887C300.301 176.473 301.327 176.281 300.991 176.411C298.546 174.142 295.426 172.59 291.97 172.093V161.744C294.765 160.752 296.772 158.084 296.772 154.953C296.772 150.981 293.541 147.75 289.569 147.75C285.597 147.75 282.366 150.981 282.366 154.953C282.366 158.084 284.373 160.752 287.168 161.744V172.093C283.711 172.59 280.591 174.142 278.146 176.411C277.943 176.333 278.921 176.598 263.213 172.47V168.307C266.008 167.315 268.015 164.647 268.015 161.516C268.015 157.544 264.784 154.313 260.812 154.313C256.84 154.313 253.609 157.544 253.609 161.516C253.609 164.646 255.616 167.315 258.41 168.306V174.322C258.41 175.413 259.146 176.367 260.201 176.644L274.912 180.51C273.917 182.277 273.233 184.241 272.933 186.328H262.744C261.752 183.533 259.084 181.525 255.953 181.525C251.981 181.525 248.75 184.757 248.75 188.729C248.75 192.701 251.981 195.932 255.953 195.932C259.084 195.932 261.752 193.924 262.744 191.13H272.933C273.233 193.216 273.917 195.18 274.912 196.947L260.201 200.813C259.146 201.09 258.41 202.044 258.41 203.135V209.151C255.616 210.142 253.609 212.811 253.609 215.941C253.609 219.913 256.84 223.145 260.812 223.145C264.784 223.145 268.015 219.913 268.015 215.941C268.015 212.811 266.008 210.142 263.213 209.151V204.987C278.92 200.859 277.943 201.124 278.146 201.046C280.591 203.316 283.711 204.868 287.168 205.364V215.714C284.373 216.705 282.365 219.374 282.365 222.504C282.365 226.476 285.597 229.708 289.569 229.708C293.541 229.708 296.772 226.476 296.772 222.504C296.772 219.374 294.765 216.705 291.97 215.714V205.364C295.426 204.868 298.546 203.316 300.992 201.046C301.194 201.124 300.215 200.859 315.925 204.987V209.151C313.13 210.142 311.122 212.811 311.122 215.941C311.122 219.913 314.354 223.145 318.326 223.145C322.297 223.145 325.529 219.913 325.529 215.941C325.529 212.811 323.522 210.142 320.727 209.151V203.135C320.727 202.044 319.991 201.09 318.936 200.813L304.225 196.947C305.22 195.18 305.904 193.216 306.204 191.13H316.554ZM318.326 160.716C319.65 160.716 320.727 161.793 320.727 163.117C320.727 164.441 319.65 165.517 318.327 165.518C318.327 165.518 318.326 165.518 318.326 165.518C318.325 165.518 318.325 165.518 318.324 165.518C317.001 165.517 315.924 164.441 315.924 163.117C315.924 161.793 317.002 160.716 318.326 160.716ZM260.812 159.115C262.136 159.115 263.213 160.192 263.213 161.516C263.213 162.84 262.137 163.917 260.813 163.917C260.813 163.917 260.812 163.917 260.812 163.917C260.811 163.917 260.811 163.917 260.81 163.917C259.487 163.916 258.411 162.84 258.411 161.516C258.411 160.192 259.488 159.115 260.812 159.115ZM260.812 218.342C259.488 218.342 258.411 217.265 258.411 215.941C258.411 214.617 259.488 213.54 260.812 213.54C262.136 213.54 263.213 214.617 263.213 215.941C263.213 217.265 262.136 218.342 260.812 218.342ZM318.326 218.342C317.002 218.342 315.924 217.265 315.924 215.941C315.924 214.617 317.002 213.54 318.326 213.54C319.65 213.54 320.727 214.617 320.727 215.941C320.727 217.265 319.65 218.342 318.326 218.342ZM323.344 186.328C324.668 186.328 325.745 187.405 325.745 188.729C325.745 190.053 324.668 191.13 323.344 191.13C322.02 191.13 320.943 190.053 320.943 188.729C320.943 187.405 322.02 186.328 323.344 186.328ZM289.569 152.552C290.893 152.552 291.97 153.629 291.97 154.953C291.97 156.277 290.893 157.354 289.569 157.354C288.245 157.354 287.168 156.277 287.168 154.953C287.168 153.629 288.245 152.552 289.569 152.552ZM255.953 191.13C254.629 191.13 253.552 190.053 253.552 188.729C253.552 187.405 254.629 186.328 255.953 186.328C257.277 186.328 258.354 187.405 258.354 188.729C258.354 190.053 257.277 191.13 255.953 191.13ZM289.569 224.905C288.245 224.905 287.168 223.828 287.168 222.504C287.168 221.18 288.245 220.103 289.569 220.103C290.893 220.103 291.97 221.18 291.97 222.504C291.97 223.828 290.893 224.905 289.569 224.905ZM289.569 200.734C282.949 200.734 277.563 195.349 277.563 188.729C277.563 182.109 282.949 176.723 289.569 176.723C296.189 176.723 301.574 182.109 301.574 188.729C301.574 195.349 296.189 200.734 289.569 200.734Z" fill="#C68ECF"/>
</g>
<g filter="url(#filter3_d_10114_33085)">
<circle cx="462.5" cy="200.5" r="70.5" fill="url(#paint3_linear_10114_33085)"/>
<path d="M477.623 170.82C479.008 170.82 480.13 169.698 480.13 168.314C480.13 166.93 479.008 165.808 477.623 165.808C476.239 165.808 475.117 166.93 475.117 168.314C475.117 169.698 476.239 170.82 477.623 170.82Z" fill="#5BB1EF"/>
<path d="M447.377 170.689H458.358C459.67 170.689 460.734 169.625 460.734 168.314C460.734 167.002 459.67 165.938 458.358 165.938H447.377C446.065 165.938 445.002 167.002 445.002 168.314C445.002 169.625 446.065 170.689 447.377 170.689Z" fill="#5BB1EF"/>
<path d="M477.623 189.822C479.008 189.822 480.13 188.7 480.13 187.316C480.13 185.932 479.008 184.81 477.623 184.81C476.239 184.81 475.117 185.932 475.117 187.316C475.117 188.7 476.239 189.822 477.623 189.822Z" fill="#5BB1EF"/>
<path d="M458.358 184.94H447.377C446.065 184.94 445.002 186.004 445.002 187.316C445.002 188.627 446.065 189.691 447.377 189.691H458.358C459.67 189.691 460.734 188.627 460.734 187.316C460.734 186.004 459.67 184.94 458.358 184.94Z" fill="#5BB1EF"/>
<path d="M424.338 237.513H440.179C441.491 237.513 442.554 236.449 442.554 235.137V225.636C442.554 224.325 441.491 223.261 440.179 223.261H434.634V213.602H460.125V223.261H454.58C453.268 223.261 452.205 224.325 452.205 225.636V235.137C452.205 236.449 453.268 237.513 454.58 237.513H470.421C471.733 237.513 472.796 236.449 472.796 235.137V225.636C472.796 224.325 471.733 223.261 470.421 223.261H464.876V213.602H490.367V223.261H484.822C483.51 223.261 482.446 224.325 482.446 225.636V235.137C482.446 236.449 483.51 237.513 484.822 237.513H500.663C501.974 237.513 503.038 236.449 503.038 235.137V225.636C503.038 224.325 501.974 223.261 500.663 223.261H495.117V211.226C495.117 209.915 494.054 208.851 492.742 208.851H464.876V199.192H483.851C486.965 199.192 489.499 196.658 489.499 193.544V181.088C489.499 179.868 489.109 178.739 488.45 177.815C489.109 176.891 489.499 175.761 489.499 174.542V162.086C489.499 158.971 486.965 156.438 483.851 156.438H441.15C438.036 156.438 435.502 158.971 435.502 162.086V174.541C435.502 175.761 435.891 176.89 436.551 177.815C435.891 178.739 435.502 179.868 435.502 181.088V193.543C435.502 196.658 438.036 199.192 441.15 199.192H460.125V208.851H432.259C430.947 208.851 429.883 209.914 429.883 211.226V223.261H424.338C423.026 223.261 421.963 224.324 421.963 225.636V235.137C421.963 236.449 423.026 237.513 424.338 237.513ZM468.046 232.762H456.955V228.012H468.046V232.762ZM498.287 232.762H487.197V228.012H498.287V232.762ZM440.252 162.086C440.252 161.591 440.655 161.188 441.15 161.188H483.851C484.346 161.188 484.749 161.591 484.749 162.086V174.541C484.749 175.036 484.346 175.439 483.851 175.439H441.15C440.655 175.439 440.252 175.036 440.252 174.541V162.086ZM440.252 193.544V181.088C440.252 180.593 440.655 180.19 441.15 180.19H483.851C484.346 180.19 484.749 180.593 484.749 181.088V193.543C484.749 194.038 484.346 194.441 483.851 194.441H441.15C440.655 194.441 440.252 194.039 440.252 193.544ZM426.713 228.012H437.804V232.762H426.713V228.012Z" fill="#5BB1EF"/>
</g>
<g filter="url(#filter4_d_10114_33085)">
<ellipse cx="234.5" cy="431" rx="24.5" ry="24" fill="url(#paint4_linear_10114_33085)"/>
<g opacity="0.9">
<path d="M234.622 417.08C229.113 417.08 224.631 421.471 224.631 426.868C224.631 428.691 225.146 430.47 226.122 432.014L234.054 444.535C234.205 444.774 234.473 444.92 234.761 444.92C234.763 444.92 234.765 444.92 234.768 444.92C235.058 444.918 235.326 444.768 235.475 444.524L243.204 431.882C244.126 430.371 244.614 428.637 244.614 426.868C244.614 421.471 240.132 417.08 234.622 417.08ZM241.775 431.045L234.748 442.538L227.538 431.155C226.725 429.87 226.285 428.387 226.285 426.868C226.285 422.37 230.031 418.7 234.622 418.7C239.213 418.7 242.954 422.37 242.954 426.868C242.954 428.342 242.543 429.787 241.775 431.045Z" fill="#D61F85"/>
<path d="M234.623 421.974C231.868 421.974 229.627 424.169 229.627 426.867C229.627 429.549 231.832 431.761 234.623 431.761C237.448 431.761 239.618 429.519 239.618 426.867C239.618 424.169 237.377 421.974 234.623 421.974ZM234.623 430.141C232.777 430.141 231.281 428.671 231.281 426.867C231.281 425.068 232.786 423.594 234.623 423.594C236.459 423.594 237.959 425.068 237.959 426.867C237.959 428.645 236.498 430.141 234.623 430.141Z" fill="#D61F85"/>
</g>
</g>
<g filter="url(#filter5_d_10114_33085)">
<circle cx="480" cy="291" r="36" fill="url(#paint5_linear_10114_33085)"/>
</g>
<g filter="url(#filter6_d_10114_33085)">
<ellipse cx="391.5" cy="467" rx="39.5" ry="40" fill="url(#paint6_linear_10114_33085)"/>
<path d="M389.444 455.94C389.444 456.202 389.352 456.426 389.168 456.612C388.984 456.799 388.759 456.892 388.493 456.892C388.226 456.892 388.001 456.799 387.817 456.612C387.633 456.426 387.541 456.198 387.541 455.928V449.099C387.541 448.845 387.637 448.617 387.829 448.415C388.021 448.213 388.246 448.111 388.504 448.111C388.763 448.111 388.984 448.209 389.168 448.403C389.352 448.597 389.444 448.829 389.444 449.099V455.94Z" fill="#9090BB"/>
<path d="M392.899 453.895V455.834C392.899 456.096 392.805 456.322 392.617 456.512C392.429 456.703 392.206 456.798 391.948 456.798C391.689 456.798 391.466 456.703 391.278 456.512C391.09 456.322 390.996 456.088 390.996 455.81V449.124C390.996 448.838 391.092 448.598 391.284 448.404C391.475 448.21 391.709 448.112 391.983 448.112H394.215C395.1 448.112 395.821 448.382 396.377 448.921C396.933 449.461 397.211 450.163 397.211 451.027C397.211 451.884 396.948 452.576 396.424 453.103C395.899 453.631 395.202 453.895 394.332 453.895H392.899ZM392.899 449.837V452.205H394.109C394.415 452.205 394.681 452.09 394.908 451.86C395.136 451.63 395.249 451.356 395.249 451.039C395.249 450.706 395.141 450.422 394.926 450.188C394.71 449.954 394.442 449.837 394.121 449.837H392.899Z" fill="#9090BB"/>
<path d="M410.929 474.171C410.603 473.723 409.98 473.626 409.537 473.955C409.093 474.285 408.998 474.916 409.323 475.365C410.764 477.352 411.854 479.531 412.572 481.834C410.44 479.619 407.277 477.775 403.407 476.523C403.304 476.198 403.199 475.875 403.087 475.558C401.88 472.122 400.22 469.302 398.256 467.33C398.266 467.318 398.276 467.306 398.286 467.293C400.424 467.992 402.439 469.014 404.283 470.34C404.458 470.466 404.659 470.526 404.859 470.526C405.17 470.526 405.477 470.378 405.672 470.102C405.99 469.647 405.885 469.018 405.436 468.695C403.629 467.396 401.671 466.363 399.6 465.614C402.876 461.295 405.602 456.594 405.602 452.281C405.602 444.406 399.276 438 391.5 438C383.725 438 377.399 444.406 377.399 452.281C377.399 455.349 378.785 458.898 381.636 463.13C382.2 463.968 382.798 464.797 383.414 465.612C379.058 467.189 375.165 470.06 372.342 473.807C369.12 478.084 367.416 483.196 367.416 488.591C367.416 489.148 367.862 489.6 368.412 489.6H414.588C415.138 489.6 415.584 489.148 415.584 488.591C415.584 483.358 413.975 478.372 410.929 474.171ZM401.074 475.861C399.529 475.482 397.894 475.193 396.186 475.002C395.993 473.771 395.329 472.667 394.36 471.922C395.206 470.958 396.091 469.941 396.977 468.885C398.636 470.596 400.03 473.005 401.074 475.861ZM379.39 452.281C379.39 445.518 384.823 440.017 391.5 440.017C398.177 440.017 403.61 445.518 403.61 452.281C403.61 458.374 396.731 466.196 392.178 471.371C391.946 471.635 391.72 471.892 391.501 472.142C391.288 471.9 391.07 471.652 390.847 471.398C386.285 466.207 379.39 458.363 379.39 452.281ZM388.642 471.922C387.674 472.667 387.01 473.771 386.817 475.002C385.108 475.192 383.472 475.482 381.926 475.862C382.971 473.003 384.366 470.592 386.027 468.881C386.922 469.95 387.807 470.97 388.642 471.922ZM377.837 487.583H369.491C370.072 484.057 373.663 480.881 378.936 478.896C378.279 481.63 377.905 484.571 377.837 487.583ZM370.462 481.798C372.608 475.043 377.867 469.528 384.725 467.292C384.734 467.303 384.742 467.313 384.751 467.323C382.784 469.295 381.122 472.117 379.913 475.555C379.802 475.873 379.696 476.197 379.593 476.523C375.744 477.769 372.593 479.599 370.462 481.798ZM390.504 487.583H379.829C379.909 484.24 380.387 481.027 381.191 478.149C382.97 477.637 384.894 477.252 386.923 477.018C387.386 478.747 388.771 480.075 390.505 480.448V487.583H390.504ZM391.781 478.522C391.636 478.537 391.49 478.54 391.345 478.531C389.9 478.449 388.75 477.234 388.75 475.751C388.75 474.81 389.222 473.945 389.97 473.436C390.241 473.743 390.502 474.043 390.752 474.331C390.941 474.549 391.214 474.674 391.5 474.674C391.787 474.674 392.06 474.549 392.249 474.331C392.499 474.042 392.761 473.743 393.031 473.435C393.78 473.944 394.253 474.81 394.253 475.751C394.253 476.123 394.177 476.497 394.034 476.84C393.65 477.751 392.799 478.415 391.787 478.521C391.785 478.521 391.783 478.522 391.781 478.522C391.783 478.522 391.74 478.526 391.781 478.522C391.783 478.522 391.636 478.537 391.781 478.522ZM392.496 487.583V480.448C394.174 480.087 395.525 478.831 396.029 477.184C396.033 477.17 396.037 477.157 396.04 477.143C396.053 477.102 396.065 477.061 396.077 477.018C398.106 477.252 400.03 477.637 401.809 478.149C402.614 481.027 403.092 484.24 403.172 487.583H392.496ZM405.163 487.583C405.095 484.571 404.721 481.63 404.064 478.896C409.337 480.881 412.929 484.057 413.51 487.583H405.163Z" fill="#9090BB"/>
<path d="M391.501 462.368C386.1 462.368 381.707 457.918 381.707 452.449C381.707 446.979 386.1 442.528 391.501 442.528C396.903 442.528 401.298 446.979 401.298 452.449C401.298 457.918 396.903 462.368 391.501 462.368ZM391.501 444.545C387.199 444.545 383.699 448.091 383.699 452.449C383.699 456.806 387.199 460.351 391.501 460.351C395.805 460.351 399.306 456.806 399.306 452.449C399.306 448.091 395.805 444.545 391.501 444.545Z" fill="#9090BB"/>
<path d="M407.824 473.069C407.532 473.069 407.242 472.939 407.046 472.69L407.034 472.676C406.691 472.241 406.761 471.606 407.19 471.258C407.62 470.91 408.246 470.981 408.59 471.416L408.601 471.43C408.944 471.865 408.875 472.499 408.446 472.847C408.262 472.996 408.042 473.069 407.824 473.069Z" fill="#9090BB"/>
</g>
<g filter="url(#filter7_d_10114_33085)">
<circle cx="470.5" cy="66.5" r="26.5" fill="url(#paint7_linear_10114_33085)"/>
</g>
<g filter="url(#filter8_d_10114_33085)">
<circle cx="204" cy="493" r="20" fill="url(#paint8_linear_10114_33085)"/>
</g>
<g filter="url(#filter9_d_10114_33085)">
<circle cx="303.5" cy="76.5" r="12.5" fill="url(#paint9_linear_10114_33085)"/>
</g>
<g filter="url(#filter10_d_10114_33085)">
<ellipse cx="97" cy="393.5" rx="14" ry="13.5" fill="url(#paint10_linear_10114_33085)"/>
</g>
<g filter="url(#filter11_d_10114_33085)">
<circle cx="127.5" cy="284.5" r="29.5" fill="url(#paint11_linear_10114_33085)"/>
</g>
<g filter="url(#filter12_d_10114_33085)">
<ellipse cx="521" cy="393.5" rx="14" ry="13.5" fill="url(#paint12_linear_10114_33085)"/>
</g>
<g filter="url(#filter13_d_10114_33085)">
<path d="M502.393 336.521L374.042 206.793C373.091 205.841 371.794 205.322 370.412 205.322C369.029 205.322 367.732 205.841 366.781 206.793L308.44 265.776C306.02 268.197 302.217 268.197 299.797 265.776L241.455 206.793C239.553 204.89 236.182 204.89 234.281 206.793L105.843 336.435C101.521 340.759 101.521 347.764 105.843 352.089L167.901 414.791C169.803 416.694 173.173 416.694 175.075 414.791L233.417 355.808C235.837 353.386 239.64 353.386 242.06 355.808L300.488 414.704C301.439 415.656 302.735 416.175 304.118 416.175C305.501 416.175 306.798 415.656 307.748 414.704L366.176 355.808C368.596 353.386 372.399 353.386 374.82 355.808L433.161 414.791C434.112 415.742 435.409 416.261 436.791 416.261C438.174 416.261 439.471 415.742 440.422 414.791L502.48 352.089C506.715 347.851 506.715 340.846 502.393 336.521ZM374.042 340.759L358.916 325.105C355.891 321.992 357.015 316.716 361.163 315.159L385.451 305.992C389.772 304.349 394.353 307.981 393.575 312.651L389.081 342.143C388.303 347.073 382.253 349.062 378.709 345.516L374.042 340.759ZM207.487 281.862L171.963 293.192C168.593 294.23 166 290.078 168.506 287.57L208.178 247.527C210.858 244.76 215.525 247.095 215.007 250.9L211.636 276.846C211.376 279.268 209.734 281.17 207.487 281.862ZM214.661 296.305L225.983 326.921C227.366 330.64 223.823 334.359 220.02 333.062L187.867 322.338C185.447 321.559 183.805 319.311 183.718 316.716L183.459 304.781C183.372 302.1 185.101 299.678 187.694 298.813L207.141 292.586C210.253 291.635 213.537 293.278 214.661 296.305ZM192.361 334.446L219.242 343.44C223.563 344.91 224.773 350.273 221.662 353.472L191.67 383.743C189.336 386.078 185.36 384.521 185.274 381.234L184.323 340.5C184.237 336.175 188.299 333.148 192.361 334.446ZM237.392 299.073L271.015 313.084C274.299 314.467 275.682 318.273 274.126 321.473L260.556 348.629C258.655 352.348 253.728 353.127 250.789 350.186L243.183 342.489C242.578 341.883 242.06 341.105 241.801 340.327L229.441 306.857C227.539 301.84 232.466 296.997 237.392 299.073ZM390.291 293.451L365.571 302.705C362.287 303.916 358.657 302.186 357.62 298.813L355.459 291.895C354.767 289.732 355.372 287.311 357.015 285.754L381.821 261.625C383.809 259.635 387.179 260.587 387.957 263.354L394.008 286.187C394.785 289.214 393.23 292.413 390.291 293.451ZM344.741 310.576L318.812 320.262C317.342 320.781 315.786 320.781 314.317 320.175L310.168 318.446C307.748 317.408 306.279 314.986 306.452 312.305L308.872 281.689C308.958 280.219 309.563 278.922 310.601 277.884L326.245 262.057C329.443 258.771 334.974 260.154 336.357 264.565L348.285 303.051C349.322 306.165 347.68 309.451 344.741 310.576ZM288.56 309.451L280.263 305.992C278.448 305.213 277.151 303.657 276.719 301.84L266.002 258.079C264.878 253.581 270.41 250.468 273.694 253.754L296.944 277.192C298.154 278.489 298.846 280.219 298.673 281.949L296.944 304.262C296.599 308.5 292.363 311.094 288.56 309.451ZM291.585 321.732L308.958 328.997C310.86 329.775 312.243 331.419 312.588 333.494L315.873 350.618C316.651 354.424 312.761 357.537 309.218 355.981L281.3 343.959C278.102 342.575 276.719 338.77 278.275 335.656L283.807 324.673C285.276 321.732 288.647 320.435 291.585 321.732ZM327.023 328.046L338.345 323.808C340.592 322.943 343.185 323.548 344.828 325.278L359.175 340.067C361.509 342.489 361.423 346.208 359.089 348.629L339.296 368.607C335.839 372.067 329.961 370.251 329.011 365.494L323.133 335.051C322.615 331.938 324.257 329.083 327.023 328.046ZM410.948 299.505L421.407 299.246C423.74 299.159 425.901 300.457 426.938 302.532L440.594 328.565C441.718 330.64 441.459 333.235 440.076 335.137L413.109 370.51C410.862 373.451 406.54 373.71 403.947 371.116L398.329 365.408C396.946 364.024 396.341 362.121 396.6 360.218L405.071 304.781C405.503 301.754 408.01 299.592 410.948 299.505ZM404.12 284.889L396.514 256.003C395.304 251.506 400.836 248.306 404.12 251.592L430.828 278.576C434.544 282.381 432.038 288.781 426.679 288.954L410.17 289.386C407.318 289.473 404.812 287.57 404.12 284.889ZM374.733 221.928L376.721 223.917C377.499 224.695 378.018 225.646 378.277 226.684L382.512 242.684C383.117 244.846 382.426 247.095 380.87 248.652L358.138 270.706C354.854 273.906 349.409 272.522 348.112 268.111L342.58 250.295C341.889 248.133 342.494 245.798 344.05 244.154L366.09 221.841C368.51 219.506 372.399 219.506 374.733 221.928ZM242.146 221.928L247.073 226.857C247.851 227.636 248.369 228.587 248.629 229.711L262.89 288.262C264.1 293.105 259.26 297.257 254.592 295.354L225.551 283.16C223.045 282.122 221.489 279.441 221.835 276.76L227.971 229.279C228.144 227.982 228.749 226.684 229.7 225.733L233.503 221.841C235.923 219.506 239.813 219.506 242.146 221.928ZM144.824 312.478L165.567 305.819C169.457 304.608 173.433 307.376 173.519 311.44L174.038 331.765C174.124 334.013 172.914 336.089 171.013 337.213L133.415 359.094C130.995 360.478 127.969 360.045 126.068 358.143L116.647 348.629C114.313 346.294 114.313 342.402 116.647 340.067L142.404 314.035C143.009 313.257 143.873 312.738 144.824 312.478ZM168.679 401.213L142.317 374.575C139.551 371.721 140.156 367.051 143.614 365.062L165.567 352.262C169.543 349.927 174.643 352.781 174.729 357.364L175.68 398.272C175.68 399.396 175.248 400.434 174.47 401.213C172.828 402.769 170.235 402.769 168.679 401.213ZM299.797 399.742L267.298 366.878C265.483 365.062 265.051 362.208 266.174 359.872L268.335 355.548C269.805 352.694 273.262 351.397 276.201 352.694L317.083 370.251C318.898 371.029 320.281 372.672 320.627 374.661L322.096 382.186C322.442 384.175 321.837 386.164 320.454 387.634L308.526 399.742C306.02 402.164 302.217 402.164 299.797 399.742ZM432.383 399.742L419.764 386.942C417.603 384.78 417.431 381.407 419.246 378.986L441.805 349.408C444.484 345.862 449.929 346.294 452.004 350.273L463.153 371.375C464.363 373.71 463.931 376.651 462.116 378.467L441.113 399.742C438.693 402.164 434.803 402.164 432.383 399.742ZM468.858 360.478L439.557 304.781C438.088 302.013 440.076 298.64 443.187 298.64L447.855 298.554C449.497 298.467 451.139 299.159 452.349 300.37L491.676 340.067C494.01 342.402 494.01 346.294 491.676 348.629L478.538 361.862C475.599 364.802 470.759 364.11 468.858 360.478Z" fill="#3C3857"/>
<path d="M242.146 221.928L247.073 226.857C247.851 227.636 248.369 228.587 248.629 229.711L262.89 288.262C264.1 293.105 259.26 297.257 254.592 295.354L225.551 283.16C223.045 282.122 221.489 279.441 221.835 276.76L227.971 229.279C228.144 227.982 228.749 226.684 229.7 225.733L233.503 221.841C235.923 219.506 239.813 219.506 242.146 221.928Z" fill="#3C3857"/>
<path d="M207.487 281.862L171.963 293.192C168.593 294.23 166 290.078 168.506 287.57L208.178 247.527C210.858 244.76 215.525 247.095 215.007 250.9L211.636 276.846C211.376 279.268 209.734 281.17 207.487 281.862Z" fill="#3C3857"/>
<path d="M214.661 296.305L225.983 326.921C227.366 330.64 223.823 334.359 220.02 333.062L187.867 322.338C185.447 321.559 183.805 319.311 183.718 316.716L183.459 304.781C183.372 302.1 185.101 299.678 187.694 298.813L207.141 292.586C210.253 291.635 213.537 293.278 214.661 296.305Z" fill="#3C3857"/>
<path d="M144.824 312.478L165.567 305.819C169.457 304.608 173.433 307.376 173.519 311.44L174.038 331.765C174.124 334.013 172.914 336.089 171.013 337.213L133.415 359.094C130.995 360.478 127.969 360.045 126.068 358.143L116.647 348.629C114.313 346.294 114.313 342.402 116.647 340.067L142.404 314.035C143.009 313.257 143.873 312.738 144.824 312.478Z" fill="#3C3857"/>
<path d="M168.679 401.213L142.317 374.575C139.551 371.721 140.156 367.051 143.614 365.062L165.567 352.262C169.543 349.927 174.643 352.781 174.729 357.364L175.68 398.272C175.68 399.396 175.248 400.434 174.47 401.213C172.828 402.769 170.235 402.769 168.679 401.213Z" fill="#3C3857"/>
<path d="M192.361 334.446L219.242 343.44C223.563 344.91 224.773 350.273 221.662 353.472L191.67 383.743C189.336 386.078 185.36 384.521 185.274 381.234L184.323 340.5C184.237 336.175 188.299 333.148 192.361 334.446Z" fill="#3C3857"/>
<path d="M237.392 299.073L271.015 313.084C274.299 314.467 275.682 318.273 274.126 321.473L260.556 348.629C258.655 352.348 253.728 353.127 250.789 350.186L243.183 342.489C242.578 341.883 242.06 341.105 241.801 340.327L229.441 306.857C227.539 301.84 232.466 296.997 237.392 299.073Z" fill="#3C3857"/>
<path d="M288.56 309.451L280.263 305.992C278.448 305.213 277.151 303.657 276.719 301.84L266.002 258.079C264.878 253.581 270.41 250.468 273.694 253.754L296.944 277.192C298.154 278.489 298.846 280.219 298.673 281.949L296.944 304.262C296.599 308.5 292.363 311.094 288.56 309.451Z" fill="#3C3857"/>
<path d="M344.741 310.576L318.812 320.262C317.342 320.781 315.786 320.781 314.317 320.175L310.168 318.446C307.748 317.408 306.279 314.986 306.452 312.305L308.872 281.689C308.958 280.219 309.563 278.922 310.601 277.884L326.245 262.057C329.443 258.771 334.974 260.154 336.357 264.565L348.285 303.051C349.322 306.165 347.68 309.451 344.741 310.576Z" fill="#3C3857"/>
<path d="M374.733 221.928L376.721 223.917C377.499 224.695 378.018 225.646 378.277 226.684L382.512 242.684C383.117 244.846 382.426 247.095 380.87 248.652L358.138 270.706C354.854 273.906 349.409 272.522 348.112 268.111L342.58 250.295C341.889 248.133 342.494 245.798 344.05 244.154L366.09 221.841C368.51 219.506 372.399 219.506 374.733 221.928Z" fill="#3C3857"/>
<path d="M390.291 293.451L365.571 302.705C362.287 303.916 358.657 302.186 357.62 298.813L355.459 291.895C354.767 289.732 355.372 287.311 357.015 285.754L381.821 261.625C383.809 259.635 387.179 260.587 387.957 263.354L394.008 286.187C394.785 289.214 393.23 292.413 390.291 293.451Z" fill="#3C3857"/>
<path d="M404.12 284.889L396.514 256.003C395.304 251.506 400.836 248.306 404.12 251.592L430.828 278.576C434.544 282.381 432.038 288.781 426.679 288.954L410.17 289.386C407.318 289.473 404.812 287.57 404.12 284.889Z" fill="#3C3857"/>
<path d="M410.948 299.505L421.407 299.246C423.74 299.159 425.901 300.457 426.938 302.532L440.594 328.565C441.718 330.64 441.459 333.235 440.076 335.137L413.109 370.51C410.862 373.451 406.54 373.71 403.947 371.116L398.329 365.408C396.946 364.024 396.341 362.121 396.6 360.218L405.071 304.781C405.503 301.754 408.01 299.592 410.948 299.505Z" fill="#3C3857"/>
<path d="M432.383 399.742L419.764 386.942C417.603 384.78 417.431 381.407 419.246 378.986L441.805 349.408C444.484 345.862 449.929 346.294 452.004 350.273L463.153 371.375C464.363 373.71 463.931 376.651 462.116 378.467L441.113 399.742C438.693 402.164 434.803 402.164 432.383 399.742Z" fill="#3C3857"/>
<path d="M468.858 360.478L439.557 304.781C438.088 302.013 440.076 298.64 443.187 298.64L447.855 298.554C449.497 298.467 451.139 299.159 452.349 300.37L491.676 340.067C494.01 342.402 494.01 346.294 491.676 348.629L478.538 361.862C475.599 364.802 470.759 364.11 468.858 360.478Z" fill="#3C3857"/>
<path d="M374.042 340.759L358.916 325.105C355.891 321.992 357.015 316.716 361.163 315.159L385.451 305.992C389.772 304.349 394.353 307.981 393.575 312.651L389.081 342.143C388.303 347.073 382.253 349.062 378.709 345.516L374.042 340.759Z" fill="#3C3857"/>
<path d="M327.023 328.046L338.345 323.808C340.592 322.943 343.185 323.548 344.828 325.278L359.175 340.067C361.509 342.489 361.423 346.208 359.089 348.629L339.296 368.607C335.839 372.067 329.961 370.251 329.011 365.494L323.133 335.051C322.615 331.938 324.257 329.083 327.023 328.046Z" fill="#3C3857"/>
<path d="M291.585 321.732L308.958 328.997C310.86 329.775 312.243 331.419 312.588 333.494L315.873 350.618C316.651 354.424 312.761 357.537 309.218 355.981L281.3 343.959C278.102 342.575 276.719 338.77 278.275 335.656L283.807 324.673C285.276 321.732 288.647 320.435 291.585 321.732Z" fill="#3C3857"/>
<path d="M299.797 399.742L267.298 366.878C265.483 365.062 265.051 362.208 266.174 359.872L268.335 355.548C269.805 352.694 273.262 351.397 276.201 352.694L317.083 370.251C318.898 371.029 320.281 372.672 320.627 374.661L322.096 382.186C322.442 384.175 321.837 386.164 320.454 387.634L308.526 399.742C306.02 402.164 302.217 402.164 299.797 399.742Z" fill="#3C3857"/>
<path d="M512.191 326.786C521.793 336.426 521.903 352.157 512.248 361.851L450.213 424.529L450.19 424.553C446.522 428.223 441.654 430.072 436.79 430.072C431.927 430.072 427.059 428.223 423.391 424.553L423.366 424.528L370.489 371.069L317.534 424.449L317.516 424.467C313.848 428.137 308.981 429.985 304.117 429.985C299.253 429.985 294.386 428.137 290.718 424.467L290.7 424.449L237.745 371.069L184.868 424.528L184.843 424.553C177.547 431.854 165.427 431.854 158.131 424.553L158.107 424.529L96.0725 361.851L96.0443 361.823C86.3697 352.111 86.3707 336.406 96.0472 326.696L96.0725 326.671L224.489 197.05L224.511 197.028C231.807 189.728 243.927 189.728 251.223 197.028L251.248 197.054L304.117 250.504L356.986 197.054L357.011 197.028C360.679 193.358 365.547 191.51 370.411 191.51C375.274 191.51 380.142 193.358 383.81 197.028L383.834 197.053L512.191 326.786Z" fill="url(#paint13_linear_10114_33085)"/>
<path d="M502.393 336.521L374.042 206.793C373.091 205.841 371.794 205.322 370.412 205.322C369.029 205.322 367.732 205.841 366.781 206.793L308.44 265.776C306.02 268.197 302.217 268.197 299.797 265.776L241.455 206.793C239.553 204.89 236.182 204.89 234.281 206.793L105.843 336.435C101.521 340.759 101.521 347.764 105.843 352.089L167.901 414.791C169.803 416.694 173.173 416.694 175.075 414.791L233.417 355.808C235.837 353.386 239.64 353.386 242.06 355.808L300.488 414.704C301.439 415.656 302.735 416.175 304.118 416.175C305.501 416.175 306.798 415.656 307.748 414.704L366.176 355.808C368.596 353.386 372.4 353.386 374.82 355.808L433.161 414.791C434.112 415.742 435.409 416.261 436.792 416.261C438.174 416.261 439.471 415.742 440.422 414.791L502.48 352.089C506.715 347.851 506.715 340.846 502.393 336.521ZM374.042 340.759L358.916 325.105C355.891 321.992 357.015 316.716 361.163 315.159L385.451 305.992C389.772 304.349 394.353 307.981 393.575 312.651L389.081 342.143C388.303 347.073 382.253 349.062 378.709 345.516L374.042 340.759ZM207.487 281.862L171.963 293.192C168.593 294.23 166 290.078 168.506 287.57L208.178 247.527C210.858 244.76 215.525 247.095 215.007 250.9L211.636 276.846C211.376 279.268 209.734 281.17 207.487 281.862ZM214.661 296.305L225.983 326.921C227.366 330.64 223.823 334.359 220.02 333.062L187.867 322.338C185.447 321.559 183.805 319.311 183.718 316.716L183.459 304.781C183.372 302.1 185.101 299.678 187.694 298.813L207.141 292.586C210.253 291.635 213.537 293.278 214.661 296.305ZM192.361 334.446L219.242 343.44C223.563 344.91 224.773 350.273 221.662 353.472L191.67 383.743C189.336 386.078 185.36 384.521 185.274 381.234L184.323 340.5C184.237 336.175 188.299 333.148 192.361 334.446ZM237.393 299.073L271.015 313.084C274.299 314.467 275.682 318.273 274.126 321.473L260.556 348.629C258.655 352.348 253.728 353.127 250.789 350.186L243.183 342.489C242.578 341.883 242.06 341.105 241.801 340.327L229.441 306.857C227.539 301.84 232.466 296.997 237.393 299.073ZM390.291 293.451L365.571 302.705C362.287 303.916 358.657 302.186 357.62 298.813L355.459 291.895C354.767 289.732 355.372 287.311 357.015 285.754L381.821 261.625C383.809 259.635 387.179 260.587 387.957 263.354L394.008 286.187C394.785 289.214 393.23 292.413 390.291 293.451ZM344.741 310.576L318.812 320.262C317.342 320.781 315.786 320.781 314.317 320.175L310.168 318.446C307.748 317.408 306.279 314.986 306.452 312.305L308.872 281.689C308.958 280.219 309.563 278.922 310.601 277.884L326.245 262.057C329.443 258.771 334.974 260.154 336.357 264.565L348.285 303.051C349.322 306.165 347.68 309.451 344.741 310.576ZM288.56 309.451L280.263 305.992C278.448 305.213 277.151 303.657 276.719 301.84L266.002 258.079C264.878 253.581 270.41 250.468 273.694 253.754L296.944 277.192C298.154 278.489 298.846 280.219 298.673 281.949L296.944 304.262C296.599 308.5 292.363 311.094 288.56 309.451ZM291.585 321.732L308.958 328.997C310.86 329.775 312.243 331.419 312.588 333.494L315.873 350.618C316.651 354.424 312.761 357.537 309.218 355.981L281.3 343.959C278.102 342.575 276.719 338.77 278.275 335.656L283.807 324.673C285.276 321.732 288.647 320.435 291.585 321.732ZM327.023 328.046L338.345 323.808C340.592 322.943 343.185 323.548 344.828 325.278L359.175 340.067C361.509 342.489 361.423 346.208 359.089 348.629L339.296 368.608C335.839 372.067 329.961 370.251 329.011 365.494L323.133 335.051C322.615 331.938 324.257 329.083 327.023 328.046ZM410.948 299.505L421.407 299.246C423.74 299.159 425.901 300.457 426.938 302.532L440.594 328.565C441.718 330.64 441.459 333.235 440.076 335.137L413.109 370.51C410.862 373.451 406.54 373.71 403.947 371.116L398.329 365.408C396.946 364.024 396.341 362.121 396.601 360.218L405.071 304.781C405.503 301.754 408.01 299.592 410.948 299.505ZM404.12 284.889L396.514 256.003C395.304 251.506 400.836 248.306 404.12 251.592L430.828 278.576C434.544 282.381 432.038 288.781 426.679 288.954L410.17 289.386C407.318 289.473 404.812 287.57 404.12 284.889ZM374.733 221.928L376.721 223.917C377.499 224.695 378.018 225.646 378.277 226.684L382.512 242.684C383.117 244.846 382.426 247.095 380.87 248.652L358.138 270.706C354.854 273.906 349.409 272.522 348.112 268.111L342.58 250.295C341.889 248.133 342.494 245.798 344.05 244.154L366.09 221.841C368.51 219.506 372.399 219.506 374.733 221.928ZM242.146 221.928L247.073 226.857C247.851 227.636 248.369 228.587 248.629 229.711L262.89 288.262C264.1 293.105 259.26 297.257 254.593 295.354L225.551 283.16C223.045 282.122 221.489 279.441 221.835 276.76L227.971 229.279C228.144 227.982 228.749 226.684 229.7 225.733L233.503 221.841C235.923 219.506 239.813 219.506 242.146 221.928ZM144.824 312.478L165.567 305.819C169.457 304.608 173.433 307.376 173.519 311.44L174.038 331.765C174.124 334.013 172.914 336.089 171.013 337.213L133.415 359.094C130.995 360.478 127.969 360.045 126.068 358.143L116.647 348.629C114.313 346.294 114.313 342.402 116.647 340.067L142.404 314.035C143.009 313.257 143.873 312.738 144.824 312.478ZM168.679 401.213L142.317 374.575C139.551 371.721 140.156 367.051 143.614 365.062L165.567 352.262C169.543 349.927 174.643 352.781 174.729 357.364L175.68 398.272C175.68 399.396 175.248 400.434 174.47 401.213C172.828 402.769 170.235 402.769 168.679 401.213ZM299.797 399.742L267.298 366.878C265.483 365.062 265.051 362.208 266.174 359.872L268.335 355.548C269.805 352.694 273.262 351.397 276.201 352.694L317.083 370.251C318.898 371.029 320.281 372.672 320.627 374.662L322.096 382.186C322.442 384.175 321.837 386.164 320.454 387.634L308.526 399.742C306.02 402.164 302.217 402.164 299.797 399.742ZM432.383 399.742L419.764 386.942C417.604 384.78 417.431 381.407 419.246 378.986L441.805 349.408C444.484 345.862 449.929 346.294 452.004 350.273L463.153 371.375C464.363 373.71 463.931 376.651 462.116 378.467L441.113 399.742C438.693 402.164 434.804 402.164 432.383 399.742ZM468.858 360.478L439.557 304.781C438.088 302.013 440.076 298.64 443.187 298.64L447.855 298.554C449.497 298.467 451.139 299.159 452.349 300.37L491.676 340.067C494.01 342.402 494.01 346.294 491.676 348.629L478.538 361.862C475.599 364.802 470.759 364.11 468.858 360.478Z" fill="#D61F85"/>
</g>
<defs>
<filter id="filter0_d_10114_33085" x="0" y="49" width="304" height="303" filterUnits="userSpaceOnUse" color-interpolation-filters="sRGB">
<feFlood flood-opacity="0" result="BackgroundImageFix"/>
<feColorMatrix in="SourceAlpha" type="matrix" values="0 0 0 0 0 0 0 0 0 0 0 0 0 0 0 0 0 0 127 0" result="hardAlpha"/>
<feOffset dy="20"/>
<feGaussianBlur stdDeviation="30"/>
<feComposite in2="hardAlpha" operator="out"/>
<feColorMatrix type="matrix" values="0 0 0 0 0 0 0 0 0 0 0 0 0 0 0.395833 0 0 0 0.1 0"/>
<feBlend mode="normal" in2="BackgroundImageFix" result="effect1_dropShadow_10114_33085"/>
<feBlend mode="normal" in="SourceGraphic" in2="effect1_dropShadow_10114_33085" result="shape"/>
</filter>
<filter id="filter1_d_10114_33085" x="276" y="82" width="208" height="208" filterUnits="userSpaceOnUse" color-interpolation-filters="sRGB">
<feFlood flood-opacity="0" result="BackgroundImageFix"/>
<feColorMatrix in="SourceAlpha" type="matrix" values="0 0 0 0 0 0 0 0 0 0 0 0 0 0 0 0 0 0 127 0" result="hardAlpha"/>
<feOffset dy="20"/>
<feGaussianBlur stdDeviation="30"/>
<feComposite in2="hardAlpha" operator="out"/>
<feColorMatrix type="matrix" values="0 0 0 0 0 0 0 0 0 0 0 0 0 0 0.395833 0 0 0 0.1 0"/>
<feBlend mode="normal" in2="BackgroundImageFix" result="effect1_dropShadow_10114_33085"/>
<feBlend mode="normal" in="SourceGraphic" in2="effect1_dropShadow_10114_33085" result="shape"/>
</filter>
<filter id="filter2_d_10114_33085" x="164" y="83" width="252" height="252" filterUnits="userSpaceOnUse" color-interpolation-filters="sRGB">
<feFlood flood-opacity="0" result="BackgroundImageFix"/>
<feColorMatrix in="SourceAlpha" type="matrix" values="0 0 0 0 0 0 0 0 0 0 0 0 0 0 0 0 0 0 127 0" result="hardAlpha"/>
<feOffset dy="20"/>
<feGaussianBlur stdDeviation="30"/>
<feComposite in2="hardAlpha" operator="out"/>
<feColorMatrix type="matrix" values="0 0 0 0 0 0 0 0 0 0 0 0 0 0 0.395833 0 0 0 0.1 0"/>
<feBlend mode="normal" in2="BackgroundImageFix" result="effect1_dropShadow_10114_33085"/>
<feBlend mode="normal" in="SourceGraphic" in2="effect1_dropShadow_10114_33085" result="shape"/>
</filter>
<filter id="filter3_d_10114_33085" x="332" y="90" width="261" height="261" filterUnits="userSpaceOnUse" color-interpolation-filters="sRGB">
<feFlood flood-opacity="0" result="BackgroundImageFix"/>
<feColorMatrix in="SourceAlpha" type="matrix" values="0 0 0 0 0 0 0 0 0 0 0 0 0 0 0 0 0 0 127 0" result="hardAlpha"/>
<feOffset dy="20"/>
<feGaussianBlur stdDeviation="30"/>
<feComposite in2="hardAlpha" operator="out"/>
<feColorMatrix type="matrix" values="0 0 0 0 0 0 0 0 0 0 0 0 0 0 0.395833 0 0 0 0.1 0"/>
<feBlend mode="normal" in2="BackgroundImageFix" result="effect1_dropShadow_10114_33085"/>
<feBlend mode="normal" in="SourceGraphic" in2="effect1_dropShadow_10114_33085" result="shape"/>
</filter>
<filter id="filter4_d_10114_33085" x="150" y="367" width="169" height="168" filterUnits="userSpaceOnUse" color-interpolation-filters="sRGB">
<feFlood flood-opacity="0" result="BackgroundImageFix"/>
<feColorMatrix in="SourceAlpha" type="matrix" values="0 0 0 0 0 0 0 0 0 0 0 0 0 0 0 0 0 0 127 0" result="hardAlpha"/>
<feOffset dy="20"/>
<feGaussianBlur stdDeviation="30"/>
<feComposite in2="hardAlpha" operator="out"/>
<feColorMatrix type="matrix" values="0 0 0 0 0 0 0 0 0 0 0 0 0 0 0.395833 0 0 0 0.1 0"/>
<feBlend mode="normal" in2="BackgroundImageFix" result="effect1_dropShadow_10114_33085"/>
<feBlend mode="normal" in="SourceGraphic" in2="effect1_dropShadow_10114_33085" result="shape"/>
</filter>
<filter id="filter5_d_10114_33085" x="384" y="215" width="192" height="192" filterUnits="userSpaceOnUse" color-interpolation-filters="sRGB">
<feFlood flood-opacity="0" result="BackgroundImageFix"/>
<feColorMatrix in="SourceAlpha" type="matrix" values="0 0 0 0 0 0 0 0 0 0 0 0 0 0 0 0 0 0 127 0" result="hardAlpha"/>
<feOffset dy="20"/>
<feGaussianBlur stdDeviation="30"/>
<feComposite in2="hardAlpha" operator="out"/>
<feColorMatrix type="matrix" values="0 0 0 0 0 0 0 0 0 0 0 0 0 0 0.395833 0 0 0 0.1 0"/>
<feBlend mode="normal" in2="BackgroundImageFix" result="effect1_dropShadow_10114_33085"/>
<feBlend mode="normal" in="SourceGraphic" in2="effect1_dropShadow_10114_33085" result="shape"/>
</filter>
<filter id="filter6_d_10114_33085" x="292" y="387" width="199" height="200" filterUnits="userSpaceOnUse" color-interpolation-filters="sRGB">
<feFlood flood-opacity="0" result="BackgroundImageFix"/>
<feColorMatrix in="SourceAlpha" type="matrix" values="0 0 0 0 0 0 0 0 0 0 0 0 0 0 0 0 0 0 127 0" result="hardAlpha"/>
<feOffset dy="20"/>
<feGaussianBlur stdDeviation="30"/>
<feComposite in2="hardAlpha" operator="out"/>
<feColorMatrix type="matrix" values="0 0 0 0 0 0 0 0 0 0 0 0 0 0 0.395833 0 0 0 0.1 0"/>
<feBlend mode="normal" in2="BackgroundImageFix" result="effect1_dropShadow_10114_33085"/>
<feBlend mode="normal" in="SourceGraphic" in2="effect1_dropShadow_10114_33085" result="shape"/>
</filter>
<filter id="filter7_d_10114_33085" x="384" y="0" width="173" height="173" filterUnits="userSpaceOnUse" color-interpolation-filters="sRGB">
<feFlood flood-opacity="0" result="BackgroundImageFix"/>
<feColorMatrix in="SourceAlpha" type="matrix" values="0 0 0 0 0 0 0 0 0 0 0 0 0 0 0 0 0 0 127 0" result="hardAlpha"/>
<feOffset dy="20"/>
<feGaussianBlur stdDeviation="30"/>
<feComposite in2="hardAlpha" operator="out"/>
<feColorMatrix type="matrix" values="0 0 0 0 0 0 0 0 0 0 0 0 0 0 0.395833 0 0 0 0.1 0"/>
<feBlend mode="normal" in2="BackgroundImageFix" result="effect1_dropShadow_10114_33085"/>
<feBlend mode="normal" in="SourceGraphic" in2="effect1_dropShadow_10114_33085" result="shape"/>
</filter>
<filter id="filter8_d_10114_33085" x="124" y="433" width="160" height="160" filterUnits="userSpaceOnUse" color-interpolation-filters="sRGB">
<feFlood flood-opacity="0" result="BackgroundImageFix"/>
<feColorMatrix in="SourceAlpha" type="matrix" values="0 0 0 0 0 0 0 0 0 0 0 0 0 0 0 0 0 0 127 0" result="hardAlpha"/>
<feOffset dy="20"/>
<feGaussianBlur stdDeviation="30"/>
<feComposite in2="hardAlpha" operator="out"/>
<feColorMatrix type="matrix" values="0 0 0 0 0 0 0 0 0 0 0 0 0 0 0.395833 0 0 0 0.1 0"/>
<feBlend mode="normal" in2="BackgroundImageFix" result="effect1_dropShadow_10114_33085"/>
<feBlend mode="normal" in="SourceGraphic" in2="effect1_dropShadow_10114_33085" result="shape"/>
</filter>
<filter id="filter9_d_10114_33085" x="231" y="24" width="145" height="145" filterUnits="userSpaceOnUse" color-interpolation-filters="sRGB">
<feFlood flood-opacity="0" result="BackgroundImageFix"/>
<feColorMatrix in="SourceAlpha" type="matrix" values="0 0 0 0 0 0 0 0 0 0 0 0 0 0 0 0 0 0 127 0" result="hardAlpha"/>
<feOffset dy="20"/>
<feGaussianBlur stdDeviation="30"/>
<feComposite in2="hardAlpha" operator="out"/>
<feColorMatrix type="matrix" values="0 0 0 0 0 0 0 0 0 0 0 0 0 0 0.395833 0 0 0 0.1 0"/>
<feBlend mode="normal" in2="BackgroundImageFix" result="effect1_dropShadow_10114_33085"/>
<feBlend mode="normal" in="SourceGraphic" in2="effect1_dropShadow_10114_33085" result="shape"/>
</filter>
<filter id="filter10_d_10114_33085" x="23" y="340" width="148" height="147" filterUnits="userSpaceOnUse" color-interpolation-filters="sRGB">
<feFlood flood-opacity="0" result="BackgroundImageFix"/>
<feColorMatrix in="SourceAlpha" type="matrix" values="0 0 0 0 0 0 0 0 0 0 0 0 0 0 0 0 0 0 127 0" result="hardAlpha"/>
<feOffset dy="20"/>
<feGaussianBlur stdDeviation="30"/>
<feComposite in2="hardAlpha" operator="out"/>
<feColorMatrix type="matrix" values="0 0 0 0 0 0 0 0 0 0 0 0 0 0 0.395833 0 0 0 0.1 0"/>
<feBlend mode="normal" in2="BackgroundImageFix" result="effect1_dropShadow_10114_33085"/>
<feBlend mode="normal" in="SourceGraphic" in2="effect1_dropShadow_10114_33085" result="shape"/>
</filter>
<filter id="filter11_d_10114_33085" x="38" y="215" width="179" height="179" filterUnits="userSpaceOnUse" color-interpolation-filters="sRGB">
<feFlood flood-opacity="0" result="BackgroundImageFix"/>
<feColorMatrix in="SourceAlpha" type="matrix" values="0 0 0 0 0 0 0 0 0 0 0 0 0 0 0 0 0 0 127 0" result="hardAlpha"/>
<feOffset dy="20"/>
<feGaussianBlur stdDeviation="30"/>
<feComposite in2="hardAlpha" operator="out"/>
<feColorMatrix type="matrix" values="0 0 0 0 0 0 0 0 0 0 0 0 0 0 0.395833 0 0 0 0.1 0"/>
<feBlend mode="normal" in2="BackgroundImageFix" result="effect1_dropShadow_10114_33085"/>
<feBlend mode="normal" in="SourceGraphic" in2="effect1_dropShadow_10114_33085" result="shape"/>
</filter>
<filter id="filter12_d_10114_33085" x="447" y="340" width="148" height="147" filterUnits="userSpaceOnUse" color-interpolation-filters="sRGB">
<feFlood flood-opacity="0" result="BackgroundImageFix"/>
<feColorMatrix in="SourceAlpha" type="matrix" values="0 0 0 0 0 0 0 0 0 0 0 0 0 0 0 0 0 0 127 0" result="hardAlpha"/>
<feOffset dy="20"/>
<feGaussianBlur stdDeviation="30"/>
<feComposite in2="hardAlpha" operator="out"/>
<feColorMatrix type="matrix" values="0 0 0 0 0 0 0 0 0 0 0 0 0 0 0.395833 0 0 0 0.1 0"/>
<feBlend mode="normal" in2="BackgroundImageFix" result="effect1_dropShadow_10114_33085"/>
<feBlend mode="normal" in="SourceGraphic" in2="effect1_dropShadow_10114_33085" result="shape"/>
</filter>
<filter id="filter13_d_10114_33085" x="28.7891" y="151.51" width="550.652" height="358.562" filterUnits="userSpaceOnUse" color-interpolation-filters="sRGB">
<feFlood flood-opacity="0" result="BackgroundImageFix"/>
<feColorMatrix in="SourceAlpha" type="matrix" values="0 0 0 0 0 0 0 0 0 0 0 0 0 0 0 0 0 0 127 0" result="hardAlpha"/>
<feOffset dy="20"/>
<feGaussianBlur stdDeviation="30"/>
<feComposite in2="hardAlpha" operator="out"/>
<feColorMatrix type="matrix" values="0 0 0 0 0 0 0 0 0 0 0 0 0 0 0.395833 0 0 0 0.1 0"/>
<feBlend mode="normal" in2="BackgroundImageFix" result="effect1_dropShadow_10114_33085"/>
<feBlend mode="normal" in="SourceGraphic" in2="effect1_dropShadow_10114_33085" result="shape"/>
</filter>
<linearGradient id="paint0_linear_10114_33085" x1="152" y1="89" x2="152" y2="272" gradientUnits="userSpaceOnUse">
<stop stop-color="#F8F8FF"/>
<stop offset="1" stop-color="#DCDCEF"/>
</linearGradient>
<linearGradient id="paint1_linear_10114_33085" x1="380" y1="122" x2="380" y2="210" gradientUnits="userSpaceOnUse">
<stop stop-color="#F8F8FF"/>
<stop offset="1" stop-color="#DCDCEF"/>
</linearGradient>
<linearGradient id="paint2_linear_10114_33085" x1="290" y1="123" x2="290" y2="255" gradientUnits="userSpaceOnUse">
<stop stop-color="#F8F8FF"/>
<stop offset="1" stop-color="#DCDCEF"/>
</linearGradient>
<linearGradient id="paint3_linear_10114_33085" x1="462.5" y1="130" x2="462.5" y2="271" gradientUnits="userSpaceOnUse">
<stop stop-color="#F8F8FF"/>
<stop offset="1" stop-color="#DCDCEF"/>
</linearGradient>
<linearGradient id="paint4_linear_10114_33085" x1="234.5" y1="407" x2="234.5" y2="455" gradientUnits="userSpaceOnUse">
<stop stop-color="#F8F8FF"/>
<stop offset="1" stop-color="#DCDCEF"/>
</linearGradient>
<linearGradient id="paint5_linear_10114_33085" x1="480" y1="255" x2="480" y2="327" gradientUnits="userSpaceOnUse">
<stop stop-color="#F8F8FF"/>
<stop offset="1" stop-color="#DCDCEF"/>
</linearGradient>
<linearGradient id="paint6_linear_10114_33085" x1="391.5" y1="427" x2="391.5" y2="507" gradientUnits="userSpaceOnUse">
<stop stop-color="#F8F8FF"/>
<stop offset="1" stop-color="#DCDCEF"/>
</linearGradient>
<linearGradient id="paint7_linear_10114_33085" x1="470.5" y1="40" x2="470.5" y2="93" gradientUnits="userSpaceOnUse">
<stop stop-color="#F8F8FF"/>
<stop offset="1" stop-color="#DCDCEF"/>
</linearGradient>
<linearGradient id="paint8_linear_10114_33085" x1="204" y1="473" x2="204" y2="513" gradientUnits="userSpaceOnUse">
<stop stop-color="#F8F8FF"/>
<stop offset="1" stop-color="#DCDCEF"/>
</linearGradient>
<linearGradient id="paint9_linear_10114_33085" x1="303.5" y1="64" x2="303.5" y2="89" gradientUnits="userSpaceOnUse">
<stop stop-color="#F8F8FF"/>
<stop offset="1" stop-color="#DCDCEF"/>
</linearGradient>
<linearGradient id="paint10_linear_10114_33085" x1="97" y1="380" x2="97" y2="407" gradientUnits="userSpaceOnUse">
<stop stop-color="#F8F8FF"/>
<stop offset="1" stop-color="#DCDCEF"/>
</linearGradient>
<linearGradient id="paint11_linear_10114_33085" x1="127.5" y1="255" x2="127.5" y2="314" gradientUnits="userSpaceOnUse">
<stop stop-color="#F8F8FF"/>
<stop offset="1" stop-color="#DCDCEF"/>
</linearGradient>
<linearGradient id="paint12_linear_10114_33085" x1="521" y1="380" x2="521" y2="407" gradientUnits="userSpaceOnUse">
<stop stop-color="#F8F8FF"/>
<stop offset="1" stop-color="#DCDCEF"/>
</linearGradient>
<linearGradient id="paint13_linear_10114_33085" x1="304.115" y1="191.51" x2="304.115" y2="430.072" gradientUnits="userSpaceOnUse">
<stop stop-color="#F8F8FF"/>
<stop offset="1" stop-color="#DCDCEF"/>
</linearGradient>
</defs>
</svg>
