<svg width="302" height="221" viewBox="0 0 302 221" fill="none" xmlns="http://www.w3.org/2000/svg">
  <g filter="url(#filter0_d_614_2827)">
    <path d="M234.149 101.057L180.106 46.4347C179.706 46.0342 179.16 45.8157 178.578 45.8157C177.995 45.8157 177.449 46.0342 177.049 46.4347L152.484 71.2698C151.465 72.2894 149.864 72.2894 148.845 71.2698L124.28 46.4347C123.479 45.6336 122.06 45.6336 121.259 46.4347L67.1801 101.021C65.3605 102.842 65.3605 105.791 67.1801 107.612L93.31 134.013C94.1106 134.814 95.5299 134.814 96.3305 134.013L120.895 109.178C121.914 108.158 123.516 108.158 124.535 109.178L149.136 133.977C149.536 134.377 150.082 134.596 150.665 134.596C151.247 134.596 151.793 134.377 152.193 133.977L176.794 109.178C177.813 108.158 179.415 108.158 180.434 109.178L204.998 134.013C205.399 134.414 205.945 134.632 206.527 134.632C207.109 134.632 207.655 134.414 208.055 134.013L234.185 107.612C235.968 105.828 235.968 102.878 234.149 101.057ZM180.106 102.842L173.737 96.2506C172.464 94.9396 172.937 92.7183 174.684 92.0628L184.91 88.2028C186.729 87.5109 188.658 89.0404 188.331 91.0068L186.438 103.424C186.111 105.5 183.563 106.338 182.071 104.845L180.106 102.842ZM109.978 78.043L95.0204 82.8134C93.6011 83.2504 92.5093 81.5025 93.5647 80.4464L110.269 63.5862C111.397 62.421 113.362 63.4042 113.144 65.0064L111.725 75.9309C111.615 76.9506 110.924 77.7517 109.978 78.043ZM112.998 84.1243L117.766 97.0153C118.348 98.5811 116.856 100.147 115.255 99.6008L101.717 95.0853C100.698 94.7575 100.006 93.8108 99.9698 92.7183L99.8606 87.693C99.8242 86.5642 100.552 85.5445 101.644 85.1804L109.832 82.5585C111.142 82.1579 112.525 82.8498 112.998 84.1243ZM103.609 100.183L114.927 103.971C116.747 104.59 117.256 106.847 115.946 108.195L103.318 120.94C102.335 121.923 100.661 121.268 100.625 119.884L100.225 102.732C100.188 100.912 101.899 99.6372 103.609 100.183ZM122.57 85.2896L136.726 91.1889C138.109 91.7715 138.691 93.3738 138.036 94.7211L132.323 106.155C131.522 107.721 129.448 108.049 128.21 106.811L125.008 103.57C124.753 103.315 124.535 102.987 124.426 102.66L119.221 88.567C118.421 86.4549 120.495 84.4157 122.57 85.2896ZM186.948 82.9226L176.54 86.8191C175.157 87.3289 173.628 86.6006 173.191 85.1804L172.282 82.2672C171.991 81.3568 172.245 80.3372 172.937 79.6817L183.381 69.5219C184.218 68.6843 185.638 69.0849 185.965 70.2502L188.513 79.8638C188.84 81.1383 188.185 82.4857 186.948 82.9226ZM167.769 90.1328L156.851 94.2113C156.233 94.4298 155.577 94.4298 154.959 94.1749L153.212 93.4466C152.193 93.0096 151.574 91.99 151.647 90.8611L152.666 77.9702C152.702 77.3511 152.957 76.8049 153.394 76.3679L159.981 69.704C161.328 68.3202 163.657 68.9028 164.239 70.76L169.261 86.9647C169.698 88.2757 169.006 89.6594 167.769 90.1328ZM144.114 89.6594L140.62 88.2028C139.856 87.8751 139.31 87.2196 139.128 86.4549L134.615 68.0289C134.142 66.1353 136.471 64.8243 137.854 66.2081L147.644 76.0766C148.153 76.6228 148.445 77.3511 148.372 78.0794L147.644 87.4745C147.498 89.2589 145.715 90.3513 144.114 89.6594ZM145.388 94.8304L152.702 97.8892C153.503 98.217 154.085 98.9089 154.231 99.7828L155.614 106.993C155.941 108.595 154.304 109.906 152.812 109.251L141.057 104.189C139.71 103.606 139.128 102.004 139.783 100.693L142.112 96.0685C142.731 94.8304 144.15 94.2842 145.388 94.8304ZM160.309 97.4887L165.076 95.7043C166.022 95.3402 167.114 95.5951 167.805 96.3234L173.847 102.55C174.829 103.57 174.793 105.136 173.81 106.155L165.476 114.567C164.021 116.024 161.546 115.259 161.146 113.256L158.671 100.438C158.453 99.1274 159.144 97.9257 160.309 97.4887ZM195.646 85.4717L200.049 85.3625C201.032 85.326 201.942 85.8723 202.378 86.7462L208.128 97.7072C208.601 98.5811 208.492 99.6736 207.91 100.475L196.555 115.368C195.609 116.607 193.79 116.716 192.698 115.623L190.332 113.22C189.75 112.637 189.495 111.836 189.604 111.035L193.171 87.693C193.353 86.4185 194.408 85.5081 195.646 85.4717ZM192.771 79.3176L189.568 67.1549C189.059 65.2613 191.388 63.914 192.771 65.2977L204.016 76.6593C205.581 78.2615 204.525 80.9562 202.269 81.0291L195.318 81.2111C194.117 81.2476 193.062 80.4464 192.771 79.3176ZM180.397 52.8074L181.234 53.6449C181.562 53.9727 181.78 54.3732 181.889 54.8102L183.672 61.547C183.927 62.4574 183.636 63.4042 182.981 64.0596L173.41 73.3455C172.027 74.6928 169.734 74.1102 169.188 72.253L166.859 64.7515C166.568 63.8411 166.823 62.8579 167.478 62.166L176.758 52.771C177.777 51.7877 179.415 51.7877 180.397 52.8074ZM124.571 52.8074L126.645 54.883C126.973 55.2108 127.191 55.6113 127.301 56.0847L133.305 80.7377C133.815 82.777 131.777 84.5249 129.812 83.7238L117.584 78.5892C116.528 78.1523 115.873 77.0234 116.019 75.8945L118.603 55.9027C118.676 55.3564 118.93 54.8102 119.331 54.4096L120.932 52.771C121.951 51.7877 123.588 51.7877 124.571 52.8074ZM83.5932 90.934L92.3274 88.13C93.965 87.6202 95.6391 88.7855 95.6755 90.497L95.8938 99.0545C95.9302 100.001 95.4207 100.875 94.6201 101.349L78.7893 110.562C77.7704 111.144 76.4966 110.962 75.696 110.161L71.7292 106.155C70.7466 105.172 70.7466 103.534 71.7292 102.55L82.5742 91.5894C82.8289 91.2617 83.1928 91.0432 83.5932 90.934ZM93.6375 128.296L82.5378 117.08C81.3732 115.878 81.628 113.912 83.0837 113.074L92.3274 107.685C94.0014 106.702 96.1486 107.903 96.185 109.833L96.5853 127.058C96.5853 127.531 96.4033 127.968 96.0758 128.296C95.3843 128.951 94.2926 128.951 93.6375 128.296ZM148.845 127.677L135.161 113.839C134.397 113.074 134.215 111.873 134.688 110.889L135.598 109.069C136.217 107.867 137.672 107.321 138.91 107.867L156.123 115.259C156.888 115.587 157.47 116.279 157.615 117.116L158.234 120.285C158.38 121.122 158.125 121.96 157.543 122.579L152.521 127.677C151.465 128.696 149.864 128.696 148.845 127.677ZM204.671 127.677L199.358 122.287C198.448 121.377 198.375 119.957 199.139 118.937L208.638 106.483C209.766 104.99 212.059 105.172 212.932 106.847L217.627 115.733C218.136 116.716 217.954 117.954 217.19 118.719L208.347 127.677C207.328 128.696 205.69 128.696 204.671 127.677ZM220.029 111.144L207.692 87.693C207.073 86.5277 207.91 85.1076 209.22 85.1076L211.185 85.0711C211.877 85.0347 212.568 85.326 213.078 85.8358L229.636 102.55C230.619 103.534 230.619 105.172 229.636 106.155L224.105 111.727C222.867 112.965 220.829 112.674 220.029 111.144Z" fill="#3C3857"/>
    <path d="M124.571 52.8074L126.645 54.883C126.973 55.2108 127.191 55.6113 127.301 56.0847L133.305 80.7377C133.815 82.777 131.777 84.5249 129.812 83.7238L117.584 78.5892C116.528 78.1523 115.873 77.0234 116.019 75.8945L118.603 55.9027C118.676 55.3564 118.93 54.8102 119.331 54.4096L120.932 52.771C121.951 51.7877 123.588 51.7877 124.571 52.8074Z" fill="#3C3857"/>
    <path d="M109.978 78.043L95.0204 82.8134C93.6011 83.2504 92.5093 81.5025 93.5647 80.4464L110.269 63.5862C111.397 62.421 113.362 63.4042 113.144 65.0064L111.725 75.9309C111.615 76.9506 110.924 77.7517 109.978 78.043Z" fill="#3C3857"/>
    <path d="M112.998 84.1243L117.766 97.0153C118.348 98.5811 116.856 100.147 115.255 99.6008L101.717 95.0853C100.698 94.7575 100.006 93.8108 99.9698 92.7183L99.8606 87.693C99.8242 86.5642 100.552 85.5445 101.644 85.1804L109.832 82.5585C111.142 82.1579 112.525 82.8498 112.998 84.1243Z" fill="#3C3857"/>
    <path d="M83.5932 90.934L92.3274 88.13C93.965 87.6202 95.6391 88.7855 95.6755 90.497L95.8938 99.0545C95.9302 100.001 95.4207 100.875 94.6201 101.349L78.7893 110.562C77.7704 111.144 76.4966 110.962 75.696 110.161L71.7292 106.155C70.7466 105.172 70.7466 103.534 71.7292 102.55L82.5742 91.5894C82.8289 91.2617 83.1928 91.0432 83.5932 90.934Z" fill="#3C3857"/>
    <path d="M93.6375 128.296L82.5378 117.08C81.3732 115.878 81.628 113.912 83.0837 113.074L92.3274 107.685C94.0014 106.702 96.1486 107.903 96.185 109.833L96.5853 127.058C96.5853 127.531 96.4033 127.968 96.0758 128.296C95.3843 128.951 94.2926 128.951 93.6375 128.296Z" fill="#3C3857"/>
    <path d="M103.609 100.183L114.927 103.971C116.747 104.59 117.256 106.847 115.946 108.195L103.318 120.94C102.335 121.923 100.661 121.268 100.625 119.884L100.225 102.732C100.188 100.912 101.899 99.6372 103.609 100.183Z" fill="#3C3857"/>
    <path d="M122.57 85.2896L136.726 91.1889C138.109 91.7715 138.691 93.3738 138.036 94.7211L132.323 106.155C131.522 107.721 129.448 108.049 128.21 106.811L125.008 103.57C124.753 103.315 124.535 102.987 124.426 102.66L119.221 88.567C118.421 86.4549 120.495 84.4157 122.57 85.2896Z" fill="#3C3857"/>
    <path d="M144.114 89.6594L140.62 88.2028C139.856 87.8751 139.31 87.2196 139.128 86.4549L134.615 68.0289C134.142 66.1353 136.471 64.8243 137.854 66.2081L147.644 76.0766C148.153 76.6228 148.445 77.3511 148.372 78.0794L147.644 87.4745C147.498 89.2589 145.715 90.3513 144.114 89.6594Z" fill="#3C3857"/>
    <path d="M167.769 90.1328L156.851 94.2113C156.233 94.4298 155.577 94.4298 154.959 94.1749L153.212 93.4466C152.193 93.0096 151.574 91.99 151.647 90.8611L152.666 77.9702C152.702 77.3511 152.957 76.8049 153.394 76.3679L159.981 69.704C161.328 68.3202 163.657 68.9028 164.239 70.76L169.261 86.9647C169.698 88.2757 169.006 89.6594 167.769 90.1328Z" fill="#3C3857"/>
    <path d="M180.397 52.8074L181.234 53.6449C181.562 53.9727 181.78 54.3732 181.889 54.8102L183.672 61.547C183.927 62.4574 183.636 63.4042 182.981 64.0596L173.41 73.3455C172.027 74.6928 169.734 74.1102 169.188 72.253L166.859 64.7515C166.568 63.8411 166.823 62.8579 167.478 62.166L176.758 52.771C177.777 51.7877 179.415 51.7877 180.397 52.8074Z" fill="#3C3857"/>
    <path d="M186.948 82.9226L176.54 86.8191C175.157 87.3289 173.628 86.6006 173.191 85.1804L172.282 82.2672C171.991 81.3568 172.245 80.3372 172.937 79.6817L183.381 69.5219C184.218 68.6843 185.638 69.0849 185.965 70.2502L188.513 79.8638C188.84 81.1383 188.185 82.4857 186.948 82.9226Z" fill="#3C3857"/>
    <path d="M192.771 79.3176L189.568 67.1549C189.059 65.2613 191.388 63.914 192.771 65.2977L204.016 76.6593C205.581 78.2615 204.525 80.9562 202.269 81.0291L195.318 81.2111C194.117 81.2476 193.062 80.4464 192.771 79.3176Z" fill="#3C3857"/>
    <path d="M195.646 85.4717L200.049 85.3625C201.032 85.326 201.942 85.8723 202.378 86.7462L208.128 97.7072C208.601 98.5811 208.492 99.6736 207.91 100.475L196.555 115.368C195.609 116.607 193.79 116.716 192.698 115.623L190.332 113.22C189.75 112.637 189.495 111.836 189.604 111.035L193.171 87.693C193.353 86.4185 194.408 85.5081 195.646 85.4717Z" fill="#3C3857"/>
    <path d="M204.671 127.677L199.358 122.287C198.448 121.377 198.375 119.957 199.139 118.937L208.638 106.483C209.766 104.99 212.059 105.172 212.932 106.847L217.627 115.733C218.136 116.716 217.954 117.954 217.19 118.719L208.347 127.677C207.328 128.696 205.69 128.696 204.671 127.677Z" fill="#3C3857"/>
    <path d="M220.029 111.144L207.692 87.693C207.073 86.5277 207.91 85.1076 209.22 85.1076L211.185 85.0711C211.877 85.0347 212.568 85.326 213.078 85.8358L229.636 102.55C230.619 103.534 230.619 105.172 229.636 106.155L224.105 111.727C222.867 112.965 220.829 112.674 220.029 111.144Z" fill="#3C3857"/>
    <path d="M180.106 102.842L173.737 96.2506C172.464 94.9396 172.937 92.7183 174.684 92.0628L184.91 88.2028C186.729 87.5109 188.658 89.0404 188.331 91.0068L186.438 103.424C186.111 105.5 183.563 106.338 182.071 104.845L180.106 102.842Z" fill="#3C3857"/>
    <path d="M160.309 97.4887L165.076 95.7043C166.022 95.3402 167.114 95.5951 167.805 96.3234L173.847 102.55C174.829 103.57 174.793 105.136 173.81 106.155L165.476 114.567C164.021 116.024 161.546 115.259 161.146 113.256L158.671 100.438C158.453 99.1274 159.144 97.9257 160.309 97.4887Z" fill="#3C3857"/>
    <path d="M145.388 94.8304L152.702 97.8892C153.503 98.217 154.085 98.9089 154.231 99.7828L155.614 106.993C155.941 108.595 154.304 109.906 152.812 109.251L141.057 104.189C139.71 103.606 139.128 102.004 139.783 100.693L142.112 96.0685C142.731 94.8304 144.15 94.2842 145.388 94.8304Z" fill="#3C3857"/>
    <path d="M148.845 127.677L135.161 113.839C134.397 113.074 134.215 111.873 134.688 110.889L135.598 109.069C136.217 107.867 137.672 107.321 138.91 107.867L156.123 115.259C156.888 115.587 157.47 116.279 157.615 117.116L158.234 120.285C158.38 121.122 158.125 121.96 157.543 122.579L152.521 127.677C151.465 128.696 149.864 128.696 148.845 127.677Z" fill="#3C3857"/>
    <path d="M238.274 96.9585C242.317 101.017 242.364 107.641 238.299 111.723L212.179 138.114L212.169 138.123C210.624 139.669 208.575 140.447 206.527 140.447C204.479 140.447 202.43 139.669 200.885 138.123L200.874 138.113L178.61 115.604L156.314 138.08L156.306 138.087C154.762 139.632 152.712 140.411 150.664 140.411C148.617 140.411 146.567 139.633 145.023 138.087L145.015 138.08L122.718 115.604L100.454 138.113L100.444 138.123C97.3718 141.197 92.2685 141.197 89.1965 138.123L89.1866 138.114L63.0667 111.723L63.0548 111.711C58.9813 107.622 58.9817 101.009 63.0561 96.9205L63.0667 96.9098L117.137 42.3326L117.146 42.3236C120.218 39.2497 125.321 39.2497 128.393 42.3236L128.404 42.3342L150.664 64.8396L172.925 42.3342L172.936 42.3236C174.48 40.7782 176.53 40 178.577 40C180.625 40 182.675 40.7782 184.219 42.3236L184.23 42.3339L238.274 96.9585Z" fill="url(#paint0_linear_614_2827)"/>
    <path d="M234.149 101.057L180.106 46.4347C179.706 46.0342 179.16 45.8157 178.578 45.8157C177.995 45.8157 177.449 46.0342 177.049 46.4347L152.484 71.2698C151.465 72.2894 149.864 72.2894 148.845 71.2698L124.28 46.4347C123.479 45.6336 122.06 45.6336 121.259 46.4347L67.1801 101.021C65.3605 102.842 65.3605 105.791 67.1801 107.612L93.31 134.013C94.1106 134.814 95.5299 134.814 96.3305 134.013L120.895 109.178C121.914 108.158 123.516 108.158 124.535 109.178L149.136 133.977C149.536 134.377 150.082 134.596 150.665 134.596C151.247 134.596 151.793 134.377 152.193 133.977L176.794 109.178C177.813 108.158 179.415 108.158 180.434 109.178L204.998 134.013C205.399 134.414 205.945 134.632 206.527 134.632C207.109 134.632 207.655 134.414 208.055 134.013L234.185 107.612C235.968 105.828 235.968 102.878 234.149 101.057ZM180.106 102.842L173.737 96.2506C172.464 94.9396 172.937 92.7183 174.684 92.0628L184.91 88.2028C186.729 87.5109 188.658 89.0404 188.331 91.0068L186.438 103.424C186.111 105.5 183.563 106.338 182.071 104.845L180.106 102.842ZM109.978 78.043L95.0204 82.8134C93.6011 83.2504 92.5093 81.5025 93.5647 80.4464L110.269 63.5862C111.397 62.421 113.362 63.4042 113.144 65.0064L111.725 75.9309C111.615 76.9506 110.924 77.7517 109.978 78.043ZM112.998 84.1243L117.766 97.0153C118.348 98.5811 116.856 100.147 115.255 99.6008L101.717 95.0853C100.698 94.7576 100.006 93.8108 99.9698 92.7183L99.8606 87.693C99.8242 86.5642 100.552 85.5445 101.644 85.1804L109.832 82.5585C111.142 82.1579 112.525 82.8498 112.998 84.1243ZM103.609 100.183L114.927 103.971C116.747 104.59 117.256 106.847 115.946 108.195L103.318 120.94C102.335 121.923 100.661 121.268 100.625 119.884L100.225 102.732C100.188 100.912 101.899 99.6372 103.609 100.183ZM122.57 85.2896L136.726 91.1889C138.109 91.7715 138.691 93.3738 138.036 94.7211L132.323 106.155C131.522 107.721 129.448 108.049 128.21 106.811L125.008 103.57C124.753 103.315 124.535 102.987 124.426 102.66L119.221 88.567C118.421 86.4549 120.495 84.4157 122.57 85.2896ZM186.948 82.9226L176.54 86.8191C175.157 87.3289 173.628 86.6006 173.191 85.1804L172.282 82.2672C171.99 81.3568 172.245 80.3372 172.937 79.6817L183.381 69.5219C184.218 68.6843 185.638 69.0849 185.965 70.2502L188.513 79.8638C188.84 81.1383 188.185 82.4857 186.948 82.9226ZM167.769 90.1328L156.851 94.2113C156.233 94.4298 155.577 94.4298 154.959 94.1749L153.212 93.4466C152.193 93.0096 151.574 91.99 151.647 90.8611L152.666 77.9702C152.702 77.3511 152.957 76.8049 153.394 76.3679L159.981 69.704C161.328 68.3202 163.657 68.9028 164.239 70.76L169.261 86.9647C169.698 88.2757 169.006 89.6594 167.769 90.1328ZM144.114 89.6594L140.62 88.2028C139.856 87.8751 139.31 87.2196 139.128 86.4549L134.615 68.0289C134.142 66.1353 136.471 64.8244 137.854 66.2081L147.644 76.0766C148.153 76.6228 148.445 77.3511 148.372 78.0794L147.644 87.4745C147.498 89.2589 145.715 90.3513 144.114 89.6594ZM145.388 94.8304L152.702 97.8892C153.503 98.217 154.085 98.9089 154.231 99.7828L155.614 106.993C155.941 108.595 154.304 109.906 152.812 109.251L141.057 104.189C139.71 103.606 139.128 102.004 139.783 100.693L142.112 96.0685C142.731 94.8304 144.15 94.2842 145.388 94.8304ZM160.309 97.4887L165.076 95.7043C166.022 95.3402 167.114 95.5951 167.805 96.3234L173.847 102.55C174.829 103.57 174.793 105.136 173.81 106.155L165.476 114.567C164.021 116.024 161.546 115.259 161.146 113.256L158.671 100.438C158.453 99.1274 159.144 97.9257 160.309 97.4887ZM195.646 85.4717L200.049 85.3625C201.032 85.326 201.942 85.8723 202.378 86.7462L208.128 97.7072C208.601 98.5811 208.492 99.6736 207.91 100.475L196.555 115.368C195.609 116.607 193.79 116.716 192.698 115.623L190.332 113.22C189.75 112.637 189.495 111.836 189.604 111.035L193.171 87.693C193.353 86.4185 194.408 85.5081 195.646 85.4717ZM192.771 79.3176L189.568 67.1549C189.059 65.2613 191.388 63.914 192.771 65.2977L204.016 76.6593C205.581 78.2615 204.525 80.9562 202.269 81.0291L195.318 81.2111C194.117 81.2476 193.062 80.4464 192.771 79.3176ZM180.397 52.8074L181.234 53.6449C181.562 53.9727 181.78 54.3732 181.889 54.8102L183.672 61.547C183.927 62.4574 183.636 63.4042 182.981 64.0596L173.41 73.3455C172.027 74.6928 169.734 74.1102 169.188 72.253L166.859 64.7515C166.568 63.8411 166.823 62.8579 167.478 62.166L176.758 52.771C177.777 51.7877 179.415 51.7877 180.397 52.8074ZM124.571 52.8074L126.645 54.883C126.973 55.2108 127.191 55.6113 127.301 56.0847L133.305 80.7377C133.815 82.777 131.777 84.5249 129.812 83.7238L117.584 78.5893C116.528 78.1523 115.873 77.0234 116.019 75.8945L118.603 55.9027C118.676 55.3564 118.93 54.8102 119.331 54.4096L120.932 52.771C121.951 51.7877 123.589 51.7877 124.571 52.8074ZM83.5932 90.934L92.3274 88.13C93.965 87.6202 95.6391 88.7855 95.6755 90.497L95.8938 99.0545C95.9302 100.001 95.4207 100.875 94.6201 101.349L78.7894 110.562C77.7704 111.144 76.4966 110.962 75.696 110.161L71.7292 106.155C70.7466 105.172 70.7466 103.534 71.7292 102.55L82.5742 91.5894C82.8289 91.2617 83.1928 91.0432 83.5932 90.934ZM93.6375 128.296L82.5378 117.08C81.3732 115.878 81.628 113.912 83.0837 113.074L92.3274 107.685C94.0014 106.702 96.1486 107.903 96.185 109.833L96.5853 127.058C96.5853 127.531 96.4033 127.968 96.0758 128.296C95.3843 128.951 94.2926 128.951 93.6375 128.296ZM148.845 127.677L135.161 113.839C134.397 113.074 134.215 111.873 134.688 110.889L135.598 109.069C136.217 107.867 137.672 107.321 138.91 107.867L156.123 115.259C156.888 115.587 157.47 116.279 157.615 117.116L158.234 120.285C158.38 121.122 158.125 121.96 157.543 122.579L152.521 127.677C151.465 128.696 149.864 128.696 148.845 127.677ZM204.671 127.677L199.358 122.287C198.448 121.377 198.375 119.957 199.139 118.937L208.638 106.483C209.766 104.99 212.059 105.172 212.932 106.847L217.627 115.733C218.136 116.716 217.954 117.954 217.19 118.719L208.347 127.677C207.328 128.696 205.69 128.696 204.671 127.677ZM220.029 111.144L207.692 87.693C207.073 86.5277 207.91 85.1076 209.22 85.1076L211.185 85.0711C211.877 85.0347 212.568 85.326 213.078 85.8359L229.636 102.55C230.619 103.534 230.619 105.172 229.636 106.155L224.105 111.727C222.867 112.965 220.829 112.674 220.029 111.144Z" fill="#D61F85"/>
  </g>
  <defs>
    <filter id="filter0_d_614_2827" x="0" y="0" width="301.327" height="220.447" filterUnits="userSpaceOnUse" color-interpolation-filters="sRGB">
      <feFlood flood-opacity="0" result="BackgroundImageFix"/>
      <feColorMatrix in="SourceAlpha" type="matrix" values="0 0 0 0 0 0 0 0 0 0 0 0 0 0 0 0 0 0 127 0" result="hardAlpha"/>
      <feOffset dy="20"/>
      <feGaussianBlur stdDeviation="30"/>
      <feComposite in2="hardAlpha" operator="out"/>
      <feColorMatrix type="matrix" values="0 0 0 0 0 0 0 0 0 0 0 0 0 0 0.395833 0 0 0 0.1 0"/>
      <feBlend mode="normal" in2="BackgroundImageFix" result="effect1_dropShadow_614_2827"/>
      <feBlend mode="normal" in="SourceGraphic" in2="effect1_dropShadow_614_2827" result="shape"/>
    </filter>
    <linearGradient id="paint0_linear_614_2827" x1="150.664" y1="40" x2="150.664" y2="140.447" gradientUnits="userSpaceOnUse">
      <stop stop-color="#F8F8FF"/>
      <stop offset="1" stop-color="#DCDCEF"/>
    </linearGradient>
  </defs>
</svg>
