<svg width="517" height="469" viewBox="0 0 517 469" fill="none" xmlns="http://www.w3.org/2000/svg">
<rect width="517" height="469" rx="20" fill="#F6F6FA"/>
<g opacity="0.4">
<path opacity="0.4" d="M351.338 108.292L254.298 72.5352L158.218 107.813C145.934 113.754 135.197 117.298 135.197 129.128V187.4C134.978 228.292 145.922 268.467 166.85 303.598C187.445 338.662 218.303 366.562 255.257 383.532C294.532 370.449 323.841 335.571 341.773 305.703C362.683 270.584 373.626 230.43 373.427 189.559V137.175C373.427 120.469 364.794 112.316 351.338 108.292Z" fill="#B7B6EB"/>
<path d="M332.153 131.982L254.298 103.312L177.215 131.582C167.356 136.352 158.723 139.203 158.723 148.608V195.45C158.549 228.27 167.338 260.514 184.142 288.706C200.639 316.892 225.399 339.327 255.07 352.973C286.564 342.475 310.092 314.472 324.48 290.545C341.263 262.345 350.042 230.104 349.872 197.288V155.163C349.872 141.761 342.944 135.206 332.153 131.982Z" fill="#B7B6EB"/>
</g>
<path opacity="0.3" d="M398.793 345.837C398.793 345.837 399.219 345.198 400.125 343.999L400.898 343.013C401.164 342.613 401.377 342.16 401.67 341.681C402.354 340.592 402.934 339.441 403.402 338.244C403.669 337.551 403.988 336.858 404.255 336.085C404.521 335.313 404.708 334.46 404.948 333.607C405.2 332.734 405.387 331.844 405.507 330.943C405.708 329.931 405.851 328.908 405.933 327.879C406.339 322.977 406.115 318.043 405.267 313.198C402.738 299.869 398.172 287.009 391.732 275.069C383.449 259.198 373.746 244.108 362.742 229.986C349.496 212.808 335.054 196.586 319.525 181.44C301.772 164.011 282.817 147.851 262.798 133.08C252.14 125.273 241.03 117.732 229.253 110.618C217.257 103.302 204.797 96.778 191.95 91.0876C178.731 85.0302 164.802 80.6616 150.491 78.085C143.189 76.7884 135.732 76.6087 128.376 77.5521C124.698 78.0895 121.112 79.1295 117.718 80.6429C114.304 82.1757 111.251 84.4105 108.758 87.2017C106.266 89.9929 104.389 93.278 103.25 96.8429C102.139 100.393 101.511 104.076 101.385 107.794C101.29 115.216 102.324 122.61 104.449 129.722C108.631 143.651 114.548 156.998 122.061 169.45C129.195 181.543 137.098 193.166 145.722 204.248C154.141 215.145 162.907 225.377 171.86 235.022C188.871 253.22 207.141 270.199 226.535 285.834C243.398 299.506 261.205 311.972 279.824 323.136C295.064 332.455 311.116 340.374 327.785 346.797C340.343 351.819 353.597 354.883 367.085 355.882C372.002 356.18 376.937 355.84 381.767 354.87C382.776 354.684 383.773 354.435 384.751 354.124C385.664 353.901 386.556 353.598 387.415 353.218L389.813 352.259C390.533 351.912 391.199 351.513 391.838 351.166C392.984 350.58 394.065 349.875 395.062 349.061C395.515 348.742 395.942 348.449 396.288 348.155L397.194 347.276C398.286 346.237 398.873 345.731 398.873 345.731L397.274 347.329L396.368 348.235C396.022 348.528 395.595 348.822 395.142 349.168C394.093 350.085 392.95 350.889 391.732 351.566L389.707 352.685L387.309 353.671C386.448 354.047 385.556 354.35 384.644 354.577C383.655 354.894 382.65 355.16 381.634 355.376C376.788 356.362 371.837 356.729 366.899 356.469C353.363 355.517 340.053 352.489 327.438 347.489C310.681 341.106 294.539 333.214 279.211 323.909C260.598 312.736 242.791 300.272 225.922 286.606C206.503 270.953 188.215 253.947 171.194 235.715C162.241 226.043 153.449 215.811 145.002 204.887C136.34 193.788 128.41 182.138 121.262 170.009C113.708 157.48 107.755 144.053 103.543 130.042C101.4 122.851 100.367 115.376 100.479 107.874C100.604 104.067 101.24 100.294 102.371 96.6564C103.64 93.0192 105.573 89.6492 108.073 86.7179C110.682 83.8489 113.81 81.4985 117.292 79.7903C120.767 78.2524 124.432 77.186 128.189 76.6196C135.635 75.6706 143.182 75.8593 150.571 77.1791C164.952 79.777 178.951 84.163 192.243 90.235C205.087 95.9601 217.548 102.511 229.546 109.845C241.349 116.986 252.54 124.553 263.145 132.36C283.235 147.231 302.253 163.498 320.058 181.04C335.577 196.245 350.009 212.52 363.249 229.747C374.259 243.929 383.945 259.091 392.185 275.042C398.565 287.008 403.059 299.887 405.507 313.224C406.339 318.098 406.545 323.059 406.12 327.985C406.12 329.078 405.8 330.09 405.667 331.05C405.534 331.994 405.338 332.929 405.081 333.847C404.814 334.7 404.575 335.553 404.361 336.325C404.148 337.098 403.749 337.817 403.482 338.483C402.991 339.689 402.394 340.848 401.697 341.947C401.404 342.427 401.164 342.88 400.924 343.253L400.125 344.239L398.793 345.837Z" fill="#5BB1EF"/>
<path opacity="0.3" d="M452.427 216.338C452.427 216.338 452.427 215.566 452.214 214.073C452.214 213.7 452.214 213.274 452.214 212.821C452.214 212.368 452.001 211.862 451.894 211.329C451.673 210.057 451.334 208.808 450.882 207.599C450.642 206.933 450.402 206.187 450.083 205.414L448.963 203.122C448.554 202.266 448.073 201.446 447.525 200.671C447.016 199.746 446.447 198.856 445.819 198.007C442.874 194.018 439.416 190.435 435.535 187.349C424.805 179.113 412.87 172.58 400.15 167.978C383.406 161.646 366.123 156.839 348.513 153.617C327.153 149.7 305.544 147.287 283.846 146.396C258.971 145.181 234.04 145.724 209.241 148.021C196.132 149.274 182.783 151.085 169.274 153.617C155.462 156.134 141.827 159.543 128.455 163.822C114.571 168.119 101.279 174.134 88.8873 181.727C82.5604 185.608 76.8637 190.433 71.9946 196.035C69.6059 198.897 67.6161 202.07 66.0795 205.467C64.5549 208.884 63.7669 212.583 63.7669 216.325C63.7669 220.066 64.5549 223.766 66.0795 227.183C67.6161 230.579 69.6059 233.752 71.9946 236.615C76.8621 242.216 82.5484 247.049 88.8607 250.95C101.254 258.585 114.556 264.636 128.455 268.961C141.829 273.24 155.463 276.657 169.274 279.193C182.81 281.857 196.159 283.509 209.241 284.762C234.041 287.058 258.971 287.601 283.846 286.387C305.515 285.426 327.089 282.933 348.406 278.927C366.021 275.7 383.311 270.902 400.071 264.592C412.803 259.913 424.738 253.299 435.455 244.981C439.336 241.895 442.794 238.312 445.739 234.323C446.365 233.468 446.943 232.578 447.471 231.659C448.002 230.878 448.474 230.058 448.884 229.208L450.029 226.916C450.322 226.143 450.562 225.424 450.802 224.731C451.254 223.522 451.593 222.273 451.814 221.001C451.814 220.468 452.054 219.962 452.134 219.509C452.214 219.056 452.134 218.63 452.134 218.257C452.267 216.765 452.347 215.992 452.347 215.992C452.347 215.992 452.347 216.765 452.347 218.257V219.536C452.347 219.989 452.161 220.495 452.054 221.028C451.857 222.311 451.527 223.57 451.068 224.785C450.829 225.477 450.615 226.223 450.296 226.996C449.976 227.769 449.576 228.515 449.177 229.314C448.773 230.177 448.301 231.005 447.764 231.792C447.245 232.711 446.676 233.6 446.059 234.457C443.104 238.437 439.647 242.019 435.774 245.114C425.048 253.425 413.104 260.031 400.364 264.698C383.606 271.078 366.305 275.93 348.673 279.193C327.323 283.237 305.713 285.766 284.006 286.76C259.133 287.998 234.202 287.481 209.401 285.215C196.292 283.989 182.89 282.177 169.434 279.646C155.583 277.133 141.912 273.715 128.508 269.414C114.539 265.109 101.165 259.066 88.7008 251.429C82.3121 247.494 76.5617 242.606 71.6482 236.935C69.21 234.004 67.1757 230.76 65.5999 227.289C64.118 223.73 63.3137 219.926 63.2285 216.072C63.3128 212.223 64.1266 208.426 65.6265 204.881C67.1916 201.404 69.2267 198.159 71.6749 195.236C76.5183 189.699 82.1575 184.913 88.4077 181.034C100.865 173.402 114.229 167.36 128.188 163.049C141.593 158.746 155.264 155.319 169.114 152.791C182.677 150.126 196.079 148.474 209.081 147.222C233.883 144.955 258.813 144.439 283.687 145.677C305.387 146.666 326.988 149.203 348.327 153.27C366.041 156.492 383.423 161.325 400.257 167.712C412.996 172.371 424.94 178.968 435.668 187.269C439.54 190.364 442.997 193.947 445.953 197.927C446.57 198.783 447.139 199.672 447.658 200.591C448.183 201.385 448.654 202.213 449.07 203.069L450.189 205.414C450.509 206.16 450.722 206.906 450.962 207.599C451.416 208.815 451.747 210.073 451.948 211.356C451.948 211.889 452.161 212.395 452.241 212.874V214.127C452.401 215.672 452.427 216.338 452.427 216.338Z" fill="#5BB1EF"/>
<path opacity="0.3" d="M381.34 55.1662L379.448 53.9405L378.409 53.1412C378.009 52.9014 377.53 52.7148 377.05 52.475C375.906 51.8731 374.712 51.3737 373.48 50.9829L371.268 50.2635L368.737 49.7573C367.816 49.5589 366.88 49.4341 365.939 49.3843C364.923 49.2575 363.9 49.1863 362.875 49.1711C357.948 49.1067 353.032 49.6708 348.247 50.8497C335.173 54.2524 322.7 59.6443 311.264 66.8365C296.003 76.1757 281.618 86.8772 268.286 98.8101C252.036 113.289 236.837 128.907 222.804 145.545C206.597 164.451 191.754 184.485 178.387 205.495C171.353 216.606 164.585 228.277 158.297 240.507C151.787 252.964 146.1 265.834 141.271 279.035C136.139 292.641 132.738 306.838 131.146 321.293C130.356 328.663 130.688 336.111 132.132 343.382C132.934 347.017 134.215 350.529 135.942 353.826C137.716 357.12 140.158 360.007 143.113 362.302C146.068 364.596 149.471 366.247 153.102 367.149C156.729 368.018 160.458 368.385 164.186 368.241C171.586 367.837 178.881 366.31 185.821 363.711C199.428 358.567 212.336 351.737 224.243 343.382C235.834 335.45 246.889 326.763 257.336 317.376C267.647 308.237 277.239 298.725 286.245 289.186C303.261 271.003 318.968 251.637 333.246 231.234C345.799 213.542 357.089 194.987 367.032 175.707C375.277 159.813 382.073 143.209 387.335 126.094C391.465 113.217 393.604 99.7839 393.676 86.2605C393.628 81.3356 392.947 76.4374 391.651 71.6859C391.438 70.6467 390.985 69.7142 390.692 68.7549C390.404 67.8413 390.048 66.9507 389.626 66.0905C389.236 65.2911 388.862 64.5184 388.507 63.7724C388.081 63.0796 387.655 62.4402 387.255 61.8273C386.587 60.7226 385.81 59.6872 384.937 58.7365C384.59 58.3369 384.271 57.9106 383.951 57.5908L383.018 56.7382L381.34 55.1928C381.34 55.1928 381.953 55.6724 383.072 56.6849L384.031 57.5109C384.351 57.8306 384.67 58.2303 385.043 58.6566C385.927 59.602 386.721 60.6278 387.415 61.7208C387.815 62.3336 388.267 62.973 388.667 63.6925C389.067 64.4119 389.413 65.1846 389.813 66.0105C390.26 66.8625 390.625 67.7546 390.905 68.675C391.225 69.6342 391.678 70.5668 391.918 71.6059C393.242 76.3808 393.95 81.3058 394.023 86.2605C394.007 99.8238 391.904 113.304 387.788 126.228C382.575 143.39 375.805 160.041 367.565 175.973C357.695 195.312 346.458 213.922 333.939 231.66C319.68 252.129 303.973 271.549 286.938 289.772C277.932 299.391 268.286 308.877 258.002 318.042C247.521 327.439 236.44 336.144 224.829 344.101C212.876 352.518 199.903 359.385 186.221 364.537C179.198 367.183 171.812 368.737 164.319 369.147C160.511 369.28 156.703 368.903 152.995 368.028C149.28 367.005 145.784 365.307 142.683 363.019C139.696 360.574 137.193 357.592 135.303 354.226C133.524 350.866 132.206 347.281 131.386 343.568C129.917 336.211 129.584 328.671 130.4 321.213C131.994 306.687 135.405 292.418 140.552 278.742C145.379 265.519 151.057 252.622 157.551 240.133C163.866 227.85 170.634 216.153 177.695 205.069C191.107 184.04 205.995 163.988 222.244 145.065C236.331 128.516 251.575 112.988 267.86 98.597C281.231 86.6416 295.671 75.9389 310.998 66.6234C322.526 59.3884 335.111 53.9947 348.3 50.6366C353.103 49.4593 358.038 48.913 362.982 49.0112C364.016 49.034 365.047 49.114 366.072 49.251C367.023 49.3113 367.967 49.445 368.897 49.6507L371.561 50.1836C372.361 50.4234 373.08 50.6898 373.773 50.9297C375.006 51.3286 376.201 51.8369 377.343 52.4484C377.823 52.7149 378.302 52.9014 378.702 53.1412L379.741 53.8606L381.34 55.1662Z" fill="#5BB1EF"/>
<path d="M63.895 297.087C65.1109 298.307 65.9378 299.861 66.2715 301.551C66.6051 303.241 66.4305 304.993 65.7696 306.584C65.1087 308.175 63.9913 309.534 62.5583 310.491C61.1253 311.447 59.4411 311.958 57.7183 311.958C55.9954 311.958 54.3112 311.447 52.8782 310.491C51.4452 309.534 50.3278 308.175 49.6669 306.584C49.006 304.993 48.8314 303.241 49.165 301.551C49.4987 299.861 50.3256 298.307 51.5415 297.087C52.3493 296.27 53.3112 295.621 54.3715 295.178C55.4317 294.736 56.5693 294.508 57.7183 294.508C58.8672 294.508 60.0048 294.736 61.0651 295.178C62.1253 295.621 63.0872 296.27 63.895 297.087Z" fill="#D61F85"/>
<path d="M364.041 407.431C365.188 408.582 365.967 410.046 366.282 411.64C366.596 413.233 366.432 414.884 365.809 416.384C365.186 417.884 364.132 419.165 362.781 420.067C361.43 420.969 359.843 421.45 358.219 421.45C356.595 421.45 355.007 420.969 353.656 420.067C352.305 419.165 351.252 417.884 350.629 416.384C350.006 414.884 349.841 413.233 350.156 411.64C350.47 410.046 351.25 408.582 352.396 407.431C353.157 406.661 354.064 406.05 355.064 405.632C356.063 405.215 357.136 405 358.219 405C359.302 405 360.374 405.215 361.374 405.632C362.373 406.05 363.28 406.661 364.041 407.431Z" fill="#C68ECF"/>
<path d="M469 67.5C469 69.9723 468.267 72.389 466.893 74.4446C465.52 76.5002 463.568 78.1024 461.284 79.0485C458.999 79.9946 456.486 80.2421 454.061 79.7598C451.637 79.2775 449.409 78.087 447.661 76.3388C445.913 74.5907 444.722 72.3634 444.24 69.9386C443.758 67.5139 444.005 65.0005 444.952 62.7165C445.898 60.4324 447.5 58.4801 449.555 57.1066C451.611 55.7331 454.028 55 456.5 55C459.815 55 462.995 56.317 465.339 58.6612C467.683 61.0054 469 64.1848 469 67.5Z" fill="#5BB1EF"/>
<path d="M173.441 80.2207C173.441 81.6488 173.018 83.0449 172.225 84.2323C171.431 85.4198 170.303 86.3452 168.984 86.8918C167.665 87.4383 166.213 87.5813 164.812 87.3027C163.411 87.0241 162.125 86.3363 161.115 85.3265C160.105 84.3167 159.417 83.0301 159.139 81.6294C158.86 80.2287 159.003 78.7769 159.55 77.4575C160.096 76.1381 161.022 75.0103 162.209 74.2169C163.397 73.4235 164.793 73 166.221 73C168.136 73 169.972 73.7607 171.327 75.1149C172.681 76.469 173.441 78.3057 173.441 80.2207Z" fill="#63B64E"/>
<path d="M106.847 320.389C106.847 320.753 106.739 321.108 106.537 321.411C106.335 321.713 106.048 321.949 105.712 322.088C105.376 322.227 105.006 322.263 104.65 322.192C104.293 322.121 103.966 321.946 103.708 321.689C103.451 321.432 103.276 321.105 103.205 320.748C103.134 320.391 103.171 320.022 103.31 319.686C103.449 319.35 103.685 319.063 103.987 318.861C104.289 318.659 104.645 318.551 105.008 318.551C105.496 318.551 105.964 318.744 106.308 319.089C106.653 319.434 106.847 319.902 106.847 320.389Z" fill="#5BB1EF"/>
<path d="M150.043 119.942C150.043 120.701 149.818 121.443 149.396 122.075C148.974 122.706 148.374 123.199 147.673 123.489C146.971 123.78 146.199 123.856 145.454 123.708C144.709 123.56 144.025 123.194 143.488 122.657C142.951 122.12 142.585 121.436 142.437 120.691C142.289 119.946 142.365 119.174 142.656 118.472C142.946 117.77 143.438 117.171 144.07 116.749C144.701 116.327 145.444 116.102 146.203 116.102C147.222 116.102 148.198 116.506 148.919 117.226C149.639 117.946 150.043 118.923 150.043 119.942Z" fill="#63B64E"/>
<path d="M401.68 352.84C401.68 353.599 401.455 354.342 401.033 354.973C400.611 355.605 400.011 356.097 399.31 356.388C398.608 356.678 397.836 356.754 397.091 356.606C396.346 356.458 395.662 356.092 395.125 355.555C394.588 355.018 394.222 354.334 394.074 353.589C393.926 352.844 394.002 352.072 394.292 351.37C394.583 350.669 395.075 350.069 395.707 349.647C396.338 349.225 397.081 349 397.84 349C398.858 349 399.835 349.405 400.555 350.125C401.275 350.845 401.68 351.822 401.68 352.84Z" fill="#C68ECF"/>
<path d="M465.077 134.183C465.093 135.242 464.793 136.282 464.215 137.17C463.638 138.058 462.809 138.755 461.835 139.171C460.861 139.587 459.785 139.704 458.744 139.507C457.703 139.309 456.745 138.807 455.99 138.063C455.235 137.32 454.719 136.369 454.507 135.331C454.294 134.293 454.396 133.215 454.797 132.235C455.199 131.255 455.883 130.416 456.763 129.826C457.643 129.236 458.678 128.921 459.738 128.92C460.435 128.91 461.128 129.039 461.775 129.299C462.423 129.558 463.012 129.944 463.509 130.434C464.006 130.924 464.4 131.507 464.669 132.151C464.939 132.795 465.077 133.485 465.077 134.183Z" fill="#63B64E"/>
<g filter="url(#filter0_d_10092_35958)">
<rect x="174" y="170.951" width="158.197" height="138.049" rx="30" fill="url(#paint0_linear_10092_35958)"/>
<path d="M312.422 170.951H302.535L203.662 170.951L193.775 170.951C188.53 170.951 183.5 173.029 179.792 176.727C176.083 180.426 174 185.442 174 190.673V289.279C174 294.51 176.083 299.526 179.792 303.224C183.5 306.923 188.53 309 193.775 309H312.422C317.667 309 322.697 306.923 326.405 303.224C330.114 299.526 332.197 294.51 332.197 289.279V190.673C332.197 185.442 330.114 180.426 326.405 176.727C322.697 173.029 317.667 170.951 312.422 170.951ZM262.986 247.105V269.558H243.211V247.105C237.328 243.693 233.324 237.402 233.324 230.115C233.324 224.885 235.407 219.869 239.116 216.17C242.824 212.472 247.854 210.394 253.098 210.394C258.343 210.394 263.373 212.472 267.081 216.17C270.79 219.869 272.873 224.885 272.873 230.115C272.873 237.392 268.869 243.683 262.986 247.105Z" fill="url(#paint1_linear_10092_35958)"/>
<path fill-rule="evenodd" clip-rule="evenodd" d="M302.965 170.951V161.126C302.965 134.038 280.733 112 253.407 112C226.08 112 203.848 134.038 203.848 161.126V170.951H223.671V161.126C223.671 144.875 237.012 131.65 253.407 131.65C269.801 131.65 283.142 144.875 283.142 161.126V170.951H302.965Z" fill="url(#paint2_linear_10092_35958)"/>
</g>
<defs>
<filter id="filter0_d_10092_35958" x="154" y="102" width="198.197" height="237" filterUnits="userSpaceOnUse" color-interpolation-filters="sRGB">
<feFlood flood-opacity="0" result="BackgroundImageFix"/>
<feColorMatrix in="SourceAlpha" type="matrix" values="0 0 0 0 0 0 0 0 0 0 0 0 0 0 0 0 0 0 127 0" result="hardAlpha"/>
<feOffset dy="10"/>
<feGaussianBlur stdDeviation="10"/>
<feComposite in2="hardAlpha" operator="out"/>
<feColorMatrix type="matrix" values="0 0 0 0 0.133333 0 0 0 0 0.117647 0 0 0 0 0.223529 0 0 0 0.4 0"/>
<feBlend mode="normal" in2="BackgroundImageFix" result="effect1_dropShadow_10092_35958"/>
<feBlend mode="normal" in="SourceGraphic" in2="effect1_dropShadow_10092_35958" result="shape"/>
</filter>
<linearGradient id="paint0_linear_10092_35958" x1="253.098" y1="170.951" x2="253.098" y2="309" gradientUnits="userSpaceOnUse">
<stop offset="0.293821" stop-color="#413975"/>
<stop offset="0.77889" stop-color="#2D294D"/>
</linearGradient>
<linearGradient id="paint1_linear_10092_35958" x1="253.098" y1="170.951" x2="253.098" y2="309" gradientUnits="userSpaceOnUse">
<stop stop-color="#CBCBE4"/>
<stop offset="1" stop-color="#B8B8DD"/>
</linearGradient>
<linearGradient id="paint2_linear_10092_35958" x1="253.407" y1="112" x2="253.407" y2="170.951" gradientUnits="userSpaceOnUse">
<stop offset="0.293821" stop-color="#413975"/>
<stop offset="0.77889" stop-color="#2D294D"/>
</linearGradient>
</defs>
</svg>
