<svg width="517" height="494" viewBox="0 0 517 494" fill="none" xmlns="http://www.w3.org/2000/svg">
  <rect width="517" height="443" rx="20" fill="#F6F6FA"/>
  <g filter="url(#filter0_d_9917_31967)">
    <path d="M143.65 240.279C143.65 234.756 148.127 230.279 153.65 230.279H373.002C378.525 230.279 383.002 234.756 383.002 240.279V397.447C383.002 402.97 378.525 407.447 373.002 407.447H153.65C148.127 407.447 143.65 402.97 143.65 397.447V240.279Z" fill="url(#paint0_linear_9917_31967)"/>
    <g filter="url(#filter1_d_9917_31967)">
      <g filter="url(#filter2_d_9917_31967)">
        <path d="M133.09 345.475C133.09 349.893 136.672 353.475 141.09 353.475H221.301C225.719 353.475 229.301 349.893 229.301 345.475V305.156C229.301 300.738 225.719 297.156 221.301 297.156H141.09C136.672 297.156 133.09 300.738 133.09 305.156V345.475Z" fill="#A7A7CE"/>
        <path d="M133.09 305.156C133.09 300.738 136.672 297.156 141.09 297.156H221.301C225.719 297.156 229.301 300.738 229.301 305.156V345.474C229.301 349.893 225.719 353.474 221.301 353.474H141.09C136.672 353.474 133.09 349.893 133.09 345.474V305.156Z" fill="url(#paint1_linear_9917_31967)"/>
      </g>
      <g filter="url(#filter3_d_9917_31967)">
        <path d="M202.315 344.088C212.683 344.088 221.087 335.684 221.087 325.316C221.087 314.948 212.683 306.543 202.315 306.543C191.947 306.543 183.542 314.948 183.542 325.316C183.542 335.684 191.947 344.088 202.315 344.088Z" fill="url(#paint2_linear_9917_31967)"/>
      </g>
    </g>
  </g>
  <g filter="url(#filter4_d_9917_31967)">
    <circle cx="270.5" cy="171.5" r="68.5" fill="url(#paint3_linear_9917_31967)"/>
    <g style="mix-blend-mode:soft-light" opacity="0.15">
      <path fill-rule="evenodd" clip-rule="evenodd" d="M235.108 177.208C267.265 177.208 293.333 151.14 293.333 118.983C293.333 114.675 292.866 110.476 291.978 106.435C285.222 104.206 278.002 103 270.5 103C234.185 103 204.47 131.259 202.146 166.986C211.519 173.434 222.873 177.208 235.108 177.208Z" fill="#F5F5FF"/>
    </g>
    <g filter="url(#filter5_ii_9917_31967)">
      <circle cx="270.5" cy="171.5" r="58.225" fill="white"/>
    </g>
    <g style="mix-blend-mode:lighten" opacity="0.32">
      <path fill-rule="evenodd" clip-rule="evenodd" d="M235.108 177.209C267.265 177.209 293.333 151.141 293.333 118.984C293.333 118.628 293.33 118.273 293.324 117.919C286.315 114.93 278.601 113.275 270.5 113.275C238.343 113.275 212.275 139.344 212.275 171.5C212.275 171.856 212.278 172.211 212.284 172.565C219.293 175.554 227.007 177.209 235.108 177.209Z" fill="#F0F0FF"/>
    </g>
    <g clip-path="url(#clip0_9917_31967)">
      <path d="M291.351 142.582C288.182 138.98 282.453 137.436 275.125 137.436H253.854C253.129 137.436 252.428 137.694 251.876 138.163C251.325 138.633 250.96 139.283 250.846 139.997L241.989 196.015C241.813 197.119 242.671 198.12 243.794 198.12H256.925L260.223 177.259L260.121 177.912C260.356 176.437 261.62 175.35 263.118 175.35H269.358C281.616 175.35 291.215 170.384 294.019 156.02C294.102 155.595 294.174 155.181 294.237 154.777C293.883 154.59 293.883 154.59 294.237 154.777C295.072 149.468 294.231 145.854 291.351 142.582Z" fill="#27346A"/>
      <path d="M265.248 152.865C265.607 152.694 265.999 152.606 266.397 152.606H283.072C285.047 152.606 286.889 152.734 288.572 153.005C289.043 153.079 289.512 153.169 289.977 153.273C290.637 153.418 291.289 153.595 291.931 153.805C292.758 154.081 293.529 154.402 294.237 154.777C295.072 149.466 294.231 145.854 291.351 142.582C288.18 138.98 282.453 137.436 275.125 137.436H253.852C252.355 137.436 251.081 138.523 250.846 139.997L241.989 196.013C241.813 197.119 242.671 198.118 243.792 198.118H256.925L263.767 154.847C263.835 154.422 264.004 154.019 264.262 153.674C264.52 153.329 264.858 153.051 265.248 152.865Z" fill="#253B80"/>
      <path d="M294.019 156.02C291.215 170.382 281.617 175.35 269.358 175.35H263.116C261.618 175.35 260.353 176.437 260.121 177.912L256.018 203.85C255.865 204.817 256.614 205.693 257.595 205.693H268.665C269.299 205.692 269.912 205.467 270.394 205.056C270.876 204.645 271.195 204.076 271.295 203.452L271.402 202.889L273.489 189.703L273.623 188.974C273.722 188.349 274.041 187.78 274.523 187.37C275.006 186.959 275.619 186.733 276.253 186.733H277.909C288.633 186.733 297.029 182.388 299.483 169.823C300.507 164.572 299.977 160.188 297.268 157.109C296.446 156.176 295.425 155.406 294.237 154.777C294.172 155.183 294.102 155.595 294.019 156.02Z" fill="#179BD7"/>
      <path d="M291.302 153.61C290.865 153.483 290.424 153.37 289.979 153.272C289.513 153.17 289.045 153.081 288.574 153.006C286.889 152.734 285.049 152.605 283.072 152.605H266.399C266.001 152.605 265.608 152.694 265.25 152.866C264.86 153.052 264.521 153.329 264.263 153.675C264.005 154.02 263.836 154.423 263.769 154.849L260.225 177.258L260.123 177.911C260.356 176.437 261.62 175.349 263.118 175.349H269.36C281.619 175.349 291.217 170.383 294.021 156.019C294.104 155.594 294.174 155.183 294.239 154.777C293.529 154.403 292.76 154.08 291.933 153.806C291.724 153.737 291.514 153.672 291.303 153.61" fill="#222D65"/>
    </g>
  </g>
  <g filter="url(#filter6_i_9917_31967)">
    <path d="M219.041 29.4313C220.188 30.5819 220.967 32.0464 221.282 33.6398C221.596 35.2332 221.432 36.884 220.809 38.3839C220.186 39.8838 219.132 41.1655 217.781 42.0672C216.43 42.9688 214.843 43.45 213.219 43.45C211.595 43.45 210.007 42.9688 208.656 42.0672C207.305 41.1655 206.252 39.8838 205.629 38.3839C205.006 36.884 204.841 35.2332 205.156 33.6398C205.47 32.0464 206.25 30.5819 207.396 29.4313C208.157 28.661 209.064 28.0496 210.064 27.6322C211.063 27.2149 212.136 27 213.219 27C214.302 27 215.374 27.2149 216.374 27.6322C217.373 28.0496 218.28 28.661 219.041 29.4313Z" fill="#C68ECF"/>
  </g>
  <g filter="url(#filter7_i_9917_31967)">
    <path d="M366.688 121.33C367.316 121.96 367.743 122.761 367.915 123.633C368.087 124.504 367.997 125.408 367.656 126.228C367.315 127.049 366.738 127.75 365.998 128.243C365.259 128.737 364.389 129 363.5 129C362.611 129 361.741 128.737 361.002 128.243C360.262 127.75 359.685 127.049 359.344 126.228C359.003 125.408 358.913 124.504 359.085 123.633C359.257 122.761 359.684 121.96 360.312 121.33C360.729 120.909 361.225 120.574 361.773 120.346C362.32 120.118 362.907 120 363.5 120C364.093 120 364.68 120.118 365.227 120.346C365.775 120.574 366.271 120.909 366.688 121.33Z" fill="#C68ECF"/>
  </g>
  <g filter="url(#filter8_i_9917_31967)">
    <path d="M190.834 96.1824C191.392 96.742 191.771 97.4542 191.924 98.2291C192.077 99.004 191.997 99.8068 191.694 100.536C191.391 101.266 190.878 101.889 190.221 102.327C189.563 102.766 188.79 103 188 103C187.21 103 186.437 102.766 185.779 102.327C185.122 101.889 184.609 101.266 184.306 100.536C184.003 99.8068 183.923 99.004 184.076 98.2291C184.229 97.4542 184.608 96.742 185.166 96.1824C185.537 95.8078 185.978 95.5104 186.464 95.3075C186.951 95.1045 187.473 95 188 95C188.527 95 189.049 95.1045 189.536 95.3075C190.022 95.5104 190.463 95.8078 190.834 96.1824Z" fill="#D61F85"/>
  </g>
  <g filter="url(#filter9_i_9917_31967)">
    <path d="M390.542 207.478C391.24 208.177 391.714 209.068 391.905 210.036C392.097 211.005 391.997 212.009 391.618 212.92C391.239 213.832 390.598 214.611 389.776 215.159C388.954 215.707 387.988 216 387 216C386.012 216 385.046 215.707 384.224 215.159C383.402 214.611 382.761 213.832 382.382 212.92C382.003 212.009 381.903 211.005 382.095 210.036C382.286 209.068 382.76 208.177 383.458 207.478C383.921 207.01 384.473 206.638 385.081 206.384C385.689 206.131 386.341 206 387 206C387.659 206 388.311 206.131 388.919 206.384C389.527 206.638 390.079 207.01 390.542 207.478Z" fill="#63B64E"/>
  </g>
  <g filter="url(#filter10_i_9917_31967)">
    <path d="M136.542 220.478C137.24 221.177 137.714 222.068 137.905 223.036C138.097 224.005 137.997 225.009 137.618 225.92C137.239 226.832 136.598 227.611 135.776 228.159C134.954 228.707 133.988 229 133 229C132.012 229 131.046 228.707 130.224 228.159C129.402 227.611 128.761 226.832 128.382 225.92C128.003 225.009 127.903 224.005 128.095 223.036C128.286 222.068 128.76 221.177 129.458 220.478C129.921 220.01 130.473 219.638 131.081 219.384C131.689 219.131 132.341 219 133 219C133.659 219 134.311 219.131 134.919 219.384C135.527 219.638 136.079 220.01 136.542 220.478Z" fill="#5BB1EF"/>
  </g>
  <g filter="url(#filter11_i_9917_31967)">
    <path d="M417 159.5C417 161.972 416.267 164.389 414.893 166.445C413.52 168.5 411.568 170.102 409.284 171.048C406.999 171.995 404.486 172.242 402.061 171.76C399.637 171.277 397.409 170.087 395.661 168.339C393.913 166.591 392.722 164.363 392.24 161.939C391.758 159.514 392.005 157.001 392.952 154.716C393.898 152.432 395.5 150.48 397.555 149.107C399.611 147.733 402.028 147 404.5 147C407.815 147 410.995 148.317 413.339 150.661C415.683 153.005 417 156.185 417 159.5Z" fill="#5BB1EF"/>
  </g>
  <g filter="url(#filter12_i_9917_31967)">
    <path d="M158.441 152.221C158.441 153.649 158.018 155.045 157.225 156.232C156.431 157.42 155.303 158.345 153.984 158.892C152.665 159.438 151.213 159.581 149.812 159.303C148.411 159.024 147.125 158.336 146.115 157.327C145.105 156.317 144.417 155.03 144.139 153.629C143.86 152.229 144.003 150.777 144.55 149.457C145.096 148.138 146.022 147.01 147.209 146.217C148.397 145.423 149.793 145 151.221 145C153.136 145 154.972 145.761 156.327 147.115C157.681 148.469 158.441 150.306 158.441 152.221Z" fill="#63B64E"/>
  </g>
  <g filter="url(#filter13_i_9917_31967)">
    <path d="M344.895 37.5791C346.111 38.7997 346.938 40.3532 347.271 42.0434C347.605 43.7337 347.43 45.4849 346.77 47.0759C346.109 48.667 344.991 50.0266 343.558 50.9831C342.125 51.9396 340.441 52.45 338.718 52.45C336.995 52.45 335.311 51.9396 333.878 50.9831C332.445 50.0266 331.328 48.667 330.667 47.0759C330.006 45.4849 329.831 43.7337 330.165 42.0434C330.499 40.3532 331.326 38.7997 332.541 37.5791C333.349 36.762 334.311 36.1134 335.371 35.6706C336.432 35.2279 337.569 35 338.718 35C339.867 35 341.005 35.2279 342.065 35.6706C343.125 36.1134 344.087 36.762 344.895 37.5791Z" fill="#D61F85"/>
  </g>
  <defs>
    <filter id="filter0_d_9917_31967" x="116.09" y="223.279" width="283.912" height="211.168" filterUnits="userSpaceOnUse" color-interpolation-filters="sRGB">
      <feFlood flood-opacity="0" result="BackgroundImageFix"/>
      <feColorMatrix in="SourceAlpha" type="matrix" values="0 0 0 0 0 0 0 0 0 0 0 0 0 0 0 0 0 0 127 0" result="hardAlpha"/>
      <feOffset dy="10"/>
      <feGaussianBlur stdDeviation="8.5"/>
      <feComposite in2="hardAlpha" operator="out"/>
      <feColorMatrix type="matrix" values="0 0 0 0 0.256076 0 0 0 0 0.256076 0 0 0 0 0.491667 0 0 0 0.1 0"/>
      <feBlend mode="normal" in2="BackgroundImageFix" result="effect1_dropShadow_9917_31967"/>
      <feBlend mode="normal" in="SourceGraphic" in2="effect1_dropShadow_9917_31967" result="shape"/>
    </filter>
    <filter id="filter1_d_9917_31967" x="53.0903" y="277.156" width="256.21" height="216.318" filterUnits="userSpaceOnUse" color-interpolation-filters="sRGB">
      <feFlood flood-opacity="0" result="BackgroundImageFix"/>
      <feColorMatrix in="SourceAlpha" type="matrix" values="0 0 0 0 0 0 0 0 0 0 0 0 0 0 0 0 0 0 127 0" result="hardAlpha"/>
      <feOffset dy="60"/>
      <feGaussianBlur stdDeviation="40"/>
      <feComposite in2="hardAlpha" operator="out"/>
      <feColorMatrix type="matrix" values="0 0 0 0 0.823529 0 0 0 0 0.45098 0 0 0 0 0.733333 0 0 0 0.2 0"/>
      <feBlend mode="normal" in2="BackgroundImageFix" result="effect1_dropShadow_9917_31967"/>
      <feBlend mode="normal" in="SourceGraphic" in2="effect1_dropShadow_9917_31967" result="shape"/>
    </filter>
    <filter id="filter2_d_9917_31967" x="129.09" y="297.156" width="104.21" height="64.3184" filterUnits="userSpaceOnUse" color-interpolation-filters="sRGB">
      <feFlood flood-opacity="0" result="BackgroundImageFix"/>
      <feColorMatrix in="SourceAlpha" type="matrix" values="0 0 0 0 0 0 0 0 0 0 0 0 0 0 0 0 0 0 127 0" result="hardAlpha"/>
      <feOffset dy="4"/>
      <feGaussianBlur stdDeviation="2"/>
      <feComposite in2="hardAlpha" operator="out"/>
      <feColorMatrix type="matrix" values="0 0 0 0 0 0 0 0 0 0 0 0 0 0 0 0 0 0 0.16 0"/>
      <feBlend mode="normal" in2="BackgroundImageFix" result="effect1_dropShadow_9917_31967"/>
      <feBlend mode="normal" in="SourceGraphic" in2="effect1_dropShadow_9917_31967" result="shape"/>
    </filter>
    <filter id="filter3_d_9917_31967" x="179.542" y="306.543" width="45.5454" height="45.5449" filterUnits="userSpaceOnUse" color-interpolation-filters="sRGB">
      <feFlood flood-opacity="0" result="BackgroundImageFix"/>
      <feColorMatrix in="SourceAlpha" type="matrix" values="0 0 0 0 0 0 0 0 0 0 0 0 0 0 0 0 0 0 127 0" result="hardAlpha"/>
      <feOffset dy="4"/>
      <feGaussianBlur stdDeviation="2"/>
      <feComposite in2="hardAlpha" operator="out"/>
      <feColorMatrix type="matrix" values="0 0 0 0 0 0 0 0 0 0 0 0 0 0 0 0 0 0 0.06 0"/>
      <feBlend mode="normal" in2="BackgroundImageFix" result="effect1_dropShadow_9917_31967"/>
      <feBlend mode="normal" in="SourceGraphic" in2="effect1_dropShadow_9917_31967" result="shape"/>
    </filter>
    <filter id="filter4_d_9917_31967" x="193" y="103" width="155" height="156" filterUnits="userSpaceOnUse" color-interpolation-filters="sRGB">
      <feFlood flood-opacity="0" result="BackgroundImageFix"/>
      <feColorMatrix in="SourceAlpha" type="matrix" values="0 0 0 0 0 0 0 0 0 0 0 0 0 0 0 0 0 0 127 0" result="hardAlpha"/>
      <feOffset dy="10"/>
      <feGaussianBlur stdDeviation="4.5"/>
      <feComposite in2="hardAlpha" operator="out"/>
      <feColorMatrix type="matrix" values="0 0 0 0 0.565278 0 0 0 0 0.565278 0 0 0 0 0.733333 0 0 0 0.21 0"/>
      <feBlend mode="normal" in2="BackgroundImageFix" result="effect1_dropShadow_9917_31967"/>
      <feBlend mode="normal" in="SourceGraphic" in2="effect1_dropShadow_9917_31967" result="shape"/>
    </filter>
    <filter id="filter5_ii_9917_31967" x="212.275" y="113.275" width="116.45" height="116.449" filterUnits="userSpaceOnUse" color-interpolation-filters="sRGB">
      <feFlood flood-opacity="0" result="BackgroundImageFix"/>
      <feBlend mode="normal" in="SourceGraphic" in2="BackgroundImageFix" result="shape"/>
      <feColorMatrix in="SourceAlpha" type="matrix" values="0 0 0 0 0 0 0 0 0 0 0 0 0 0 0 0 0 0 127 0" result="hardAlpha"/>
      <feOffset dx="1" dy="1"/>
      <feComposite in2="hardAlpha" operator="arithmetic" k2="-1" k3="1"/>
      <feColorMatrix type="matrix" values="0 0 0 0 0.0701736 0 0 0 0 0.0989896 0 0 0 0 0.358333 0 0 0 0.28 0"/>
      <feBlend mode="normal" in2="shape" result="effect1_innerShadow_9917_31967"/>
      <feColorMatrix in="SourceAlpha" type="matrix" values="0 0 0 0 0 0 0 0 0 0 0 0 0 0 0 0 0 0 127 0" result="hardAlpha"/>
      <feOffset dx="-1" dy="-1"/>
      <feComposite in2="hardAlpha" operator="arithmetic" k2="-1" k3="1"/>
      <feColorMatrix type="matrix" values="0 0 0 0 1 0 0 0 0 1 0 0 0 0 1 0 0 0 0.44 0"/>
      <feBlend mode="normal" in2="effect1_innerShadow_9917_31967" result="effect2_innerShadow_9917_31967"/>
    </filter>
    <filter id="filter6_i_9917_31967" x="205" y="27" width="16.4375" height="20.4492" filterUnits="userSpaceOnUse" color-interpolation-filters="sRGB">
      <feFlood flood-opacity="0" result="BackgroundImageFix"/>
      <feBlend mode="normal" in="SourceGraphic" in2="BackgroundImageFix" result="shape"/>
      <feColorMatrix in="SourceAlpha" type="matrix" values="0 0 0 0 0 0 0 0 0 0 0 0 0 0 0 0 0 0 127 0" result="hardAlpha"/>
      <feOffset dy="4"/>
      <feGaussianBlur stdDeviation="5.5"/>
      <feComposite in2="hardAlpha" operator="arithmetic" k2="-1" k3="1"/>
      <feColorMatrix type="matrix" values="0 0 0 0 1 0 0 0 0 1 0 0 0 0 1 0 0 0 0.12 0"/>
      <feBlend mode="normal" in2="shape" result="effect1_innerShadow_9917_31967"/>
    </filter>
    <filter id="filter7_i_9917_31967" x="359" y="120" width="9" height="13" filterUnits="userSpaceOnUse" color-interpolation-filters="sRGB">
      <feFlood flood-opacity="0" result="BackgroundImageFix"/>
      <feBlend mode="normal" in="SourceGraphic" in2="BackgroundImageFix" result="shape"/>
      <feColorMatrix in="SourceAlpha" type="matrix" values="0 0 0 0 0 0 0 0 0 0 0 0 0 0 0 0 0 0 127 0" result="hardAlpha"/>
      <feOffset dy="4"/>
      <feGaussianBlur stdDeviation="5.5"/>
      <feComposite in2="hardAlpha" operator="arithmetic" k2="-1" k3="1"/>
      <feColorMatrix type="matrix" values="0 0 0 0 1 0 0 0 0 1 0 0 0 0 1 0 0 0 0.12 0"/>
      <feBlend mode="normal" in2="shape" result="effect1_innerShadow_9917_31967"/>
    </filter>
    <filter id="filter8_i_9917_31967" x="184" y="95" width="8" height="12" filterUnits="userSpaceOnUse" color-interpolation-filters="sRGB">
      <feFlood flood-opacity="0" result="BackgroundImageFix"/>
      <feBlend mode="normal" in="SourceGraphic" in2="BackgroundImageFix" result="shape"/>
      <feColorMatrix in="SourceAlpha" type="matrix" values="0 0 0 0 0 0 0 0 0 0 0 0 0 0 0 0 0 0 127 0" result="hardAlpha"/>
      <feOffset dy="4"/>
      <feGaussianBlur stdDeviation="5.5"/>
      <feComposite in2="hardAlpha" operator="arithmetic" k2="-1" k3="1"/>
      <feColorMatrix type="matrix" values="0 0 0 0 1 0 0 0 0 1 0 0 0 0 1 0 0 0 0.12 0"/>
      <feBlend mode="normal" in2="shape" result="effect1_innerShadow_9917_31967"/>
    </filter>
    <filter id="filter9_i_9917_31967" x="382" y="206" width="10" height="14" filterUnits="userSpaceOnUse" color-interpolation-filters="sRGB">
      <feFlood flood-opacity="0" result="BackgroundImageFix"/>
      <feBlend mode="normal" in="SourceGraphic" in2="BackgroundImageFix" result="shape"/>
      <feColorMatrix in="SourceAlpha" type="matrix" values="0 0 0 0 0 0 0 0 0 0 0 0 0 0 0 0 0 0 127 0" result="hardAlpha"/>
      <feOffset dy="4"/>
      <feGaussianBlur stdDeviation="5.5"/>
      <feComposite in2="hardAlpha" operator="arithmetic" k2="-1" k3="1"/>
      <feColorMatrix type="matrix" values="0 0 0 0 1 0 0 0 0 1 0 0 0 0 1 0 0 0 0.12 0"/>
      <feBlend mode="normal" in2="shape" result="effect1_innerShadow_9917_31967"/>
    </filter>
    <filter id="filter10_i_9917_31967" x="128" y="219" width="10" height="14" filterUnits="userSpaceOnUse" color-interpolation-filters="sRGB">
      <feFlood flood-opacity="0" result="BackgroundImageFix"/>
      <feBlend mode="normal" in="SourceGraphic" in2="BackgroundImageFix" result="shape"/>
      <feColorMatrix in="SourceAlpha" type="matrix" values="0 0 0 0 0 0 0 0 0 0 0 0 0 0 0 0 0 0 127 0" result="hardAlpha"/>
      <feOffset dy="4"/>
      <feGaussianBlur stdDeviation="5.5"/>
      <feComposite in2="hardAlpha" operator="arithmetic" k2="-1" k3="1"/>
      <feColorMatrix type="matrix" values="0 0 0 0 1 0 0 0 0 1 0 0 0 0 1 0 0 0 0.12 0"/>
      <feBlend mode="normal" in2="shape" result="effect1_innerShadow_9917_31967"/>
    </filter>
    <filter id="filter11_i_9917_31967" x="392" y="147" width="25" height="29" filterUnits="userSpaceOnUse" color-interpolation-filters="sRGB">
      <feFlood flood-opacity="0" result="BackgroundImageFix"/>
      <feBlend mode="normal" in="SourceGraphic" in2="BackgroundImageFix" result="shape"/>
      <feColorMatrix in="SourceAlpha" type="matrix" values="0 0 0 0 0 0 0 0 0 0 0 0 0 0 0 0 0 0 127 0" result="hardAlpha"/>
      <feOffset dy="4"/>
      <feGaussianBlur stdDeviation="5.5"/>
      <feComposite in2="hardAlpha" operator="arithmetic" k2="-1" k3="1"/>
      <feColorMatrix type="matrix" values="0 0 0 0 1 0 0 0 0 1 0 0 0 0 1 0 0 0 0.12 0"/>
      <feBlend mode="normal" in2="shape" result="effect1_innerShadow_9917_31967"/>
    </filter>
    <filter id="filter12_i_9917_31967" x="144" y="145" width="14.4414" height="18.4414" filterUnits="userSpaceOnUse" color-interpolation-filters="sRGB">
      <feFlood flood-opacity="0" result="BackgroundImageFix"/>
      <feBlend mode="normal" in="SourceGraphic" in2="BackgroundImageFix" result="shape"/>
      <feColorMatrix in="SourceAlpha" type="matrix" values="0 0 0 0 0 0 0 0 0 0 0 0 0 0 0 0 0 0 127 0" result="hardAlpha"/>
      <feOffset dy="4"/>
      <feGaussianBlur stdDeviation="5.5"/>
      <feComposite in2="hardAlpha" operator="arithmetic" k2="-1" k3="1"/>
      <feColorMatrix type="matrix" values="0 0 0 0 1 0 0 0 0 1 0 0 0 0 1 0 0 0 0.12 0"/>
      <feBlend mode="normal" in2="shape" result="effect1_innerShadow_9917_31967"/>
    </filter>
    <filter id="filter13_i_9917_31967" x="330" y="35" width="17.4365" height="21.4492" filterUnits="userSpaceOnUse" color-interpolation-filters="sRGB">
      <feFlood flood-opacity="0" result="BackgroundImageFix"/>
      <feBlend mode="normal" in="SourceGraphic" in2="BackgroundImageFix" result="shape"/>
      <feColorMatrix in="SourceAlpha" type="matrix" values="0 0 0 0 0 0 0 0 0 0 0 0 0 0 0 0 0 0 127 0" result="hardAlpha"/>
      <feOffset dy="4"/>
      <feGaussianBlur stdDeviation="5.5"/>
      <feComposite in2="hardAlpha" operator="arithmetic" k2="-1" k3="1"/>
      <feColorMatrix type="matrix" values="0 0 0 0 1 0 0 0 0 1 0 0 0 0 1 0 0 0 0.12 0"/>
      <feBlend mode="normal" in2="shape" result="effect1_innerShadow_9917_31967"/>
    </filter>
    <linearGradient id="paint0_linear_9917_31967" x1="263.326" y1="230.279" x2="263.326" y2="407.447" gradientUnits="userSpaceOnUse">
      <stop stop-color="#E1E1FA"/>
      <stop offset="1" stop-color="#B4B4E2"/>
    </linearGradient>
    <linearGradient id="paint1_linear_9917_31967" x1="181.195" y1="297.156" x2="181.195" y2="353.474" gradientUnits="userSpaceOnUse">
      <stop stop-color="#D1D1EC"/>
      <stop offset="1" stop-color="#A7A7DB"/>
    </linearGradient>
    <linearGradient id="paint2_linear_9917_31967" x1="202.315" y1="306.543" x2="202.315" y2="344.088" gradientUnits="userSpaceOnUse">
      <stop offset="0.114583" stop-color="#554B7D"/>
      <stop offset="1" stop-color="#6A6493"/>
    </linearGradient>
    <linearGradient id="paint3_linear_9917_31967" x1="270.5" y1="103" x2="270.5" y2="240" gradientUnits="userSpaceOnUse">
      <stop stop-color="#E1E1FA"/>
      <stop offset="1" stop-color="#B4B4E2"/>
    </linearGradient>
    <clipPath id="clip0_9917_31967">
      <rect width="58.225" height="68.5" fill="white" transform="translate(241.958 137.25)"/>
    </clipPath>
  </defs>
</svg>
