<svg width="517" height="482" viewBox="0 0 517 482" fill="none" xmlns="http://www.w3.org/2000/svg">
  <rect id="bg" width="517" height="454" rx="20" fill="#F6F6FA"/>
  <g filter="url(#filter0_d_9928_36237)">
    <g clip-path="url(#clip0_9928_36237)">
      <path d="M317.419 62.8158C322.524 60.7084 328.371 63.1384 330.478 68.2434L386.952 205.045C389.059 210.15 386.629 215.997 381.524 218.104L299.258 252.065C294.153 254.172 288.307 251.742 286.199 246.637L229.726 109.835C227.618 104.73 230.048 98.8836 235.153 96.7762L317.419 62.8158Z" fill="url(#paint0_linear_9928_36237)"/>
      <g style="mix-blend-mode:hard-light" opacity="0.2">
        <path d="M326.663 59L225.91 100.592L290.015 255.881L390.768 214.289L326.663 59ZM323.967 86.0773L369.757 196.998C366.613 198.295 364.08 200.709 362.716 203.706C361.352 206.704 361.268 210.041 362.482 212.983L309.143 235.002C307.928 232.06 305.515 229.755 302.433 228.592C299.351 227.43 295.854 227.506 292.71 228.803L246.921 117.883C250.065 116.585 252.597 114.172 253.961 111.174C255.326 108.176 255.41 104.839 254.195 101.898L307.535 79.8784C308.749 82.8202 311.163 85.126 314.245 86.2885C317.326 87.451 320.824 87.375 323.967 86.0773ZM335.009 146.431C329.947 134.168 313.903 129.179 299.181 135.256C284.459 141.334 276.607 156.188 281.669 168.45C286.731 180.712 302.775 185.702 317.497 179.624C332.218 173.547 340.071 158.693 335.009 146.431ZM323.155 151.324C325.678 157.436 321.091 165.158 312.918 168.532C304.745 171.906 296.045 169.668 293.522 163.557C290.999 157.445 295.587 149.722 303.76 146.348C311.933 142.974 320.632 145.212 323.155 151.324ZM300.058 112.175C299.606 111.083 298.929 110.096 298.065 109.271C297.201 108.446 296.167 107.799 295.022 107.368C293.877 106.936 292.644 106.728 291.392 106.756C290.141 106.784 288.895 107.046 287.728 107.529C286.56 108.011 285.493 108.704 284.587 109.568C283.681 110.432 282.954 111.45 282.447 112.563C281.941 113.677 281.665 114.865 281.635 116.059C281.606 117.253 281.823 118.43 282.274 119.523C283.186 121.73 284.997 123.459 287.31 124.33C289.622 125.202 292.246 125.144 294.604 124.17C296.963 123.195 298.862 121.384 299.885 119.135C300.907 116.885 300.97 114.382 300.058 112.175ZM334.4 195.366C333.948 194.273 333.271 193.286 332.407 192.461C331.543 191.636 330.509 190.99 329.364 190.558C328.219 190.127 326.986 189.919 325.734 189.946C324.483 189.974 323.237 190.236 322.07 190.719C320.902 191.201 319.835 191.894 318.929 192.758C318.023 193.622 317.296 194.64 316.789 195.754C316.283 196.868 316.007 198.055 315.977 199.25C315.948 200.444 316.165 201.621 316.616 202.713C317.528 204.92 319.339 206.649 321.652 207.521C323.964 208.392 326.588 208.334 328.946 207.36C331.305 206.386 333.204 204.575 334.227 202.325C335.249 200.076 335.312 197.572 334.4 195.366Z" fill="white"/>
      </g>
    </g>
  </g>
  <g filter="url(#filter1_d_9928_36237)">
    <g clip-path="url(#clip1_9928_36237)">
      <path d="M248 81.0148C252.412 77.6929 258.682 78.5767 262.004 82.9889L351.022 201.224C354.344 205.637 353.46 211.906 349.048 215.228L277.947 268.76C273.535 272.082 267.265 271.198 263.944 266.786L174.925 148.55C171.603 144.138 172.487 137.868 176.899 134.546L248 81.0148Z" fill="url(#paint1_linear_9928_36237)"/>
      <g style="mix-blend-mode:hard-light" opacity="0.2">
        <path d="M255.989 75L168.91 140.561L269.958 274.775L357.037 209.213L255.989 75ZM260.18 101.886L332.357 197.753C329.64 199.799 327.795 202.771 327.227 206.015C326.66 209.259 327.416 212.51 329.33 215.053L283.23 249.762C281.315 247.219 278.4 245.593 275.125 245.242C271.851 244.891 268.484 245.842 265.767 247.888L193.59 152.021C196.307 149.976 198.152 147.004 198.72 143.76C199.288 140.515 198.531 137.264 196.617 134.722L242.717 100.013C244.632 102.555 247.547 104.181 250.822 104.533C254.096 104.884 257.463 103.932 260.18 101.886ZM286.024 157.533C278.045 146.935 261.262 146.134 248.538 155.714C235.814 165.294 231.944 181.644 239.923 192.242C247.902 202.84 264.685 203.64 277.409 194.061C290.133 184.481 294.003 168.131 286.024 157.533ZM275.779 165.246C279.756 170.528 277.255 179.156 270.191 184.474C263.128 189.792 254.145 189.811 250.168 184.529C246.191 179.246 248.692 170.619 255.756 165.301C262.819 159.982 271.802 159.964 275.779 165.246ZM243.59 133.152C242.879 132.208 241.976 131.423 240.932 130.841C239.889 130.26 238.726 129.894 237.509 129.764C236.292 129.633 235.046 129.742 233.842 130.083C232.637 130.424 231.498 130.991 230.489 131.751C229.479 132.511 228.62 133.45 227.96 134.514C227.3 135.578 226.852 136.745 226.642 137.951C226.431 139.156 226.463 140.375 226.734 141.538C227.005 142.702 227.511 143.786 228.222 144.731C229.659 146.638 231.846 147.857 234.304 148.12C236.761 148.382 239.286 147.667 241.324 146.132C243.362 144.597 244.746 142.367 245.171 139.932C245.596 137.498 245.027 135.059 243.59 133.152ZM297.724 205.052C297.012 204.108 296.109 203.323 295.065 202.741C294.022 202.16 292.859 201.794 291.642 201.664C290.425 201.533 289.179 201.642 287.975 201.983C286.77 202.324 285.631 202.891 284.622 203.651C283.613 204.411 282.753 205.35 282.093 206.414C281.433 207.478 280.985 208.645 280.775 209.851C280.564 211.056 280.596 212.275 280.867 213.438C281.138 214.602 281.644 215.686 282.355 216.631C283.792 218.538 285.98 219.757 288.437 220.02C290.894 220.282 293.419 219.567 295.457 218.032C297.495 216.497 298.879 214.267 299.304 211.832C299.729 209.398 299.16 206.959 297.724 205.052Z" fill="white"/>
      </g>
    </g>
  </g>
  <g filter="url(#filter2_d_9928_36237)">
    <g clip-path="url(#clip2_9928_36237)">
      <rect x="154.558" y="99" width="163.088" height="109.117" rx="8" transform="rotate(30 154.558 99)" fill="url(#paint2_linear_9928_36237)"/>
      <rect x="143.438" y="114.215" width="166.697" height="19.8394" transform="rotate(30 143.438 114.215)" fill="#26223F"/>
      <rect opacity="0.7" x="143.012" y="149.605" width="31.1198" height="6.4357" rx="3.21785" transform="rotate(30 143.012 149.605)" fill="#9090BB"/>
      <rect opacity="0.7" x="136.161" y="161.473" width="70.2191" height="6.4357" rx="3.21785" transform="rotate(30 136.161 161.473)" fill="#9090BB"/>
      <rect opacity="0.7" x="130.108" y="171.957" width="57.0531" height="6.4357" rx="3.21785" transform="rotate(30 130.108 171.957)" fill="#9090BB"/>
      <rect x="180.539" y="217.088" width="19.9486" height="6.4357" rx="3.21785" transform="rotate(30 180.539 217.088)" fill="#ED5BAC"/>
      <rect x="202.306" y="229.656" width="19.9486" height="6.4357" rx="3.21785" transform="rotate(30 202.306 229.656)" fill="#ED5BAC"/>
      <rect x="224.074" y="242.223" width="19.9486" height="6.4357" rx="3.21785" transform="rotate(30 224.074 242.223)" fill="#ED5BAC"/>
      <g style="mix-blend-mode:soft-light" opacity="0.1">
        <path d="M262.509 157.734L273.497 164.076L168.299 232.962L158.012 226.991L262.509 157.734Z" fill="#CCCCFF"/>
      </g>
      <g style="mix-blend-mode:soft-light" opacity="0.1">
        <path d="M223.261 139.007L250.115 154.17L145.517 223.711L118.764 208.265L223.261 139.007Z" fill="#CCCCFF"/>
      </g>
    </g>
  </g>
  <g filter="url(#filter3_d_9928_36237)">
    <path d="M136.65 228.279C136.65 222.756 141.127 218.279 146.65 218.279H366.002C371.525 218.279 376.002 222.756 376.002 228.279V385.447C376.002 390.97 371.525 395.447 366.002 395.447H146.65C141.127 395.447 136.65 390.97 136.65 385.447V228.279Z" fill="url(#paint3_linear_9928_36237)"/>
    <g filter="url(#filter4_d_9928_36237)">
      <g filter="url(#filter5_d_9928_36237)">
        <path d="M126.09 333.475C126.09 337.893 129.672 341.475 134.09 341.475H214.301C218.719 341.475 222.301 337.893 222.301 333.475V293.156C222.301 288.738 218.719 285.156 214.301 285.156H134.09C129.672 285.156 126.09 288.738 126.09 293.156V333.475Z" fill="#A7A7CE"/>
        <path d="M126.09 293.156C126.09 288.738 129.672 285.156 134.09 285.156H214.301C218.719 285.156 222.301 288.738 222.301 293.156V333.474C222.301 337.893 218.719 341.474 214.301 341.474H134.09C129.672 341.474 126.09 337.893 126.09 333.474V293.156Z" fill="url(#paint4_linear_9928_36237)"/>
      </g>
      <g filter="url(#filter6_d_9928_36237)">
        <path d="M195.315 332.088C205.683 332.088 214.087 323.684 214.087 313.316C214.087 302.948 205.683 294.543 195.315 294.543C184.947 294.543 176.542 302.948 176.542 313.316C176.542 323.684 184.947 332.088 195.315 332.088Z" fill="url(#paint5_linear_9928_36237)"/>
      </g>
    </g>
  </g>
  <path d="M356.417 260.903L336.992 241.223C336.848 241.079 336.652 241 336.442 241C336.233 241 336.037 241.079 335.893 241.223L327.063 250.171C326.697 250.538 326.121 250.538 325.755 250.171L316.925 241.223C316.637 240.934 316.127 240.934 315.839 241.223L296.4 260.89C295.746 261.546 295.746 262.609 296.4 263.265L305.793 272.777C306.08 273.066 306.591 273.066 306.878 272.777L315.708 263.829C316.075 263.462 316.65 263.462 317.016 263.829L325.859 272.764C326.003 272.908 326.2 272.987 326.409 272.987C326.618 272.987 326.814 272.908 326.958 272.764L335.801 263.829C336.168 263.462 336.743 263.462 337.109 263.829L345.939 272.777C346.083 272.921 346.279 273 346.489 273C346.698 273 346.894 272.921 347.038 272.777L356.431 263.265C357.072 262.622 357.072 261.559 356.417 260.903ZM336.992 261.546L334.702 259.171C334.245 258.699 334.415 257.899 335.043 257.663L338.718 256.272C339.372 256.023 340.066 256.574 339.948 257.282L339.268 261.756C339.15 262.504 338.234 262.806 337.698 262.268L336.992 261.546ZM311.784 252.611L306.407 254.33C305.897 254.487 305.505 253.858 305.884 253.477L311.889 247.403C312.294 246.983 313 247.337 312.922 247.914L312.412 251.85C312.373 252.218 312.124 252.506 311.784 252.611ZM312.87 254.802L314.583 259.447C314.793 260.011 314.256 260.575 313.681 260.378L308.814 258.752C308.448 258.633 308.2 258.292 308.187 257.899L308.147 256.088C308.134 255.681 308.396 255.314 308.788 255.183L311.732 254.238C312.202 254.094 312.7 254.343 312.87 254.802ZM309.495 260.588L313.563 261.953C314.217 262.176 314.4 262.989 313.929 263.475L309.39 268.067C309.037 268.421 308.435 268.185 308.422 267.686L308.278 261.507C308.265 260.851 308.88 260.392 309.495 260.588ZM316.31 255.222L321.399 257.348C321.896 257.558 322.105 258.135 321.87 258.62L319.816 262.74C319.528 263.304 318.782 263.422 318.338 262.976L317.186 261.809C317.095 261.717 317.016 261.599 316.977 261.481L315.107 256.403C314.819 255.642 315.564 254.907 316.31 255.222ZM339.451 254.369L335.71 255.773C335.213 255.957 334.663 255.695 334.506 255.183L334.179 254.133C334.075 253.805 334.166 253.438 334.415 253.202L338.169 249.541C338.47 249.239 338.98 249.384 339.098 249.804L340.013 253.267C340.131 253.727 339.896 254.212 339.451 254.369ZM332.557 256.967L328.633 258.437C328.41 258.515 328.175 258.515 327.952 258.424L327.325 258.161C326.958 258.004 326.736 257.636 326.762 257.23L327.128 252.585C327.141 252.362 327.233 252.165 327.39 252.008L329.758 249.607C330.242 249.108 331.079 249.318 331.288 249.987L333.093 255.826C333.25 256.298 333.002 256.797 332.557 256.967ZM324.054 256.797L322.798 256.272C322.524 256.154 322.327 255.918 322.262 255.642L320.64 249.003C320.47 248.321 321.307 247.849 321.804 248.347L325.323 251.903C325.506 252.1 325.611 252.362 325.585 252.624L325.323 256.009C325.271 256.652 324.63 257.046 324.054 256.797ZM324.512 258.66L327.141 259.762C327.429 259.88 327.638 260.129 327.691 260.444L328.188 263.042C328.306 263.619 327.717 264.091 327.181 263.855L322.955 262.032C322.471 261.822 322.262 261.244 322.498 260.772L323.335 259.106C323.557 258.66 324.067 258.463 324.512 258.66ZM329.875 259.617L331.589 258.975C331.929 258.843 332.322 258.935 332.57 259.198L334.742 261.441C335.095 261.809 335.082 262.373 334.729 262.74L331.733 265.771C331.21 266.296 330.32 266.02 330.176 265.298L329.287 260.68C329.208 260.208 329.457 259.775 329.875 259.617ZM342.577 255.288L344.16 255.248C344.513 255.235 344.84 255.432 344.997 255.747L347.064 259.696C347.234 260.011 347.195 260.405 346.986 260.693L342.904 266.059C342.564 266.506 341.91 266.545 341.518 266.151L340.668 265.285C340.458 265.075 340.367 264.787 340.406 264.498L341.688 256.088C341.753 255.629 342.133 255.301 342.577 255.288ZM341.544 253.071L340.393 248.688C340.21 248.006 341.047 247.521 341.544 248.019L345.586 252.113C346.149 252.69 345.769 253.661 344.958 253.687L342.46 253.753C342.028 253.766 341.649 253.477 341.544 253.071ZM337.096 243.519L337.397 243.821C337.515 243.939 337.593 244.083 337.633 244.241L338.274 246.668C338.365 246.996 338.261 247.337 338.025 247.573L334.585 250.919C334.088 251.404 333.263 251.194 333.067 250.525L332.23 247.822C332.125 247.494 332.217 247.14 332.452 246.891L335.788 243.506C336.154 243.152 336.743 243.152 337.096 243.519ZM317.03 243.519L317.775 244.267C317.893 244.385 317.971 244.529 318.011 244.7L320.169 253.582C320.352 254.317 319.62 254.947 318.913 254.658L314.518 252.808C314.139 252.651 313.903 252.244 313.955 251.837L314.884 244.634C314.91 244.437 315.002 244.241 315.146 244.096L315.721 243.506C316.088 243.152 316.676 243.152 317.03 243.519ZM302.3 257.256L305.439 256.246C306.028 256.062 306.63 256.482 306.643 257.098L306.721 260.182C306.734 260.523 306.551 260.838 306.264 261.008L300.573 264.328C300.207 264.538 299.749 264.472 299.461 264.183L298.035 262.74C297.682 262.386 297.682 261.795 298.035 261.441L301.934 257.492C302.025 257.374 302.156 257.295 302.3 257.256ZM305.91 270.717L301.921 266.676C301.502 266.243 301.594 265.535 302.117 265.233L305.439 263.291C306.041 262.937 306.813 263.37 306.826 264.065L306.97 270.271C306.97 270.442 306.905 270.599 306.787 270.717C306.538 270.953 306.146 270.953 305.91 270.717ZM325.755 270.494L320.836 265.508C320.561 265.233 320.496 264.8 320.666 264.446L320.993 263.79C321.216 263.357 321.739 263.16 322.184 263.357L328.371 266.02C328.646 266.138 328.855 266.387 328.907 266.689L329.13 267.831C329.182 268.132 329.091 268.434 328.881 268.657L327.076 270.494C326.697 270.861 326.121 270.861 325.755 270.494ZM345.822 270.494L343.912 268.552C343.585 268.224 343.558 267.713 343.833 267.345L347.247 262.858C347.653 262.32 348.477 262.386 348.791 262.989L350.479 266.191C350.662 266.545 350.596 266.991 350.322 267.267L347.143 270.494C346.777 270.861 346.188 270.861 345.822 270.494ZM351.342 264.538L346.907 256.088C346.685 255.668 346.986 255.157 347.457 255.157L348.163 255.144C348.412 255.13 348.66 255.235 348.843 255.419L354.795 261.441C355.149 261.795 355.149 262.386 354.795 262.74L352.807 264.747C352.362 265.194 351.63 265.089 351.342 264.538Z" fill="#9090BB"/>
  <g filter="url(#filter7_i_9928_36237)">
    <path d="M405.396 254.018C404.25 252.867 403.47 251.403 403.156 249.809C402.841 248.216 403.006 246.565 403.629 245.065C404.252 243.565 405.305 242.284 406.656 241.382C408.007 240.48 409.595 239.999 411.219 239.999C412.843 239.999 414.431 240.48 415.782 241.382C417.132 242.284 418.186 243.565 418.809 245.065C419.432 246.565 419.596 248.216 419.282 249.809C418.967 251.403 418.188 252.867 417.042 254.018C416.28 254.788 415.373 255.4 414.374 255.817C413.374 256.234 412.302 256.449 411.219 256.449C410.136 256.449 409.063 256.234 408.064 255.817C407.064 255.4 406.158 254.788 405.396 254.018Z" fill="#C68ECF"/>
  </g>
  <g filter="url(#filter8_i_9928_36237)">
    <path d="M199.396 45.018C198.25 43.8673 197.47 42.4028 197.156 40.8094C196.841 39.216 197.006 37.5652 197.629 36.0653C198.252 34.5654 199.305 33.2837 200.656 32.3821C202.007 31.4804 203.595 30.9992 205.219 30.9992C206.843 30.9992 208.431 31.4804 209.782 32.3821C211.132 33.2837 212.186 34.5654 212.809 36.0653C213.432 37.5652 213.596 39.216 213.282 40.8094C212.967 42.4028 212.188 43.8673 211.042 45.018C210.28 45.7882 209.373 46.3997 208.374 46.817C207.374 47.2343 206.302 47.4492 205.219 47.4492C204.136 47.4492 203.063 47.2343 202.064 46.817C201.064 46.3997 200.158 45.7882 199.396 45.018Z" fill="#C68ECF"/>
  </g>
  <g filter="url(#filter9_i_9928_36237)">
    <path d="M202.458 78.522C201.76 77.8225 201.286 76.9323 201.095 75.9637C200.903 74.995 201.003 73.9915 201.382 73.0797C201.761 72.1679 202.402 71.3888 203.224 70.8406C204.046 70.2925 205.012 70 206 70C206.988 70 207.954 70.2925 208.776 70.8406C209.598 71.3888 210.239 72.1679 210.618 73.0797C210.997 73.9915 211.097 74.995 210.905 75.9637C210.714 76.9323 210.24 77.8225 209.542 78.522C209.079 78.9902 208.527 79.362 207.919 79.6157C207.311 79.8694 206.659 80 206 80C205.341 80 204.689 79.8694 204.081 79.6157C203.473 79.362 202.921 78.9902 202.458 78.522Z" fill="#63B64E"/>
  </g>
  <g filter="url(#filter10_i_9928_36237)">
    <path d="M322.458 47.522C321.76 46.8225 321.286 45.9323 321.095 44.9637C320.903 43.995 321.003 42.9915 321.382 42.0797C321.761 41.1679 322.402 40.3888 323.224 39.8406C324.046 39.2925 325.012 39 326 39C326.988 39 327.954 39.2925 328.776 39.8406C329.598 40.3888 330.239 41.1679 330.618 42.0797C330.997 42.9915 331.097 43.995 330.905 44.9637C330.714 45.9323 330.24 46.8225 329.542 47.522C329.079 47.9902 328.527 48.362 327.919 48.6157C327.311 48.8694 326.659 49 326 49C325.341 49 324.689 48.8694 324.081 48.6157C323.473 48.362 322.921 47.9902 322.458 47.522Z" fill="#5BB1EF"/>
  </g>
  <g filter="url(#filter11_i_9928_36237)">
    <path d="M102 106.5C102 104.028 102.733 101.611 104.107 99.5554C105.48 97.4998 107.432 95.8976 109.716 94.9515C112.001 94.0054 114.514 93.7579 116.939 94.2402C119.363 94.7225 121.591 95.913 123.339 97.6612C125.087 99.4093 126.278 101.637 126.76 104.061C127.242 106.486 126.995 108.999 126.048 111.284C125.102 113.568 123.5 115.52 121.445 116.893C119.389 118.267 116.972 119 114.5 119C111.185 119 108.005 117.683 105.661 115.339C103.317 112.995 102 109.815 102 106.5Z" fill="#5BB1EF"/>
  </g>
  <g filter="url(#filter12_i_9928_36237)">
    <path d="M402.559 100.779C402.559 99.3512 402.982 97.9551 403.775 96.7677C404.569 95.5802 405.697 94.6548 407.016 94.1082C408.335 93.5617 409.787 93.4187 411.188 93.6973C412.589 93.9759 413.875 94.6637 414.885 95.6735C415.895 96.6833 416.583 97.9699 416.861 99.3706C417.14 100.771 416.997 102.223 416.45 103.543C415.904 104.862 414.978 105.99 413.791 106.783C412.603 107.577 411.207 108 409.779 108C407.864 108 406.028 107.239 404.673 105.885C403.319 104.531 402.559 102.694 402.559 100.779Z" fill="#63B64E"/>
  </g>
  <g filter="url(#filter13_i_9928_36237)">
    <path d="M93.5415 246.87C92.3256 245.65 91.4987 244.096 91.165 242.406C90.8314 240.716 91.0061 238.964 91.6669 237.373C92.3278 235.782 93.4452 234.423 94.8782 233.466C96.3112 232.51 97.9954 231.999 99.7183 231.999C101.441 231.999 103.125 232.51 104.558 233.466C105.991 234.423 107.109 235.782 107.77 237.373C108.43 238.964 108.605 240.716 108.271 242.406C107.938 244.096 107.111 245.65 105.895 246.87C105.087 247.687 104.125 248.336 103.065 248.779C102.005 249.221 100.867 249.449 99.7183 249.449C98.5693 249.449 97.4317 249.221 96.3715 248.779C95.3112 248.336 94.3493 247.687 93.5415 246.87Z" fill="#D61F85"/>
  </g>
  <g filter="url(#filter14_i_9928_36237)">
    <path d="M367.935 72.0095C366.053 70.1208 364.772 67.7171 364.256 65.1019C363.739 62.4866 364.009 59.777 365.033 57.3152C366.056 54.8534 367.786 52.7496 370.005 51.2697C372.224 49.7898 374.832 49 377.5 49C380.168 49 382.776 49.7898 384.995 51.2697C387.214 52.7496 388.944 54.8534 389.967 57.3152C390.991 59.777 391.261 62.4866 390.744 65.1019C390.228 67.7171 388.947 70.1208 387.065 72.0095C385.814 73.2737 384.324 74.2773 382.682 74.9623C381.041 75.6473 379.279 76 377.5 76C375.721 76 373.959 75.6473 372.318 74.9623C370.676 74.2773 369.186 73.2737 367.935 72.0095Z" fill="#D61F85"/>
  </g>
  <defs>
    <filter id="filter0_d_9928_36237" x="205.91" y="49" width="204.858" height="236.881" filterUnits="userSpaceOnUse" color-interpolation-filters="sRGB">
      <feFlood flood-opacity="0" result="BackgroundImageFix"/>
      <feColorMatrix in="SourceAlpha" type="matrix" values="0 0 0 0 0 0 0 0 0 0 0 0 0 0 0 0 0 0 127 0" result="hardAlpha"/>
      <feOffset dy="10"/>
      <feGaussianBlur stdDeviation="10"/>
      <feComposite in2="hardAlpha" operator="out"/>
      <feColorMatrix type="matrix" values="0 0 0 0 0.133333 0 0 0 0 0.117647 0 0 0 0 0.223529 0 0 0 0.4 0"/>
      <feBlend mode="normal" in2="BackgroundImageFix" result="effect1_dropShadow_9928_36237"/>
      <feBlend mode="normal" in="SourceGraphic" in2="effect1_dropShadow_9928_36237" result="shape"/>
    </filter>
    <filter id="filter1_d_9928_36237" x="148.91" y="65" width="228.127" height="239.775" filterUnits="userSpaceOnUse" color-interpolation-filters="sRGB">
      <feFlood flood-opacity="0" result="BackgroundImageFix"/>
      <feColorMatrix in="SourceAlpha" type="matrix" values="0 0 0 0 0 0 0 0 0 0 0 0 0 0 0 0 0 0 127 0" result="hardAlpha"/>
      <feOffset dy="10"/>
      <feGaussianBlur stdDeviation="10"/>
      <feComposite in2="hardAlpha" operator="out"/>
      <feColorMatrix type="matrix" values="0 0 0 0 0.133333 0 0 0 0 0.117647 0 0 0 0 0.223529 0 0 0 0.4 0"/>
      <feBlend mode="normal" in2="BackgroundImageFix" result="effect1_dropShadow_9928_36237"/>
      <feBlend mode="normal" in="SourceGraphic" in2="effect1_dropShadow_9928_36237" result="shape"/>
    </filter>
    <filter id="filter2_d_9928_36237" x="80" y="89" width="235.796" height="216.041" filterUnits="userSpaceOnUse" color-interpolation-filters="sRGB">
      <feFlood flood-opacity="0" result="BackgroundImageFix"/>
      <feColorMatrix in="SourceAlpha" type="matrix" values="0 0 0 0 0 0 0 0 0 0 0 0 0 0 0 0 0 0 127 0" result="hardAlpha"/>
      <feOffset dy="10"/>
      <feGaussianBlur stdDeviation="10"/>
      <feComposite in2="hardAlpha" operator="out"/>
      <feColorMatrix type="matrix" values="0 0 0 0 0.256076 0 0 0 0 0.256076 0 0 0 0 0.491667 0 0 0 0.3 0"/>
      <feBlend mode="normal" in2="BackgroundImageFix" result="effect1_dropShadow_9928_36237"/>
      <feBlend mode="normal" in="SourceGraphic" in2="effect1_dropShadow_9928_36237" result="shape"/>
    </filter>
    <filter id="filter3_d_9928_36237" x="109.09" y="211.279" width="283.912" height="211.168" filterUnits="userSpaceOnUse" color-interpolation-filters="sRGB">
      <feFlood flood-opacity="0" result="BackgroundImageFix"/>
      <feColorMatrix in="SourceAlpha" type="matrix" values="0 0 0 0 0 0 0 0 0 0 0 0 0 0 0 0 0 0 127 0" result="hardAlpha"/>
      <feOffset dy="10"/>
      <feGaussianBlur stdDeviation="8.5"/>
      <feComposite in2="hardAlpha" operator="out"/>
      <feColorMatrix type="matrix" values="0 0 0 0 0.256076 0 0 0 0 0.256076 0 0 0 0 0.491667 0 0 0 0.1 0"/>
      <feBlend mode="normal" in2="BackgroundImageFix" result="effect1_dropShadow_9928_36237"/>
      <feBlend mode="normal" in="SourceGraphic" in2="effect1_dropShadow_9928_36237" result="shape"/>
    </filter>
    <filter id="filter4_d_9928_36237" x="46.0903" y="265.156" width="256.21" height="216.318" filterUnits="userSpaceOnUse" color-interpolation-filters="sRGB">
      <feFlood flood-opacity="0" result="BackgroundImageFix"/>
      <feColorMatrix in="SourceAlpha" type="matrix" values="0 0 0 0 0 0 0 0 0 0 0 0 0 0 0 0 0 0 127 0" result="hardAlpha"/>
      <feOffset dy="60"/>
      <feGaussianBlur stdDeviation="40"/>
      <feComposite in2="hardAlpha" operator="out"/>
      <feColorMatrix type="matrix" values="0 0 0 0 0.823529 0 0 0 0 0.45098 0 0 0 0 0.733333 0 0 0 0.2 0"/>
      <feBlend mode="normal" in2="BackgroundImageFix" result="effect1_dropShadow_9928_36237"/>
      <feBlend mode="normal" in="SourceGraphic" in2="effect1_dropShadow_9928_36237" result="shape"/>
    </filter>
    <filter id="filter5_d_9928_36237" x="122.09" y="285.156" width="104.21" height="64.3184" filterUnits="userSpaceOnUse" color-interpolation-filters="sRGB">
      <feFlood flood-opacity="0" result="BackgroundImageFix"/>
      <feColorMatrix in="SourceAlpha" type="matrix" values="0 0 0 0 0 0 0 0 0 0 0 0 0 0 0 0 0 0 127 0" result="hardAlpha"/>
      <feOffset dy="4"/>
      <feGaussianBlur stdDeviation="2"/>
      <feComposite in2="hardAlpha" operator="out"/>
      <feColorMatrix type="matrix" values="0 0 0 0 0 0 0 0 0 0 0 0 0 0 0 0 0 0 0.16 0"/>
      <feBlend mode="normal" in2="BackgroundImageFix" result="effect1_dropShadow_9928_36237"/>
      <feBlend mode="normal" in="SourceGraphic" in2="effect1_dropShadow_9928_36237" result="shape"/>
    </filter>
    <filter id="filter6_d_9928_36237" x="172.542" y="294.543" width="45.5454" height="45.5449" filterUnits="userSpaceOnUse" color-interpolation-filters="sRGB">
      <feFlood flood-opacity="0" result="BackgroundImageFix"/>
      <feColorMatrix in="SourceAlpha" type="matrix" values="0 0 0 0 0 0 0 0 0 0 0 0 0 0 0 0 0 0 127 0" result="hardAlpha"/>
      <feOffset dy="4"/>
      <feGaussianBlur stdDeviation="2"/>
      <feComposite in2="hardAlpha" operator="out"/>
      <feColorMatrix type="matrix" values="0 0 0 0 0 0 0 0 0 0 0 0 0 0 0 0 0 0 0.06 0"/>
      <feBlend mode="normal" in2="BackgroundImageFix" result="effect1_dropShadow_9928_36237"/>
      <feBlend mode="normal" in="SourceGraphic" in2="effect1_dropShadow_9928_36237" result="shape"/>
    </filter>
    <filter id="filter7_i_9928_36237" x="403" y="240" width="16.4375" height="20.4492" filterUnits="userSpaceOnUse" color-interpolation-filters="sRGB">
      <feFlood flood-opacity="0" result="BackgroundImageFix"/>
      <feBlend mode="normal" in="SourceGraphic" in2="BackgroundImageFix" result="shape"/>
      <feColorMatrix in="SourceAlpha" type="matrix" values="0 0 0 0 0 0 0 0 0 0 0 0 0 0 0 0 0 0 127 0" result="hardAlpha"/>
      <feOffset dy="4"/>
      <feGaussianBlur stdDeviation="5.5"/>
      <feComposite in2="hardAlpha" operator="arithmetic" k2="-1" k3="1"/>
      <feColorMatrix type="matrix" values="0 0 0 0 1 0 0 0 0 1 0 0 0 0 1 0 0 0 0.12 0"/>
      <feBlend mode="normal" in2="shape" result="effect1_innerShadow_9928_36237"/>
    </filter>
    <filter id="filter8_i_9928_36237" x="197" y="31" width="16.4375" height="20.4492" filterUnits="userSpaceOnUse" color-interpolation-filters="sRGB">
      <feFlood flood-opacity="0" result="BackgroundImageFix"/>
      <feBlend mode="normal" in="SourceGraphic" in2="BackgroundImageFix" result="shape"/>
      <feColorMatrix in="SourceAlpha" type="matrix" values="0 0 0 0 0 0 0 0 0 0 0 0 0 0 0 0 0 0 127 0" result="hardAlpha"/>
      <feOffset dy="4"/>
      <feGaussianBlur stdDeviation="5.5"/>
      <feComposite in2="hardAlpha" operator="arithmetic" k2="-1" k3="1"/>
      <feColorMatrix type="matrix" values="0 0 0 0 1 0 0 0 0 1 0 0 0 0 1 0 0 0 0.12 0"/>
      <feBlend mode="normal" in2="shape" result="effect1_innerShadow_9928_36237"/>
    </filter>
    <filter id="filter9_i_9928_36237" x="201" y="70" width="10" height="14" filterUnits="userSpaceOnUse" color-interpolation-filters="sRGB">
      <feFlood flood-opacity="0" result="BackgroundImageFix"/>
      <feBlend mode="normal" in="SourceGraphic" in2="BackgroundImageFix" result="shape"/>
      <feColorMatrix in="SourceAlpha" type="matrix" values="0 0 0 0 0 0 0 0 0 0 0 0 0 0 0 0 0 0 127 0" result="hardAlpha"/>
      <feOffset dy="4"/>
      <feGaussianBlur stdDeviation="5.5"/>
      <feComposite in2="hardAlpha" operator="arithmetic" k2="-1" k3="1"/>
      <feColorMatrix type="matrix" values="0 0 0 0 1 0 0 0 0 1 0 0 0 0 1 0 0 0 0.12 0"/>
      <feBlend mode="normal" in2="shape" result="effect1_innerShadow_9928_36237"/>
    </filter>
    <filter id="filter10_i_9928_36237" x="321" y="39" width="10" height="14" filterUnits="userSpaceOnUse" color-interpolation-filters="sRGB">
      <feFlood flood-opacity="0" result="BackgroundImageFix"/>
      <feBlend mode="normal" in="SourceGraphic" in2="BackgroundImageFix" result="shape"/>
      <feColorMatrix in="SourceAlpha" type="matrix" values="0 0 0 0 0 0 0 0 0 0 0 0 0 0 0 0 0 0 127 0" result="hardAlpha"/>
      <feOffset dy="4"/>
      <feGaussianBlur stdDeviation="5.5"/>
      <feComposite in2="hardAlpha" operator="arithmetic" k2="-1" k3="1"/>
      <feColorMatrix type="matrix" values="0 0 0 0 1 0 0 0 0 1 0 0 0 0 1 0 0 0 0.12 0"/>
      <feBlend mode="normal" in2="shape" result="effect1_innerShadow_9928_36237"/>
    </filter>
    <filter id="filter11_i_9928_36237" x="102" y="94" width="25" height="29" filterUnits="userSpaceOnUse" color-interpolation-filters="sRGB">
      <feFlood flood-opacity="0" result="BackgroundImageFix"/>
      <feBlend mode="normal" in="SourceGraphic" in2="BackgroundImageFix" result="shape"/>
      <feColorMatrix in="SourceAlpha" type="matrix" values="0 0 0 0 0 0 0 0 0 0 0 0 0 0 0 0 0 0 127 0" result="hardAlpha"/>
      <feOffset dy="4"/>
      <feGaussianBlur stdDeviation="5.5"/>
      <feComposite in2="hardAlpha" operator="arithmetic" k2="-1" k3="1"/>
      <feColorMatrix type="matrix" values="0 0 0 0 1 0 0 0 0 1 0 0 0 0 1 0 0 0 0.12 0"/>
      <feBlend mode="normal" in2="shape" result="effect1_innerShadow_9928_36237"/>
    </filter>
    <filter id="filter12_i_9928_36237" x="402.559" y="93.5586" width="14.4414" height="18.4414" filterUnits="userSpaceOnUse" color-interpolation-filters="sRGB">
      <feFlood flood-opacity="0" result="BackgroundImageFix"/>
      <feBlend mode="normal" in="SourceGraphic" in2="BackgroundImageFix" result="shape"/>
      <feColorMatrix in="SourceAlpha" type="matrix" values="0 0 0 0 0 0 0 0 0 0 0 0 0 0 0 0 0 0 127 0" result="hardAlpha"/>
      <feOffset dy="4"/>
      <feGaussianBlur stdDeviation="5.5"/>
      <feComposite in2="hardAlpha" operator="arithmetic" k2="-1" k3="1"/>
      <feColorMatrix type="matrix" values="0 0 0 0 1 0 0 0 0 1 0 0 0 0 1 0 0 0 0.12 0"/>
      <feBlend mode="normal" in2="shape" result="effect1_innerShadow_9928_36237"/>
    </filter>
    <filter id="filter13_i_9928_36237" x="91" y="232" width="17.4365" height="21.4492" filterUnits="userSpaceOnUse" color-interpolation-filters="sRGB">
      <feFlood flood-opacity="0" result="BackgroundImageFix"/>
      <feBlend mode="normal" in="SourceGraphic" in2="BackgroundImageFix" result="shape"/>
      <feColorMatrix in="SourceAlpha" type="matrix" values="0 0 0 0 0 0 0 0 0 0 0 0 0 0 0 0 0 0 127 0" result="hardAlpha"/>
      <feOffset dy="4"/>
      <feGaussianBlur stdDeviation="5.5"/>
      <feComposite in2="hardAlpha" operator="arithmetic" k2="-1" k3="1"/>
      <feColorMatrix type="matrix" values="0 0 0 0 1 0 0 0 0 1 0 0 0 0 1 0 0 0 0.12 0"/>
      <feBlend mode="normal" in2="shape" result="effect1_innerShadow_9928_36237"/>
    </filter>
    <filter id="filter14_i_9928_36237" x="364" y="49" width="27" height="31" filterUnits="userSpaceOnUse" color-interpolation-filters="sRGB">
      <feFlood flood-opacity="0" result="BackgroundImageFix"/>
      <feBlend mode="normal" in="SourceGraphic" in2="BackgroundImageFix" result="shape"/>
      <feColorMatrix in="SourceAlpha" type="matrix" values="0 0 0 0 0 0 0 0 0 0 0 0 0 0 0 0 0 0 127 0" result="hardAlpha"/>
      <feOffset dy="4"/>
      <feGaussianBlur stdDeviation="5.5"/>
      <feComposite in2="hardAlpha" operator="arithmetic" k2="-1" k3="1"/>
      <feColorMatrix type="matrix" values="0 0 0 0 1 0 0 0 0 1 0 0 0 0 1 0 0 0 0.12 0"/>
      <feBlend mode="normal" in2="shape" result="effect1_innerShadow_9928_36237"/>
    </filter>
    <linearGradient id="paint0_linear_9928_36237" x1="358.715" y1="136.644" x2="257.962" y2="178.236" gradientUnits="userSpaceOnUse">
      <stop stop-color="#2CB2BB"/>
      <stop offset="1" stop-color="#15757B"/>
    </linearGradient>
    <linearGradient id="paint1_linear_9928_36237" x1="306.513" y1="142.107" x2="219.434" y2="207.668" gradientUnits="userSpaceOnUse">
      <stop stop-color="#2CB2BB"/>
      <stop offset="1" stop-color="#15757B"/>
    </linearGradient>
    <linearGradient id="paint2_linear_9928_36237" x1="236.102" y1="99" x2="236.102" y2="208.117" gradientUnits="userSpaceOnUse">
      <stop stop-color="#E1E1FA"/>
      <stop offset="1" stop-color="#B4B4E2"/>
    </linearGradient>
    <linearGradient id="paint3_linear_9928_36237" x1="256.326" y1="218.279" x2="256.326" y2="395.447" gradientUnits="userSpaceOnUse">
      <stop stop-color="#E1E1FA"/>
      <stop offset="1" stop-color="#B4B4E2"/>
    </linearGradient>
    <linearGradient id="paint4_linear_9928_36237" x1="174.195" y1="285.156" x2="174.195" y2="341.474" gradientUnits="userSpaceOnUse">
      <stop stop-color="#D1D1EC"/>
      <stop offset="1" stop-color="#A7A7DB"/>
    </linearGradient>
    <linearGradient id="paint5_linear_9928_36237" x1="195.315" y1="294.543" x2="195.315" y2="332.088" gradientUnits="userSpaceOnUse">
      <stop offset="0.114583" stop-color="#554B7D"/>
      <stop offset="1" stop-color="#6A6493"/>
    </linearGradient>
    <clipPath id="clip0_9928_36237">
      <rect x="326.663" y="59" width="168" height="109" rx="10" transform="rotate(67.5686 326.663 59)" fill="white"/>
    </clipPath>
    <clipPath id="clip1_9928_36237">
      <rect x="255.989" y="75" width="168" height="109" rx="10" transform="rotate(53.0241 255.989 75)" fill="white"/>
    </clipPath>
    <clipPath id="clip2_9928_36237">
      <rect x="154.558" y="99" width="163.088" height="109.117" rx="8" transform="rotate(30 154.558 99)" fill="white"/>
    </clipPath>
  </defs>
</svg>
