<svg width="20" height="20" viewBox="0 0 20 20" fill="none" xmlns="http://www.w3.org/2000/svg">
  <path d="M13.0919 6.90852C13.0144 6.83041 12.9222 6.76842 12.8207 6.72611C12.7191 6.6838 12.6102 6.66202 12.5002 6.66202C12.3902 6.66202 12.2813 6.6838 12.1797 6.72611C12.0782 6.76842 11.986 6.83041 11.9085 6.90852L10.0002 8.82519L8.09185 6.90852C7.93493 6.7516 7.72211 6.66344 7.50019 6.66344C7.27827 6.66344 7.06544 6.7516 6.90852 6.90852C6.7516 7.06544 6.66344 7.27827 6.66344 7.50019C6.66344 7.72211 6.7516 7.93493 6.90852 8.09185L8.82519 10.0002L6.90852 11.9085C6.83041 11.986 6.76842 12.0782 6.72611 12.1797C6.6838 12.2813 6.66202 12.3902 6.66202 12.5002C6.66202 12.6102 6.6838 12.7191 6.72611 12.8207C6.76842 12.9222 6.83041 13.0144 6.90852 13.0919C6.98599 13.17 7.07816 13.232 7.17971 13.2743C7.28126 13.3166 7.39018 13.3384 7.50019 13.3384C7.6102 13.3384 7.71912 13.3166 7.82067 13.2743C7.92222 13.232 8.01439 13.17 8.09185 13.0919L10.0002 11.1752L11.9085 13.0919C11.986 13.17 12.0782 13.232 12.1797 13.2743C12.2813 13.3166 12.3902 13.3384 12.5002 13.3384C12.6102 13.3384 12.7191 13.3166 12.8207 13.2743C12.9222 13.232 13.0144 13.17 13.0919 13.0919C13.17 13.0144 13.232 12.9222 13.2743 12.8207C13.3166 12.7191 13.3384 12.6102 13.3384 12.5002C13.3384 12.3902 13.3166 12.2813 13.2743 12.1797C13.232 12.0782 13.17 11.986 13.0919 11.9085L11.1752 10.0002L13.0919 8.09185C13.17 8.01439 13.232 7.92222 13.2743 7.82067C13.3166 7.71912 13.3384 7.6102 13.3384 7.50019C13.3384 7.39018 13.3166 7.28126 13.2743 7.17971C13.232 7.07816 13.17 6.98599 13.0919 6.90852ZM15.8919 4.10852C15.1231 3.3126 14.2036 2.67775 13.1869 2.24101C12.1702 1.80427 11.0767 1.57438 9.9702 1.56477C8.8637 1.55515 7.76637 1.766 6.74224 2.18501C5.7181 2.60401 4.78767 3.22279 4.00523 4.00523C3.22279 4.78767 2.60401 5.7181 2.18501 6.74224C1.766 7.76637 1.55515 8.8637 1.56477 9.9702C1.57438 11.0767 1.80427 12.1702 2.24101 13.1869C2.67775 14.2036 3.3126 15.1231 4.10852 15.8919C4.87724 16.6878 5.79678 17.3226 6.81348 17.7594C7.83018 18.1961 8.92368 18.426 10.0302 18.4356C11.1367 18.4452 12.234 18.2344 13.2581 17.8154C14.2823 17.3964 15.2127 16.7776 15.9951 15.9951C16.7776 15.2127 17.3964 14.2823 17.8154 13.2581C18.2344 12.234 18.4452 11.1367 18.4356 10.0302C18.426 8.92368 18.1961 7.83018 17.7594 6.81348C17.3226 5.79678 16.6878 4.87724 15.8919 4.10852ZM14.7169 14.7169C13.6269 15.808 12.1923 16.4875 10.6575 16.6396C9.12273 16.7917 7.58269 16.4069 6.29979 15.5508C5.01689 14.6948 4.07049 13.4204 3.62183 11.9448C3.17318 10.4692 3.25003 8.88364 3.83928 7.45834C4.42854 6.03304 5.49375 4.85614 6.85343 4.12816C8.21311 3.40017 9.78314 3.16613 11.296 3.46592C12.8089 3.7657 14.1711 4.58076 15.1504 5.77224C16.1297 6.96371 16.6656 8.45789 16.6669 10.0002C16.6698 10.8763 16.499 11.7442 16.1643 12.5538C15.8296 13.3635 15.3376 14.0986 14.7169 14.7169Z" fill="#D61F85"/>
</svg>
