<svg width="18" height="18" viewBox="0 0 18 18" fill="none" xmlns="http://www.w3.org/2000/svg">
  <path d="M9.00033 8.16699C8.77932 8.16699 8.56735 8.25479 8.41107 8.41107C8.25479 8.56735 8.167 8.77931 8.167 9.00033V12.3337C8.167 12.5547 8.25479 12.7666 8.41107 12.9229C8.56735 13.0792 8.77932 13.167 9.00033 13.167C9.22134 13.167 9.4333 13.0792 9.58958 12.9229C9.74586 12.7666 9.83366 12.5547 9.83366 12.3337V9.00033C9.83366 8.77931 9.74586 8.56735 9.58958 8.41107C9.4333 8.25479 9.22134 8.16699 9.00033 8.16699ZM9.317 4.90033C9.11411 4.81698 8.88655 4.81698 8.68366 4.90033C8.58137 4.93999 8.48792 4.99946 8.40866 5.07533C8.33505 5.15633 8.27586 5.24934 8.23366 5.35033C8.18701 5.44922 8.16418 5.55768 8.167 5.66699C8.16636 5.77666 8.18738 5.88538 8.22885 5.98691C8.27032 6.08845 8.33143 6.18079 8.40866 6.25866C8.48966 6.33227 8.58267 6.39146 8.68366 6.43366C8.80991 6.48553 8.94697 6.50559 9.08278 6.49209C9.2186 6.47858 9.34902 6.43193 9.46259 6.35622C9.57615 6.28051 9.66938 6.17806 9.73409 6.05789C9.79879 5.93771 9.83298 5.80348 9.83366 5.66699C9.83059 5.44635 9.74427 5.23502 9.592 5.07533C9.51274 4.99946 9.41929 4.93999 9.317 4.90033ZM9.00033 0.666992C7.35215 0.666992 5.74099 1.15573 4.37058 2.07141C3.00017 2.98709 1.93206 4.28858 1.30133 5.8113C0.670603 7.33401 0.505575 9.00957 0.827119 10.6261C1.14866 12.2426 1.94234 13.7274 3.10777 14.8929C4.27321 16.0583 5.75807 16.852 7.37458 17.1735C8.99109 17.4951 10.6666 17.3301 12.1894 16.6993C13.7121 16.0686 15.0136 15.0005 15.9292 13.6301C16.8449 12.2597 17.3337 10.6485 17.3337 9.00033C17.3337 7.90598 17.1181 6.82234 16.6993 5.8113C16.2805 4.80025 15.6667 3.88159 14.8929 3.10777C14.1191 2.33395 13.2004 1.72012 12.1894 1.30133C11.1783 0.88254 10.0947 0.666992 9.00033 0.666992ZM9.00033 15.667C7.68179 15.667 6.39286 15.276 5.29653 14.5435C4.2002 13.8109 3.34572 12.7697 2.84113 11.5515C2.33655 10.3334 2.20453 8.99293 2.46176 7.69972C2.719 6.40652 3.35393 5.21863 4.28628 4.28628C5.21863 3.35393 6.40652 2.71899 7.69973 2.46176C8.99293 2.20452 10.3334 2.33654 11.5516 2.84113C12.7697 3.34571 13.8109 4.2002 14.5435 5.29652C15.276 6.39285 15.667 7.68178 15.667 9.00033C15.667 10.7684 14.9646 12.4641 13.7144 13.7144C12.4641 14.9646 10.7684 15.667 9.00033 15.667Z" fill="#5BB1EF"/>
</svg>
