<svg width="20" height="20" viewBox="0 0 20 20" fill="none" xmlns="http://www.w3.org/2000/svg">
  <path d="M12.267 7.32533L8.692 10.9087L7.317 9.53366C7.24229 9.44642 7.15036 9.37557 7.04697 9.32555C6.94358 9.27554 6.83097 9.24743 6.71621 9.24299C6.60144 9.23856 6.487 9.2579 6.38006 9.29979C6.27312 9.34169 6.176 9.40524 6.09479 9.48645C6.01357 9.56766 5.95003 9.66479 5.90813 9.77172C5.86624 9.87866 5.8469 9.9931 5.85133 10.1079C5.85576 10.2226 5.88387 10.3352 5.93389 10.4386C5.98391 10.542 6.05476 10.634 6.142 10.7087L8.10033 12.6753C8.1782 12.7526 8.27054 12.8137 8.37207 12.8551C8.4736 12.8966 8.58232 12.9176 8.692 12.917C8.91061 12.9161 9.12011 12.8293 9.27533 12.6753L13.442 8.50866C13.5201 8.43119 13.5821 8.33902 13.6244 8.23747C13.6667 8.13592 13.6885 8.027 13.6885 7.91699C13.6885 7.80698 13.6667 7.69806 13.6244 7.59651C13.5821 7.49496 13.5201 7.40279 13.442 7.32533C13.2859 7.17012 13.0747 7.083 12.8545 7.083C12.6343 7.083 12.4231 7.17012 12.267 7.32533ZM10.0003 1.66699C8.35215 1.66699 6.74099 2.15573 5.37058 3.07141C4.00017 3.98709 2.93206 5.28858 2.30133 6.8113C1.6706 8.33401 1.50558 10.0096 1.82712 11.6261C2.14866 13.2426 2.94234 14.7274 4.10777 15.8929C5.27321 17.0583 6.75807 17.852 8.37458 18.1735C9.99109 18.4951 11.6666 18.3301 13.1894 17.6993C14.7121 17.0686 16.0136 16.0005 16.9292 14.6301C17.8449 13.2597 18.3337 11.6485 18.3337 10.0003C18.3337 8.90598 18.1181 7.82234 17.6993 6.8113C17.2805 5.80025 16.6667 4.88159 15.8929 4.10777C15.1191 3.33395 14.2004 2.72012 13.1894 2.30133C12.1783 1.88254 11.0947 1.66699 10.0003 1.66699ZM10.0003 16.667C8.68179 16.667 7.39286 16.276 6.29653 15.5435C5.2002 14.8109 4.34572 13.7697 3.84113 12.5515C3.33655 11.3334 3.20453 9.99293 3.46176 8.69972C3.719 7.40652 4.35393 6.21863 5.28628 5.28628C6.21863 4.35393 7.40652 3.71899 8.69973 3.46176C9.99293 3.20452 11.3334 3.33654 12.5516 3.84113C13.7697 4.34571 14.8109 5.2002 15.5435 6.29652C16.276 7.39285 16.667 8.68178 16.667 10.0003C16.667 11.7684 15.9646 13.4641 14.7144 14.7144C13.4641 15.9646 11.7684 16.667 10.0003 16.667Z" fill="#63B64E"/>
</svg>
