<svg width="40" height="40" viewBox="0 0 40 40" fill="none" xmlns="http://www.w3.org/2000/svg">
  <circle opacity="0.1" cx="20" cy="20" r="20" fill="#ED5BAC"/>
  <path d="M23.8404 28.3996V26.4796C23.8404 24.3589 22.3361 22.6396 20.4804 22.6396H13.7604C11.9047 22.6396 10.4004 24.3589 10.4004 26.4796V28.3996" stroke="#D61F85" stroke-width="2" stroke-linecap="round" stroke-linejoin="round"/>
  <path fill-rule="evenodd" clip-rule="evenodd" d="M17.1193 18.8001C19.2401 18.8001 20.9593 17.0809 20.9593 14.9601C20.9593 12.8393 19.2401 11.1201 17.1193 11.1201C14.9985 11.1201 13.2793 12.8393 13.2793 14.9601C13.2793 17.0809 14.9985 18.8001 17.1193 18.8001Z" stroke="#D61F85" stroke-width="2" stroke-linecap="round" stroke-linejoin="round"/>
  <path d="M29.6007 28.3998V26.4798C29.5994 24.7299 28.4151 23.2021 26.7207 22.7646" stroke="#D61F85" stroke-width="2" stroke-linecap="round" stroke-linejoin="round"/>
  <path d="M23.8398 11.2446C25.539 11.6797 26.7274 13.2107 26.7274 14.9646C26.7274 16.7186 25.539 18.2496 23.8398 18.6846" stroke="#D61F85" stroke-width="2" stroke-linecap="round" stroke-linejoin="round"/>
</svg>
