<svg width="100" height="100" viewBox="0 0 100 100" fill="none" xmlns="http://www.w3.org/2000/svg">
  <path d="M50 100C77.6142 100 100 77.6142 100 50C100 22.3858 77.6142 0 50 0C22.3858 0 0 22.3858 0 50C0 77.6142 22.3858 100 50 100Z" fill="#8F00FF" fill-opacity="0.3"/>
  <mask id="mask0_9270_34531" style="mask-type:alpha" maskUnits="userSpaceOnUse" x="0" y="0" width="100" height="100">
    <path d="M50 100C77.6142 100 100 77.6142 100 50C100 22.3858 77.6142 0 50 0C22.3858 0 0 22.3858 0 50C0 77.6142 22.3858 100 50 100Z" fill="#F6F6FA"/>
  </mask>
  <g mask="url(#mask0_9270_34531)">
    <path d="M73.2843 92.4058C73.2843 85.8844 73.2452 81.4701 72.6195 74.9928C71.94 67.9142 71.104 57.6531 68.2198 50.99C61.0483 45.8082 51.2858 51.7575 49.9953 57.3451C49.8877 57.834 49.79 58.3228 49.702 58.8117C49.5343 58.3307 49.3924 57.8412 49.2767 57.3451C47.9812 51.7478 38.2188 45.7984 31.0473 50.99C28.1582 57.6531 27.3222 67.9142 26.6476 74.9928C26.0219 81.4701 25.9827 85.8844 25.9876 92.4058C25.9876 94.5909 25.5965 97.2943 26.2125 99.323C26.7014 100.975 26.3152 100.667 28.1679 101.21C30.4264 101.87 32.9294 102.53 35.2368 103.014C38.0477 103.601 40.7755 103.307 43.5815 103.185C44.1339 103.185 48.5238 103.185 52.0631 103.102C52.8551 103.591 54.7861 103.146 55.6758 103.185C58.4818 103.307 61.2096 103.601 64.0205 103.014C66.3279 102.525 68.8308 101.87 71.0893 101.21C72.9519 100.667 72.5559 100.975 73.0448 99.323C73.6558 97.2992 73.2843 94.5909 73.2843 92.4058Z" fill="#7B7B9D"/>
    <path d="M41.5639 29.088C41.3293 27.9391 40.2 26.9908 39.3738 26.233C38.3961 25.3482 37.3598 24.5318 36.3576 23.6666C35.5559 22.9675 34.7542 22.2587 33.9476 21.5596C33.3316 21.0268 32.6325 20.6503 31.9921 20.1224C30.8287 19.1447 29.1372 18.2256 27.5582 18.1963C26.5805 18.1963 26.3068 19.526 26.1503 20.3717C25.922 21.9974 25.9683 23.6499 26.2872 25.2602C26.5756 27.1032 26.5854 28.956 26.9374 30.7843C27.1232 31.762 27.2894 32.989 27.9151 33.7761C28.7644 33.2237 29.6628 32.7508 30.5989 32.3633C31.9249 31.757 33.2922 31.2457 34.6906 30.8332C35.9996 30.4919 37.2888 30.079 38.5526 29.5964C39.5107 29.2053 40.4102 28.8729 41.5639 29.088Z" fill="#7B7B9D"/>
    <path d="M29.1406 32.0917C28.5833 29.1585 27.0043 25.3455 27.1412 22.3586C27.1803 21.5177 27.3221 20.6965 28.202 20.6134C29.0819 20.5303 29.7126 20.9849 30.3578 21.5324C31.2573 22.2999 32.2106 23.043 33.0857 23.8349C33.9273 24.5972 34.701 25.4315 35.3979 26.3281C35.6912 26.7045 36.4343 27.384 36.4441 27.8777C35.0899 28.3202 33.7947 28.9259 32.587 29.6816C31.7657 30.1705 31.7755 30.7864 30.9493 31.2362C30.568 31.4464 29.7614 32.2579 29.1406 32.0917Z" fill="#E5E5F1"/>
    <path d="M59.2109 29.088C59.4407 27.9391 60.5748 26.9908 61.401 26.233C62.3787 25.3482 63.4151 24.5318 64.4123 23.6666L66.8273 21.5596C67.4432 21.0268 68.1423 20.6503 68.7827 20.1224C69.9462 19.1447 71.6327 18.2256 73.2117 18.1963C74.1894 18.1963 74.4681 19.526 74.6245 20.3717C74.8503 21.9975 74.8041 23.6496 74.4876 25.2602C74.1992 27.1032 74.1894 28.956 73.8375 30.7843C73.6468 31.762 73.4855 32.989 72.8597 33.7761C72.0104 33.2237 71.112 32.7508 70.1759 32.3633C68.8655 31.76 67.5146 31.2487 66.1331 30.8332C64.8239 30.4926 63.5346 30.0797 62.2712 29.5964C61.2641 29.2053 60.3646 28.8729 59.2109 29.088Z" fill="#7B7B9D"/>
    <path d="M71.6101 32.0917C72.1625 29.1585 73.7464 25.3455 73.6047 22.3586C73.5655 21.5177 73.4287 20.6965 72.5487 20.6134C71.6688 20.5303 71.0333 20.9849 70.3929 21.5324C69.4885 22.2999 68.5401 23.043 67.6602 23.8349C66.8211 24.5999 66.0476 25.4338 65.3479 26.3281C65.0546 26.7045 64.3164 27.384 64.3066 27.8777C65.6604 28.3211 66.9555 28.9268 68.1637 29.6816C68.985 30.1705 68.9752 30.7864 69.7965 31.2362C70.1827 31.4464 70.9893 32.2579 71.6101 32.0917Z" fill="#E5E5F1"/>
    <path d="M82.1517 43.1203C82.2348 41.5217 79.0572 40.4267 78.3533 39.053C79.5265 38.3002 81.2326 38.8135 82.3081 37.9189C81.2375 36.0221 78.6564 34.3991 76.7547 33.2405C72.487 30.6398 60.2168 25.1109 50.0144 24.93C40.2862 24.7687 27.5271 30.6301 23.2741 33.2405C21.3724 34.3991 18.7913 36.0221 17.7207 37.9189C18.8011 38.8135 20.5023 38.3002 21.6755 39.053C20.9716 40.4267 17.794 41.5217 17.8771 43.1203C19.8717 43.834 22.0031 43.2474 20.3214 45.5645C19.153 47.1484 18.366 47.8573 20.5707 48.6248C22.6923 49.3581 22.399 49.2701 22.3648 51.3379C22.3648 52.7165 22.4381 53.1565 23.5772 53.9728C25.5057 55.3759 27.5481 56.6153 29.683 57.6784C30.8709 58.2503 32.1761 58.7832 33.1832 59.6729C35.339 61.5745 37.7735 64.7765 40.4231 66.4435C43.297 68.2765 46.6166 69.2907 50.0242 69.3766C53.066 69.4214 56.0484 68.5325 58.5694 66.8297C61.2189 65.1578 64.7143 61.5647 66.8799 59.6631C67.882 58.7734 69.1922 58.2405 70.3801 57.6686C72.5128 56.6044 74.5534 55.365 76.481 53.9631C77.62 53.1467 77.7129 52.7067 77.6933 51.3281C77.664 49.2603 77.3658 49.3483 79.4874 48.615C81.7068 47.8475 80.9051 47.1484 79.7416 45.5548C78.0258 43.2474 80.1376 43.834 82.1517 43.1203Z" fill="#A7A7C0"/>
    <path d="M54.9441 43.114C56.836 42.014 58.2048 41.3737 60.4388 41.2417C61.7294 41.1634 63.152 41.2417 64.3497 40.7528C65.9287 40.1173 65.5718 39.3254 63.9879 39.252C62.5556 39.1836 61.2699 40.0097 59.9598 40.5182C60.9375 39.4573 62.5556 37.3748 62.5214 35.8985C60.2971 35.8252 58.4492 38.0983 57.0657 39.5942C57.0657 38.2743 57.8479 36.1722 57.0218 35.0234C54.641 36.138 54.9441 40.8506 54.9441 43.114Z" fill="#E5E5F1"/>
    <path d="M45.0959 43.114C43.204 42.014 41.8352 41.3737 39.606 41.2417C38.3106 41.1634 36.888 41.2417 35.6708 40.7528C34.0918 40.1173 34.4486 39.3254 36.0325 39.252C37.4649 39.1836 38.7506 40.0097 40.0607 40.5182C39.083 39.4573 37.4649 37.3748 37.4991 35.8985C39.7234 35.8252 41.5712 38.0983 42.9547 39.5942C42.9547 38.2743 42.1774 36.1722 42.9987 35.0234C45.4185 36.138 45.0959 40.8506 45.0959 43.114Z" fill="#E5E5F1"/>
    <path d="M41.9878 50.4384C43.5807 50.4384 44.872 49.1471 44.872 47.5542C44.872 45.9612 43.5807 44.6699 41.9878 44.6699C40.3948 44.6699 39.1035 45.9612 39.1035 47.5542C39.1035 49.1471 40.3948 50.4384 41.9878 50.4384Z" fill="#424255"/>
    <path d="M41.9747 48.4523C42.4742 48.4523 42.8791 48.0474 42.8791 47.5479C42.8791 47.0485 42.4742 46.6436 41.9747 46.6436C41.4752 46.6436 41.0703 47.0485 41.0703 47.5479C41.0703 48.0474 41.4752 48.4523 41.9747 48.4523Z" fill="white"/>
    <path d="M57.8374 50.4384C59.4303 50.4384 60.7216 49.1471 60.7216 47.5542C60.7216 45.9612 59.4303 44.6699 57.8374 44.6699C56.2444 44.6699 54.9531 45.9612 54.9531 47.5542C54.9531 49.1471 56.2444 50.4384 57.8374 50.4384Z" fill="#424255"/>
    <path d="M57.836 48.4523C58.3355 48.4523 58.7404 48.0474 58.7404 47.5479C58.7404 47.0485 58.3355 46.6436 57.836 46.6436C57.3365 46.6436 56.9316 47.0485 56.9316 47.5479C56.9316 48.0474 57.3365 48.4523 57.836 48.4523Z" fill="white"/>
    <path d="M49.8767 58.2632C49.3194 57.1046 47.0951 55.9265 45.9658 55.3301C44.686 54.694 43.2614 54.4057 41.835 54.4941C39.6645 54.5968 37.1518 56.0829 36.4576 58.2387C35.7243 60.5364 36.1203 63.0588 38.1882 64.5938C40.6715 66.471 44.0544 66.2511 46.4498 65.4249C47.9164 64.936 49.422 63.7921 50.0331 62.3402C50.5659 61.1376 50.8788 58.6787 49.8767 58.2632Z" fill="#E5E5F1"/>
    <path d="M49.9795 58.2633C50.5319 57.1047 52.7611 55.9266 53.8904 55.3302C55.17 54.6937 56.5947 54.4054 58.0212 54.4943C60.1868 54.5969 62.7044 56.083 63.3986 58.2389C64.1319 60.5365 63.731 63.059 61.6632 64.594C59.1847 66.4712 55.7969 66.2512 53.4015 65.425C51.9643 64.9362 50.4293 63.7923 49.8231 62.3404C49.2903 61.1378 48.9774 58.6789 49.9795 58.2633Z" fill="#E5E5F1"/>
    <path d="M50.11 61.3853C49.846 59.3908 48.8145 60.2658 47.5239 59.8845C46.1356 59.469 46.3605 57.8558 47.7048 57.5527C48.9416 57.2691 50.4277 57.4207 51.7085 57.4354C52.828 57.4354 54.7736 58.6428 52.9502 59.7525C51.909 60.3587 49.9682 59.6841 50.11 61.3853Z" fill="#424255"/>
  </g>
</svg>
