<svg width="100" height="100" viewBox="0 0 100 100" fill="none" xmlns="http://www.w3.org/2000/svg">
  <path d="M50.1204 100C77.6685 100 100.001 77.6142 100.001 50C100.001 22.3858 77.6685 0 50.1204 0C22.5724 0 0.240234 22.3858 0.240234 50C0.240234 77.6142 22.5724 100 50.1204 100Z" fill="#00FF94" fill-opacity="0.3"/>
  <mask id="mask0_9270_34657" style="mask-type:alpha" maskUnits="userSpaceOnUse" x="0" y="0" width="100" height="100">
    <path d="M49.8802 100C77.4283 100 99.7604 77.6142 99.7604 50C99.7604 22.3858 77.4283 0 49.8802 0C22.3321 0 0 22.3858 0 50C0 77.6142 22.3321 100 49.8802 100Z" fill="#F6F6FA"/>
  </mask>
  <g mask="url(#mask0_9270_34657)">
    <path d="M70.02 34.4536C75.0621 34.4536 79.1495 30.2601 79.1495 25.0871C79.1495 19.9142 75.0621 15.7207 70.02 15.7207C64.978 15.7207 60.8906 19.9142 60.8906 25.0871C60.8906 30.2601 64.978 34.4536 70.02 34.4536Z" fill="#E5E5F1"/>
    <path d="M68.8882 31.9011C71.7539 31.9011 74.0771 29.5177 74.0771 26.5775C74.0771 23.6374 71.7539 21.2539 68.8882 21.2539C66.0224 21.2539 63.6992 23.6374 63.6992 26.5775C63.6992 29.5177 66.0224 31.9011 68.8882 31.9011Z" fill="white"/>
    <path d="M29.1001 34.4536C34.1422 34.4536 38.2295 30.2601 38.2295 25.0871C38.2295 19.9142 34.1422 15.7207 29.1001 15.7207C24.0581 15.7207 19.9707 19.9142 19.9707 25.0871C19.9707 30.2601 24.0581 34.4536 29.1001 34.4536Z" fill="#E5E5F1"/>
    <path d="M30.2358 31.9011C33.1016 31.9011 35.4248 29.5177 35.4248 26.5775C35.4248 23.6374 33.1016 21.2539 30.2358 21.2539C27.3701 21.2539 25.0469 23.6374 25.0469 26.5775C25.0469 29.5177 27.3701 31.9011 30.2358 31.9011Z" fill="white"/>
    <path d="M75.8878 90.765C75.6635 86.0035 75.3221 82.9775 74.693 78.2308C74.1078 73.8311 71.5767 68.2386 69.3285 64.6602C67.7825 61.8835 63.5348 61.8395 59.926 61.5119C57.3754 61.2822 53.5861 61.859 51.5963 63.6091C50.7605 64.3318 50.0745 65.2121 49.5773 66.2C49.0802 65.2121 48.3942 64.3318 47.5583 63.6091C45.6076 61.859 41.7793 61.2822 39.2287 61.5119C35.6198 61.8395 31.3721 61.8835 29.8262 64.6602C27.5633 68.2386 25.0323 73.8506 24.4617 78.2308C23.8326 82.9775 23.4863 86.0035 23.2669 90.765C23.0891 93.7083 23.1559 96.6614 23.4668 99.5937C23.7253 101.642 23.774 101.71 26.0466 101.994C28.8599 102.295 31.6887 102.426 34.5177 102.385C38.9946 102.385 44.8712 102.923 49.592 102.83C54.3127 102.923 60.1844 102.375 64.6662 102.385C67.4952 102.426 70.3241 102.295 73.1373 101.994C75.4099 101.71 75.4587 101.642 75.7171 99.5937C76.0158 96.6605 76.0729 93.7076 75.8878 90.765V90.765Z" fill="#7B7B9D"/>
    <path d="M35.3022 89.0098C35.3022 80.8802 43.388 71.7141 47.7966 68.4144C48.1607 68.1507 48.5984 68.0088 49.0475 68.0088C49.4967 68.0088 49.9344 68.1507 50.2985 68.4144C54.6876 71.7141 62.7929 80.8802 62.7929 89.0098C62.7929 90.9212 62.9051 93.4095 60.6227 94.0205C58.2331 94.6512 56.5213 92.0651 55.0241 90.7208C54.7022 93.0477 55.2679 95.1987 53.7708 97.2617C52.7466 98.6793 50.8447 99.8135 49.1036 99.7597H48.9573C47.2212 99.8135 45.3143 98.6793 44.2902 97.2617C42.793 95.1987 43.3587 93.0477 43.0368 90.7208C41.5397 92.0456 39.8279 94.6316 37.4383 94.0205C35.1705 93.4144 35.3022 90.9212 35.3022 89.0098Z" fill="#E5E5F1"/>
    <path d="M49.2891 19.4119C49.2891 19.4119 54.6536 18.8449 61.3202 21.4016C67.9868 23.9583 71.225 28.6366 73.4879 32.8945C75.7507 37.1524 76.4627 43.3902 76.4627 43.3902C76.4627 43.3902 83.6805 46.2305 86.3725 48.357L89.0596 50.4835L81.1445 52.7567C81.1445 52.7567 84.5583 56.8679 85.5337 58.1341C86.0936 58.8319 86.5699 59.5932 86.9528 60.4023H80.2862C80.2862 60.4023 83.2562 65.0856 83.8219 67.4956C84.1621 68.9361 84.3048 70.4162 84.2462 71.8953C79.6191 70.2482 74.7149 69.5258 69.8108 69.7688C61.7445 70.1941 56.6433 75.4444 53.5319 76.7203C50.4205 77.9962 49.2891 77.698 49.2891 77.698V19.4119Z" fill="#7B7B9D"/>
    <path d="M49.835 19.4119C49.835 19.4119 44.4705 18.8449 37.8038 21.4016C31.1372 23.9583 27.899 28.6366 25.6118 32.8945C23.3245 37.1524 22.6418 43.3902 22.6418 43.3902C22.6418 43.3902 15.4241 46.2305 12.7321 48.357L10.0449 50.4835L17.9698 52.7567C17.9698 52.7567 14.556 56.8679 13.5806 58.1341C13.0231 58.8327 12.5485 59.5939 12.1663 60.4023H18.8183C18.8183 60.4023 15.8484 65.0856 15.2826 67.4956C14.9424 68.9361 14.7997 70.4162 14.8583 71.8953C19.4854 70.2482 24.3896 69.5258 29.2938 69.7688C37.36 70.1941 42.4612 75.4444 45.5726 76.7203C48.684 77.9962 49.8155 77.698 49.8155 77.698L49.835 19.4119Z" fill="#7B7B9D"/>
    <path d="M83.8198 67.5097C83.3614 65.5542 81.3229 62.1323 80.567 60.8759C73.9979 53.3476 60.0843 52.2281 49.5601 52.6631C39.031 52.2281 25.1223 53.3476 18.5532 60.8759C17.7973 62.1127 15.7588 65.5542 15.3004 67.5097C14.9602 68.9501 14.8174 70.4303 14.8761 71.9094C19.5032 70.2623 24.4073 69.5398 29.3115 69.7828C37.3778 70.2081 42.479 75.4584 45.5904 76.7343C47.8532 77.6632 49.0627 77.7658 49.5601 77.7511C50.0575 77.7365 51.267 77.6632 53.5299 76.7343C56.6461 75.4584 61.7424 70.2081 69.8087 69.7828C74.7129 69.5398 79.617 70.2623 84.2441 71.9094C84.3028 70.4303 84.16 68.9501 83.8198 67.5097V67.5097Z" fill="white"/>
    <path d="M69.2148 44.7538C69.2148 43.5268 71.1656 41.6056 71.8386 40.5937C72.6823 39.352 73.6674 38.1494 74.594 36.981C74.7013 36.8442 74.8281 36.6633 74.9646 36.4922C75.4995 38.2051 75.9167 39.9528 76.2131 41.7229C75.0963 42.3927 73.5503 42.8571 72.7749 43.2384C71.6191 43.8152 70.4145 44.2698 69.2148 44.7538Z" fill="#E5E5F1"/>
    <path d="M68.1719 38.2232C68.2938 37.3775 72.0733 33.5986 73.4242 32.7676L73.4876 32.8947C73.9328 33.7446 74.3174 34.6251 74.6386 35.5296C73.7266 36.0722 72.5269 36.4486 71.7125 36.8397C70.6883 37.3432 69.3131 38.1743 68.1719 38.2232Z" fill="#E5E5F1"/>
    <path d="M53.5307 32.621C52.8182 29.4163 52.2794 26.1754 51.9164 22.9123C51.7653 21.8075 51.6629 20.5512 51.4727 19.373C53.2512 19.438 55.0204 19.6621 56.7591 20.0428C56.459 22.3924 55.9697 24.7139 55.2961 26.9845C54.8084 28.8568 54.4085 30.9051 53.5307 32.621Z" fill="#E5E5F1"/>
    <path d="M58.9636 50.303C60.4019 50.303 61.5678 49.1342 61.5678 47.6925C61.5678 46.2508 60.4019 45.082 58.9636 45.082C57.5253 45.082 56.3594 46.2508 56.3594 47.6925C56.3594 49.1342 57.5253 50.303 58.9636 50.303Z" fill="#414155"/>
    <path d="M58.9658 48.5136C59.4183 48.5136 59.7851 48.1459 59.7851 47.6924C59.7851 47.2388 59.4183 46.8711 58.9658 46.8711C58.5133 46.8711 58.1465 47.2388 58.1465 47.6924C58.1465 48.1459 58.5133 48.5136 58.9658 48.5136Z" fill="white"/>
    <path d="M49.7015 57.7972C50.5355 57.7972 53.3494 57.455 53.7932 58.3203C54.2809 59.2687 52.179 61.1068 51.5791 61.5614C51.0205 61.9513 50.4119 62.2637 49.7698 62.4902C49.3065 61.2045 49.9893 59.3322 49.7015 57.7972Z" fill="#414155"/>
    <path d="M49.5903 62.1132C49.3221 64.5575 49.9854 67.0849 51.8581 68.7274C52.7318 69.4849 53.8124 69.9618 54.9597 70.0962C56.1831 70.2413 57.4207 70.215 58.6369 70.018C59.9557 69.8378 61.2048 69.3154 62.2603 68.5025C62.5627 68.2581 62.1725 67.8035 61.8751 68.043C60.1633 69.4314 57.8029 69.6709 55.6766 69.5584C54.5724 69.536 53.4998 69.1855 52.5945 68.5514C51.7641 67.9312 51.1129 67.1012 50.7071 66.1462C50.2056 64.908 50.0228 63.5631 50.1756 62.2354C50.2146 61.859 49.6342 61.7466 49.5903 62.1279V62.1132Z" fill="#414155"/>
    <path d="M57.1758 58.1537C65.8705 57.3405 74.6262 58.8201 82.5743 62.4458" stroke="#E5E5F1" stroke-width="1.22" stroke-linecap="round" stroke-linejoin="round"/>
    <path d="M57.1504 61.0176C67.8088 62.4421 78.0656 66.03 87.2941 71.5622" stroke="#E5E5F1" stroke-width="1.22" stroke-linecap="round" stroke-linejoin="round"/>
    <path d="M56.709 63.4277C68.5587 68.0791 79.0505 75.6441 87.2184 85.4262" stroke="#E5E5F1" stroke-width="1.22" stroke-linecap="round" stroke-linejoin="round"/>
    <path d="M29.9084 44.7538C29.8791 43.5268 27.9577 41.6056 27.2798 40.5937C26.441 39.352 25.4559 38.1494 24.5293 36.981C24.422 36.8442 24.2952 36.6633 24.1586 36.4922C23.6237 38.2051 23.2066 39.9528 22.9102 41.7229C24.0269 42.3927 25.5729 42.8571 26.3239 43.2384C27.4993 43.8152 28.7282 44.2698 29.9084 44.7538Z" fill="#E5E5F1"/>
    <path d="M30.953 38.2232C30.8262 37.3775 27.0515 33.5986 25.7007 32.7676C25.7007 32.8116 25.6568 32.8507 25.6324 32.8947C25.1888 33.7447 24.8058 34.6253 24.4863 35.5296C25.3983 36.0722 26.598 36.4486 27.4124 36.8397C28.4317 37.3432 29.8118 38.1743 30.953 38.2232Z" fill="#E5E5F1"/>
    <path d="M45.5927 32.621C46.3052 29.4163 46.8441 26.1754 47.207 22.9123C47.3533 21.8075 47.4606 20.5512 47.6508 19.373C45.8738 19.4383 44.1063 19.6624 42.3691 20.0428C42.6669 22.3928 43.1562 24.7145 43.8322 26.9845C44.3052 28.8568 44.7149 30.9051 45.5927 32.621Z" fill="#E5E5F1"/>
    <path d="M40.6472 50.303C42.0855 50.303 43.2514 49.1342 43.2514 47.6925C43.2514 46.2508 42.0855 45.082 40.6472 45.082C39.2089 45.082 38.043 46.2508 38.043 47.6925C38.043 49.1342 39.2089 50.303 40.6472 50.303Z" fill="#414155"/>
    <path d="M40.6474 48.5136C41.0999 48.5136 41.4667 48.1459 41.4667 47.6924C41.4667 47.2388 41.0999 46.8711 40.6474 46.8711C40.1949 46.8711 39.8281 47.2388 39.8281 47.6924C39.8281 48.1459 40.1949 48.5136 40.6474 48.5136Z" fill="white"/>
    <path d="M50.1567 57.7718C49.3179 57.7718 45.7675 57.4541 45.3286 58.3193C44.8409 59.2677 46.9428 61.1058 47.5378 61.5604C48.2177 62.0115 48.9456 62.3854 49.708 62.675C50.1664 61.3894 49.8641 59.3068 50.1567 57.7718Z" fill="#414155"/>
    <path d="M48.9553 62.1964C49.1992 64.4255 48.5993 66.8161 46.8437 68.3119C46.016 69.0075 44.9939 69.4293 43.9176 69.5194C42.8013 69.6337 41.6749 69.6008 40.5672 69.4217C39.3494 69.2596 38.1955 68.7791 37.2217 68.0284C36.9242 67.784 36.5828 68.2777 36.8803 68.5173C38.7481 70.0278 41.3182 70.2869 43.6347 70.1451C44.8202 70.0958 45.965 69.698 46.9266 69.0012C47.8162 68.3232 48.5153 67.4254 48.9553 66.3956C49.499 65.0537 49.6953 63.5957 49.5259 62.1573C49.5188 62.0782 49.4807 62.0052 49.4198 61.9543C49.359 61.9034 49.2805 61.8788 49.2016 61.886C49.1227 61.8931 49.0499 61.9314 48.9991 61.9923C48.9484 62.0533 48.9239 62.132 48.931 62.2111L48.9553 62.1964Z" fill="#414155"/>
    <path d="M41.9493 58.1528C33.2546 57.3393 24.4988 58.819 16.5508 62.4449" stroke="#E5E5F1" stroke-width="1.22" stroke-linecap="round" stroke-linejoin="round"/>
    <path d="M41.9747 61.0176C31.3149 62.4429 21.0567 66.0307 11.8262 71.5622" stroke="#E5E5F1" stroke-width="1.22" stroke-linecap="round" stroke-linejoin="round"/>
    <path d="M42.4186 63.4277C30.5592 68.0853 20.0615 75.6627 11.8945 85.4604" stroke="#E5E5F1" stroke-width="1.22" stroke-linecap="round" stroke-linejoin="round"/>
  </g>
</svg>
