<svg width="100" height="100" viewBox="0 0 100 100" fill="none" xmlns="http://www.w3.org/2000/svg">
  <path d="M50 100C77.6142 100 100 77.6142 100 50C100 22.3858 77.6142 0 50 0C22.3858 0 0 22.3858 0 50C0 77.6142 22.3858 100 50 100Z" fill="#00A3FF" fill-opacity="0.3"/>
  <mask id="mask0_9270_34515" style="mask-type:alpha" maskUnits="userSpaceOnUse" x="0" y="0" width="100" height="100">
    <path d="M50 100C77.6142 100 100 77.6142 100 50C100 22.3858 77.6142 0 50 0C22.3858 0 0 22.3858 0 50C0 77.6142 22.3858 100 50 100Z" fill="#5BB1EF"/>
  </mask>
  <g mask="url(#mask0_9270_34515)">
    <path d="M72.5965 15.9481C69.6825 16.0591 66.8923 17.1552 64.6819 19.0572C64.6819 19.0572 63.0003 17.4734 58.6055 15.6646C55.8535 14.5468 52.9083 13.9821 49.9381 14.0025H49.635C46.6663 13.9821 43.7228 14.5469 40.9725 15.6646C36.5728 17.4734 34.8912 19.0572 34.8912 19.0572C32.6808 17.1552 29.8906 16.0591 26.9766 15.9481C22.1712 15.8064 20.7584 16.3685 20.9002 19.199C21.0419 22.0295 21.4672 28.2428 23.3053 31.6355C25.1434 35.0281 25.5638 35.7321 27.1184 35.0281C28.6729 34.3242 32.2073 30.2227 33.4735 28.3846C34.1697 27.4472 34.6959 26.3949 35.028 25.2755C35.028 25.2755 37.7167 31.3519 37.8585 35.7321C38.0003 40.1122 37.8585 43.9302 37.2914 46.614C36.7244 49.2978 30.731 61.9053 28.8098 67.1067C26.0576 74.5764 24.4395 88.6945 25.1385 99.0485C25.9549 111.172 27.8957 122.059 30.2226 129.152C32.8624 137.189 33.8988 139.609 34.7445 140.601C35.5902 141.593 44.3554 142.297 47.3276 141.73C48.2075 141.559 49.0386 141.403 49.7719 141.217C50.5149 141.403 51.346 141.559 52.2161 141.73C55.1835 142.297 63.9487 141.589 64.7944 140.601C65.6401 139.614 66.6765 137.179 69.3163 129.152C71.6432 122.059 73.5889 111.172 74.4052 99.0485C75.1043 88.6945 73.4813 74.5764 70.7291 67.1067C68.8128 61.9053 62.8145 49.3027 62.2523 46.614C61.6901 43.9253 61.5435 40.1122 61.6853 35.7321C61.827 31.3519 64.5108 25.2755 64.5108 25.2755C64.843 26.3949 65.3692 27.4472 66.0654 28.3846C67.3364 30.2227 70.8708 34.3193 72.4205 35.0281C73.9702 35.737 74.3759 35.0281 76.2384 31.6355C78.101 28.2428 78.4969 22.0246 78.6387 19.199C78.7805 16.3734 77.4264 15.8064 72.5965 15.9481ZM51.6784 116.29C51.4987 119.438 50.8613 122.542 49.7865 125.505C48.7141 122.541 48.0768 119.437 47.8947 116.29C47.3227 107.247 47.4058 100.539 49.7865 98.6916C52.1673 100.539 52.2504 107.247 51.6784 116.29Z" fill="#7B7B9D"/>
    <path d="M41.7151 49.0537C39.6326 49.0537 37.5892 48.9462 35.5165 48.9462C32.4758 48.9462 29.3422 48.6431 27.5677 51.5127C25.2065 55.3453 25.0159 61.2898 25.451 65.5966C25.7149 68.1582 25.5145 70.8567 25.8811 73.4182C26.1696 75.4128 27.6997 77.1629 29.8262 77.2802C32.2705 77.4122 33.4682 74.0929 35.624 73.3694C37.3057 72.7827 38.3616 74.4204 39.2855 75.5643C40.4343 76.982 42.5217 78.5268 44.4038 77.2998C46.2859 76.0727 46.9263 73.3889 49.5612 73.5845C52.0837 73.7751 52.9099 76.63 55.3688 77.0895C58.9423 77.7593 59.1183 73.8484 61.8559 72.9489C64.3979 72.1081 65.6054 75.7061 67.512 76.6154C70.0295 77.8228 72.7036 76.9869 73.7399 74.2737C74.5074 72.2646 74.3168 69.7078 74.3168 67.6058C74.3168 65.3033 74.1604 63.0643 73.9697 60.7618C73.7253 57.8287 74.2288 54.7489 72.5031 52.1678C70.2153 48.7458 65.3708 48.5307 61.6457 48.8973C58.1797 49.2004 44.0225 49.0489 41.7151 49.0537Z" fill="#E5E5F1"/>
    <path d="M50.7411 78.9102C47.715 78.8124 45.6912 80.5625 44.1464 81.726C42.2741 83.1388 40.6853 85.2995 39.385 87.2305C38.4904 88.5553 34.0858 95.7903 38.8228 94.8468C41.1742 94.358 43.8042 91.0826 45.1779 89.2494C45.9992 90.9262 46.5222 92.6714 48.5119 93.4145C50.9561 94.2993 53.0729 91.7377 53.4395 89.5379C54.5199 91.4004 62.5469 97.7897 62.8988 92.6079C63.2117 87.9735 58.4992 83.5934 55.3705 80.7678C54.0852 79.6374 52.4512 78.9818 50.7411 78.9102Z" fill="#E5E5F1"/>
    <path d="M40.1435 24.7191C38.1441 25.5648 37.6992 28.3317 37.6992 30.2333C37.6992 31.1817 38.0023 35.4005 39.6546 34.6868C40.4906 34.325 40.6323 32.4772 40.5835 31.7243C41.2776 32.3794 42.05 33.9877 43.2673 33.8362C44.421 33.6895 44.6409 32.0568 44.7338 31.1084C45.5747 32.5749 47.9945 33.4256 48.85 31.4701C49.4659 30.0622 49.1091 27.7793 48.3171 26.518C46.6306 23.8978 42.7197 23.5605 40.1435 24.7191Z" fill="#E5E5F1"/>
    <path d="M59.4432 24.7191C61.4475 25.5648 61.8875 28.3317 61.8875 30.2333C61.8875 31.1817 61.5844 35.4005 59.9321 34.6868C59.0961 34.325 58.9543 32.4772 58.9983 31.7243C58.3042 32.3794 57.5562 33.9877 56.3194 33.8362C55.1657 33.6895 54.9409 32.0568 54.8529 31.1084C54.0169 32.5749 51.5922 33.4256 50.7367 31.4701C50.1207 30.0622 50.4825 27.7793 51.2744 26.518C52.9365 23.8978 56.906 23.5605 59.4432 24.7191Z" fill="#E5E5F1"/>
    <path d="M51.8578 47.1665C49.5748 47.1665 45.092 46.7314 43.1953 48.242C40.7119 50.1974 43.7184 53.463 44.8281 55.1153C45.9378 56.7676 48.4358 59.7154 50.7481 58.9088C53.2363 58.0435 56.0521 54.0691 57.0054 51.7275C58.7066 47.5527 53.9207 47.0492 51.8578 47.1665Z" fill="#424255"/>
    <path d="M49.653 50.7488C51.8183 50.7488 53.5736 50.2257 53.5736 49.5805C53.5736 48.9352 51.8183 48.4121 49.653 48.4121C47.4877 48.4121 45.7324 48.9352 45.7324 49.5805C45.7324 50.2257 47.4877 50.7488 49.653 50.7488Z" fill="white"/>
    <path d="M45.2003 42.7561C46.6421 42.7561 47.8108 41.5874 47.8108 40.1456C47.8108 38.7039 46.6421 37.5352 45.2003 37.5352C43.7586 37.5352 42.5898 38.7039 42.5898 40.1456C42.5898 41.5874 43.7586 42.7561 45.2003 42.7561Z" fill="#424255"/>
    <path d="M45.208 40.9726C45.6616 40.9726 46.0293 40.6049 46.0293 40.1514C46.0293 39.6978 45.6616 39.3301 45.208 39.3301C44.7544 39.3301 44.3867 39.6978 44.3867 40.1514C44.3867 40.6049 44.7544 40.9726 45.208 40.9726Z" fill="white"/>
    <path d="M54.3898 42.6487C55.8315 42.6487 57.0003 41.4799 57.0003 40.0382C57.0003 38.5965 55.8315 37.4277 54.3898 37.4277C52.948 37.4277 51.7793 38.5965 51.7793 40.0382C51.7793 41.4799 52.948 42.6487 54.3898 42.6487Z" fill="#424255"/>
    <path d="M54.3935 40.8652C54.8471 40.8652 55.2148 40.4975 55.2148 40.0439C55.2148 39.5904 54.8471 39.2227 54.3935 39.2227C53.94 39.2227 53.5723 39.5904 53.5723 40.0439C53.5723 40.4975 53.94 40.8652 54.3935 40.8652Z" fill="white"/>
  </g>
</svg>
