<svg width="100" height="100" viewBox="0 0 100 100" fill="none" xmlns="http://www.w3.org/2000/svg">
  <path d="M50 100C77.6143 100 100 77.6143 100 50C100 22.3858 77.6143 0 50 0C22.3858 0 0 22.3858 0 50C0 77.6143 22.3858 100 50 100Z" fill="#FF5C00" fill-opacity="0.3"/>
  <mask id="mask0_9270_34577" style="mask-type:alpha" maskUnits="userSpaceOnUse" x="0" y="0" width="100" height="100">
    <path d="M50 100C77.6143 100 100 77.6143 100 50C100 22.3858 77.6143 0 50 0C22.3858 0 0 22.3858 0 50C0 77.6143 22.3858 100 50 100Z" fill="#F6F6FA"/>
  </mask>
  <g mask="url(#mask0_9270_34577)">
    <path d="M34.2096 63.1726C33.755 64.3409 34.6349 66.5163 34.2536 68.0611C33.7168 69.9822 33.0033 71.8494 32.1222 73.6389C30.4748 77.1831 28.094 80.3411 26.5395 83.9049C25.0948 87.1869 24.3426 90.7316 24.3299 94.3175C24.3299 96.1604 24.0414 98.3114 24.4472 100.12C25.024 102.692 28.0158 104.031 30.289 104.95C37.5925 107.961 45.4679 111.359 53.2065 107.883C52.7909 106.744 53.4509 105.356 53.534 104.139C53.7393 101.103 53.6856 97.9252 53.6709 94.8894C53.6318 88.7641 53.9447 82.2721 53.6709 76.1761C53.5096 72.6417 52.6932 69.1463 49.4081 66.8878C47.1154 65.3088 44.7444 64.996 42.2121 64.0916C40.2958 63.4317 38.2671 62.5419 34.2096 63.1726Z" fill="#7B7B9D"/>
    <path d="M65.8062 63.1637C66.2608 64.3321 65.376 66.5123 65.7573 68.0522C66.2979 69.9743 67.013 71.8429 67.8936 73.6349C69.5361 77.1791 71.9218 80.3323 73.4763 83.9253C74.9163 87.2071 75.6683 90.7493 75.6859 94.333C75.6859 96.1809 75.9743 98.3319 75.5686 100.136C74.9917 102.707 71.9999 104.047 69.7268 104.971C62.394 107.982 54.5478 111.374 46.8093 107.904C47.2199 106.765 46.56 105.376 46.4769 104.164C46.2715 101.123 46.3253 97.9457 46.3449 94.9099C46.3791 88.7894 46.0711 82.2926 46.3449 76.1966C46.5013 72.667 47.3226 69.1668 50.6028 66.9083C52.9004 65.3293 55.2714 65.0164 57.7987 64.1072C59.7199 63.4277 61.7438 62.538 65.8062 63.1637Z" fill="#7B7B9D"/>
    <path d="M63.9942 100.283C63.696 94.847 63.5053 89.1519 61.0611 84.1509C59.1985 80.2401 55.5957 75.5178 50.7413 75.464C50.2207 75.3401 49.6782 75.3401 49.1575 75.464C44.3227 75.5471 40.7394 80.2596 38.8915 84.146C36.4913 89.1666 36.2811 94.8568 35.9584 100.278C35.7287 104.512 34.5603 113.125 39.0235 115.638C41.3896 116.968 45.0707 117.285 47.7007 116.914C48.4789 116.809 49.2398 116.601 49.9641 116.298C50.6856 116.597 51.4433 116.801 52.2177 116.904C54.8428 117.281 58.5239 116.963 60.89 115.628C65.3874 113.125 64.2288 104.536 63.9942 100.283Z" fill="#E5E5F1"/>
    <path d="M24.0297 12.6328C24.0297 12.6328 28.7618 12.711 34.2956 16.8272C39.8295 20.9433 42.4888 25.0888 43.1292 26.4332C43.5267 27.3051 43.8536 28.2075 44.1069 29.1316C44.1069 29.1316 37.5074 30.1974 34.5303 32.1088C31.5532 34.0202 28.0676 38.5421 28.0676 38.5421C28.0676 38.5421 25.8531 35.8681 24.0102 30.0507C22.1672 24.2333 22.3969 15.038 24.0297 12.6328Z" fill="#7B7B9D"/>
    <path d="M33.2815 19.4749C28.5982 14.7917 25.4207 13.9998 24.7803 14.2833C24.1399 14.5668 24.5505 21.0979 25.3327 24.2217C26.1207 27.3081 27.2265 30.3045 28.6324 33.1628C29.1023 34.1327 29.65 35.063 30.2701 35.9444C31.5288 34.4965 32.9567 33.2048 34.5231 32.0971C35.9604 31.1781 38.2335 30.4497 40.2085 29.9462C38.8788 27.4432 36.7768 22.9653 33.2815 19.4749Z" fill="#E5E5F1"/>
    <path d="M26.1104 40.3297C26.1104 40.3297 27.9485 42.6029 25.0985 46.7973C19.6869 54.7411 8.55078 52.1747 8.55078 52.1747L16.9591 55.4744C16.9591 55.4744 16.2111 56.5401 13.4442 58.08C11.0635 59.4097 10.252 59.6248 10.252 59.6248C10.252 59.6248 13.9771 60.6905 16.2111 60.6905C18.4452 60.6905 20.0437 60.583 20.0437 60.583C20.0437 60.583 18.0199 62.6019 17.3844 63.7752C17.0359 64.3831 16.7509 65.0253 16.5337 65.6915C16.5337 65.6915 27.7041 62.817 37.1732 67.2851C46.6423 71.7533 48.2408 77.0622 48.5586 78.3528C48.8763 79.6434 49.4141 78.4604 49.4141 78.4604C49.4141 78.4604 49.8394 60.9007 46.9698 52.9226C44.1002 44.9445 40.0281 35.6123 36.6257 35.275C33.2232 34.9376 26.1104 40.3297 26.1104 40.3297Z" fill="#E5E5F1"/>
    <path d="M35.647 56.4179C37.2426 56.4179 38.5361 55.1244 38.5361 53.5288C38.5361 51.9332 37.2426 50.6396 35.647 50.6396C34.0513 50.6396 32.7578 51.9332 32.7578 53.5288C32.7578 55.1244 34.0513 56.4179 35.647 56.4179Z" fill="#424255"/>
    <path d="M35.6515 54.4318C36.1537 54.4318 36.5607 54.0247 36.5607 53.5226C36.5607 53.0204 36.1537 52.6133 35.6515 52.6133C35.1493 52.6133 34.7422 53.0204 34.7422 53.5226C34.7422 54.0247 35.1493 54.4318 35.6515 54.4318Z" fill="white"/>
    <path d="M50.0183 82.8345C51.7219 82.8345 53.1029 81.239 53.1029 79.2708C53.1029 77.3026 51.7219 75.707 50.0183 75.707C48.3146 75.707 46.9336 77.3026 46.9336 79.2708C46.9336 81.239 48.3146 82.8345 50.0183 82.8345Z" fill="#424255"/>
    <path d="M75.9903 12.6328C75.9903 12.6328 71.2533 12.7159 65.7244 16.8272C60.1954 20.9385 57.5312 25.0888 56.8957 26.4381C56.4962 27.3075 56.1691 28.2084 55.918 29.1316C55.918 29.1316 62.5126 30.1973 65.4946 32.1136C68.4766 34.03 71.9377 38.5421 71.9377 38.5421C71.9377 38.5421 74.1522 35.8632 76.0001 30.0458C77.848 24.2284 77.628 15.0331 75.9903 12.6328Z" fill="#7B7B9D"/>
    <path d="M66.7239 19.4759C71.4023 14.7976 74.5847 14.0056 75.2202 14.2892C75.8557 14.5727 75.45 21.1038 74.6727 24.2227C73.8828 27.3091 72.7753 30.3055 71.368 33.1638C70.8983 34.1328 70.3523 35.0629 69.7353 35.9454C68.4768 34.4973 67.0489 33.2056 65.4823 32.0981C64.045 31.1742 61.7718 30.4507 59.7969 29.9471C61.1217 27.4393 63.2286 22.9614 66.7239 19.4759Z" fill="#E5E5F1"/>
    <path d="M73.9314 40.3233C73.9314 40.3233 72.0933 42.5965 74.9433 46.7859C80.35 54.7347 91.491 52.1633 91.491 52.1633L83.0827 55.4631C83.0827 55.4631 83.8258 56.5239 86.5927 58.0687C88.9783 59.3984 89.7849 59.6086 89.7849 59.6086C89.7849 59.6086 86.0598 60.6743 83.8258 60.6743C81.5917 60.6743 79.9981 60.5667 79.9981 60.5667C79.9981 60.5667 82.017 62.5906 82.6574 63.759C83.0022 64.3687 83.2871 65.0105 83.508 65.6753C83.508 65.6753 72.3328 62.8057 62.8637 67.2738C53.3946 71.742 51.7961 77.0509 51.4783 78.3415C51.1605 79.632 50.6277 78.4441 50.6277 78.4441C50.6277 78.4441 50.2024 60.8894 53.072 52.9064C55.9415 44.9234 59.9893 35.6107 63.3966 35.2685C66.8039 34.9263 73.9314 40.3233 73.9314 40.3233Z" fill="#E5E5F1"/>
    <path d="M64.3638 56.4071C65.9594 56.4071 67.2529 55.1136 67.2529 53.518C67.2529 51.9224 65.9594 50.6289 64.3638 50.6289C62.7681 50.6289 61.4746 51.9224 61.4746 53.518C61.4746 55.1136 62.7681 56.4071 64.3638 56.4071Z" fill="#424255"/>
    <path d="M64.3682 54.422C64.8704 54.422 65.2775 54.015 65.2775 53.5128C65.2775 53.0106 64.8704 52.6035 64.3682 52.6035C63.8661 52.6035 63.459 53.0106 63.459 53.5128C63.459 54.015 63.8661 54.422 64.3682 54.422Z" fill="white"/>
    <path d="M68.4305 31.7742C61.4594 25.5217 38.542 25.5559 31.6002 31.7742C24.2039 38.4079 21.8867 50.0964 21.8867 50.0964C21.8867 50.0964 28.4129 44.719 33.9174 45.4621C40.3214 46.342 43.4794 48.5419 45.2882 57.1604C47.0969 65.7789 48.4461 79.4277 48.4461 79.4277H50.4016H51.565C51.565 79.4277 52.9143 65.7838 54.723 57.1653C56.5318 48.5468 59.6898 46.3469 66.0938 45.4621C71.5983 44.7044 78.1245 50.1013 78.1245 50.1013C78.1245 50.1013 75.8269 38.4079 68.4305 31.7742Z" fill="#7B7B9D"/>
    <path d="M50.0183 82.8228C51.7219 82.8228 53.1029 81.2273 53.1029 79.259C53.1029 77.2908 51.7219 75.6953 50.0183 75.6953C48.3146 75.6953 46.9336 77.2908 46.9336 79.259C46.9336 81.2273 48.3146 82.8228 50.0183 82.8228Z" fill="#424255"/>
  </g>
</svg>
