<svg width="100" height="100" viewBox="0 0 100 100" fill="none" xmlns="http://www.w3.org/2000/svg">
  <path d="M50 100C77.6143 100 100 77.6142 100 50C100 22.3858 77.6143 0 50 0C22.3858 0 0 22.3858 0 50C0 77.6142 22.3858 100 50 100Z" fill="#FF008E" fill-opacity="0.3"/>
  <mask id="mask0_9270_34617" style="mask-type:alpha" maskUnits="userSpaceOnUse" x="0" y="0" width="100" height="100">
    <path d="M50 100C77.6143 100 100 77.6142 100 50C100 22.3858 77.6143 0 50 0C22.3858 0 0 22.3858 0 50C0 77.6142 22.3858 100 50 100Z" fill="#ED5BAC"/>
  </mask>
  <g mask="url(#mask0_9270_34617)">
    <path d="M30.2163 48.2987C30.2163 48.2987 25.6407 43.7182 20.8988 45.6834C16.1569 47.6486 15.6681 52.7131 19.4322 54.0183C23.1964 55.3236 27.4446 55.8173 28.916 54.8347C30.3875 53.8521 30.2163 48.2987 30.2163 48.2987Z" fill="#E5E5F1"/>
    <path d="M69.7701 48.2987C69.7701 48.2987 74.3506 43.7182 79.0925 45.6834C83.8344 47.6486 84.3233 52.7131 80.5591 54.0183C76.7949 55.3236 72.5517 55.8173 71.0851 54.8347C69.6185 53.8521 69.7701 48.2987 69.7701 48.2987Z" fill="#E5E5F1"/>
    <path d="M105.463 176.803C103.068 173.972 95.8719 174.847 95.8719 174.847C95.8719 174.847 100.668 167.871 103.068 161.115C105.468 154.359 106.979 139.117 101.978 134.957C96.9767 130.796 87.1556 139.967 87.1556 139.967C86.1779 141.434 80.8788 150.057 75.5747 159.14C77.4421 152.096 79.0504 145.809 79.3046 144.113C79.9597 139.752 77.5643 92.2308 73.8588 85.4503C70.5493 79.4277 53.9038 78.0833 50.3449 77.8633V77.8242H50.0027H49.6605V77.8633C46.0968 78.0833 29.4513 79.4277 26.1467 85.4503C22.4411 92.2112 20.0409 139.713 20.6959 144.113C20.9501 145.809 22.5585 152.096 24.4308 159.14C19.1267 150.057 13.8373 141.453 12.8498 139.967C12.8498 139.967 3.03851 130.811 -1.97224 134.957C-6.983 139.102 -5.46265 154.354 -3.06238 161.115C-0.662106 167.876 4.1091 174.842 4.1091 174.842C4.1091 174.842 -3.08194 173.972 -5.48221 176.798C-7.88249 179.623 -5.9173 183.339 -4.39208 183.559C-3.17972 183.73 20.3635 183.764 31.0401 183.119H68.9214C79.6028 183.764 103.141 183.73 104.354 183.559C105.898 183.343 107.864 179.638 105.463 176.803Z" fill="#7B7B9D"/>
    <path d="M96.3015 112.276C93.9062 92.878 80.6093 77.6159 75.1586 59.5234C69.7079 41.4309 71.2478 35.5256 64.8927 22.6834C59.7744 12.349 50.7452 12.4566 48.7605 12.6179C46.1598 12.5934 39.6042 13.5174 35.0726 22.6834C28.7175 35.5256 30.2769 41.4309 24.8066 59.5234C19.3364 77.6159 6.06396 92.878 3.66369 112.276C1.26341 131.673 6.71415 156.312 9.11442 165.463C11.5147 174.614 14.8047 181.155 18.2804 181.815C21.7562 182.475 23.5112 177.675 23.5112 177.675C23.5112 177.675 24.1662 182.47 27.422 182.47C30.6778 182.47 31.7777 177.89 31.7777 177.89C31.7777 177.89 31.5137 182.358 34.833 182.685C38.1524 183.013 38.9736 178.545 38.9736 178.545C38.9736 178.545 39.6287 182.685 43.7693 182.456C47.9099 182.226 48.5894 158.272 49.0294 150.846C49.4693 143.421 46.634 124.448 39.658 111.606C36.1969 105.251 32.4621 94.6036 36.3876 88.7178C39.966 83.3404 48.4232 81.8739 49.9093 81.8739C51.1559 81.8739 59.9601 83.2622 63.5972 88.7178C67.5081 94.5841 63.7879 105.231 60.3268 111.606C53.3606 124.482 50.5448 143.45 50.9603 150.846C51.3759 158.243 52.0505 182.236 56.196 182.456C60.3414 182.676 60.9916 178.545 60.9916 178.545C60.9916 178.545 61.8129 183.013 65.1322 182.685C68.4515 182.358 68.1827 177.89 68.1827 177.89C68.1827 177.89 69.2728 182.47 72.5432 182.47C75.8137 182.47 76.4541 177.675 76.4541 177.675C76.4541 177.675 78.1944 182.47 81.6848 181.815C85.1752 181.16 88.4408 174.619 90.8411 165.463C93.2413 156.307 98.7018 131.678 96.3015 112.276Z" fill="#7B7B9D"/>
    <path d="M68.3643 54.0242C67.2582 48.1149 65.8104 42.2747 64.0282 36.533C64.0282 36.533 63.2655 36.0735 60.44 35.8779C58.201 35.7215 52.0317 35.3158 49.1376 35.3598C46.9916 35.3158 41.8049 35.7215 39.561 35.8779C36.7403 36.0735 35.9728 36.533 35.9728 36.533C34.1932 42.2754 32.7454 48.1155 31.6367 54.0242C29.9599 63.6693 29.3928 68.7387 35.3764 75.4409C40.3676 81.0383 47.5978 80.9161 49.7732 80.877C52.0463 80.8379 58.9685 82.0698 64.6294 75.4409C70.4615 68.6116 70.0411 63.6693 68.3643 54.0242Z" fill="#E5E5F1"/>
    <path d="M28.6816 70.7481C28.6816 70.7481 29.9869 66.4951 35.4376 63.2247C40.8883 59.9542 44.9214 59.9542 44.9214 59.9542C44.9214 59.9542 40.4777 57.0798 43.6455 53.8338C46.0164 51.3895 48.534 54.2884 49.062 55.1586C49.3566 55.592 49.5778 56.071 49.717 56.5763C49.717 56.5763 50.9685 52.817 53.0412 52.7094C56.3068 52.5334 57.1232 54.4595 56.7956 56.7474C56.4681 59.0352 55.2753 59.6267 55.2753 59.6267C55.2753 59.6267 61.1416 61.0444 64.9742 63.6598C68.8068 66.2751 69.8627 71.8383 69.8627 71.8383C69.8627 71.8383 61.034 83.1699 50.6752 83.7174C40.3164 84.2649 28.6816 70.7481 28.6816 70.7481Z" fill="#A7A7C0"/>
    <path d="M45.9428 57.3601C46.5745 57.3601 47.0867 56.848 47.0867 56.2162C47.0867 55.5844 46.5745 55.0723 45.9428 55.0723C45.311 55.0723 44.7988 55.5844 44.7988 56.2162C44.7988 56.848 45.311 57.3601 45.9428 57.3601Z" fill="#7B7B9D"/>
    <path d="M53.3803 57.2859C54.012 57.2859 54.5242 56.7737 54.5242 56.142C54.5242 55.5102 54.012 54.998 53.3803 54.998C52.7485 54.998 52.2363 55.5102 52.2363 56.142C52.2363 56.7737 52.7485 57.2859 53.3803 57.2859Z" fill="#7B7B9D"/>
    <path d="M69.7838 69.9785H29.2383V70.9171H69.7838V69.9785Z" fill="#7B7B9D"/>
    <path d="M46.1201 51.3906C47.4916 51.3906 48.6035 50.2787 48.6035 48.9072C48.6035 47.5357 47.4916 46.4238 46.1201 46.4238C44.7486 46.4238 43.6367 47.5357 43.6367 48.9072C43.6367 50.2787 44.7486 51.3906 46.1201 51.3906Z" fill="#424255"/>
    <path d="M46.1005 49.6874C46.5325 49.6874 46.8827 49.3372 46.8827 48.9052C46.8827 48.4732 46.5325 48.123 46.1005 48.123C45.6685 48.123 45.3184 48.4732 45.3184 48.9052C45.3184 49.3372 45.6685 49.6874 46.1005 49.6874Z" fill="white"/>
    <path d="M53.3935 51.3906C54.7651 51.3906 55.8769 50.2787 55.8769 48.9072C55.8769 47.5357 54.7651 46.4238 53.3935 46.4238C52.022 46.4238 50.9102 47.5357 50.9102 48.9072C50.9102 50.2787 52.022 51.3906 53.3935 51.3906Z" fill="#424255"/>
    <path d="M53.3876 49.6874C53.8196 49.6874 54.1698 49.3372 54.1698 48.9052C54.1698 48.4732 53.8196 48.123 53.3876 48.123C52.9556 48.123 52.6055 48.4732 52.6055 48.9052C52.6055 49.3372 52.9556 49.6874 53.3876 49.6874Z" fill="white"/>
  </g>
</svg>
