<svg width="100" height="100" viewBox="0 0 100 100" fill="none" xmlns="http://www.w3.org/2000/svg">
  <path d="M50 100C77.6143 100 100 77.6142 100 50C100 22.3858 77.6143 0 50 0C22.3858 0 0 22.3858 0 50C0 77.6142 22.3858 100 50 100Z" fill="#8FFF00" fill-opacity="0.3"/>
  <mask id="mask0_9270_34598" style="mask-type:alpha" maskUnits="userSpaceOnUse" x="0" y="0" width="100" height="100">
    <path d="M50 100C77.6143 100 100 77.6142 100 50C100 22.3858 77.6143 0 50 0C22.3858 0 0 22.3858 0 50C0 77.6142 22.3858 100 50 100Z" fill="#F6F6FA"/>
  </mask>
  <g mask="url(#mask0_9270_34598)">
    <path d="M77.3484 81.166C77.1977 77.0037 76.6675 72.8639 75.7645 68.798C74.9236 65.2978 73.8726 56.5228 71.0275 54.587C69.3556 50.3584 60.2727 50.8228 56.3325 52.0694C51.7959 53.5017 50.2512 55.6136 49.8014 58.532C49.3517 55.5989 47.8069 53.5017 43.2703 52.0694C39.3204 50.8228 30.2473 50.3584 28.5754 54.587C25.7303 56.5424 24.6646 65.2978 23.8384 68.798C22.9353 72.8639 22.4052 77.0037 22.2545 81.166C22.0932 84.3924 21.8634 88.269 22.4696 91.3879C23.4473 96.5013 29.9931 98.5936 34.5639 99.6104C39.3791 100.681 44.7174 100.505 49.6646 100.29C49.7183 99.938 49.7574 99.586 49.8014 99.234C49.8454 99.586 49.8845 99.938 49.9383 100.29C54.8855 100.505 60.2042 100.681 65.039 99.6104C69.6098 98.5936 76.136 96.5013 77.1333 91.3879C77.7395 88.269 77.5097 84.3924 77.3484 81.166ZM49.8014 65.5226C49.9139 68.2211 49.8845 70.944 49.8014 73.6718C49.7183 70.9783 49.689 68.2358 49.8014 65.5373V65.5226Z" fill="#7B7B9D"/>
    <path d="M71.6706 68.9699C70.8835 66.8483 69.8716 65.1031 70.1454 62.7517C70.3947 60.586 71.2306 58.9239 71.2355 56.5481C70.6098 54.0403 64.4893 52.4515 62.177 52.1484C58.5937 51.7085 53.2359 51.2245 49.7895 53.1261C46.3675 51.2489 40.9901 51.7329 37.4019 52.1484C35.0896 52.432 28.9692 54.0207 28.3434 56.5481C28.3434 58.9239 29.1842 60.586 29.4336 62.7517C29.7073 65.1031 28.6954 66.8483 27.9083 68.9699C26.1289 73.7851 28.4901 79.3287 31.3988 83.3373C35.0603 88.3774 40.0612 92.7477 45.991 95.0356C48.4277 96.0196 51.1512 96.0196 53.5879 95.0356C59.5177 92.7477 64.5235 88.3774 68.1801 83.3373C71.0888 79.3287 73.45 73.7851 71.6706 68.9699Z" fill="#E5E5F1"/>
    <path d="M39.8856 32.8447C38.3408 25.7465 30.5533 19.5869 23.6263 19.3572C18.7377 19.1959 6.63374 24.3924 13.6879 30.3759C8.11985 31.427 8.5696 36.4622 14.0545 36.8777C12.2213 40.1579 12.4804 43.4723 17.2174 43.6141C16.973 50.2723 28.5344 52.301 33.1785 49.5977C39.4212 45.9753 37.6906 37.9776 39.8856 32.8447Z" fill="#7B7B9D"/>
    <path d="M32.7561 54.2678C39.6001 47.1012 39.3263 37.2605 33.0543 30.1819C30.6492 27.4639 28.1902 24.9463 24.1767 24.9512C20.3979 24.9512 17.9976 27.5372 18.4767 31.3845C18.814 34.083 20.877 34.2492 20.8623 35.0705C20.8476 35.8917 19.6255 36.4686 19.5033 38.1063C19.2931 40.9172 20.5543 42.0171 23.199 42.8677C20.6423 47.6145 28.376 47.9176 31.0989 47.9909C32.0131 50.2054 30.7958 52.8403 32.7561 54.2678Z" fill="#E5E5F1"/>
    <path d="M59.6836 32.8447C61.2284 25.7465 69.0158 19.5869 75.9429 19.3572C80.8314 19.1959 92.9355 24.3924 85.8813 30.3759C91.4493 31.427 90.9996 36.4622 85.5147 36.8777C87.3479 40.1579 87.0936 43.4723 82.3518 43.6141C82.6011 50.2723 71.0348 52.301 66.3956 49.5977C60.148 45.9753 61.8785 37.9776 59.6836 32.8447Z" fill="#7B7B9D"/>
    <path d="M66.843 54.2678C59.999 47.1012 60.2728 37.2605 66.5448 30.1819C68.9499 27.4639 71.4333 24.9463 75.4224 24.9512C79.2012 24.9512 81.6015 27.5372 81.1224 31.3845C80.7851 34.083 78.727 34.2492 78.7417 35.0705C78.7564 35.8917 79.9736 36.4686 80.0958 38.1063C80.306 40.9172 79.0448 42.0171 76.4001 42.8677C78.9568 47.6145 71.2231 47.9176 68.5002 47.9909C67.586 50.2054 68.8033 52.8403 66.843 54.2678Z" fill="#E5E5F1"/>
    <path d="M73.948 41.8183C71.6211 36.4409 69.3186 31.1271 64.8016 27.1821C60.7148 23.6085 55.1761 23.4961 49.96 23.4961H49.6227C44.4017 23.4961 38.8678 23.6085 34.7761 27.1821C30.2591 31.1271 27.9322 36.4703 25.6297 41.8183C24.0214 45.5238 22.765 51.1946 24.2316 55.1836C26.0745 60.2042 31.4617 63.2693 36.2329 64.858C40.3198 66.2122 45.5212 66.3246 49.7889 66.1046C54.0712 66.3099 59.258 66.2122 63.3448 64.858C68.116 63.2693 73.5032 60.2042 75.351 55.1836C76.8127 51.1946 75.5564 45.5238 73.948 41.8183ZM49.7889 23.6036C50.1457 23.8481 50.0088 23.8236 49.7889 23.8285C49.5689 23.8334 49.432 23.8481 49.7889 23.6036Z" fill="#7B7B9D"/>
    <path d="M49.5628 54.2791C50.3939 56.7234 48.7318 59.0357 46.4977 59.9596C45.4388 60.3984 44.2941 60.5908 43.1499 60.5222C42.0058 60.4536 40.8922 60.1258 39.8933 59.5636C39.866 59.5508 39.8351 59.5477 39.8057 59.5549C39.7764 59.562 39.7504 59.579 39.7321 59.6031C39.7138 59.6271 39.7043 59.6567 39.7051 59.6869C39.706 59.717 39.7172 59.746 39.7369 59.769C41.4821 61.7244 44.8454 61.3284 46.9866 60.3116C49.206 59.2557 51.0196 56.6354 49.7779 54.1911C49.7637 54.1667 49.7411 54.1482 49.7143 54.1391C49.6875 54.1299 49.6583 54.1308 49.6321 54.1415C49.6059 54.1523 49.5845 54.1721 49.5717 54.1974C49.559 54.2227 49.5558 54.2517 49.5628 54.2791V54.2791Z" fill="#424255"/>
    <path d="M39.434 45.2411C41.008 45.2411 42.284 43.9651 42.284 42.391C42.284 40.817 41.008 39.541 39.434 39.541C37.86 39.541 36.584 40.817 36.584 42.391C36.584 43.9651 37.86 45.2411 39.434 45.2411Z" fill="#424255"/>
    <path d="M39.4336 43.2853C39.9277 43.2853 40.3283 42.8848 40.3283 42.3907C40.3283 41.8966 39.9277 41.4961 39.4336 41.4961C38.9396 41.4961 38.5391 41.8966 38.5391 42.3907C38.5391 42.8848 38.9396 43.2853 39.4336 43.2853Z" fill="white"/>
    <path d="M55.2518 42.063C54.4501 38.8171 53.0128 38.3135 50.1481 38.2598H49.4735C46.6088 38.3135 45.1716 38.8171 44.3748 42.063C43.6901 44.6773 43.3693 47.3735 43.4215 50.0754C43.5535 52.5441 44.7463 55.3745 48.7989 56.098C49.4629 56.2675 50.1588 56.2675 50.8228 56.098C54.8754 55.3745 56.0682 52.5441 56.2002 50.0754C56.2515 47.3738 55.9324 44.678 55.2518 42.063V42.063Z" fill="#424255"/>
    <path d="M50.3887 54.1911C49.147 56.6354 50.9606 59.2606 53.18 60.3116C55.3212 61.3235 58.6845 61.7146 60.4297 59.769C60.4494 59.746 60.4606 59.717 60.4614 59.6869C60.4623 59.6567 60.4528 59.6271 60.4345 59.6031C60.4162 59.579 60.3902 59.562 60.3609 59.5549C60.3315 59.5477 60.3006 59.5508 60.2733 59.5636C59.2744 60.1258 58.1608 60.4536 57.0167 60.5222C55.8725 60.5908 54.7277 60.3984 53.6689 59.9596C51.4299 59.0406 49.758 56.743 50.6038 54.2791C50.6108 54.2517 50.6076 54.2227 50.5949 54.1974C50.5821 54.1721 50.5607 54.1523 50.5345 54.1415C50.5083 54.1308 50.4791 54.1299 50.4523 54.1391C50.4255 54.1482 50.4029 54.1667 50.3887 54.1911V54.1911Z" fill="#424255"/>
    <path d="M60.1254 45.2411C61.6994 45.2411 62.9754 43.9651 62.9754 42.391C62.9754 40.817 61.6994 39.541 60.1254 39.541C58.5514 39.541 57.2754 40.817 57.2754 42.391C57.2754 43.9651 58.5514 45.2411 60.1254 45.2411Z" fill="#424255"/>
    <path d="M60.1231 43.2853C60.6172 43.2853 61.0177 42.8848 61.0177 42.3907C61.0177 41.8966 60.6172 41.4961 60.1231 41.4961C59.629 41.4961 59.2285 41.8966 59.2285 42.3907C59.2285 42.8848 59.629 43.2853 60.1231 43.2853Z" fill="white"/>
  </g>
</svg>
