<svg width="100" height="100" viewBox="0 0 100 100" fill="none" xmlns="http://www.w3.org/2000/svg">
  <path d="M50 100C77.6142 100 100 77.6142 100 50C100 22.3858 77.6142 0 50 0C22.3858 0 0 22.3858 0 50C0 77.6142 22.3858 100 50 100Z" fill="#FFB800" fill-opacity="0.3"/>
  <mask id="mask0_9270_34551" style="mask-type:alpha" maskUnits="userSpaceOnUse" x="0" y="0" width="100" height="100">
    <path d="M50 100C77.6142 100 100 77.6142 100 50C100 22.3858 77.6142 0 50 0C22.3858 0 0 22.3858 0 50C0 77.6142 22.3858 100 50 100Z" fill="#F6F6FA"/>
  </mask>
  <g mask="url(#mask0_9270_34551)">
    <path d="M73.7051 89.4208C73.2612 81.1181 71.0124 73.0121 67.1154 65.6674C62.5837 65.2714 53.3297 63.4235 49.9713 67.3148C46.6128 63.404 37.3539 65.2714 32.8222 65.6674C28.9251 73.0117 26.6778 81.1182 26.2374 89.4208C26.1298 91.606 25.6068 95.1257 26.2374 97.2034C26.9658 99.6085 30.6371 99.3152 32.8271 100.293C35.3838 101.427 37.6521 102.459 40.4728 102.952C42.7655 103.353 47.5319 103.676 49.9713 102.463C52.4155 103.671 57.1721 103.348 59.4697 102.952C62.2904 102.463 64.5538 101.427 67.1105 100.293C69.3201 99.3152 72.9767 99.6085 73.7051 97.2034C74.3309 95.1257 73.8127 91.606 73.7051 89.4208Z" fill="#A7A7C0"/>
    <path d="M50.079 89.046C71.678 89.046 89.1874 71.6723 89.1874 50.2408C89.1874 28.8092 71.678 11.4355 50.079 11.4355C28.4801 11.4355 10.9707 28.8092 10.9707 50.2408C10.9707 71.6723 28.4801 89.046 50.079 89.046Z" fill="#7B7B9D"/>
    <path d="M34.1962 37.1932C37.3712 37.1932 39.9451 34.6193 39.9451 31.4442C39.9451 28.2692 37.3712 25.6953 34.1962 25.6953C31.0211 25.6953 28.4473 28.2692 28.4473 31.4442C28.4473 34.6193 31.0211 37.1932 34.1962 37.1932Z" fill="#E5E5F1"/>
    <path d="M34.2219 34.9486C36.1577 34.9486 37.727 33.3794 37.727 31.4436C37.727 29.5077 36.1577 27.9385 34.2219 27.9385C32.2861 27.9385 30.7168 29.5077 30.7168 31.4436C30.7168 33.3794 32.2861 34.9486 34.2219 34.9486Z" fill="#B2B2C6"/>
    <path d="M56.4252 64.0404C54.9889 62.4428 53.4436 60.9466 51.8006 59.5625C51.0625 58.9123 50.5492 58.619 50.0065 59.3523C49.4639 58.619 48.9506 58.9123 48.2124 59.5625C46.569 60.9478 45.0222 62.4439 43.583 64.0404C42.5075 65.3065 39.7357 67.829 40.4445 69.3591C40.7134 71.1483 43.2946 72.39 44.8442 72.874C46.5213 73.3738 48.267 73.6048 50.0163 73.5584C51.7657 73.6048 53.5113 73.3738 55.1884 72.874C56.7234 72.3851 59.3045 71.1483 59.5881 69.3591C60.2676 67.829 57.4958 65.3065 56.4252 64.0404Z" fill="#E5E5F1"/>
    <path d="M50.4602 27.6917C46.6227 27.765 42.0617 26.8655 38.6397 28.6694C36.1514 29.9697 34.3378 33.1668 33.2378 35.5964C31.0722 40.3677 29.8647 46.7423 28.7551 51.802C27.2885 58.4455 25.7388 68.4523 34.7435 69.914C37.5202 70.3638 41.0302 70.9602 44.3251 69.4643C46.9306 68.2812 49.1598 66.2378 50.0153 63.4758C50.6264 61.5204 50.4651 59.037 50.4602 56.9252C50.4602 52.1833 50.4211 47.4023 50.0398 42.6995C49.6291 37.6301 50.426 32.7904 50.4602 27.6917Z" fill="#B2B2C6"/>
    <path d="M65.7548 37.1932C68.9298 37.1932 71.5037 34.6193 71.5037 31.4442C71.5037 28.2692 68.9298 25.6953 65.7548 25.6953C62.5797 25.6953 60.0059 28.2692 60.0059 31.4442C60.0059 34.6193 62.5797 37.1932 65.7548 37.1932Z" fill="#E5E5F1"/>
    <path d="M65.7492 34.9486C67.685 34.9486 69.2543 33.3794 69.2543 31.4436C69.2543 29.5077 67.685 27.9385 65.7492 27.9385C63.8134 27.9385 62.2441 29.5077 62.2441 31.4436C62.2441 33.3794 63.8134 34.9486 65.7492 34.9486Z" fill="#B2B2C6"/>
    <path d="M49.5236 27.6917C53.366 27.765 57.927 26.8655 61.349 28.6694C63.8324 29.9697 65.646 33.1668 66.7264 35.5964C68.892 40.3677 70.0995 46.7423 71.2043 51.802C72.6708 58.4455 74.2254 68.4523 65.2158 69.914C62.444 70.3638 58.9291 70.9602 55.6392 69.4643C53.0287 68.2812 50.7995 66.2378 49.944 63.4758C49.3329 61.5204 49.4991 59.037 49.4991 56.9252C49.4991 52.1833 49.5432 47.4023 49.9245 42.6995C50.3546 37.6301 49.5774 32.7904 49.5236 27.6917Z" fill="#B2B2C6"/>
    <path d="M66.7491 35.5898C65.6443 33.1456 63.816 29.9631 61.3717 28.6628C58.2137 27.0104 54.0878 27.6411 50.4556 27.685H49.5757C45.9386 27.6313 41.8176 27.0007 38.6596 28.6628C36.1713 29.9631 34.3577 33.1602 33.2577 35.5898C32.984 36.1911 32.7249 36.8217 32.4805 37.4719C33.9787 37.7315 35.4138 38.274 36.7091 39.0705C40.5906 41.3094 42.8588 43.959 44.6823 48.0556C46.5057 52.1522 46.9457 56.5715 48.2607 60.7658C48.7006 60.8391 49.1357 60.9369 49.5806 61.0054C49.578 61.0379 49.578 61.0706 49.5806 61.1031C49.7223 61.1031 49.8641 61.1031 50.0108 61.0689C50.1574 61.0347 50.2943 61.0982 50.441 61.1031C50.4435 61.0706 50.4435 61.0379 50.441 61.0054C50.8809 60.9369 51.3209 60.8391 51.756 60.7658C53.071 56.5861 53.4914 52.2402 55.3393 48.0556C57.1871 43.871 59.431 41.3094 63.3076 39.0705C64.6046 38.274 66.0413 37.7315 67.5411 37.4719C67.282 36.8217 67.0229 36.1911 66.7491 35.5898Z" fill="#E5E5F1"/>
    <path d="M44.3416 61.9675C37.3608 62.3684 30.8982 65.3308 24.8902 68.7039C23.1841 69.6816 21.4975 70.6593 19.8158 71.6664C19.7471 71.7059 19.6969 71.7711 19.6763 71.8477C19.6557 71.9242 19.6663 72.0058 19.7059 72.0746C19.7454 72.1433 19.8106 72.1935 19.8872 72.2141C19.9637 72.2347 20.0453 72.2241 20.114 72.1845C25.9803 68.6844 32.0128 65.1108 38.6905 63.439C40.5384 62.9744 42.4252 62.6814 44.327 62.5639C44.7083 62.5639 44.7083 61.9431 44.327 61.9675H44.3416Z" fill="#7B7B9D"/>
    <path d="M44.161 59.5369C38.1422 58.7479 32.0359 58.9261 26.0734 60.0648C24.3722 60.3908 22.6889 60.7916 21.0235 61.2674C20.9856 61.278 20.9502 61.296 20.9193 61.3203C20.8883 61.3445 20.8625 61.3747 20.8432 61.4089C20.8042 61.4782 20.7944 61.56 20.8158 61.6365C20.8371 61.713 20.8881 61.7779 20.9573 61.8168C21.0265 61.8558 21.1083 61.8657 21.1848 61.8443C27.0095 60.1706 33.0658 59.4459 39.1209 59.6982C40.8123 59.7666 42.4972 59.9117 44.1756 60.1333C44.557 60.1822 44.557 59.5858 44.1756 59.5369H44.161Z" fill="#7B7B9D"/>
    <path d="M45.531 63.7169C40.3198 66.7682 35.493 70.433 31.1538 74.633C29.9219 75.8258 28.7324 77.0609 27.5852 78.3385C27.3261 78.622 27.7465 79.0473 28.0056 78.7638C32.0348 74.2858 36.5896 70.3103 41.5713 66.9237C42.9662 65.9786 44.3871 65.0824 45.8341 64.235C45.9028 64.1948 45.9528 64.129 45.9729 64.052C45.9931 63.975 45.9819 63.8931 45.9417 63.8244C45.9015 63.7557 45.8356 63.7057 45.7586 63.6856C45.6816 63.6654 45.5997 63.6767 45.531 63.7169V63.7169Z" fill="#7B7B9D"/>
    <path d="M40.3546 52.7561C41.7963 52.7561 42.9651 51.5874 42.9651 50.1456C42.9651 48.7039 41.7963 47.5352 40.3546 47.5352C38.9129 47.5352 37.7441 48.7039 37.7441 50.1456C37.7441 51.5874 38.9129 52.7561 40.3546 52.7561Z" fill="#424255"/>
    <path d="M40.3603 50.9629C40.8139 50.9629 41.1816 50.5952 41.1816 50.1416C41.1816 49.688 40.8139 49.3203 40.3603 49.3203C39.9068 49.3203 39.5391 49.688 39.5391 50.1416C39.5391 50.5952 39.9068 50.9629 40.3603 50.9629Z" fill="white"/>
    <path d="M49.991 59.0461C48.4902 58.6354 45.4496 58.2492 46.5935 60.4784C47.0823 61.4561 49.8884 63.788 49.991 63.744C50.0937 63.788 52.8948 61.4317 53.413 60.4784C54.5325 58.2688 51.4918 58.6354 49.991 59.0461Z" fill="#414155"/>
    <path d="M55.657 62.5639C62.5645 62.9648 68.9587 65.9321 74.8983 69.2759C76.575 70.2194 78.2274 71.1971 79.8797 72.1846C79.9484 72.2248 80.0303 72.236 80.1073 72.2158C80.1843 72.1957 80.2501 72.1457 80.2903 72.077C80.3305 72.0083 80.3418 71.9264 80.3216 71.8494C80.3014 71.7724 80.2515 71.7066 80.1828 71.6664C74.2383 68.1222 68.1276 64.5096 61.3472 62.8377C59.4814 62.3726 57.5765 62.0813 55.657 61.9675C55.2708 61.9431 55.2757 62.5444 55.657 62.5639V62.5639Z" fill="#7B7B9D"/>
    <path d="M55.8291 60.1309C61.8396 59.3402 67.9381 59.5185 73.8922 60.6589C75.5511 60.9848 77.1953 61.3791 78.8248 61.8419C78.9013 61.8627 78.9829 61.8522 79.0516 61.8127C79.1204 61.7733 79.1707 61.7082 79.1914 61.6317C79.2122 61.5552 79.2017 61.4736 79.1622 61.4049C79.1228 61.3361 79.0577 61.2858 78.9812 61.2651C73.1416 59.589 67.072 58.8546 61.0012 59.0897C59.2706 59.1581 57.5449 59.3096 55.8291 59.5345C55.4527 59.5834 55.4478 60.1798 55.8291 60.1309V60.1309Z" fill="#7B7B9D"/>
    <path d="M54.1349 64.235C59.3343 67.2764 64.1469 70.9351 68.4681 75.1316C69.674 76.2983 70.8391 77.5091 71.9634 78.7638C72.2225 79.0473 72.643 78.622 72.3887 78.3385C68.3456 73.8517 63.7798 69.8653 58.7888 66.4642C57.3712 65.4865 55.9209 64.5707 54.438 63.7169C54.3693 63.6767 54.2874 63.6654 54.2104 63.6856C54.1334 63.7057 54.0676 63.7557 54.0274 63.8244C53.9872 63.8931 53.976 63.975 53.9961 64.052C54.0163 64.129 54.0662 64.1948 54.1349 64.235V64.235Z" fill="#7B7B9D"/>
    <path d="M59.6105 52.7561C61.0522 52.7561 62.221 51.5874 62.221 50.1456C62.221 48.7039 61.0522 47.5352 59.6105 47.5352C58.1688 47.5352 57 48.7039 57 50.1456C57 51.5874 58.1688 52.7561 59.6105 52.7561Z" fill="#424255"/>
    <path d="M59.6142 50.9629C60.0678 50.9629 60.4355 50.5952 60.4355 50.1416C60.4355 49.688 60.0678 49.3203 59.6142 49.3203C59.1607 49.3203 58.793 49.688 58.793 50.1416C58.793 50.5952 59.1607 50.9629 59.6142 50.9629Z" fill="white"/>
  </g>
</svg>
