<svg width="100" height="100" viewBox="0 0 100 100" fill="none" xmlns="http://www.w3.org/2000/svg">
  <path d="M50 100C77.6142 100 100 77.6142 100 50C100 22.3858 77.6142 0 50 0C22.3858 0 0 22.3858 0 50C0 77.6142 22.3858 100 50 100Z" fill="#0038FF" fill-opacity="0.3"/>
  <mask id="mask0_9270_34636" style="mask-type:alpha" maskUnits="userSpaceOnUse" x="0" y="0" width="100" height="100">
    <path d="M50 100C77.6142 100 100 77.6142 100 50C100 22.3858 77.6142 0 50 0C22.3858 0 0 22.3858 0 50C0 77.6142 22.3858 100 50 100Z" fill="#F6F6FA"/>
  </mask>
  <g mask="url(#mask0_9270_34636)">
    <path d="M78.4757 87.3876C77.9869 83.9216 77.4687 80.7538 76.0315 77.4296C74.4574 73.7779 71.402 66.6406 67.721 64.9834C65.13 66.5037 61.9671 66.7628 59.0927 67.6232C56.4773 68.4103 51.8088 69.0898 49.604 71.3141C47.3993 69.0849 42.7601 68.4103 40.1154 67.6232C37.2409 66.7628 34.078 66.5037 31.4871 64.9834C27.7913 66.6406 24.7409 73.7828 23.1766 77.4296C21.7393 80.7538 21.2211 83.9216 20.7323 87.3876C20.395 89.7488 19.0897 93.6743 21.1087 95.571C22.9566 97.3064 25.5084 101.11 27.8598 101.383C31.0764 101.765 32.2008 105.998 35.4419 106.174C39.2256 106.384 45.7616 107.274 49.4134 106.976C53.0651 107.274 59.1904 106.384 62.984 106.174C66.2299 105.998 70.5416 104.16 73.7632 103.779C76.095 103.505 77.8989 100.332 79.7517 98.5921C81.756 96.7051 78.8131 89.7488 78.4757 87.3876Z" fill="#7B7B9D"/>
    <path d="M45.9557 38.5708C43.5114 33.4525 40.2459 27.552 35.988 23.387C33.8712 21.3191 27.9805 16.8412 24.7736 17.418C21.4788 18.0144 26.1424 25.5379 27.169 27.5569C29.446 32.2056 32.3545 36.5173 35.812 40.3698C37.2492 41.939 38.618 44.7694 40.7347 43.3469C42.0449 42.4767 44.4305 39.9298 45.9557 38.5708Z" fill="#7B7B9D"/>
    <path d="M22.0515 20.752C28.4066 22.8296 33.9551 28.7643 36.6683 34.6941C37.7535 37.065 38.5455 39.4311 38.5895 42.0269C38.5895 43.3664 38.5259 44.9111 37.6118 45.9719C35.1333 48.7779 32.5863 44.1681 31.0758 42.2909C27.6538 38.0183 25.4589 33.1102 23.1466 28.207C22.1884 26.2076 20.7219 22.9176 22.0515 20.752Z" fill="#E5E5F1"/>
    <path d="M58.9705 70.8198C58.7065 69.3532 57.8217 68.0186 57.0151 66.8014C55.8028 64.9975 52.5763 59.0335 49.9121 60.329C49.8043 60.3838 49.7012 60.4476 49.6041 60.5196C49.5078 60.4487 49.4065 60.385 49.301 60.329C46.6367 59.0335 43.4347 64.9975 42.1979 66.8014C41.3767 68.0186 40.4918 69.3483 40.2425 70.8198C40.1203 71.5091 40.311 72.2228 39.959 72.609C40.399 74.1782 43.0241 75.459 44.4711 75.7865C46.1599 76.1863 47.881 76.4349 49.6139 76.5296C51.3468 76.4353 53.0679 76.1866 54.7566 75.7865C56.2232 75.459 58.8336 74.1782 59.2736 72.609C58.9021 72.2228 59.0927 71.5091 58.9705 70.8198Z" fill="#7B7B9D"/>
    <path d="M46.8712 65.908C46.6023 67.2719 46.265 68.6358 46.001 70.0046C45.8006 71.0557 45.5121 72.3414 45.9668 73.3533C46.2161 73.8959 46.3676 74.023 46.9445 74.0719C47.3551 74.1012 47.7706 74.111 48.1813 74.1452C48.5919 74.1794 48.9781 74.3163 49.2665 74.0377C49.7554 73.5488 49.6918 72.5027 49.7554 71.8916C49.8874 70.2539 49.8287 68.5967 49.9265 66.9542C49.9705 66.2747 49.9705 65.6392 49.1688 65.4045C48.5039 65.1845 47.3356 65.2236 46.8712 65.908Z" fill="white"/>
    <path d="M49.6562 65.6433C49.6562 66.5232 49.7834 67.3885 49.7931 68.2635C49.7775 69.0286 49.8233 69.7936 49.93 70.5513C50.0278 71.1184 50.106 71.6904 50.1989 72.2574C50.211 72.6269 50.3133 72.9877 50.4971 73.3085C50.8833 73.724 51.8854 73.5627 52.3596 73.4307C52.8338 73.2987 53.1222 73.152 53.2249 72.7219C53.3105 72.167 53.3006 71.6015 53.1955 71.05C53.1222 70.302 53 69.5492 52.8534 68.8159C52.7067 68.0826 52.56 67.3493 52.3352 66.6258C52.262 66.2623 52.0932 65.9248 51.8463 65.6481C51.5148 65.4522 51.137 65.3485 50.7519 65.3477C50.3669 65.3468 49.9886 65.4489 49.6562 65.6433Z" fill="white"/>
    <path d="M53.2363 38.5708C55.6806 33.4525 58.9461 27.552 63.1992 23.387C65.3159 21.3191 71.2115 16.8412 74.4135 17.418C77.7084 18.0144 73.0447 25.5379 72.0181 27.5569C69.7411 32.2056 66.8326 36.5173 63.3752 40.3698C61.9379 41.939 60.5691 44.7694 58.4573 43.3469C57.1423 42.4767 54.7616 39.9298 53.2363 38.5708Z" fill="#7B7B9D"/>
    <path d="M77.1356 20.752C70.7805 22.8296 65.232 28.7643 62.5188 34.6941C61.4385 37.065 60.6417 39.4311 60.5977 42.0269C60.5977 43.3664 60.6661 44.9111 61.5998 45.9719C64.0783 48.7779 66.6203 44.1681 68.1309 42.2909C71.5529 38.0183 73.7527 33.1102 76.0601 28.207C76.9938 26.2076 78.4506 22.9176 77.1356 20.752Z" fill="#E5E5F1"/>
    <path d="M69.7309 60.2463C68.6505 57.0883 66.0156 55.0155 63.9526 52.3904C61.7235 49.5501 62.579 45.5464 60.868 42.4275C59.6849 40.2815 58.0668 38.0621 55.7937 37.0501C54.0971 36.3593 52.287 35.9896 50.4554 35.96C50.4578 35.9487 50.4578 35.9371 50.4554 35.9258C50.1719 35.9258 49.8834 35.9258 49.5999 35.9258C49.3164 35.9258 49.0328 35.9258 48.7444 35.9258C48.7444 35.9258 48.7444 35.9258 48.7444 35.96C46.9102 35.9936 45.0983 36.3682 43.4012 37.0648C41.128 38.0425 39.4904 40.2766 38.3269 42.4422C36.6159 45.5513 37.6865 49.6626 35.4525 52.4979C33.3895 55.1231 30.8474 56.8194 29.772 59.9774C28.7943 62.8079 28.6623 66.5378 30.4368 68.9723C31.3985 70.3097 32.6295 71.4308 34.0508 72.2635C35.472 73.0962 37.0519 73.622 38.6887 73.8071C44.1443 74.3986 48.0502 70.7077 49.595 65.9854C51.1447 70.698 55.0457 74.3888 60.5013 73.8071C63.7278 73.4551 66.5778 71.5584 68.5919 68.7866C69.4462 67.5557 69.9951 66.1392 70.1932 64.654C70.3912 63.1689 70.2328 61.658 69.7309 60.2463Z" fill="#A7A7C0"/>
    <path d="M41.5917 53.9013C42.9444 53.9013 44.0409 52.8047 44.0409 51.4521C44.0409 50.0995 42.9444 49.0029 41.5917 49.0029C40.2391 49.0029 39.1426 50.0995 39.1426 51.4521C39.1426 52.8047 40.2391 53.9013 41.5917 53.9013Z" fill="#414155"/>
    <path d="M41.5917 52.2186C42.0156 52.2186 42.3592 51.875 42.3592 51.4511C42.3592 51.0272 42.0156 50.6836 41.5917 50.6836C41.1678 50.6836 40.8242 51.0272 40.8242 51.4511C40.8242 51.875 41.1678 52.2186 41.5917 52.2186Z" fill="white"/>
    <path d="M57.2792 53.9013C58.6319 53.9013 59.7284 52.8047 59.7284 51.4521C59.7284 50.0995 58.6319 49.0029 57.2792 49.0029C55.9266 49.0029 54.8301 50.0995 54.8301 51.4521C54.8301 52.8047 55.9266 53.9013 57.2792 53.9013Z" fill="#414155"/>
    <path d="M57.2792 52.2186C57.7031 52.2186 58.0467 51.875 58.0467 51.4511C58.0467 51.0272 57.7031 50.6836 57.2792 50.6836C56.8553 50.6836 56.5117 51.0272 56.5117 51.4511C56.5117 51.875 56.8553 52.2186 57.2792 52.2186Z" fill="white"/>
    <path d="M49.6477 63.6392C49.6477 62.8766 48.7922 62.2851 48.2349 61.9136C47.8634 61.6643 47.4429 61.5176 47.091 61.239C46.8856 61.0777 46.4017 60.6181 46.5288 60.3248C46.7292 59.88 48.0198 60.0168 48.3913 60.0168C49.1881 60.0168 49.9996 59.968 50.7916 60.0168C51.2804 60.0168 53.1674 59.8213 52.7959 60.7697C52.4781 61.6007 51.1827 61.9038 50.5374 62.3927C50.2426 62.5872 50.0034 62.8551 49.8432 63.17C49.7503 63.3508 49.7699 63.6588 49.6477 63.6392Z" fill="#414155"/>
  </g>
</svg>
