<svg width="83" height="53" viewBox="0 0 83 53" fill="none" xmlns="http://www.w3.org/2000/svg">
  <path d="M17.7984 22.8906C17.7984 22.8906 26.5845 22.8906 29.0354 22.8906C29.0354 22.8906 35.0828 22.8906 36.3243 22.8906C39.0078 22.8906 41.1836 20.6223 41.1836 17.824C41.1836 15.0256 39.0078 12.7573 36.3243 12.7573C36.1867 12.7573 36.0503 12.7632 35.9156 12.7749C34.9197 9.8139 32.2154 7.69062 29.0354 7.69062C27.6996 7.69062 26.448 8.06543 25.3714 8.71948C23.9626 5.85278 21.1 3.89062 17.7984 3.89062C14.6445 3.89062 11.8916 5.68053 10.4235 8.33942C10.2473 8.25809 10.0682 8.18387 9.88491 8.11676C9.74374 8.06512 9.60078 8.01781 9.45545 7.97513C8.82491 7.78989 8.15997 7.69062 7.47248 7.69062C3.44722 7.69062 0.183594 11.0932 0.183594 15.2906C0.183594 19.488 3.44722 22.8906 7.47248 22.8906C9.73069 22.8906 17.7984 22.8906 17.7984 22.8906Z" fill="url(#paint0_linear_525_3066)"/>
  <path d="M58.7984 37.8906C58.7984 37.8906 67.5845 37.8906 70.0354 37.8906C70.0354 37.8906 76.0828 37.8906 77.3243 37.8906C80.0078 37.8906 82.1836 35.6223 82.1836 32.824C82.1836 30.0256 80.0078 27.7573 77.3243 27.7573C77.1867 27.7573 77.0503 27.7632 76.9156 27.7749C75.9197 24.8139 73.2154 22.6906 70.0354 22.6906C68.6996 22.6906 67.448 23.0654 66.3714 23.7195C64.9626 20.8528 62.1 18.8906 58.7984 18.8906C55.6445 18.8906 52.8916 20.6805 51.4235 23.3394C51.2473 23.2581 51.0682 23.1839 50.8849 23.1168C50.7437 23.0651 50.6008 23.0178 50.4555 22.9751C49.8249 22.7899 49.16 22.6906 48.4725 22.6906C44.4472 22.6906 41.1836 26.0932 41.1836 30.2906C41.1836 34.488 44.4472 37.8906 48.4725 37.8906C50.7307 37.8906 58.7984 37.8906 58.7984 37.8906Z" fill="url(#paint1_linear_525_3066)"/>
  <path d="M39.3153 45.0758C32.53 45.0758 25.7448 45.0758 18.9595 45.0758C18.3891 45.0758 17.3622 44.8668 17.3354 44.6578C17.2146 43.7612 16.9126 42.7635 17.7649 41.9613C19.1072 40.6669 20.483 39.3524 21.7515 37.9704C22.1549 37.5067 22.3913 36.9202 22.4226 36.3052C22.4763 32.0986 22.4226 27.8852 22.4226 23.6786C22.4226 15.4878 26.6844 9.5216 34.4025 6.91267C34.5679 6.88618 34.7263 6.82615 34.8679 6.73624C35.0095 6.64632 35.1314 6.52841 35.2262 6.38967C35.321 6.25093 35.3867 6.09426 35.4193 5.9292C35.452 5.76415 35.4508 5.59415 35.4159 5.42956C35.3287 3.56219 35.9461 2.01166 37.7783 1.2364C38.3353 0.976503 38.9479 0.860023 39.5609 0.89748C40.1739 0.934937 40.768 1.12515 41.2895 1.45095C41.8109 1.77674 42.2434 2.22787 42.5479 2.76359C42.8524 3.29931 43.0192 3.90276 43.0334 4.51947C43.0334 6.20482 43.7045 6.7374 45.1743 7.25648C48.2981 8.37411 51.0102 10.4183 52.9517 13.1185C54.8933 15.8187 55.9726 19.0475 56.0468 22.3775C56.1542 26.9886 56.0468 31.5997 56.1206 36.2109C56.1683 36.8771 56.4405 37.5072 56.8924 37.9973C58.0877 39.3451 59.3582 40.6235 60.6978 41.8265C61.671 42.6961 61.322 43.7275 61.275 44.7185C61.275 44.8601 60.5636 45.0826 60.1877 45.0826C55.4361 45.0826 50.6844 45.0826 45.9327 45.0826L39.3153 45.0758Z" fill="#F6F6FA"/>
  <path d="M18.9595 45.0177H39.3153L45.9327 45.0244H60.1877C60.5636 45.0244 61.275 44.802 61.275 44.6604C61.322 43.6694 61.671 42.638 60.6978 41.7683C59.3582 40.5654 58.0877 39.2869 56.8924 37.9392C56.4405 37.4491 56.1683 36.819 56.1206 36.1527C56.0468 31.5416 56.1542 26.9305 56.0468 22.3193C55.2788 39.5388 17.7649 41.9031 17.7649 41.9031C16.9126 42.7054 17.2146 43.7031 17.3354 44.5997C17.3622 44.8087 18.3891 45.0177 18.9595 45.0177Z" fill="#EAEAF2"/>
  <path d="M34.2031 47.7803H44.3709C44.3834 49.1207 43.8662 50.4114 42.9327 51.3694C41.9992 52.3273 40.7255 52.8743 39.3911 52.8903C38.7155 52.9001 38.0447 52.7753 37.4175 52.5233C36.7902 52.2712 36.2189 51.8968 35.7365 51.4216C35.2542 50.9465 34.8703 50.3801 34.6071 49.7551C34.3439 49.1301 34.2066 48.4589 34.2031 47.7803Z" fill="#EAEAF2"/>
  <path d="M55.9896 10.0399C55.9896 10.2245 55.9199 10.4023 55.7937 10.5371C55.7014 10.6358 55.595 10.7491 55.4746 10.877C55.2645 11.1079 55.0368 11.3625 54.7916 11.6409C54.5463 11.9193 54.2976 12.2112 54.0454 12.5168C53.8002 12.8223 53.576 13.1177 53.3728 13.4029H55.4107C55.7594 13.4029 56.0421 13.6856 56.0421 14.0343C56.0421 14.3831 55.7594 14.6658 55.4107 14.6658H52.1721C51.7847 14.6658 51.4707 14.3517 51.4707 13.9643C51.4707 13.8369 51.5049 13.7115 51.5731 13.6038C51.6972 13.4079 51.8382 13.2017 51.9962 12.9853C52.2063 12.7001 52.4235 12.4149 52.6477 12.1298C52.8789 11.8446 53.1066 11.5696 53.3308 11.3048C53.555 11.0332 53.7617 10.7888 53.9508 10.5715H52.2283C51.8795 10.5715 51.5968 10.2888 51.5968 9.94005C51.5968 9.59131 51.8795 9.30859 52.2283 9.30859H55.2583C55.6622 9.30859 55.9896 9.636 55.9896 10.0399Z" fill="#9090BB"/>
  <path d="M65.0959 3.68282C65.0959 3.99501 64.9803 4.29615 64.7702 4.52709C64.6161 4.69652 64.4386 4.89104 64.2377 5.11065C63.8874 5.5064 63.5079 5.94289 63.0992 6.42011C62.6905 6.89734 62.276 7.39785 61.8556 7.92164C61.447 8.44542 61.0733 8.95175 60.7347 9.44062H64.101C64.6989 9.44062 65.1835 9.92527 65.1835 10.5231C65.1835 11.121 64.6989 11.6056 64.101 11.6056H58.7732C58.1056 11.6056 57.5645 11.0644 57.5645 10.3968C57.5645 10.1823 57.6207 9.971 57.7332 9.78825C57.9404 9.45146 58.1761 9.09697 58.4402 8.72477C58.7905 8.23591 59.1525 7.74704 59.5261 7.25817C59.9115 6.7693 60.291 6.2979 60.6646 5.84395C61.0383 5.37836 61.3827 4.95933 61.698 4.58686H58.8571C58.2593 4.58686 57.7746 4.10221 57.7746 3.50437C57.7746 2.90652 58.2593 2.42188 58.8571 2.42188H63.835C64.5314 2.42188 65.0959 2.98642 65.0959 3.68282Z" fill="#9090BB"/>
  <path d="M28.6113 23.8506C29.7542 25.3812 33.5637 26.9118 36.2304 23.8506" stroke="#9090BB" stroke-width="2" stroke-linecap="round" stroke-linejoin="round"/>
  <path d="M42.3242 23.8506C43.4671 25.3812 47.2766 26.9118 49.9433 23.8506" stroke="#9090BB" stroke-width="2" stroke-linecap="round" stroke-linejoin="round"/>
  <ellipse cx="39.2779" cy="30.7386" rx="2.28571" ry="1.53062" fill="#9090BB"/>
  <defs>
    <linearGradient id="paint0_linear_525_3066" x1="20.6836" y1="3.89062" x2="20.6836" y2="22.8906" gradientUnits="userSpaceOnUse">
      <stop stop-color="#EBEBFB"/>
      <stop offset="1" stop-color="#EAEAF2" stop-opacity="0"/>
    </linearGradient>
    <linearGradient id="paint1_linear_525_3066" x1="61.6836" y1="18.8906" x2="61.6836" y2="37.8906" gradientUnits="userSpaceOnUse">
      <stop stop-color="#EBEBFB"/>
      <stop offset="1" stop-color="#EAEAF2" stop-opacity="0"/>
    </linearGradient>
  </defs>
</svg>
