<svg width="14" height="19" viewBox="0 0 14 19" fill="none" xmlns="http://www.w3.org/2000/svg">
  <path d="M4.14377 12.6858L3.21957 13.0677L4.14377 12.6858ZM3.91839 12.2337L3.12816 12.8465L3.91839 12.2337ZM10.0816 12.2337L10.8718 12.8465L10.0816 12.2337ZM12 7C12 8.63661 11.2147 10.0895 9.9962 11.0033L11.1961 12.6034C12.8966 11.3282 14 9.29282 14 7H12ZM7 2C9.76142 2 12 4.23858 12 7H14C14 3.13401 10.866 0 7 0V2ZM2 7C2 4.23858 4.23858 2 7 2V0C3.13401 0 0 3.13401 0 7H2ZM4.0038 11.0033C2.78526 10.0895 2 8.63661 2 7H0C0 9.29282 1.1034 11.3282 2.80393 12.6034L4.0038 11.0033ZM5.99732 16.743C5.96538 15.2148 5.64886 13.7097 5.06798 12.3039L3.21957 13.0677C3.70598 14.2449 3.97101 15.5051 3.99775 16.7848L5.99732 16.743ZM8.34164 16.2111C7.49706 16.6334 6.50294 16.6334 5.65836 16.2111L4.76393 18C6.17157 18.7038 7.82843 18.7038 9.23607 18L8.34164 16.2111ZM8.93202 12.3039C8.35114 13.7097 8.03462 15.2148 8.00268 16.743L10.0022 16.7848C10.029 15.5051 10.294 14.2449 10.7804 13.0677L8.93202 12.3039ZM9.23607 18C9.70801 17.764 9.99172 17.2888 10.0022 16.7848L8.00268 16.743C8.00717 16.5284 8.1285 16.3177 8.34164 16.2111L9.23607 18ZM3.99775 16.7848C4.00828 17.2888 4.29199 17.764 4.76393 18L5.65836 16.2111C5.8715 16.3177 5.99283 16.5284 5.99732 16.743L3.99775 16.7848ZM2.80393 12.6034C2.95483 12.7165 3.04298 12.7829 3.10525 12.8338C3.16783 12.885 3.15598 12.8824 3.12816 12.8465L4.70862 11.6209C4.52146 11.3795 4.23067 11.1734 4.0038 11.0033L2.80393 12.6034ZM5.06798 12.3039C4.98964 12.1144 4.89131 11.8565 4.70862 11.6209L3.12816 12.8465C3.11465 12.8291 3.11215 12.8197 3.12521 12.8469C3.13306 12.8632 3.14391 12.8872 3.1602 12.9253C3.17665 12.9639 3.19514 13.0086 3.21957 13.0677L5.06798 12.3039ZM9.9962 11.0033C9.76933 11.1734 9.47854 11.3795 9.29138 11.6209L10.8718 12.8465C10.844 12.8824 10.8322 12.885 10.8948 12.8338C10.957 12.7829 11.0452 12.7165 11.1961 12.6034L9.9962 11.0033ZM10.7804 13.0677C10.8049 13.0086 10.8233 12.9639 10.8398 12.9253C10.8561 12.8872 10.8669 12.8632 10.8748 12.8469C10.8879 12.8197 10.8853 12.8291 10.8718 12.8465L9.29138 11.6209C9.10869 11.8565 9.01036 12.1144 8.93202 12.3039L10.7804 13.0677Z" fill="#9090BB"/>
  <path d="M9.99203 13V13C8.18095 14.2106 5.81888 14.2106 4.00781 13V13" stroke="#9090BB" stroke-width="2"/>
</svg>
