<svg width="22" height="13" viewBox="0 0 22 13" fill="none" xmlns="http://www.w3.org/2000/svg">
  <path d="M7 8L11.2277 11.3821C11.6556 11.7245 12.2793 11.6586 12.6263 11.2345L21 1" stroke="#63B64E" stroke-width="2" stroke-linecap="round"/>
  <path fill-rule="evenodd" clip-rule="evenodd" d="M10.1893 7.23681L14.774 1.63327C15.1237 1.20582 15.0607 0.5758 14.6333 0.226073C14.2059 -0.123655 13.5758 -0.0606525 13.2261 0.366792L8.65279 5.95639L10.1893 7.23681ZM7.02298 11.1068L5.48647 9.82634L4.83315 10.6248L1.60006 8.20003C1.15823 7.86866 0.531429 7.9582 0.200058 8.40003C-0.131312 8.84186 -0.041769 9.46866 0.400059 9.80003L3.63315 12.2248C4.49053 12.8679 5.7024 12.7208 6.38106 11.8913L7.02298 11.1068Z" fill="#63B64E"/>
</svg>
