<svg width="30" height="30" viewBox="0 0 20 25" fill="none" xmlns="http://www.w3.org/2000/svg">
<path d="M4.07735 21.3243L16.4316 15.5962L7.60402 6.76855L1.87593 19.1174C1.79378 19.3145 1.48164 20.1086 2.33045 20.8643C3.25045 21.6802 3.88021 21.4064 4.07735 21.3243Z" fill="#FFD954"/>
<path d="M6.36753 9.43555L5.44753 11.4343C5.15182 12.1518 10.398 17.4472 13.3606 17.0201L16.4328 15.5963C12.7911 17.2775 5.91849 10.4103 6.36753 9.43555Z" fill="#9F00E8"/>
<path d="M4.50479 13.4658L4.29123 13.9204L3.56837 15.4755C3.56289 16.0889 6.72265 19.2431 8.69956 19.1775L11.2077 18.0165C8.49146 18.4875 4.19265 14.1284 4.50479 13.4658Z" fill="#9F00E8"/>
<path d="M1.9375 18.9976C2.20036 19.5233 3.48727 20.8047 4.55512 21.1059L7.2056 19.8792L7.22203 19.8683C5.59012 20.6185 2.83012 17.8366 2.78083 17.1904L1.9375 18.9976Z" fill="#9F00E8"/>
<path d="M16.536 15.5193C15.9226 16.1327 13.4474 14.6431 10.9995 12.2008C8.55712 9.7584 7.0676 7.27767 7.68093 6.66433C8.29427 6.051 10.7695 7.54053 13.2174 9.98294C15.6598 12.4308 17.1437 14.906 16.536 15.5193Z" fill="#9F00E8"/>
<path d="M16.3275 15.1139C15.8621 15.5794 13.6387 14.1118 11.3662 11.8337C9.09353 9.5556 7.62044 7.33774 8.08591 6.87226C8.55139 6.40679 10.7747 7.8744 13.0474 10.1525C15.32 12.4306 16.793 14.6485 16.3275 15.1139Z" fill="#FFFDF5"/>
<path d="M14.5637 13C15.1328 11.9091 15.664 12.7637 16 11.9818L15.4255 11C15.0894 11.7727 14.6017 11.0455 14 12.1091L14.5637 13Z" fill="#D61F85"/>
<path d="M7 2.8027C8.3744 3.49999 7.15166 4.45675 7.92891 5L9 4.18107C8.22275 3.63784 9.34122 2.6973 7.96682 2L7 2.8027Z" fill="#5BB1EF"/>
<path d="M20.4068 8.2412C20.5575 6.92148 19.6681 6.48396 19.3454 6.51983C19.3454 6.51983 19.2879 6.08949 19.8617 5.95321C20.2418 5.86715 21.2101 6.72782 20.9591 7.70326L20.4068 8.2412Z" fill="#FF9214"/>
<path d="M17.2512 6.82698C17.2799 6.8198 17.2943 6.64767 17.7174 6.34643C18.1406 6.0452 19.0945 6.5114 19.2164 6.58312C19.3456 6.65485 19.238 7.83828 19.238 7.83828C19.238 7.83828 18.0473 6.56877 17.452 6.86284C16.8567 7.14974 17.2512 6.82698 17.2512 6.82698Z" fill="#FF9214"/>
<path d="M17.4074 9.77551C17.4074 9.77551 17.3644 10.2417 17.1492 10.4569C16.7619 10.8371 16.1451 10.2632 15.3633 10.4712C15.3633 10.4712 15.7219 9.56035 15.7578 9.48862C15.7578 9.48862 16.0733 9.29497 16.3962 9.48145C16.726 9.66075 17.0129 9.71814 17.2138 9.61056C17.4146 9.50297 17.4074 9.77551 17.4074 9.77551Z" fill="#FF9214"/>
<path d="M19.5113 7.72444C19.5113 7.72444 18.7437 8.07589 18.6433 8.12609C18.5429 8.1763 18.3135 6.39038 18.8657 6.21108C19.4252 6.03177 19.8053 5.96722 19.8627 5.96005C19.9201 5.9457 18.9016 6.05328 19.5113 7.72444Z" fill="#FFBF00"/>
<path d="M17.1502 10.4496C17.4659 10.1196 17.8962 9.63195 17.8747 9.49567C17.7743 8.62064 17.0642 6.69129 17.7169 6.33984C17.7169 6.33984 17.1072 6.77019 16.9208 6.89928C16.7343 7.02839 16.5979 7.37266 16.6124 7.93927C16.6481 8.92906 17.4371 10.1555 17.1502 10.4496Z" fill="#FFBF00"/>
<path d="M15.3545 4C14.9338 7.24097 12 10.3366 12 10.3366L12.3977 11C12.3977 11 15.5908 7.3547 16 4.10107L15.3545 4Z" fill="#ED5BAC"/>
<path d="M12.1233 6.78008C11.9597 7.11328 11.6386 7.16175 11.4023 7.08905L11.7901 6.31964C11.7901 6.31964 12.2262 6.41658 12.2384 6.13184L12.2566 6.53168L12.1233 6.78008Z" fill="#FF9214"/>
<path d="M13.2066 2.5388C13.2066 2.5388 13.4852 2.41159 13.6609 2.04809C13.8367 1.68459 12.9703 1 12.9703 1L12.5645 1.70882C12.5645 1.70882 13.249 2.15713 13.037 2.30859C12.8189 2.46005 13.2066 2.5388 13.2066 2.5388Z" fill="#FFBF00"/>
<path d="M13.6557 2.04883C13.6557 2.04883 13.3407 2.7213 13.2983 2.79399C13.1407 3.06056 12.6984 3.15144 11.9049 3.04239C11.1112 2.93334 10.881 2.97575 10.8447 2.98181C10.8083 2.99393 10.3418 2.61831 10.3418 2.61831L10.3842 2.23663C10.3842 2.23663 10.4932 2.09124 10.8567 2.1397C11.5049 2.23663 13.4133 2.55773 13.6557 2.04883Z" fill="#FF9214"/>
<path d="M10.0139 2.95707C9.94118 3.09035 10.1532 3.31451 10.6621 3.93246C11.171 4.55041 12.4918 6.18616 12.1162 6.77987L12.522 5.94382C12.522 5.94382 12.5281 5.27741 12.1283 4.62917C11.4982 3.61137 10.2926 2.51482 10.3835 2.24219L10.0139 2.95707Z" fill="#FFBF00"/>
<path d="M12.3632 11.9051C12.4872 11.9051 12.5877 11.8046 12.5877 11.6806C12.5877 11.5566 12.4872 11.4561 12.3632 11.4561C12.2392 11.4561 12.1387 11.5566 12.1387 11.6806C12.1387 11.8046 12.2392 11.9051 12.3632 11.9051Z" fill="#FFBF00"/>
<path d="M15.4902 2.57405C15.6142 2.57405 15.7147 2.47352 15.7147 2.34952C15.7147 2.22552 15.6142 2.125 15.4902 2.125C15.3662 2.125 15.2656 2.22552 15.2656 2.34952C15.2656 2.47352 15.3662 2.57405 15.4902 2.57405Z" fill="#63B64E"/>
<path d="M13.3808 5.83186C13.5048 5.83186 13.6053 5.73133 13.6053 5.60733C13.6053 5.48333 13.5048 5.38281 13.3808 5.38281C13.2568 5.38281 13.1562 5.48333 13.1562 5.60733C13.1562 5.73133 13.2568 5.83186 13.3808 5.83186Z" fill="#5BB1EF"/>
<path d="M14.7128 9.94518C14.8368 9.94518 14.9374 9.84465 14.9374 9.72064C14.9374 9.59663 14.8368 9.49609 14.7128 9.49609C14.5888 9.49609 14.4883 9.59663 14.4883 9.72064C14.4883 9.84465 14.5888 9.94518 14.7128 9.94518Z" fill="#5BB1EF"/>
<path d="M20.4843 9.39729C20.6082 9.39729 20.7087 9.29677 20.7087 9.17277C20.7087 9.04877 20.6082 8.94824 20.4843 8.94824C20.3603 8.94824 20.2598 9.04877 20.2598 9.17277C20.2598 9.29677 20.3603 9.39729 20.4843 9.39729Z" fill="#FFBF00"/>
<path d="M19.0546 14.1346C19.1786 14.1346 19.2792 14.0341 19.2792 13.9101C19.2792 13.7861 19.1786 13.6855 19.0546 13.6855C18.9306 13.6855 18.8301 13.7861 18.8301 13.9101C18.8301 14.0341 18.9306 14.1346 19.0546 14.1346Z" fill="#FFBF00"/>
<path d="M18.119 11.242C18.243 11.242 18.3435 11.1415 18.3435 11.0175C18.3435 10.8935 18.243 10.793 18.119 10.793C17.9951 10.793 17.8945 10.8935 17.8945 11.0175C17.8945 11.1415 17.9951 11.242 18.119 11.242Z" fill="#9F00E8"/>
<path d="M19.3515 5.14241C19.4755 5.14241 19.576 5.04189 19.576 4.91788C19.576 4.79388 19.4755 4.69336 19.3515 4.69336C19.2275 4.69336 19.127 4.79388 19.127 4.91788C19.127 5.04189 19.2275 5.14241 19.3515 5.14241Z" fill="#5BB1EF"/>
<path d="M16.832 5.8758C16.956 5.8758 17.0565 5.77527 17.0565 5.65128C17.0565 5.52728 16.956 5.42676 16.832 5.42676C16.708 5.42676 16.6074 5.52728 16.6074 5.65128C16.6074 5.77527 16.708 5.8758 16.832 5.8758Z" fill="#FF9214"/>
<path d="M15.83 15C18.4383 12.6014 22.8564 12.1049 22.8564 12.1049L23 11C23 11 17.7706 11.6993 15 14.3915C15.2994 14.6223 15.5741 14.8251 15.83 15Z" fill="#5BB1EF"/>
<path d="M9 8.16742C9.25657 8.44016 9.54063 8.71289 9.84297 9C10.6586 7.59327 10.4844 6.48803 10.4844 6.48803L9.48566 6C9.58645 6.86841 9.24742 7.70093 9 8.16742Z" fill="#63B64E"/>
</svg>

