<svg width="20" height="20" viewBox="0 0 25 29" fill="none" xmlns="http://www.w3.org/2000/svg">
    <path d="M24.5522 28.2836C24.5522 28.2836 20.4714 26.6778 17.1706 25.3922H3.28873C1.64655 25.3922 0.313416 23.9777 0.313416 22.2351V3.7366C0.313416 1.99573 1.64655 0.582092 3.28873 0.582092H21.576C23.2191 0.582092 24.5514 1.99487 24.5514 3.73747V19.6693H24.5522V28.2836ZM20.9692 17.9111C20.9044 17.8279 20.823 17.759 20.7301 17.7089C20.6373 17.6588 20.5351 17.6285 20.43 17.62C20.3248 17.6114 20.219 17.6248 20.1193 17.6593C20.0196 17.6938 19.9282 17.7486 19.8508 17.8202C19.8248 17.8427 17.2408 20.1411 12.432 20.1411C7.68288 20.1411 5.05903 17.8592 5.01228 17.8176C4.93478 17.7463 4.84335 17.6919 4.74375 17.6577C4.64415 17.6236 4.53855 17.6104 4.43362 17.6191C4.32868 17.6278 4.22669 17.6582 4.13409 17.7083C4.04148 17.7584 3.96026 17.8272 3.89556 17.9102C3.75699 18.0831 3.68923 18.3022 3.70598 18.5231C3.72062 18.743 3.81917 18.9487 3.98127 19.0979C4.10419 19.2087 7.04315 21.8248 12.432 21.8248C17.8216 21.8248 20.7606 19.2087 20.8835 19.0979C21.0453 18.9486 21.1435 18.7428 21.1579 18.5231C21.1747 18.3026 21.1073 18.0839 20.9692 17.9111Z" fill="white"/>
</svg>
