<svg width="48" height="26" viewBox="0 0 48 26" fill="none" xmlns="http://www.w3.org/2000/svg">
    <g clip-path="url(#clip0)">
        <mask id="mask0" maskUnits="userSpaceOnUse" x="0" y="0" width="48" height="26">
            <path d="M31.4651 0.69025L24.5145 7.65698C24.231 7.94117 23.7685 7.94123 23.4849 7.65705L16.5327 0.691643C16.3064 0.465332 15.9038 0.465456 15.6782 0.691895L0.393346 16.0127C-0.118908 16.5262 -0.118908 17.3538 0.393346 17.8673L7.78398 25.2751C8.00954 25.5015 8.4129 25.5015 8.63852 25.2751L15.5891 18.3082C15.8727 18.0241 16.3351 18.024 16.6188 18.3082L23.5709 25.2739C23.6841 25.3872 23.8376 25.4507 23.9981 25.4507C24.1587 25.4507 24.3122 25.3872 24.4254 25.2739L31.3794 18.3097C31.663 18.0256 32.1256 18.0257 32.4091 18.31L39.3594 25.2771C39.4722 25.3903 39.6261 25.4541 39.7867 25.4541C39.9473 25.4541 40.1012 25.3903 40.214 25.2771L47.6046 17.8692C48.1168 17.3558 48.1169 16.5282 47.6048 16.0147L32.3197 0.69025C32.2069 0.577095 32.053 0.513275 31.8924 0.513275C31.7318 0.513275 31.5779 0.577095 31.4651 0.69025ZM29.2314 7.93092L28.5729 5.82997C28.4932 5.57564 28.5614 5.29835 28.7502 5.10923L31.3775 2.47596C31.6611 2.19164 32.1237 2.19164 32.4073 2.47602L32.6437 2.7129C32.733 2.80246 32.797 2.91372 32.8294 3.0356L33.3318 4.92295C33.3988 5.1745 33.3239 5.44243 33.1359 5.62365L30.4283 8.23358C30.2841 8.37267 30.1038 8.43731 29.9259 8.43731C29.6256 8.43731 29.3322 8.25287 29.2314 7.93092ZM18.1105 11.152L14.6418 9.71479C14.3403 9.58987 14.1602 9.28001 14.202 8.95819L14.9304 3.3492C14.9507 3.19253 15.0224 3.0468 15.1344 2.93453L15.5906 2.4771C15.8743 2.19291 16.3368 2.19285 16.6204 2.47703L17.2023 3.06002C17.295 3.15287 17.3604 3.269 17.3916 3.39607L19.0937 10.3167C19.2106 10.7918 18.8355 11.209 18.3915 11.209C18.2995 11.209 18.2046 11.1911 18.1105 11.152ZM7.84689 10.2391L12.57 5.50499C12.8928 5.1814 13.4448 5.44933 13.3862 5.90113L12.9876 8.97052C12.9515 9.24794 12.7571 9.4795 12.4887 9.56445L8.25624 10.9035C8.21185 10.9176 8.16855 10.924 8.12722 10.924C7.7941 10.9241 7.58262 10.5041 7.84689 10.2391ZM35.9047 9.91378L34.9966 6.50195C34.8545 5.9683 35.5158 5.59253 35.907 5.98469L39.0854 9.17122C39.5322 9.61922 39.2244 10.3809 38.5896 10.3977L36.6247 10.4495C36.6183 10.4496 36.6119 10.4498 36.6054 10.4498C36.2773 10.4498 35.989 10.2304 35.9047 9.91378ZM22.1416 12.8223L21.1511 12.4119C20.9384 12.3237 20.7806 12.1405 20.7259 11.9183L19.4552 6.75116C19.3235 6.21581 19.9849 5.84806 20.3755 6.2394L23.1446 9.01365C23.293 9.16255 23.369 9.36818 23.3524 9.5771L23.1432 12.2143C23.1124 12.6035 22.7835 12.8783 22.4208 12.8783C22.3284 12.8783 22.2339 12.8605 22.1416 12.8223ZM25.2129 14.0949L24.7177 13.8897C24.4284 13.7698 24.2496 13.479 24.2742 13.1687L24.5612 9.54977C24.5746 9.38 24.6483 9.22049 24.7689 9.09949L26.6356 7.22858C27.0204 6.84288 27.6801 7.0029 27.8426 7.52137L29.2674 12.0676C29.3816 12.432 29.1897 12.8217 28.8299 12.9557L25.7466 14.1045C25.6644 14.1351 25.5781 14.1504 25.4919 14.1504C25.397 14.1504 25.3021 14.1319 25.2129 14.0949ZM30.3714 11.5685L30.1151 10.7508C30.0339 10.4918 30.1063 10.2093 30.3024 10.0202L33.2574 7.17178C33.497 6.94073 33.8984 7.05148 33.9837 7.37216L34.7033 10.0755C34.7985 10.4328 34.6056 10.8037 34.257 10.9335L31.3181 12.0286C31.2341 12.06 31.1481 12.0748 31.0635 12.0748C30.7558 12.0748 30.4685 11.8785 30.3714 11.5685ZM13.9859 15.6114L10.1622 14.3437C9.87241 14.2476 9.67437 13.9814 9.66704 13.678L9.63291 12.2656C9.62514 11.9459 9.8307 11.6594 10.1375 11.5624L12.4509 10.8304C12.8201 10.7136 13.2166 10.9059 13.3508 11.2669L14.6961 14.8833C14.8382 15.2651 14.5417 15.6414 14.1683 15.6414C14.109 15.6414 14.0478 15.6319 13.9859 15.6114ZM43.6085 18.8467L40.1239 12.2717C39.9507 11.945 40.1829 11.5511 40.5547 11.5413L41.1129 11.5266C41.313 11.5213 41.5063 11.5984 41.6471 11.7396L46.3307 16.4352C46.6106 16.7158 46.6106 17.1681 46.3306 17.4486L44.7648 19.0181C44.6208 19.1624 44.4352 19.2314 44.2512 19.2314C43.9947 19.2314 43.7414 19.0974 43.6085 18.8467ZM17.6402 17.6341L16.7337 16.7257C16.6608 16.6527 16.6045 16.565 16.5686 16.4684L15.0956 12.5088C14.8762 11.9189 15.4703 11.3526 16.0547 11.5948L20.0541 13.252C20.4419 13.4126 20.6114 13.866 20.4231 14.239L18.8031 17.4498C18.6726 17.7082 18.4149 17.8472 18.1536 17.8473C17.9698 17.8473 17.7843 17.7785 17.6402 17.6341ZM35.8801 20.0919L35.2074 19.4176C35.0457 19.2555 34.971 19.0271 35.0058 18.8016L36.0178 12.253C36.071 11.9088 36.3646 11.6517 36.7151 11.6425L37.9567 11.6098C38.2326 11.6025 38.4887 11.7515 38.6173 11.9941L40.2468 15.0688C40.3783 15.3168 40.3529 15.618 40.1817 15.8408L36.9713 20.0217C36.8275 20.2091 36.6115 20.3051 36.3946 20.3051C36.2091 20.3051 36.0229 20.235 35.8801 20.0919ZM2.79325 18.5753L1.66736 17.4468C1.38735 17.1662 1.38735 16.7138 1.66736 16.4332L4.73605 13.3572C4.81839 13.2748 4.91952 13.2133 5.03096 13.178L7.50371 12.3956C7.96432 12.25 8.43678 12.5844 8.44837 13.0643L8.50657 15.4686C8.51294 15.7312 8.37481 15.9763 8.1462 16.1083L3.67237 18.6909C3.55877 18.7565 3.43312 18.7885 3.30837 18.7885C3.11968 18.7885 2.9331 18.7155 2.79325 18.5753ZM32.8836 17.0883L32.3216 16.5249C32.3216 16.5248 32.3215 16.5248 32.3214 16.5248L30.5202 14.6778C30.1569 14.3052 30.2974 13.6849 30.7863 13.5028L33.6823 12.4238C34.2009 12.2305 34.7374 12.6632 34.6533 13.2071L34.115 16.6908C34.0563 17.0708 33.7305 17.3022 33.3947 17.3023C33.2139 17.3023 33.0302 17.2352 32.8836 17.0883ZM24.6078 18.3107L21.2874 16.8943C20.9041 16.7308 20.7385 16.2806 20.9254 15.9102L21.5811 14.6107C21.7517 14.2725 22.1567 14.1231 22.5082 14.2688L24.578 15.1264C24.8021 15.2193 24.9644 15.4173 25.0106 15.654L25.4041 17.6735C25.4765 18.045 25.1813 18.3584 24.8373 18.3584C24.762 18.3584 24.6844 18.3434 24.6078 18.3107ZM26.9716 19.4285L26.2696 15.8263C26.2023 15.4814 26.3955 15.1387 26.7267 15.0154L28.0776 14.512C28.3477 14.4114 28.6522 14.4794 28.8529 14.6852L30.5578 16.4335C30.8324 16.715 30.8297 17.1631 30.5518 17.4414L28.1979 19.7987C28.0517 19.9452 27.8678 20.0123 27.6868 20.0123C27.3602 20.0123 27.0428 19.7939 26.9716 19.4285ZM9.8514 21.2971L9.73486 16.4783C9.72276 15.9796 10.2126 15.6202 10.689 15.778L13.8891 16.839C14.3986 17.008 14.5526 17.6496 14.1744 18.0287L10.6135 21.598C10.5227 21.689 10.4103 21.7298 10.3 21.7299C10.0746 21.7299 9.85777 21.5591 9.8514 21.2971ZM39.2718 23.4916L37.7652 21.9815C37.5107 21.7263 37.4844 21.3237 37.7038 21.0381L40.3914 17.538C40.7126 17.1197 41.3624 17.1737 41.6092 17.6393L42.9336 20.1383C43.081 20.4163 43.0297 20.7572 42.8071 20.9804L40.3016 23.4917C40.1598 23.6338 39.9732 23.7049 39.7867 23.7049C39.6001 23.7049 39.4136 23.6338 39.2718 23.4916ZM7.86651 23.6603L4.72268 20.5092C4.38873 20.1746 4.46317 19.6167 4.87328 19.3799L7.4904 17.8692C7.96693 17.594 8.56605 17.9269 8.57936 18.4743L8.69634 23.3095C8.69946 23.4406 8.64884 23.5672 8.55593 23.6603C8.46098 23.7555 8.3361 23.803 8.21122 23.803C8.08634 23.803 7.96146 23.7555 7.86651 23.6603ZM23.4835 23.489L19.611 19.6087C19.3919 19.3892 19.3384 19.0556 19.4777 18.7793L19.7347 18.27C19.9067 17.9292 20.3162 17.7806 20.6688 17.931L25.5356 20.0072C25.7562 20.1013 25.9156 20.2978 25.9612 20.5319L26.1341 21.4191C26.1797 21.6529 26.1059 21.8938 25.9371 22.0629L24.5129 23.4891C24.3712 23.6311 24.1847 23.7021 23.9983 23.7021C23.8118 23.7021 23.6253 23.631 23.4835 23.489Z" fill="white"/>
        </mask>
        <g mask="url(#mask0)">
            <path d="M31.4651 0.69025L24.5145 7.65698C24.231 7.94117 23.7685 7.94123 23.4849 7.65705L16.5327 0.691643C16.3064 0.465332 15.9038 0.465456 15.6782 0.691895L0.393346 16.0127C-0.118908 16.5262 -0.118908 17.3538 0.393346 17.8673L7.78398 25.2751C8.00954 25.5015 8.4129 25.5015 8.63852 25.2751L15.5891 18.3082C15.8727 18.0241 16.3351 18.024 16.6188 18.3082L23.5709 25.2739C23.6841 25.3872 23.8376 25.4507 23.9981 25.4507C24.1587 25.4507 24.3122 25.3872 24.4254 25.2739L31.3794 18.3097C31.663 18.0256 32.1256 18.0257 32.4091 18.31L39.3594 25.2771C39.4722 25.3903 39.6261 25.4541 39.7867 25.4541C39.9473 25.4541 40.1012 25.3903 40.214 25.2771L47.6046 17.8692C48.1168 17.3558 48.1169 16.5282 47.6048 16.0147L32.3197 0.69025C32.2069 0.577095 32.053 0.513275 31.8924 0.513275C31.7318 0.513275 31.5779 0.577095 31.4651 0.69025ZM29.2314 7.93092L28.5729 5.82997C28.4932 5.57564 28.5614 5.29835 28.7502 5.10923L31.3775 2.47596C31.6611 2.19164 32.1237 2.19164 32.4073 2.47602L32.6437 2.7129C32.733 2.80246 32.797 2.91372 32.8294 3.0356L33.3318 4.92295C33.3988 5.1745 33.3239 5.44243 33.1359 5.62365L30.4283 8.23358C30.2841 8.37267 30.1038 8.43731 29.9259 8.43731C29.6256 8.43731 29.3322 8.25287 29.2314 7.93092ZM18.1105 11.152L14.6418 9.71479C14.3403 9.58987 14.1602 9.28001 14.202 8.95819L14.9304 3.3492C14.9507 3.19253 15.0224 3.0468 15.1344 2.93453L15.5906 2.4771C15.8743 2.19291 16.3368 2.19285 16.6204 2.47703L17.2023 3.06002C17.295 3.15287 17.3604 3.269 17.3916 3.39607L19.0937 10.3167C19.2106 10.7918 18.8355 11.209 18.3915 11.209C18.2995 11.209 18.2046 11.1911 18.1105 11.152ZM7.84689 10.2391L12.57 5.50499C12.8928 5.1814 13.4448 5.44933 13.3862 5.90113L12.9876 8.97052C12.9515 9.24794 12.7571 9.4795 12.4887 9.56445L8.25624 10.9035C8.21185 10.9176 8.16855 10.924 8.12722 10.924C7.7941 10.9241 7.58262 10.5041 7.84689 10.2391ZM35.9047 9.91378L34.9966 6.50195C34.8545 5.9683 35.5158 5.59253 35.907 5.98469L39.0854 9.17122C39.5322 9.61922 39.2244 10.3809 38.5896 10.3977L36.6247 10.4495C36.6183 10.4496 36.6119 10.4498 36.6054 10.4498C36.2773 10.4498 35.989 10.2304 35.9047 9.91378ZM22.1416 12.8223L21.1511 12.4119C20.9384 12.3237 20.7806 12.1405 20.7259 11.9183L19.4552 6.75116C19.3235 6.21581 19.9849 5.84806 20.3755 6.2394L23.1446 9.01365C23.293 9.16255 23.369 9.36818 23.3524 9.5771L23.1432 12.2143C23.1124 12.6035 22.7835 12.8783 22.4208 12.8783C22.3284 12.8783 22.2339 12.8605 22.1416 12.8223ZM25.2129 14.0949L24.7177 13.8897C24.4284 13.7698 24.2496 13.479 24.2742 13.1687L24.5612 9.54977C24.5746 9.38 24.6483 9.22049 24.7689 9.09949L26.6356 7.22858C27.0204 6.84288 27.6801 7.0029 27.8426 7.52137L29.2674 12.0676C29.3816 12.432 29.1897 12.8217 28.8299 12.9557L25.7466 14.1045C25.6644 14.1351 25.5781 14.1504 25.4919 14.1504C25.397 14.1504 25.3021 14.1319 25.2129 14.0949ZM30.3714 11.5685L30.1151 10.7508C30.0339 10.4918 30.1063 10.2093 30.3024 10.0202L33.2574 7.17178C33.497 6.94073 33.8984 7.05148 33.9837 7.37216L34.7033 10.0755C34.7985 10.4328 34.6056 10.8037 34.257 10.9335L31.3181 12.0286C31.2341 12.06 31.1481 12.0748 31.0635 12.0748C30.7558 12.0748 30.4685 11.8785 30.3714 11.5685ZM13.9859 15.6114L10.1622 14.3437C9.87241 14.2476 9.67437 13.9814 9.66704 13.678L9.63291 12.2656C9.62514 11.9459 9.8307 11.6594 10.1375 11.5624L12.4509 10.8304C12.8201 10.7136 13.2166 10.9059 13.3508 11.2669L14.6961 14.8833C14.8382 15.2651 14.5417 15.6414 14.1683 15.6414C14.109 15.6414 14.0478 15.6319 13.9859 15.6114ZM43.6085 18.8467L40.1239 12.2717C39.9507 11.945 40.1829 11.5511 40.5547 11.5413L41.1129 11.5266C41.313 11.5213 41.5063 11.5984 41.6471 11.7396L46.3307 16.4352C46.6106 16.7158 46.6106 17.1681 46.3306 17.4486L44.7648 19.0181C44.6208 19.1624 44.4352 19.2314 44.2512 19.2314C43.9947 19.2314 43.7414 19.0974 43.6085 18.8467ZM17.6402 17.6341L16.7337 16.7257C16.6608 16.6527 16.6045 16.565 16.5686 16.4684L15.0956 12.5088C14.8762 11.9189 15.4703 11.3526 16.0547 11.5948L20.0541 13.252C20.4419 13.4126 20.6114 13.866 20.4231 14.239L18.8031 17.4498C18.6726 17.7082 18.4149 17.8472 18.1536 17.8473C17.9698 17.8473 17.7843 17.7785 17.6402 17.6341ZM35.8801 20.0919L35.2074 19.4176C35.0457 19.2555 34.971 19.0271 35.0058 18.8016L36.0178 12.253C36.071 11.9088 36.3646 11.6517 36.7151 11.6425L37.9567 11.6098C38.2326 11.6025 38.4887 11.7515 38.6173 11.9941L40.2468 15.0688C40.3783 15.3168 40.3529 15.618 40.1817 15.8408L36.9713 20.0217C36.8275 20.2091 36.6115 20.3051 36.3946 20.3051C36.2091 20.3051 36.0229 20.235 35.8801 20.0919ZM2.79325 18.5753L1.66736 17.4468C1.38735 17.1662 1.38735 16.7138 1.66736 16.4332L4.73605 13.3572C4.81839 13.2748 4.91952 13.2133 5.03096 13.178L7.50371 12.3956C7.96432 12.25 8.43678 12.5844 8.44837 13.0643L8.50657 15.4686C8.51294 15.7312 8.37481 15.9763 8.1462 16.1083L3.67237 18.6909C3.55877 18.7565 3.43312 18.7885 3.30837 18.7885C3.11968 18.7885 2.9331 18.7155 2.79325 18.5753ZM32.8836 17.0883L32.3216 16.5249C32.3216 16.5248 32.3215 16.5248 32.3214 16.5248L30.5202 14.6778C30.1569 14.3052 30.2974 13.6849 30.7863 13.5028L33.6823 12.4238C34.2009 12.2305 34.7374 12.6632 34.6533 13.2071L34.115 16.6908C34.0563 17.0708 33.7305 17.3022 33.3947 17.3023C33.2139 17.3023 33.0302 17.2352 32.8836 17.0883ZM24.6078 18.3107L21.2874 16.8943C20.9041 16.7308 20.7385 16.2806 20.9254 15.9102L21.5811 14.6107C21.7517 14.2725 22.1567 14.1231 22.5082 14.2688L24.578 15.1264C24.8021 15.2193 24.9644 15.4173 25.0106 15.654L25.4041 17.6735C25.4765 18.045 25.1813 18.3584 24.8373 18.3584C24.762 18.3584 24.6844 18.3434 24.6078 18.3107ZM26.9716 19.4285L26.2696 15.8263C26.2023 15.4814 26.3955 15.1387 26.7267 15.0154L28.0776 14.512C28.3477 14.4114 28.6522 14.4794 28.8529 14.6852L30.5578 16.4335C30.8324 16.715 30.8297 17.1631 30.5518 17.4414L28.1979 19.7987C28.0517 19.9452 27.8678 20.0123 27.6868 20.0123C27.3602 20.0123 27.0428 19.7939 26.9716 19.4285ZM9.8514 21.2971L9.73486 16.4783C9.72276 15.9796 10.2126 15.6202 10.689 15.778L13.8891 16.839C14.3986 17.008 14.5526 17.6496 14.1744 18.0287L10.6135 21.598C10.5227 21.689 10.4103 21.7298 10.3 21.7299C10.0746 21.7299 9.85777 21.5591 9.8514 21.2971ZM39.2718 23.4916L37.7652 21.9815C37.5107 21.7263 37.4844 21.3237 37.7038 21.0381L40.3914 17.538C40.7126 17.1197 41.3624 17.1737 41.6092 17.6393L42.9336 20.1383C43.081 20.4163 43.0297 20.7572 42.8071 20.9804L40.3016 23.4917C40.1598 23.6338 39.9732 23.7049 39.7867 23.7049C39.6001 23.7049 39.4136 23.6338 39.2718 23.4916ZM7.86651 23.6603L4.72268 20.5092C4.38873 20.1746 4.46317 19.6167 4.87328 19.3799L7.4904 17.8692C7.96693 17.594 8.56605 17.9269 8.57936 18.4743L8.69634 23.3095C8.69946 23.4406 8.64884 23.5672 8.55593 23.6603C8.46098 23.7555 8.3361 23.803 8.21122 23.803C8.08634 23.803 7.96146 23.7555 7.86651 23.6603ZM23.4835 23.489L19.611 19.6087C19.3919 19.3892 19.3384 19.0556 19.4777 18.7793L19.7347 18.27C19.9067 17.9292 20.3162 17.7806 20.6688 17.931L25.5356 20.0072C25.7562 20.1013 25.9156 20.2978 25.9612 20.5319L26.1341 21.4191C26.1797 21.6529 26.1059 21.8938 25.9371 22.0629L24.5129 23.4891C24.3712 23.6311 24.1847 23.7021 23.9983 23.7021C23.8118 23.7021 23.6253 23.631 23.4835 23.489Z" fill="white"/>
        </g>
    </g>
    <defs>
        <clipPath id="clip0">
            <rect width="48" height="25" fill="white" transform="translate(0 0.5)"/>
        </clipPath>
    </defs>
</svg>
