<?xml version="1.0" encoding="UTF-8"?>
<svg width="183px" height="260px" viewBox="0 0 183 260" version="1.1" xmlns="http://www.w3.org/2000/svg" xmlns:xlink="http://www.w3.org/1999/xlink">
    <!-- Generator: Sketch 54.1 (76490) - https://sketchapp.com -->
    <title>app-icons</title>
    <desc>Created with Sketch.</desc>
    <defs>
        <rect id="path-1" x="4" y="16" width="16" height="2" rx="1"></rect>
        <filter x="-4.7%" y="-37.5%" width="109.4%" height="175.0%" filterUnits="objectBoundingBox" id="filter-2">
            <feGaussianBlur stdDeviation="0.5" in="SourceAlpha" result="shadowBlurInner1"></feGaussianBlur>
            <feOffset dx="0" dy="0.5" in="shadowBlurInner1" result="shadowOffsetInner1"></feOffset>
            <feComposite in="shadowOffsetInner1" in2="SourceAlpha" operator="arithmetic" k2="-1" k3="1" result="shadowInnerInner1"></feComposite>
            <feColorMatrix values="0 0 0 0 0   0 0 0 0 0   0 0 0 0 0  0 0 0 0.5 0" type="matrix" in="shadowInnerInner1"></feColorMatrix>
        </filter>
        <rect id="path-3" x="4" y="11" width="16" height="2" rx="1"></rect>
        <filter x="-4.7%" y="-37.5%" width="109.4%" height="175.0%" filterUnits="objectBoundingBox" id="filter-4">
            <feGaussianBlur stdDeviation="0.5" in="SourceAlpha" result="shadowBlurInner1"></feGaussianBlur>
            <feOffset dx="0" dy="0.5" in="shadowBlurInner1" result="shadowOffsetInner1"></feOffset>
            <feComposite in="shadowOffsetInner1" in2="SourceAlpha" operator="arithmetic" k2="-1" k3="1" result="shadowInnerInner1"></feComposite>
            <feColorMatrix values="0 0 0 0 0   0 0 0 0 0   0 0 0 0 0  0 0 0 0.5 0" type="matrix" in="shadowInnerInner1"></feColorMatrix>
        </filter>
        <rect id="path-5" x="4" y="6" width="16" height="2" rx="1"></rect>
        <filter x="-4.7%" y="-37.5%" width="109.4%" height="175.0%" filterUnits="objectBoundingBox" id="filter-6">
            <feGaussianBlur stdDeviation="0.5" in="SourceAlpha" result="shadowBlurInner1"></feGaussianBlur>
            <feOffset dx="0" dy="0.5" in="shadowBlurInner1" result="shadowOffsetInner1"></feOffset>
            <feComposite in="shadowOffsetInner1" in2="SourceAlpha" operator="arithmetic" k2="-1" k3="1" result="shadowInnerInner1"></feComposite>
            <feColorMatrix values="0 0 0 0 0   0 0 0 0 0   0 0 0 0 0  0 0 0 0.5 0" type="matrix" in="shadowInnerInner1"></feColorMatrix>
        </filter>
        <rect id="path-7" x="4" y="16" width="16" height="2" rx="1"></rect>
        <filter x="-4.7%" y="-37.5%" width="109.4%" height="175.0%" filterUnits="objectBoundingBox" id="filter-8">
            <feGaussianBlur stdDeviation="0.5" in="SourceAlpha" result="shadowBlurInner1"></feGaussianBlur>
            <feOffset dx="0" dy="0.5" in="shadowBlurInner1" result="shadowOffsetInner1"></feOffset>
            <feComposite in="shadowOffsetInner1" in2="SourceAlpha" operator="arithmetic" k2="-1" k3="1" result="shadowInnerInner1"></feComposite>
            <feColorMatrix values="0 0 0 0 0   0 0 0 0 0   0 0 0 0 0  0 0 0 0.5 0" type="matrix" in="shadowInnerInner1"></feColorMatrix>
        </filter>
        <rect id="path-9" x="4" y="11" width="16" height="2" rx="1"></rect>
        <filter x="-4.7%" y="-37.5%" width="109.4%" height="175.0%" filterUnits="objectBoundingBox" id="filter-10">
            <feGaussianBlur stdDeviation="0.5" in="SourceAlpha" result="shadowBlurInner1"></feGaussianBlur>
            <feOffset dx="0" dy="0.5" in="shadowBlurInner1" result="shadowOffsetInner1"></feOffset>
            <feComposite in="shadowOffsetInner1" in2="SourceAlpha" operator="arithmetic" k2="-1" k3="1" result="shadowInnerInner1"></feComposite>
            <feColorMatrix values="0 0 0 0 0   0 0 0 0 0   0 0 0 0 0  0 0 0 0.5 0" type="matrix" in="shadowInnerInner1"></feColorMatrix>
        </filter>
        <rect id="path-11" x="4" y="6" width="16" height="2" rx="1"></rect>
        <filter x="-4.7%" y="-37.5%" width="109.4%" height="175.0%" filterUnits="objectBoundingBox" id="filter-12">
            <feGaussianBlur stdDeviation="0.5" in="SourceAlpha" result="shadowBlurInner1"></feGaussianBlur>
            <feOffset dx="0" dy="0.5" in="shadowBlurInner1" result="shadowOffsetInner1"></feOffset>
            <feComposite in="shadowOffsetInner1" in2="SourceAlpha" operator="arithmetic" k2="-1" k3="1" result="shadowInnerInner1"></feComposite>
            <feColorMatrix values="0 0 0 0 0   0 0 0 0 0   0 0 0 0 0  0 0 0 0.5 0" type="matrix" in="shadowInnerInner1"></feColorMatrix>
        </filter>
        <linearGradient x1="50%" y1="0%" x2="50%" y2="100%" id="linearGradient-13">
            <stop stop-color="#9B2463" offset="0%"></stop>
            <stop stop-color="#312461" offset="100%"></stop>
        </linearGradient>
        <linearGradient x1="50%" y1="0%" x2="50%" y2="100%" id="linearGradient-14">
            <stop stop-color="#9B2463" offset="0%"></stop>
            <stop stop-color="#312461" offset="100%"></stop>
        </linearGradient>
        <linearGradient x1="50%" y1="0%" x2="50%" y2="100%" id="linearGradient-15">
            <stop stop-color="#9B2463" offset="0%"></stop>
            <stop stop-color="#312461" offset="100%"></stop>
        </linearGradient>
        <linearGradient x1="50%" y1="0%" x2="50%" y2="100%" id="linearGradient-16">
            <stop stop-color="#9B2463" offset="0%"></stop>
            <stop stop-color="#312461" offset="100%"></stop>
        </linearGradient>
        <linearGradient x1="50%" y1="0%" x2="50%" y2="100%" id="linearGradient-17">
            <stop stop-color="#9B2463" offset="0%"></stop>
            <stop stop-color="#312461" offset="100%"></stop>
        </linearGradient>
        <linearGradient x1="50%" y1="0%" x2="50%" y2="100%" id="linearGradient-18">
            <stop stop-color="#9B2463" offset="0%"></stop>
            <stop stop-color="#312461" offset="100%"></stop>
        </linearGradient>
        <linearGradient x1="50%" y1="0%" x2="50%" y2="100%" id="linearGradient-19">
            <stop stop-color="#9B2463" offset="0%"></stop>
            <stop stop-color="#312461" offset="100%"></stop>
        </linearGradient>
        <linearGradient x1="50%" y1="0%" x2="50%" y2="100%" id="linearGradient-20">
            <stop stop-color="#9B2463" offset="0%"></stop>
            <stop stop-color="#312461" offset="100%"></stop>
        </linearGradient>
        <linearGradient x1="50%" y1="0%" x2="50%" y2="100%" id="linearGradient-21">
            <stop stop-color="#E60000" offset="0%"></stop>
            <stop stop-color="#C80000" offset="100%"></stop>
        </linearGradient>
    </defs>
    <g id="Page-1" stroke="none" stroke-width="1" fill="none" fill-rule="evenodd">
        <g id="app-icons" transform="translate(0.000000, -1.000000)">
            <g id="Button/Menu/Normal">
                <g id="Line">
                    <use fill="#7F7F7F" fill-rule="evenodd" xlink:href="#path-1"></use>
                    <use fill="black" fill-opacity="1" filter="url(#filter-2)" xlink:href="#path-1"></use>
                </g>
                <g id="Line">
                    <use fill="#7F7F7F" fill-rule="evenodd" xlink:href="#path-3"></use>
                    <use fill="black" fill-opacity="1" filter="url(#filter-4)" xlink:href="#path-3"></use>
                </g>
                <g id="Line">
                    <use fill="#7F7F7F" fill-rule="evenodd" xlink:href="#path-5"></use>
                    <use fill="black" fill-opacity="1" filter="url(#filter-6)" xlink:href="#path-5"></use>
                </g>
            </g>
            <g id="Button/Menu/Active" transform="translate(32.000000, 0.000000)">
                <g id="Line">
                    <use fill="#4D4D4D" fill-rule="evenodd" xlink:href="#path-7"></use>
                    <use fill="black" fill-opacity="1" filter="url(#filter-8)" xlink:href="#path-7"></use>
                </g>
                <g id="Line">
                    <use fill="#4D4D4D" fill-rule="evenodd" xlink:href="#path-9"></use>
                    <use fill="black" fill-opacity="1" filter="url(#filter-10)" xlink:href="#path-9"></use>
                </g>
                <g id="Line">
                    <use fill="#4D4D4D" fill-rule="evenodd" xlink:href="#path-11"></use>
                    <use fill="black" fill-opacity="1" filter="url(#filter-12)" xlink:href="#path-11"></use>
                </g>
            </g>
            <g id="Icon/All/Normal" transform="translate(0.000000, 40.000000)" fill="url(#linearGradient-13)" fill-rule="nonzero">
                <path d="M2,4 C0.8954305,4 0,3.1045695 0,2 C0,0.8954305 0.8954305,0 2,0 C3.1045695,0 4,0.8954305 4,2 C4,3.1045695 3.1045695,4 2,4 Z M8,4 C6.8954305,4 6,3.1045695 6,2 C6,0.8954305 6.8954305,0 8,0 C9.1045695,0 10,0.8954305 10,2 C10,3.1045695 9.1045695,4 8,4 Z M14,4 C12.8954305,4 12,3.1045695 12,2 C12,0.8954305 12.8954305,0 14,0 C15.1045695,0 16,0.8954305 16,2 C16,3.1045695 15.1045695,4 14,4 Z M2,10 C0.8954305,10 0,9.1045695 0,8 C0,6.8954305 0.8954305,6 2,6 C3.1045695,6 4,6.8954305 4,8 C4,9.1045695 3.1045695,10 2,10 Z M8,10 C6.8954305,10 6,9.1045695 6,8 C6,6.8954305 6.8954305,6 8,6 C9.1045695,6 10,6.8954305 10,8 C10,9.1045695 9.1045695,10 8,10 Z M14,10 C12.8954305,10 12,9.1045695 12,8 C12,6.8954305 12.8954305,6 14,6 C15.1045695,6 16,6.8954305 16,8 C16,9.1045695 15.1045695,10 14,10 Z M2,16 C0.8954305,16 0,15.1045695 0,14 C0,12.8954305 0.8954305,12 2,12 C3.1045695,12 4,12.8954305 4,14 C4,15.1045695 3.1045695,16 2,16 Z M8,16 C6.8954305,16 6,15.1045695 6,14 C6,12.8954305 6.8954305,12 8,12 C9.1045695,12 10,12.8954305 10,14 C10,15.1045695 9.1045695,16 8,16 Z M14,16 C12.8954305,16 12,15.1045695 12,14 C12,12.8954305 12.8954305,12 14,12 C15.1045695,12 16,12.8954305 16,14 C16,15.1045695 15.1045695,16 14,16 Z" id="Shape"></path>
            </g>
            <g id="Icon/All/Selected" transform="translate(24.000000, 40.000000)" fill="#FFFFFF" fill-rule="nonzero">
                <path d="M2,4 C0.8954305,4 0,3.1045695 0,2 C0,0.8954305 0.8954305,0 2,0 C3.1045695,0 4,0.8954305 4,2 C4,3.1045695 3.1045695,4 2,4 Z M8,4 C6.8954305,4 6,3.1045695 6,2 C6,0.8954305 6.8954305,0 8,0 C9.1045695,0 10,0.8954305 10,2 C10,3.1045695 9.1045695,4 8,4 Z M14,4 C12.8954305,4 12,3.1045695 12,2 C12,0.8954305 12.8954305,0 14,0 C15.1045695,0 16,0.8954305 16,2 C16,3.1045695 15.1045695,4 14,4 Z M2,10 C0.8954305,10 0,9.1045695 0,8 C0,6.8954305 0.8954305,6 2,6 C3.1045695,6 4,6.8954305 4,8 C4,9.1045695 3.1045695,10 2,10 Z M8,10 C6.8954305,10 6,9.1045695 6,8 C6,6.8954305 6.8954305,6 8,6 C9.1045695,6 10,6.8954305 10,8 C10,9.1045695 9.1045695,10 8,10 Z M14,10 C12.8954305,10 12,9.1045695 12,8 C12,6.8954305 12.8954305,6 14,6 C15.1045695,6 16,6.8954305 16,8 C16,9.1045695 15.1045695,10 14,10 Z M2,16 C0.8954305,16 0,15.1045695 0,14 C0,12.8954305 0.8954305,12 2,12 C3.1045695,12 4,12.8954305 4,14 C4,15.1045695 3.1045695,16 2,16 Z M8,16 C6.8954305,16 6,15.1045695 6,14 C6,12.8954305 6.8954305,12 8,12 C9.1045695,12 10,12.8954305 10,14 C10,15.1045695 9.1045695,16 8,16 Z M14,16 C12.8954305,16 12,15.1045695 12,14 C12,12.8954305 12.8954305,12 14,12 C15.1045695,12 16,12.8954305 16,14 C16,15.1045695 15.1045695,16 14,16 Z" id="Shape"></path>
            </g>
            <g id="Icon/Chevron/Normal" transform="translate(64.000000, 0.000000)">
                <g id="Group">
                    <rect id="Area" x="0" y="0" width="16" height="16"></rect>
                    <polyline id="Chevron" stroke="#843A72" stroke-width="1.5" stroke-linecap="round" stroke-linejoin="round" points="3 6 8 11 13 6"></polyline>
                </g>
            </g>
            <g id="Icon/Chevron/Table" transform="translate(92.000000, 6.000000)" stroke="#666666">
                <polyline id="Chevron" points="0 0 4 4 8 0"></polyline>
            </g>
            <g id="Icon/Close" transform="translate(112.000000, 0.000000)">
                <g id="Group">
                    <rect id="Rectangle" x="0" y="0" width="16" height="16"></rect>
                    <path d="M2,2 L14,14" id="Path-2" stroke="#843A72" stroke-width="2" stroke-linecap="round"></path>
                    <path d="M14,2 L2,14" id="Path-2" stroke="#843A72" stroke-width="2" stroke-linecap="round"></path>
                </g>
            </g>
            <g id="Icon/Favorites/Active" transform="translate(0.000000, 64.000000)" fill="url(#linearGradient-14)" fill-rule="nonzero">
                <path d="M15.0418152,5.95666667 C14.8998721,5.57324147 14.5346693,5.31834376 14.1258152,5.31733333 L10.1644818,5.31733333 L8.74581516,1.3 C8.60228579,0.916166242 8.23440655,0.662750286 7.82462387,0.665431525 C7.41484119,0.668112764 7.05030954,0.926320939 6.91181516,1.312 L5.49781516,5.31733333 L1.53648182,5.31733333 C1.12578158,5.31771185 0.759133498,5.57481649 0.618839337,5.9608118 C0.478545175,6.34680711 0.594539473,6.77933334 0.90914849,7.04333333 L4.26314849,9.82266667 L2.85581516,14.0453333 C2.72023997,14.4488667 2.8616543,14.8937304 3.2053517,15.1449115 C3.5490491,15.3960925 4.01584837,15.3957238 4.35914849,15.144 L7.83114849,12.6 L11.3024818,15.1453333 C11.6453695,15.3965556 12.1113692,15.3971546 12.4549016,15.1468145 C12.798434,14.8964744 12.9406012,14.4526901 12.8064818,14.0493333 L11.3984818,9.824 L14.7598152,7.038 C15.0702484,6.77171452 15.1826673,6.34064249 15.0418152,5.95666667 Z" id="Path"></path>
            </g>
            <g id="Icon/Favorites/ActiveSelected" transform="translate(24.000000, 64.000000)" fill="#FFFFFF" fill-rule="nonzero">
                <path d="M15.0418152,5.95666667 C14.8998721,5.57324147 14.5346693,5.31834376 14.1258152,5.31733333 L10.1644818,5.31733333 L8.74581516,1.3 C8.60228579,0.916166242 8.23440655,0.662750286 7.82462387,0.665431525 C7.41484119,0.668112764 7.05030954,0.926320939 6.91181516,1.312 L5.49781516,5.31733333 L1.53648182,5.31733333 C1.12578158,5.31771185 0.759133498,5.57481649 0.618839337,5.9608118 C0.478545175,6.34680711 0.594539473,6.77933334 0.90914849,7.04333333 L4.26314849,9.82266667 L2.85581516,14.0453333 C2.72023997,14.4488667 2.8616543,14.8937304 3.2053517,15.1449115 C3.5490491,15.3960925 4.01584837,15.3957238 4.35914849,15.144 L7.83114849,12.6 L11.3024818,15.1453333 C11.6453695,15.3965556 12.1113692,15.3971546 12.4549016,15.1468145 C12.798434,14.8964744 12.9406012,14.4526901 12.8064818,14.0493333 L11.3984818,9.824 L14.7598152,7.038 C15.0702484,6.77171452 15.1826673,6.34064249 15.0418152,5.95666667 Z" id="Path"></path>
            </g>
            <g id="Icon/Favorites/Normal" transform="translate(0.000000, 88.000000)" fill="#666666" fill-rule="nonzero">
                <path d="M15.0418152,5.95666667 C14.8998721,5.57324147 14.5346693,5.31834376 14.1258152,5.31733333 L10.1644818,5.31733333 L8.74581516,1.3 C8.60228579,0.916166242 8.23440655,0.662750286 7.82462387,0.665431525 C7.41484119,0.668112764 7.05030954,0.926320939 6.91181516,1.312 L5.49781516,5.31733333 L1.53648182,5.31733333 C1.12578158,5.31771185 0.759133498,5.57481649 0.618839337,5.9608118 C0.478545175,6.34680711 0.594539473,6.77933334 0.90914849,7.04333333 L4.26314849,9.82266667 L2.85581516,14.0453333 C2.72023997,14.4488667 2.8616543,14.8937304 3.2053517,15.1449115 C3.5490491,15.3960925 4.01584837,15.3957238 4.35914849,15.144 L7.83114849,12.6 L11.3024818,15.1453333 C11.6453695,15.3965556 12.1113692,15.3971546 12.4549016,15.1468145 C12.798434,14.8964744 12.9406012,14.4526901 12.8064818,14.0493333 L11.3984818,9.824 L14.7598152,7.038 C15.0702484,6.77171452 15.1826673,6.34064249 15.0418152,5.95666667 Z M10.1971485,9.09 C9.98529044,9.26544809 9.90294253,9.55300381 9.98981516,9.814 L11.0224818,12.912 C11.0455846,12.9808806 11.021407,13.0567905 10.9627235,13.0996218 C10.9040401,13.1424531 10.8243729,13.1423364 10.7658152,13.0993333 L8.22448182,11.234 C7.98978323,11.0618267 7.67051375,11.0618267 7.43581516,11.234 L4.89781516,13.096 C4.8393562,13.1387349 4.7599916,13.138832 4.70142817,13.0962404 C4.64286475,13.0536489 4.61850431,12.9781153 4.64114849,12.9093333 L5.67314849,9.81133333 C5.76017413,9.55047362 5.67809878,9.26294516 5.46648182,9.08733333 L2.88114849,6.946 C2.82682857,6.90127596 2.80644726,6.82725668 2.8302169,6.76103057 C2.85398654,6.69480447 2.91678591,6.6506401 2.98714849,6.65066667 L5.97048182,6.65066667 C6.25328141,6.65058765 6.50525903,6.47209237 6.59914849,6.20533333 L7.67381516,3.16 C7.69719187,3.09311739 7.76029827,3.04832424 7.83114849,3.04832424 C7.90199871,3.04832424 7.96510511,3.09311739 7.98848182,3.16 L9.06248182,6.20533333 C9.15637128,6.47209237 9.4083489,6.65058765 9.69114849,6.65066667 L12.6744818,6.65066667 C12.7448444,6.6506401 12.8076438,6.69480447 12.8314134,6.76103057 C12.8551831,6.82725668 12.8348017,6.90127596 12.7804818,6.946 L10.1971485,9.09 Z" id="Shape"></path>
            </g>
            <g id="Icon/Favorites/Selected" transform="translate(24.000000, 88.000000)" fill="#FFFFFF" fill-rule="nonzero">
                <path d="M15.0418152,5.95666667 C14.8998721,5.57324147 14.5346693,5.31834376 14.1258152,5.31733333 L10.1644818,5.31733333 L8.74581516,1.3 C8.60228579,0.916166242 8.23440655,0.662750286 7.82462387,0.665431525 C7.41484119,0.668112764 7.05030954,0.926320939 6.91181516,1.312 L5.49781516,5.31733333 L1.53648182,5.31733333 C1.12578158,5.31771185 0.759133498,5.57481649 0.618839337,5.9608118 C0.478545175,6.34680711 0.594539473,6.77933334 0.90914849,7.04333333 L4.26314849,9.82266667 L2.85581516,14.0453333 C2.72023997,14.4488667 2.8616543,14.8937304 3.2053517,15.1449115 C3.5490491,15.3960925 4.01584837,15.3957238 4.35914849,15.144 L7.83114849,12.6 L11.3024818,15.1453333 C11.6453695,15.3965556 12.1113692,15.3971546 12.4549016,15.1468145 C12.798434,14.8964744 12.9406012,14.4526901 12.8064818,14.0493333 L11.3984818,9.824 L14.7598152,7.038 C15.0702484,6.77171452 15.1826673,6.34064249 15.0418152,5.95666667 Z M10.1971485,9.09 C9.98529044,9.26544809 9.90294253,9.55300381 9.98981516,9.814 L11.0224818,12.912 C11.0455846,12.9808806 11.021407,13.0567905 10.9627235,13.0996218 C10.9040401,13.1424531 10.8243729,13.1423364 10.7658152,13.0993333 L8.22448182,11.234 C7.98978323,11.0618267 7.67051375,11.0618267 7.43581516,11.234 L4.89781516,13.096 C4.8393562,13.1387349 4.7599916,13.138832 4.70142817,13.0962404 C4.64286475,13.0536489 4.61850431,12.9781153 4.64114849,12.9093333 L5.67314849,9.81133333 C5.76017413,9.55047362 5.67809878,9.26294516 5.46648182,9.08733333 L2.88114849,6.946 C2.82682857,6.90127596 2.80644726,6.82725668 2.8302169,6.76103057 C2.85398654,6.69480447 2.91678591,6.6506401 2.98714849,6.65066667 L5.97048182,6.65066667 C6.25328141,6.65058765 6.50525903,6.47209237 6.59914849,6.20533333 L7.67381516,3.16 C7.69719187,3.09311739 7.76029827,3.04832424 7.83114849,3.04832424 C7.90199871,3.04832424 7.96510511,3.09311739 7.98848182,3.16 L9.06248182,6.20533333 C9.15637128,6.47209237 9.4083489,6.65058765 9.69114849,6.65066667 L12.6744818,6.65066667 C12.7448444,6.6506401 12.8076438,6.69480447 12.8314134,6.76103057 C12.8551831,6.82725668 12.8348017,6.90127596 12.7804818,6.946 L10.1971485,9.09 Z" id="Shape"></path>
            </g>
            <g id="Icon/NodeType/DataCenter" transform="translate(112.000000, 81.000000)" fill="url(#linearGradient-15)" fill-rule="nonzero">
                <path d="M13,17 L13,20 C13,20.5522847 13.4477153,21 14,21 L18,21 C18.5522847,21 19,21.4477153 19,22 C19,22.5522847 18.5522847,23 18,23 L6,23 C5.44771525,23 5,22.5522847 5,22 C5,21.4477153 5.44771525,21 6,21 L10,21 C10.5522847,21 11,20.5522847 11,20 L11,17 L1,17 C0.44771525,17 6.76353751e-17,16.5522847 0,16 L0,13 C-6.76353751e-17,12.4477153 0.44771525,12 1,12 L23,12 C23.5522847,12 24,12.4477153 24,13 L24,16 C24,16.5522847 23.5522847,17 23,17 L13,17 Z M2.5,15.5 C3.05228475,15.5 3.5,15.0522847 3.5,14.5 C3.5,13.9477153 3.05228475,13.5 2.5,13.5 C1.94771525,13.5 1.5,13.9477153 1.5,14.5 C1.5,15.0522847 1.94771525,15.5 2.5,15.5 Z M5.5,15.5 C6.05228475,15.5 6.5,15.0522847 6.5,14.5 C6.5,13.9477153 6.05228475,13.5 5.5,13.5 C4.94771525,13.5 4.5,13.9477153 4.5,14.5 C4.5,15.0522847 4.94771525,15.5 5.5,15.5 Z M1,6 L23,6 C23.5522847,6 24,6.44771525 24,7 L24,10 C24,10.5522847 23.5522847,11 23,11 L1,11 C0.44771525,11 6.76353751e-17,10.5522847 0,10 L0,7 C-6.76353751e-17,6.44771525 0.44771525,6 1,6 Z M2.5,9.5 C3.05228475,9.5 3.5,9.0522847 3.5,8.5 C3.5,7.94771525 3.05228475,7.5 2.5,7.5 C1.94771525,7.5 1.5,7.94771525 1.5,8.5 C1.5,9.0522847 1.94771525,9.5 2.5,9.5 Z M5.5,9.5 C6.05228475,9.5 6.5,9.0522847 6.5,8.5 C6.5,7.94771525 6.05228475,7.5 5.5,7.5 C4.94771525,7.5 4.5,7.94771525 4.5,8.5 C4.5,9.0522847 4.94771525,9.5 5.5,9.5 Z M1,0 L23,0 C23.5522847,0 24,0.44771525 24,1 L24,4 C24,4.55228475 23.5522847,5 23,5 L1,5 C0.44771525,5 6.76353751e-17,4.55228475 0,4 L0,1 C-6.76353751e-17,0.44771525 0.44771525,0 1,0 Z M2.5,3.5 C3.05228475,3.5 3.5,3.05228475 3.5,2.5 C3.5,1.94771525 3.05228475,1.5 2.5,1.5 C1.94771525,1.5 1.5,1.94771525 1.5,2.5 C1.5,3.05228475 1.94771525,3.5 2.5,3.5 Z M5.5,3.5 C6.05228475,3.5 6.5,3.05228475 6.5,2.5 C6.5,1.94771525 6.05228475,1.5 5.5,1.5 C4.94771525,1.5 4.5,1.94771525 4.5,2.5 C4.5,3.05228475 4.94771525,3.5 5.5,3.5 Z M1,21 L2,21 C2.55228475,21 3,21.4477153 3,22 C3,22.5522847 2.55228475,23 2,23 L1,23 C0.44771525,23 6.76353751e-17,22.5522847 0,22 C-6.76353751e-17,21.4477153 0.44771525,21 1,21 Z M22,21 L23,21 C23.5522847,21 24,21.4477153 24,22 C24,22.5522847 23.5522847,23 23,23 L22,23 C21.4477153,23 21,22.5522847 21,22 C21,21.4477153 21.4477153,21 22,21 Z" id="Combined-Shape"></path>
            </g>
            <g id="Icon/NodeType/Residential" transform="translate(112.000000, 40.000000)" fill="url(#linearGradient-16)" fill-rule="nonzero">
                <path d="M1,22 L2,22 C2.55228475,22 3,22.4477153 3,23 C3,23.5522847 2.55228475,24 2,24 L1,24 C0.44771525,24 6.76353751e-17,23.5522847 0,23 C-6.76353751e-17,22.4477153 0.44771525,22 1,22 Z M22,22 L23,22 C23.5522847,22 24,22.4477153 24,23 C24,23.5522847 23.5522847,24 23,24 L22,24 C21.4477153,24 21,23.5522847 21,23 C21,22.4477153 21.4477153,22 22,22 Z M6,22 L10,22 C10.5522847,22 11,21.5522847 11,21 L11,18 L5,18 C4.44771525,18 4,17.5522847 4,17 L4,10.5 L2.20710678,12.2928932 C1.81658249,12.6834175 1.18341751,12.6834175 0.792893219,12.2928932 L0.707106781,12.2071068 C0.316582489,11.8165825 0.316582489,11.1834175 0.707106781,10.7928932 L11.0807612,0.419238816 C11.5884428,-0.0884427637 12.4115572,-0.0884427637 12.9192388,0.419238816 L23.2928932,10.7928932 C23.6834175,11.1834175 23.6834175,11.8165825 23.2928932,12.2071068 L23.2071068,12.2928932 C22.8165825,12.6834175 22.1834175,12.6834175 21.7928932,12.2928932 L20,10.5 L20,17 C20,17.5522847 19.5522847,18 19,18 L13,18 L13,21 C13,21.5522847 13.4477153,22 14,22 L18,22 C18.5522847,22 19,22.4477153 19,23 C19,23.5522847 18.5522847,24 18,24 L6,24 C5.44771525,24 5,23.5522847 5,23 C5,22.4477153 5.44771525,22 6,22 Z M12,10 C10.8954305,10 10,10.8954305 10,12 L10,16 L14,16 L14,12 C14,10.8954305 13.1045695,10 12,10 Z" id="Combined-Shape"></path>
            </g>
            <g id="Icon/OpenVPN/Normal" transform="translate(56.000000, 40.000000)" fill-rule="nonzero">
                <path d="M8,0 C3.58125,0 0,3.58125 0,8 C0,10.9578124 1.6093752,13.5328124 3.9953124,14.91875 L5.7968752,11.8046876 C4.4843752,11.04375 3.6,9.6265624 3.6,8 C3.6,5.5703124 5.5703124,3.6 8,3.6 C10.4296876,3.6 12.4,5.5703124 12.4,8 C12.4,9.6265624 11.5156252,11.04375 10.2031252,11.8046876 L12.0046876,14.91875 C14.3906252,13.5328124 16,10.9578124 16,8 C16,3.58125 12.41875,0 8,0 Z" id="Path" fill="#FF9100"></path>
                <path d="M10.4,8 C10.4,6.675 9.325,5.6 8,5.6 C6.675,5.6 5.6,6.675 5.6,8 C5.6,9.0218752 6.2406252,9.89375 7.1406252,10.2390624 L6.1171876,15.7671876 C6.7218752,15.9140624 7.35,16 8,16 C8.65,16 9.2781252,15.9140624 9.8828124,15.76875 L8.8593752,10.2390624 C9.7593752,9.89375 10.4,9.0218752 10.4,8 Z" id="Path" fill="#1A237E"></path>
            </g>
            <g id="Icon/OpenVPN/Selected" transform="translate(80.000000, 40.000000)" fill="#FFFFFF" fill-rule="nonzero">
                <path d="M8,0 C3.58125,0 0,3.58125 0,8 C0,10.9578124 1.6093752,13.5328124 3.9953124,14.91875 L5.7968752,11.8046876 C4.4843752,11.04375 3.6,9.6265624 3.6,8 C3.6,5.5703124 5.5703124,3.6 8,3.6 C10.4296876,3.6 12.4,5.5703124 12.4,8 C12.4,9.6265624 11.5156252,11.04375 10.2031252,11.8046876 L12.0046876,14.91875 C14.3906252,13.5328124 16,10.9578124 16,8 C16,3.58125 12.41875,0 8,0 Z" id="Path"></path>
                <path d="M10.4,8 C10.4,6.675 9.325,5.6 8,5.6 C6.675,5.6 5.6,6.675 5.6,8 C5.6,9.0218752 6.2406252,9.89375 7.1406252,10.2390624 L6.1171876,15.7671876 C6.7218752,15.9140624 7.35,16 8,16 C8.65,16 9.2781252,15.9140624 9.8828124,15.76875 L8.8593752,10.2390624 C9.7593752,9.89375 10.4,9.0218752 10.4,8 Z" id="Path"></path>
            </g>
            <g id="Icon/WireGuard/Normal" transform="translate(56.000000, 64.000000)" fill="#AD1313" fill-rule="nonzero">
                <path d="M8,16 C3.581722,16 0,12.418278 0,8 C0,3.581722 3.581722,0 8,0 C12.418278,0 16,3.581722 16,8 C16,12.418278 12.418278,16 8,16 Z M11.848,2.4 L10.52,2.4 L9.8,6.512 L9.712,6.512 L8.872,2.776 C8.808,2.464 8.688,2.384 8.376,2.384 L7.712,2.384 C7.408,2.384 7.28,2.472 7.216,2.776 L6.376,6.512 L6.28,6.512 L5.568,2.4 L4.152,2.4 L5.328,7.664 C5.384,7.944 5.504,8.024 5.816,8.024 L6.72,8.024 C7.024,8.024 7.144,7.944 7.208,7.656 L7.96,4.288 L8.048,4.288 L8.808,7.656 C8.872,7.944 8.984,8.024 9.296,8.024 L10.192,8.024 C10.504,8.024 10.624,7.944 10.68,7.664 L11.848,2.4 Z M7.164,8.4 C6.612,8.4 6.356,8.48 6.156,8.672 C5.836,8.968 5.604,9.48 5.604,11.2 C5.604,12.912 5.836,13.424 6.156,13.728 C6.356,13.92 6.612,14 7.164,14 L8.884,14 C9.404,14 9.692,13.92 9.9,13.72 C10.212,13.424 10.42,12.944 10.42,11.656 L10.42,10.96 L7.892,10.96 L7.892,11.92 L9.148,11.92 L9.148,12.08 C9.148,12.616 9.036,12.832 8.964,12.904 C8.908,12.952 8.836,12.984 8.588,12.976 L7.516,12.976 C7.252,12.976 7.188,12.952 7.132,12.904 C7.052,12.824 6.94,12.568 6.94,11.2 C6.94,9.824 7.052,9.576 7.132,9.504 C7.188,9.448 7.252,9.424 7.516,9.424 L8.564,9.424 C8.82,9.424 8.892,9.456 8.94,9.504 C9.012,9.568 9.1,9.68 9.116,10.24 L10.372,10.24 C10.356,9.264 10.212,8.928 9.916,8.656 C9.716,8.464 9.452,8.4 8.884,8.4 L7.164,8.4 Z" id="Logo"></path>
            </g>
            <g id="Icon/WireGuard/Selected" transform="translate(80.000000, 64.000000)" fill="#FFFFFF" fill-rule="nonzero">
                <path d="M8,16 C3.581722,16 0,12.418278 0,8 C0,3.581722 3.581722,0 8,0 C12.418278,0 16,3.581722 16,8 C16,12.418278 12.418278,16 8,16 Z M11.848,2.4 L10.52,2.4 L9.8,6.512 L9.712,6.512 L8.872,2.776 C8.808,2.464 8.688,2.384 8.376,2.384 L7.712,2.384 C7.408,2.384 7.28,2.472 7.216,2.776 L6.376,6.512 L6.28,6.512 L5.568,2.4 L4.152,2.4 L5.328,7.664 C5.384,7.944 5.504,8.024 5.816,8.024 L6.72,8.024 C7.024,8.024 7.144,7.944 7.208,7.656 L7.96,4.288 L8.048,4.288 L8.808,7.656 C8.872,7.944 8.984,8.024 9.296,8.024 L10.192,8.024 C10.504,8.024 10.624,7.944 10.68,7.664 L11.848,2.4 Z M7.164,8.4 C6.612,8.4 6.356,8.48 6.156,8.672 C5.836,8.968 5.604,9.48 5.604,11.2 C5.604,12.912 5.836,13.424 6.156,13.728 C6.356,13.92 6.612,14 7.164,14 L8.884,14 C9.404,14 9.692,13.92 9.9,13.72 C10.212,13.424 10.42,12.944 10.42,11.656 L10.42,10.96 L7.892,10.96 L7.892,11.92 L9.148,11.92 L9.148,12.08 C9.148,12.616 9.036,12.832 8.964,12.904 C8.908,12.952 8.836,12.984 8.588,12.976 L7.516,12.976 C7.252,12.976 7.188,12.952 7.132,12.904 C7.052,12.824 6.94,12.568 6.94,11.2 C6.94,9.824 7.052,9.576 7.132,9.504 C7.188,9.448 7.252,9.424 7.516,9.424 L8.564,9.424 C8.82,9.424 8.892,9.456 8.94,9.504 C9.012,9.568 9.1,9.68 9.116,10.24 L10.372,10.24 C10.356,9.264 10.212,8.928 9.916,8.656 C9.716,8.464 9.452,8.4 8.884,8.4 L7.164,8.4 Z" id="Combined-Shape"></path>
            </g>
            <g id="Icon/Quality/1/Normal" transform="translate(1.000000, 120.000000)" fill-rule="nonzero">
                <rect id="Rectangle" fill="#D8D8D8" x="15" y="0" width="4" height="16" rx="1"></rect>
                <rect id="Rectangle" fill="#D8D8D8" x="10" y="4" width="4" height="12" rx="1"></rect>
                <rect id="Rectangle" fill="#D8D8D8" x="5" y="8" width="4" height="8" rx="1"></rect>
                <rect id="Rectangle" fill="#D93C3C" x="0" y="10" width="4" height="6" rx="1"></rect>
            </g>
            <g id="Icon/Quality/2/Normal" transform="translate(29.000000, 120.000000)" fill-rule="nonzero">
                <rect id="Bar" fill="#D8D8D8" x="15" y="0" width="4" height="16" rx="1"></rect>
                <rect id="Bar" fill="#D8D8D8" x="10" y="4" width="4" height="12" rx="1"></rect>
                <rect id="Bar" fill="#D48C26" x="5" y="8" width="4" height="8" rx="1"></rect>
                <rect id="Bar" fill="#D48C26" x="0" y="10" width="4" height="6" rx="1"></rect>
            </g>
            <g id="Icon/Quality/3/Normal" transform="translate(57.000000, 120.000000)" fill-rule="nonzero">
                <rect id="Bar" fill="#D8D8D8" x="15" y="0" width="4" height="16" rx="1"></rect>
                <rect id="Bar" fill="#DFCC00" x="10" y="4" width="4" height="12" rx="1"></rect>
                <rect id="Bar" fill="#DFCC00" x="5" y="8" width="4" height="8" rx="1"></rect>
                <rect id="Bar" fill="#DFCC00" x="0" y="10" width="4" height="6" rx="1"></rect>
            </g>
            <g id="Icon/Quality/4/Normal" transform="translate(85.000000, 120.000000)" fill="#76C25A" fill-rule="nonzero">
                <rect id="Bar" x="15" y="0" width="4" height="16" rx="1"></rect>
                <rect id="Bar" x="10" y="4" width="4" height="12" rx="1"></rect>
                <rect id="Bar" x="5" y="8" width="4" height="8" rx="1"></rect>
                <rect id="Bar" x="0" y="10" width="4" height="6" rx="1"></rect>
            </g>
            <g id="Icon/Quality/4/Selected" transform="translate(85.000000, 144.000000)" fill="#FFFFFF" fill-rule="nonzero">
                <rect id="Bar" x="15" y="0" width="4" height="16" rx="1"></rect>
                <rect id="Bar" x="10" y="4" width="4" height="12" rx="1"></rect>
                <rect id="Bar" x="5" y="8" width="4" height="8" rx="1"></rect>
                <rect id="Bar" x="0" y="10" width="4" height="6" rx="1"></rect>
            </g>
            <g id="Icon/Quality/3/Selected" transform="translate(57.000000, 144.000000)" fill="#FFFFFF" fill-rule="nonzero">
                <rect id="Bar" opacity="0.400000006" x="15" y="0" width="4" height="16" rx="1"></rect>
                <rect id="Bar" x="10" y="4" width="4" height="12" rx="1"></rect>
                <rect id="Bar" x="5" y="8" width="4" height="8" rx="1"></rect>
                <rect id="Bar" x="0" y="10" width="4" height="6" rx="1"></rect>
            </g>
            <g id="Icon/Quality/1/Selected" transform="translate(1.000000, 144.000000)" fill="#FFFFFF" fill-rule="nonzero">
                <rect id="Rectangle" opacity="0.400000006" x="15" y="0" width="4" height="16" rx="1"></rect>
                <rect id="Rectangle" opacity="0.400000006" x="10" y="4" width="4" height="12" rx="1"></rect>
                <rect id="Rectangle" opacity="0.400000006" x="5" y="8" width="4" height="8" rx="1"></rect>
                <rect id="Rectangle" x="0" y="10" width="4" height="6" rx="1"></rect>
            </g>
            <g id="Icon/Quality/2/Selected" transform="translate(29.000000, 144.000000)" fill="#FFFFFF" fill-rule="nonzero">
                <rect id="Bar" opacity="0.400000006" x="15" y="0" width="4" height="16" rx="1"></rect>
                <rect id="Bar" opacity="0.400000006" x="10" y="4" width="4" height="12" rx="1"></rect>
                <rect id="Bar" x="5" y="8" width="4" height="8" rx="1"></rect>
                <rect id="Bar" x="0" y="10" width="4" height="6" rx="1"></rect>
            </g>
            <g id="Icon/Social/Telegram/Normal" transform="translate(1.000000, 177.000000)" fill="#404040" fill-rule="nonzero">
                <path d="M11,22 C4.92486775,22 0,17.0751322 0,11 C0,4.92486775 4.92486775,0 11,0 C17.0751322,0 22,4.92486775 22,11 C22,17.0751322 17.0751322,22 11,22 Z M9.1705894,13.2373522 L9.1705167,13.2373083 L8.98333333,16.0416667 C9.2583333,16.0416667 9.3798375,15.9159 9.5333333,15.7666667 L10.8545757,14.4819236 L13.6033333,16.5127417 C14.1091958,16.7918575 14.474295,16.647345 14.6003,16.0430875 L16.4047583,7.5398125 C16.5895033,6.7991275 16.1224158,6.4631875 15.63848,6.68289417 L5.04273,10.7685692 C4.31947083,11.0586667 4.3236875,11.4621742 4.910895,11.6419692 L7.63000333,12.4906467 L13.9250283,8.51918833 C14.2222025,8.33898083 14.4949475,8.43586425 14.2710883,8.63454167 L9.1705894,13.2373522 Z" id="Logo"></path>
            </g>
            <g id="Icon/Social/Medium/Normal" transform="translate(34.000000, 178.000000)" fill="#404040" fill-rule="nonzero">
                <path d="M0,0 L20,0 L20,20 L0,20 L0,0 Z M4.77272618,6.68879543 L4.77272618,12.627263 C4.80927013,12.8414856 4.7417397,13.0603155 4.59082094,13.2167202 L3.17948718,14.9286544 L3.17948718,15.1544039 L7.18140247,15.1544039 L7.18140247,14.9286544 L5.77006871,13.2167202 C5.61804307,13.0605744 5.54633106,12.8431866 5.57561828,12.627263 L5.57561828,7.49146053 L9.0882712,15.1544039 L9.4959898,15.1544039 L12.5131078,7.49146053 L12.5131078,13.5992403 C12.5131078,13.7622816 12.5131078,13.7936357 12.4064737,13.9002397 L11.3213149,14.9537376 L11.3213149,15.1794872 L16.5902943,15.1794872 L16.5902943,14.9537376 L15.542771,13.925323 C15.4502999,13.8548361 15.4044295,13.7389861 15.4235917,13.6243236 L15.4235917,6.06798414 C15.4044295,5.95332166 15.4502999,5.83747156 15.542771,5.76698473 L16.6153846,4.73857007 L16.6153846,4.51282051 L12.9020087,4.51282051 L10.2549738,11.1159951 L7.24412842,4.51282051 L3.34884723,4.51282051 L3.34884723,4.73857007 L4.60336613,6.24983795 C4.72652308,6.36084421 4.78941926,6.52386228 4.77272618,6.68879543 Z" id="Logo"></path>
            </g>
            <g id="Icon/Social/Twitter/Normal" transform="translate(65.000000, 179.000000)" fill="#404040" fill-rule="nonzero">
                <path d="M22,2.11647098 C21.190541,2.47545265 20.3207286,2.71815355 19.4076228,2.82719192 C20.3395589,2.26864187 21.055269,1.38402282 21.3922016,0.33009254 C20.5201361,0.84736091 19.5542412,1.22291964 18.5260617,1.42538498 C17.7027616,0.54816928 16.5297341,0 15.2315739,0 C12.7387395,0 10.7178682,2.02095175 10.7178682,4.51346428 C10.7178682,4.8672958 10.7577819,5.21171221 10.8347123,5.54204616 C7.08355097,5.35382421 3.75775998,3.55690406 1.53160686,0.82619701 C1.14309229,1.49281978 0.92050916,2.26815904 0.92050916,3.0953217 C0.92050916,4.66120926 1.71733421,6.04273748 2.92842459,6.8521965 C2.1885731,6.8287794 1.49257837,6.62567029 0.88405574,6.28761111 C0.88373386,6.30644135 0.88365339,6.32535206 0.88365339,6.34434325 C0.88365339,8.5312265 2.43948206,10.3555068 4.50429057,10.7701745 C4.125513,10.873258 3.72677859,10.9283807 3.31516881,10.9283807 C3.0242657,10.9283807 2.74157065,10.9001353 2.46595706,10.8474268 C3.04035993,12.6406452 4.70723874,13.9455649 6.68232196,13.9820988 C5.13751783,15.1926259 3.19140422,15.91413 1.07670361,15.91413 C0.71241084,15.91413 0.35310728,15.8928052 0,15.8511211 C1.99753466,17.1317385 4.36998427,17.8789129 6.91890706,17.8789129 C15.2210322,17.8789129 19.760891,11.001368 19.760891,5.03684846 C19.760891,4.84114269 19.7564651,4.64648305 19.7478547,4.45295 C20.6296573,3.81658437 21.3948572,3.02161015 22,2.11647098" id="Logo"></path>
            </g>
            <g id="Icon/Social/Twitter/Hover" transform="translate(65.000000, 211.000000)" fill="url(#linearGradient-18)" fill-rule="nonzero">
                <path d="M22,2.11647098 C21.190541,2.47545265 20.3207286,2.71815355 19.4076228,2.82719192 C20.3395589,2.26864187 21.055269,1.38402282 21.3922016,0.33009254 C20.5201361,0.84736091 19.5542412,1.22291964 18.5260617,1.42538498 C17.7027616,0.54816928 16.5297341,0 15.2315739,0 C12.7387395,0 10.7178682,2.02095175 10.7178682,4.51346428 C10.7178682,4.8672958 10.7577819,5.21171221 10.8347123,5.54204616 C7.08355097,5.35382421 3.75775998,3.55690406 1.53160686,0.82619701 C1.14309229,1.49281978 0.92050916,2.26815904 0.92050916,3.0953217 C0.92050916,4.66120926 1.71733421,6.04273748 2.92842459,6.8521965 C2.1885731,6.8287794 1.49257837,6.62567029 0.88405574,6.28761111 C0.88373386,6.30644135 0.88365339,6.32535206 0.88365339,6.34434325 C0.88365339,8.5312265 2.43948206,10.3555068 4.50429057,10.7701745 C4.125513,10.873258 3.72677859,10.9283807 3.31516881,10.9283807 C3.0242657,10.9283807 2.74157065,10.9001353 2.46595706,10.8474268 C3.04035993,12.6406452 4.70723874,13.9455649 6.68232196,13.9820988 C5.13751783,15.1926259 3.19140422,15.91413 1.07670361,15.91413 C0.71241084,15.91413 0.35310728,15.8928052 0,15.8511211 C1.99753466,17.1317385 4.36998427,17.8789129 6.91890706,17.8789129 C15.2210322,17.8789129 19.760891,11.001368 19.760891,5.03684846 C19.760891,4.84114269 19.7564651,4.64648305 19.7478547,4.45295 C20.6296573,3.81658437 21.3948572,3.02161015 22,2.11647098" id="Logo"></path>
            </g>
            <g id="Icon/Social/Reddit/Normal" transform="translate(97.000000, 177.000000)" fill="#404040" fill-rule="nonzero">
                <path d="M11,22 C4.9258,22 0,17.0742 0,11 C0,4.9258 4.9258,0 11,0 C17.0742,0 22,4.9258 22,11 C22,17.0742 17.0742,22 11,22 Z M13.5212,13.2924 C12.8898,13.2924 12.375,12.7776 12.375,12.1462 C12.375,11.5148 12.8898,11 13.5212,11 C14.1526,11 14.6674,11.5148 14.6674,12.1462 C14.6674,12.7776 14.1526,13.2924 13.5212,13.2924 Z M13.7236,15.1734 C12.9404,15.9544 11.4422,16.016 11.0022,16.016 C10.5622,16.016 9.0618,15.9544 8.2808,15.1734 C8.1642,15.0568 8.1642,14.8698 8.2808,14.7532 C8.3974,14.6366 8.5844,14.6366 8.701,14.7532 C9.1938,15.246 10.2476,15.422 11.0022,15.422 C11.7546,15.422 12.8106,15.246 13.3034,14.7532 C13.42,14.6366 13.607,14.6366 13.7236,14.7532 C13.838,14.8698 13.838,15.0568 13.7236,15.1734 Z M7.3326,12.1462 C7.3326,11.5148 7.8474,11 8.4788,11 C9.1102,11 9.625,11.5148 9.625,12.1462 C9.625,12.7776 9.1102,13.2924 8.4788,13.2924 C7.8474,13.2924 7.3326,12.7776 7.3326,12.1462 Z M18.3326,11 C18.3326,10.1134 17.6154,9.3962 16.7288,9.3962 C16.2954,9.3962 15.9038,9.5678 15.6156,9.8472 C14.52,9.0552 13.0086,8.5448 11.3256,8.4854 L12.056,5.0468 L14.443,5.555 C14.4716,6.1622 14.9688,6.6462 15.5826,6.6462 C16.2162,6.6462 16.7288,6.1336 16.7288,5.5 C16.7288,4.8664 16.2162,4.3538 15.5826,4.3538 C15.1316,4.3538 14.7466,4.6156 14.5596,4.994 L11.8932,4.4264 C11.8184,4.411 11.7414,4.4242 11.6776,4.466 C11.6138,4.5078 11.5698,4.5716 11.5544,4.6464 L10.7536,8.4194 C10.7492,8.4414 10.7536,8.4612 10.7536,8.4832 C9.0398,8.5272 7.4998,9.0398 6.3866,9.8428 C6.0984,9.5656 5.709,9.3962 5.2778,9.3962 C4.3912,9.3962 3.674,10.1156 3.674,11 C3.674,11.6512 4.0634,12.2122 4.6222,12.463 C4.598,12.6214 4.5848,12.7842 4.5848,12.9492 C4.5848,15.4176 7.458,17.4174 11.0022,17.4174 C14.5464,17.4174 17.4196,15.4176 17.4196,12.9492 C17.4196,12.7864 17.4064,12.6258 17.3822,12.4674 C17.9388,12.2166 18.3326,11.6556 18.3326,11 Z" id="Logo"></path>
            </g>
            <g id="Icon/Social/Facebook/Normal" transform="translate(130.000000, 178.000000)" fill="#404040" fill-rule="nonzero">
                <path d="M18.8961131,0 L1.10380445,0 C0.49412672,0 0,0.49412672 0,1.10380445 L0,18.8961131 C0,19.5057159 0.49412672,19.9999925 1.10380445,19.9999925 L10.682624,19.9999925 L10.682624,12.2549271 L8.0762067,12.2549271 L8.0762067,9.2365128 L10.682624,9.2365128 L10.682624,7.01054459 C10.682624,4.42735741 12.2603225,3.02073736 14.5647485,3.02073736 C15.6686279,3.02073736 16.6173152,3.10286701 16.8937534,3.13958555 L16.8937534,5.83922298 L15.2955225,5.83997233 C14.042296,5.83997233 13.7995789,6.4354872 13.7995789,7.30938859 L13.7995789,9.2365128 L16.7885435,9.2365128 L16.3994019,12.2549271 L13.7995789,12.2549271 L13.7995789,19.9999925 L18.8961131,19.9999925 C19.5057159,19.9999925 19.9999176,19.5057159 19.9999176,18.8961131 L19.9999176,1.10380445 C19.9999176,0.49412672 19.5057159,0 18.8961131,0" id="Logo"></path>
            </g>
            <g id="Icon/Social/Github/Normal" transform="translate(161.000000, 177.000000)" fill="#404040" fill-rule="nonzero">
                <path d="M11,0 C4.92529297,0 0,4.92529297 0,11 C0,15.8608398 3.1515,19.9831543 7.52288281,21.4373672 C8.07275391,21.5380859 8.27350391,21.1983535 8.27350391,20.9083145 C8.27350391,20.6464629 8.26342773,19.7790527 8.25805664,18.8605957 C5.19921875,19.5252578 4.55266797,17.5634766 4.55266797,17.5634766 C4.05182422,16.2932129 3.33141016,15.954834 3.33141016,15.954834 C2.3317207,15.2727051 3.40725,15.2861328 3.40725,15.2861328 C4.51167578,15.3626602 5.09312891,16.4194336 5.09312891,16.4194336 C6.07470703,18.1005859 7.66856836,17.614502 8.29430078,17.3325195 C8.39428906,16.6235352 8.67895703,16.1374512 8.99254297,15.8635254 C6.55071484,15.585582 3.982,14.6416016 3.982,10.426625 C3.982,9.224832 4.41102148,8.24462891 5.11328125,7.47454297 C5.0011543,7.19524609 4.62249219,6.07603906 5.22203516,4.56207812 C5.22203516,4.56207812 6.14453125,4.26666797 8.24729297,5.69000781 C9.1241133,5.44495703 10.0647422,5.32410742 10.9999785,5.32006836 C11.9345488,5.32410742 12.8758223,5.44628906 13.7540176,5.69133984 C15.8527832,4.26666797 16.7766113,4.56341016 16.7766113,4.56341016 C17.3781738,6.07872461 16.9995117,7.19657812 16.8867188,7.47454297 C17.5916641,8.24462891 18.017334,9.2248535 18.017334,10.426625 C18.017334,14.6523437 15.4445801,15.582875 12.9940293,15.8554687 C13.3901582,16.1965332 13.7406113,16.8652344 13.7406113,17.8911133 C13.7406113,19.3614609 13.7258301,20.5471191 13.7258301,20.909668 C13.7258301,21.2023926 13.9258926,21.5447891 14.4831543,21.4373672 C18.851207,19.9804687 22,15.8581543 22,11 C22,4.92529297 17.074707,0 11,0 Z" id="Logo"></path>
            </g>
            <g id="Icon/Social/Github/Hover" transform="translate(161.000000, 209.000000)" fill="url(#linearGradient-19)" fill-rule="nonzero">
                <path d="M11,0 C4.92529297,0 0,4.92529297 0,11 C0,15.8608398 3.1515,19.9831543 7.52288281,21.4373672 C8.07275391,21.5380859 8.27350391,21.1983535 8.27350391,20.9083145 C8.27350391,20.6464629 8.26342773,19.7790527 8.25805664,18.8605957 C5.19921875,19.5252578 4.55266797,17.5634766 4.55266797,17.5634766 C4.05182422,16.2932129 3.33141016,15.954834 3.33141016,15.954834 C2.3317207,15.2727051 3.40725,15.2861328 3.40725,15.2861328 C4.51167578,15.3626602 5.09312891,16.4194336 5.09312891,16.4194336 C6.07470703,18.1005859 7.66856836,17.614502 8.29430078,17.3325195 C8.39428906,16.6235352 8.67895703,16.1374512 8.99254297,15.8635254 C6.55071484,15.585582 3.982,14.6416016 3.982,10.426625 C3.982,9.224832 4.41102148,8.24462891 5.11328125,7.47454297 C5.0011543,7.19524609 4.62249219,6.07603906 5.22203516,4.56207812 C5.22203516,4.56207812 6.14453125,4.26666797 8.24729297,5.69000781 C9.1241133,5.44495703 10.0647422,5.32410742 10.9999785,5.32006836 C11.9345488,5.32410742 12.8758223,5.44628906 13.7540176,5.69133984 C15.8527832,4.26666797 16.7766113,4.56341016 16.7766113,4.56341016 C17.3781738,6.07872461 16.9995117,7.19657812 16.8867188,7.47454297 C17.5916641,8.24462891 18.017334,9.2248535 18.017334,10.426625 C18.017334,14.6523437 15.4445801,15.582875 12.9940293,15.8554687 C13.3901582,16.1965332 13.7406113,16.8652344 13.7406113,17.8911133 C13.7406113,19.3614609 13.7258301,20.5471191 13.7258301,20.909668 C13.7258301,21.2023926 13.9258926,21.5447891 14.4831543,21.4373672 C18.851207,19.9804687 22,15.8581543 22,11 C22,4.92529297 17.074707,0 11,0 Z" id="Logo"></path>
            </g>
            <g id="Icon/Social/Facebook/Hover" transform="translate(130.000000, 210.000000)" fill="url(#linearGradient-20)" fill-rule="nonzero">
                <path d="M18.8961131,0 L1.10380445,0 C0.49412672,0 0,0.49412672 0,1.10380445 L0,18.8961131 C0,19.5057159 0.49412672,19.9999925 1.10380445,19.9999925 L10.682624,19.9999925 L10.682624,12.2549271 L8.0762067,12.2549271 L8.0762067,9.2365128 L10.682624,9.2365128 L10.682624,7.01054459 C10.682624,4.42735741 12.2603225,3.02073736 14.5647485,3.02073736 C15.6686279,3.02073736 16.6173152,3.10286701 16.8937534,3.13958555 L16.8937534,5.83922298 L15.2955225,5.83997233 C14.042296,5.83997233 13.7995789,6.4354872 13.7995789,7.30938859 L13.7995789,9.2365128 L16.7885435,9.2365128 L16.3994019,12.2549271 L13.7995789,12.2549271 L13.7995789,19.9999925 L18.8961131,19.9999925 C19.5057159,19.9999925 19.9999176,19.5057159 19.9999176,18.8961131 L19.9999176,1.10380445 C19.9999176,0.49412672 19.5057159,0 18.8961131,0" id="Logo"></path>
            </g>
            <g id="Icon/Social/Reddit/Hover" transform="translate(97.000000, 209.000000)" fill="url(#linearGradient-13)" fill-rule="nonzero">
                <path d="M11,22 C4.9258,22 0,17.0742 0,11 C0,4.9258 4.9258,0 11,0 C17.0742,0 22,4.9258 22,11 C22,17.0742 17.0742,22 11,22 Z M13.5212,13.2924 C12.8898,13.2924 12.375,12.7776 12.375,12.1462 C12.375,11.5148 12.8898,11 13.5212,11 C14.1526,11 14.6674,11.5148 14.6674,12.1462 C14.6674,12.7776 14.1526,13.2924 13.5212,13.2924 Z M13.7236,15.1734 C12.9404,15.9544 11.4422,16.016 11.0022,16.016 C10.5622,16.016 9.0618,15.9544 8.2808,15.1734 C8.1642,15.0568 8.1642,14.8698 8.2808,14.7532 C8.3974,14.6366 8.5844,14.6366 8.701,14.7532 C9.1938,15.246 10.2476,15.422 11.0022,15.422 C11.7546,15.422 12.8106,15.246 13.3034,14.7532 C13.42,14.6366 13.607,14.6366 13.7236,14.7532 C13.838,14.8698 13.838,15.0568 13.7236,15.1734 Z M7.3326,12.1462 C7.3326,11.5148 7.8474,11 8.4788,11 C9.1102,11 9.625,11.5148 9.625,12.1462 C9.625,12.7776 9.1102,13.2924 8.4788,13.2924 C7.8474,13.2924 7.3326,12.7776 7.3326,12.1462 Z M18.3326,11 C18.3326,10.1134 17.6154,9.3962 16.7288,9.3962 C16.2954,9.3962 15.9038,9.5678 15.6156,9.8472 C14.52,9.0552 13.0086,8.5448 11.3256,8.4854 L12.056,5.0468 L14.443,5.555 C14.4716,6.1622 14.9688,6.6462 15.5826,6.6462 C16.2162,6.6462 16.7288,6.1336 16.7288,5.5 C16.7288,4.8664 16.2162,4.3538 15.5826,4.3538 C15.1316,4.3538 14.7466,4.6156 14.5596,4.994 L11.8932,4.4264 C11.8184,4.411 11.7414,4.4242 11.6776,4.466 C11.6138,4.5078 11.5698,4.5716 11.5544,4.6464 L10.7536,8.4194 C10.7492,8.4414 10.7536,8.4612 10.7536,8.4832 C9.0398,8.5272 7.4998,9.0398 6.3866,9.8428 C6.0984,9.5656 5.709,9.3962 5.2778,9.3962 C4.3912,9.3962 3.674,10.1156 3.674,11 C3.674,11.6512 4.0634,12.2122 4.6222,12.463 C4.598,12.6214 4.5848,12.7842 4.5848,12.9492 C4.5848,15.4176 7.458,17.4174 11.0022,17.4174 C14.5464,17.4174 17.4196,15.4176 17.4196,12.9492 C17.4196,12.7864 17.4064,12.6258 17.3822,12.4674 C17.9388,12.2166 18.3326,11.6556 18.3326,11 Z" id="Logo"></path>
            </g>
            <g id="Icon/Social/Medium/Hover" transform="translate(34.000000, 210.000000)" fill="url(#linearGradient-13)" fill-rule="nonzero">
                <path d="M0,0 L20,0 L20,20 L0,20 L0,0 Z M4.77272618,6.68879543 L4.77272618,12.627263 C4.80927013,12.8414856 4.7417397,13.0603155 4.59082094,13.2167202 L3.17948718,14.9286544 L3.17948718,15.1544039 L7.18140247,15.1544039 L7.18140247,14.9286544 L5.77006871,13.2167202 C5.61804307,13.0605744 5.54633106,12.8431866 5.57561828,12.627263 L5.57561828,7.49146053 L9.0882712,15.1544039 L9.4959898,15.1544039 L12.5131078,7.49146053 L12.5131078,13.5992403 C12.5131078,13.7622816 12.5131078,13.7936357 12.4064737,13.9002397 L11.3213149,14.9537376 L11.3213149,15.1794872 L16.5902943,15.1794872 L16.5902943,14.9537376 L15.542771,13.925323 C15.4502999,13.8548361 15.4044295,13.7389861 15.4235917,13.6243236 L15.4235917,6.06798414 C15.4044295,5.95332166 15.4502999,5.83747156 15.542771,5.76698473 L16.6153846,4.73857007 L16.6153846,4.51282051 L12.9020087,4.51282051 L10.2549738,11.1159951 L7.24412842,4.51282051 L3.34884723,4.51282051 L3.34884723,4.73857007 L4.60336613,6.24983795 C4.72652308,6.36084421 4.78941926,6.52386228 4.77272618,6.68879543 Z" id="Logo"></path>
            </g>
            <g id="Icon/Social/Telegram/Hover" transform="translate(1.000000, 209.000000)" fill="url(#linearGradient-13)" fill-rule="nonzero">
                <path d="M11,22 C4.92486775,22 0,17.0751322 0,11 C0,4.92486775 4.92486775,0 11,0 C17.0751322,0 22,4.92486775 22,11 C22,17.0751322 17.0751322,22 11,22 Z M9.1705894,13.2373522 L9.1705167,13.2373083 L8.98333333,16.0416667 C9.2583333,16.0416667 9.3798375,15.9159 9.5333333,15.7666667 L10.8545757,14.4819236 L13.6033333,16.5127417 C14.1091958,16.7918575 14.474295,16.647345 14.6003,16.0430875 L16.4047583,7.5398125 C16.5895033,6.7991275 16.1224158,6.4631875 15.63848,6.68289417 L5.04273,10.7685692 C4.31947083,11.0586667 4.3236875,11.4621742 4.910895,11.6419692 L7.63000333,12.4906467 L13.9250283,8.51918833 C14.2222025,8.33898083 14.4949475,8.43586425 14.2710883,8.63454167 L9.1705894,13.2373522 Z" id="Logo"></path>
            </g>

            <g id="Icon/Social/Telegram/Alt" transform="translate(1.000000, 239.000000)" fill="#fff" fill-rule="nonzero">
                <path d="M11,22 C4.92486775,22 0,17.0751322 0,11 C0,4.92486775 4.92486775,0 11,0 C17.0751322,0 22,4.92486775 22,11 C22,17.0751322 17.0751322,22 11,22 Z M9.1705894,13.2373522 L9.1705167,13.2373083 L8.98333333,16.0416667 C9.2583333,16.0416667 9.3798375,15.9159 9.5333333,15.7666667 L10.8545757,14.4819236 L13.6033333,16.5127417 C14.1091958,16.7918575 14.474295,16.647345 14.6003,16.0430875 L16.4047583,7.5398125 C16.5895033,6.7991275 16.1224158,6.4631875 15.63848,6.68289417 L5.04273,10.7685692 C4.31947083,11.0586667 4.3236875,11.4621742 4.910895,11.6419692 L7.63000333,12.4906467 L13.9250283,8.51918833 C14.2222025,8.33898083 14.4949475,8.43586425 14.2710883,8.63454167 L9.1705894,13.2373522 Z" id="Logo"></path>
            </g>
            <g id="Icon/Social/Medium/Alt" transform="translate(34.000000, 239.000000)" fill="#fff" fill-rule="nonzero">
                <path d="M0,0 L20,0 L20,20 L0,20 L0,0 Z M4.77272618,6.68879543 L4.77272618,12.627263 C4.80927013,12.8414856 4.7417397,13.0603155 4.59082094,13.2167202 L3.17948718,14.9286544 L3.17948718,15.1544039 L7.18140247,15.1544039 L7.18140247,14.9286544 L5.77006871,13.2167202 C5.61804307,13.0605744 5.54633106,12.8431866 5.57561828,12.627263 L5.57561828,7.49146053 L9.0882712,15.1544039 L9.4959898,15.1544039 L12.5131078,7.49146053 L12.5131078,13.5992403 C12.5131078,13.7622816 12.5131078,13.7936357 12.4064737,13.9002397 L11.3213149,14.9537376 L11.3213149,15.1794872 L16.5902943,15.1794872 L16.5902943,14.9537376 L15.542771,13.925323 C15.4502999,13.8548361 15.4044295,13.7389861 15.4235917,13.6243236 L15.4235917,6.06798414 C15.4044295,5.95332166 15.4502999,5.83747156 15.542771,5.76698473 L16.6153846,4.73857007 L16.6153846,4.51282051 L12.9020087,4.51282051 L10.2549738,11.1159951 L7.24412842,4.51282051 L3.34884723,4.51282051 L3.34884723,4.73857007 L4.60336613,6.24983795 C4.72652308,6.36084421 4.78941926,6.52386228 4.77272618,6.68879543 Z" id="Logo"></path>
            </g>
            <g id="Icon/Social/Twitter/Alt" transform="translate(65.000000, 239.000000)" fill="#fff" fill-rule="nonzero">
                <path d="M22,2.11647098 C21.190541,2.47545265 20.3207286,2.71815355 19.4076228,2.82719192 C20.3395589,2.26864187 21.055269,1.38402282 21.3922016,0.33009254 C20.5201361,0.84736091 19.5542412,1.22291964 18.5260617,1.42538498 C17.7027616,0.54816928 16.5297341,0 15.2315739,0 C12.7387395,0 10.7178682,2.02095175 10.7178682,4.51346428 C10.7178682,4.8672958 10.7577819,5.21171221 10.8347123,5.54204616 C7.08355097,5.35382421 3.75775998,3.55690406 1.53160686,0.82619701 C1.14309229,1.49281978 0.92050916,2.26815904 0.92050916,3.0953217 C0.92050916,4.66120926 1.71733421,6.04273748 2.92842459,6.8521965 C2.1885731,6.8287794 1.49257837,6.62567029 0.88405574,6.28761111 C0.88373386,6.30644135 0.88365339,6.32535206 0.88365339,6.34434325 C0.88365339,8.5312265 2.43948206,10.3555068 4.50429057,10.7701745 C4.125513,10.873258 3.72677859,10.9283807 3.31516881,10.9283807 C3.0242657,10.9283807 2.74157065,10.9001353 2.46595706,10.8474268 C3.04035993,12.6406452 4.70723874,13.9455649 6.68232196,13.9820988 C5.13751783,15.1926259 3.19140422,15.91413 1.07670361,15.91413 C0.71241084,15.91413 0.35310728,15.8928052 0,15.8511211 C1.99753466,17.1317385 4.36998427,17.8789129 6.91890706,17.8789129 C15.2210322,17.8789129 19.760891,11.001368 19.760891,5.03684846 C19.760891,4.84114269 19.7564651,4.64648305 19.7478547,4.45295 C20.6296573,3.81658437 21.3948572,3.02161015 22,2.11647098" id="Logo"></path>
            </g>
            <g id="Icon/Social/Reddit/Alt" transform="translate(97.000000, 239.000000)" fill="#fff" fill-rule="nonzero">
                <path d="M11,22 C4.9258,22 0,17.0742 0,11 C0,4.9258 4.9258,0 11,0 C17.0742,0 22,4.9258 22,11 C22,17.0742 17.0742,22 11,22 Z M13.5212,13.2924 C12.8898,13.2924 12.375,12.7776 12.375,12.1462 C12.375,11.5148 12.8898,11 13.5212,11 C14.1526,11 14.6674,11.5148 14.6674,12.1462 C14.6674,12.7776 14.1526,13.2924 13.5212,13.2924 Z M13.7236,15.1734 C12.9404,15.9544 11.4422,16.016 11.0022,16.016 C10.5622,16.016 9.0618,15.9544 8.2808,15.1734 C8.1642,15.0568 8.1642,14.8698 8.2808,14.7532 C8.3974,14.6366 8.5844,14.6366 8.701,14.7532 C9.1938,15.246 10.2476,15.422 11.0022,15.422 C11.7546,15.422 12.8106,15.246 13.3034,14.7532 C13.42,14.6366 13.607,14.6366 13.7236,14.7532 C13.838,14.8698 13.838,15.0568 13.7236,15.1734 Z M7.3326,12.1462 C7.3326,11.5148 7.8474,11 8.4788,11 C9.1102,11 9.625,11.5148 9.625,12.1462 C9.625,12.7776 9.1102,13.2924 8.4788,13.2924 C7.8474,13.2924 7.3326,12.7776 7.3326,12.1462 Z M18.3326,11 C18.3326,10.1134 17.6154,9.3962 16.7288,9.3962 C16.2954,9.3962 15.9038,9.5678 15.6156,9.8472 C14.52,9.0552 13.0086,8.5448 11.3256,8.4854 L12.056,5.0468 L14.443,5.555 C14.4716,6.1622 14.9688,6.6462 15.5826,6.6462 C16.2162,6.6462 16.7288,6.1336 16.7288,5.5 C16.7288,4.8664 16.2162,4.3538 15.5826,4.3538 C15.1316,4.3538 14.7466,4.6156 14.5596,4.994 L11.8932,4.4264 C11.8184,4.411 11.7414,4.4242 11.6776,4.466 C11.6138,4.5078 11.5698,4.5716 11.5544,4.6464 L10.7536,8.4194 C10.7492,8.4414 10.7536,8.4612 10.7536,8.4832 C9.0398,8.5272 7.4998,9.0398 6.3866,9.8428 C6.0984,9.5656 5.709,9.3962 5.2778,9.3962 C4.3912,9.3962 3.674,10.1156 3.674,11 C3.674,11.6512 4.0634,12.2122 4.6222,12.463 C4.598,12.6214 4.5848,12.7842 4.5848,12.9492 C4.5848,15.4176 7.458,17.4174 11.0022,17.4174 C14.5464,17.4174 17.4196,15.4176 17.4196,12.9492 C17.4196,12.7864 17.4064,12.6258 17.3822,12.4674 C17.9388,12.2166 18.3326,11.6556 18.3326,11 Z" id="Logo"></path>
            </g>
            <g id="Icon/Social/Reddit/Alt" transform="translate(97.000000, 239.000000)" fill="#fff" fill-rule="nonzero">
                <path d="M11,22 C4.9258,22 0,17.0742 0,11 C0,4.9258 4.9258,0 11,0 C17.0742,0 22,4.9258 22,11 C22,17.0742 17.0742,22 11,22 Z M13.5212,13.2924 C12.8898,13.2924 12.375,12.7776 12.375,12.1462 C12.375,11.5148 12.8898,11 13.5212,11 C14.1526,11 14.6674,11.5148 14.6674,12.1462 C14.6674,12.7776 14.1526,13.2924 13.5212,13.2924 Z M13.7236,15.1734 C12.9404,15.9544 11.4422,16.016 11.0022,16.016 C10.5622,16.016 9.0618,15.9544 8.2808,15.1734 C8.1642,15.0568 8.1642,14.8698 8.2808,14.7532 C8.3974,14.6366 8.5844,14.6366 8.701,14.7532 C9.1938,15.246 10.2476,15.422 11.0022,15.422 C11.7546,15.422 12.8106,15.246 13.3034,14.7532 C13.42,14.6366 13.607,14.6366 13.7236,14.7532 C13.838,14.8698 13.838,15.0568 13.7236,15.1734 Z M7.3326,12.1462 C7.3326,11.5148 7.8474,11 8.4788,11 C9.1102,11 9.625,11.5148 9.625,12.1462 C9.625,12.7776 9.1102,13.2924 8.4788,13.2924 C7.8474,13.2924 7.3326,12.7776 7.3326,12.1462 Z M18.3326,11 C18.3326,10.1134 17.6154,9.3962 16.7288,9.3962 C16.2954,9.3962 15.9038,9.5678 15.6156,9.8472 C14.52,9.0552 13.0086,8.5448 11.3256,8.4854 L12.056,5.0468 L14.443,5.555 C14.4716,6.1622 14.9688,6.6462 15.5826,6.6462 C16.2162,6.6462 16.7288,6.1336 16.7288,5.5 C16.7288,4.8664 16.2162,4.3538 15.5826,4.3538 C15.1316,4.3538 14.7466,4.6156 14.5596,4.994 L11.8932,4.4264 C11.8184,4.411 11.7414,4.4242 11.6776,4.466 C11.6138,4.5078 11.5698,4.5716 11.5544,4.6464 L10.7536,8.4194 C10.7492,8.4414 10.7536,8.4612 10.7536,8.4832 C9.0398,8.5272 7.4998,9.0398 6.3866,9.8428 C6.0984,9.5656 5.709,9.3962 5.2778,9.3962 C4.3912,9.3962 3.674,10.1156 3.674,11 C3.674,11.6512 4.0634,12.2122 4.6222,12.463 C4.598,12.6214 4.5848,12.7842 4.5848,12.9492 C4.5848,15.4176 7.458,17.4174 11.0022,17.4174 C14.5464,17.4174 17.4196,15.4176 17.4196,12.9492 C17.4196,12.7864 17.4064,12.6258 17.3822,12.4674 C17.9388,12.2166 18.3326,11.6556 18.3326,11 Z" id="Logo"></path>
            </g>
            <g id="Icon/Social/Facebook/Alt" transform="translate(130.000000, 239.000000)" fill="#fff" fill-rule="nonzero">
                <path d="M18.8961131,0 L1.10380445,0 C0.49412672,0 0,0.49412672 0,1.10380445 L0,18.8961131 C0,19.5057159 0.49412672,19.9999925 1.10380445,19.9999925 L10.682624,19.9999925 L10.682624,12.2549271 L8.0762067,12.2549271 L8.0762067,9.2365128 L10.682624,9.2365128 L10.682624,7.01054459 C10.682624,4.42735741 12.2603225,3.02073736 14.5647485,3.02073736 C15.6686279,3.02073736 16.6173152,3.10286701 16.8937534,3.13958555 L16.8937534,5.83922298 L15.2955225,5.83997233 C14.042296,5.83997233 13.7995789,6.4354872 13.7995789,7.30938859 L13.7995789,9.2365128 L16.7885435,9.2365128 L16.3994019,12.2549271 L13.7995789,12.2549271 L13.7995789,19.9999925 L18.8961131,19.9999925 C19.5057159,19.9999925 19.9999176,19.5057159 19.9999176,18.8961131 L19.9999176,1.10380445 C19.9999176,0.49412672 19.5057159,0 18.8961131,0" id="Logo"></path>
            </g>
            <g id="Icon/Social/Github/Alt" transform="translate(161.000000, 239.000000)" fill="#fff" fill-rule="nonzero">
                <path d="M11,0 C4.92529297,0 0,4.92529297 0,11 C0,15.8608398 3.1515,19.9831543 7.52288281,21.4373672 C8.07275391,21.5380859 8.27350391,21.1983535 8.27350391,20.9083145 C8.27350391,20.6464629 8.26342773,19.7790527 8.25805664,18.8605957 C5.19921875,19.5252578 4.55266797,17.5634766 4.55266797,17.5634766 C4.05182422,16.2932129 3.33141016,15.954834 3.33141016,15.954834 C2.3317207,15.2727051 3.40725,15.2861328 3.40725,15.2861328 C4.51167578,15.3626602 5.09312891,16.4194336 5.09312891,16.4194336 C6.07470703,18.1005859 7.66856836,17.614502 8.29430078,17.3325195 C8.39428906,16.6235352 8.67895703,16.1374512 8.99254297,15.8635254 C6.55071484,15.585582 3.982,14.6416016 3.982,10.426625 C3.982,9.224832 4.41102148,8.24462891 5.11328125,7.47454297 C5.0011543,7.19524609 4.62249219,6.07603906 5.22203516,4.56207812 C5.22203516,4.56207812 6.14453125,4.26666797 8.24729297,5.69000781 C9.1241133,5.44495703 10.0647422,5.32410742 10.9999785,5.32006836 C11.9345488,5.32410742 12.8758223,5.44628906 13.7540176,5.69133984 C15.8527832,4.26666797 16.7766113,4.56341016 16.7766113,4.56341016 C17.3781738,6.07872461 16.9995117,7.19657812 16.8867188,7.47454297 C17.5916641,8.24462891 18.017334,9.2248535 18.017334,10.426625 C18.017334,14.6523437 15.4445801,15.582875 12.9940293,15.8554687 C13.3901582,16.1965332 13.7406113,16.8652344 13.7406113,17.8911133 C13.7406113,19.3614609 13.7258301,20.5471191 13.7258301,20.909668 C13.7258301,21.2023926 13.9258926,21.5447891 14.4831543,21.4373672 C18.851207,19.9804687 22,15.8581543 22,11 C22,4.92529297 17.074707,0 11,0 Z" id="Logo"></path>
            </g>

            <g id="Alert-icon" transform="translate(140.000000, 0.000000)">
                <polygon id="Path" points="0 0 24 0 24 24 0 24"></polygon>
                <path d="M12,2 C6.486,2 2,6.486 2,12 C2,17.515 6.486,22 12,22 C17.514,22 22,17.515 22,12 C22,6.486 17.514,2 12,2 Z" id="Shape" stroke="#FFFFFF" fill="url(#linearGradient-21)" fill-rule="nonzero"></path>
                <g id="Path" transform="translate(11.000000, 6.000000)">
                    <g id="path-10-link" fill="#000000" fill-rule="nonzero">
                        <polygon id="path-10" points="0 0 2 0 2 7 0 7"></polygon>
                    </g>
                    <g id="path-10-link" fill="#FFFFFF">
                        <polygon id="path-10" points="0 0 2 0 2 7 0 7"></polygon>
                    </g>
                </g>
                <g id="Path" transform="translate(10.000000, 14.000000)">
                    <g id="path-12-link" fill="#000000" fill-rule="nonzero">
                        <path d="M2,3.25 C1.31,3.25 0.75,2.691 0.75,2 C0.75,1.31 1.31,0.75 2,0.75 C2.69,0.75 3.25,1.31 3.25,2 C3.25,2.691 2.69,3.25 2,3.25 Z" id="path-12"></path>
                    </g>
                    <g id="path-12-link" fill="#FFFFFF">
                        <path d="M2,3.25 C1.31,3.25 0.75,2.691 0.75,2 C0.75,1.31 1.31,0.75 2,0.75 C2.69,0.75 3.25,1.31 3.25,2 C3.25,2.691 2.69,3.25 2,3.25 Z" id="path-12"></path>
                    </g>
                </g>
            </g>
        </g>
    </g>
</svg>
