<?xml version="1.0" encoding="UTF-8"?>
<svg width="348px" height="108px" viewBox="0 0 348 108" version="1.1" xmlns="http://www.w3.org/2000/svg" xmlns:xlink="http://www.w3.org/1999/xlink">
    <!-- Generator: Sketch 54.1 (76490) - https://sketchapp.com -->
    <title>client-connected</title>
    <desc>Created with Sketch.</desc>
    <defs>
        <linearGradient x1="82.9946157%" y1="50%" x2="0%" y2="50%" id="linearGradient-1">
            <stop stop-color="#FFFFFF" offset="15.4745566%"></stop>
            <stop stop-color="#FFFFFF" stop-opacity="0" offset="100%"></stop>
        </linearGradient>
        <path d="M273.566877,78.2473424 L260.493944,53.4128184 C259.844198,52.1784981 260.715628,50.6911422 262.109916,50.6541126 L264.204558,50.5985682 C264.955024,50.5783253 265.680311,50.8696249 266.2086,51.4028513 L283.779396,69.1387993 C284.829556,70.1988336 284.829309,71.906886 283.779149,72.9666734 L277.905019,78.8946199 C276.611451,80.200037 274.422755,79.8734359 273.566877,78.2473424 M257.297301,95.7919707 L251.645102,90.0879299 C250.690232,89.1241726 250.591733,87.60349 251.414531,86.5246941 L261.497446,73.3046302 C262.702637,71.7244534 265.140419,71.9283631 266.06616,73.6867758 L271.034792,83.1258698 C271.587521,84.1762764 271.395461,85.4634255 270.560073,86.3067132 L261.160724,95.7919707 C260.09674,96.8658294 258.361286,96.8658294 257.297301,95.7919707 M198.066221,95.7818493 L183.538025,81.1255304 C182.716214,80.2968077 182.515267,79.036073 183.038125,77.9928255 L184.002129,76.0690139 C184.647185,74.7818647 186.183667,74.2204959 187.506611,74.7887769 L205.764677,82.6309074 C206.592412,82.9861448 207.190317,83.728465 207.361394,84.612732 L208.010152,87.9634178 C208.180982,88.8466974 207.904248,89.7568852 207.271041,90.3952756 L201.928163,95.782343 C200.864178,96.8552142 199.129712,96.8549674 198.066221,95.7818493 M139.477728,96.4291269 L127.683304,84.5268233 C126.430469,83.2626325 126.709672,81.1558946 128.248376,80.2615062 L138.066653,74.5549967 C139.854443,73.5159459 142.10214,74.7734714 142.15176,76.8409578 L142.590684,95.1039606 C142.60278,95.5991699 142.412448,96.0775925 142.063876,96.4291269 C141.351673,97.147995 140.189931,97.147995 139.477728,96.4291269 M128.839862,56.8360823 L138.11652,53.8811195 C139.844568,53.3306127 141.617052,54.5938161 141.660747,56.4067857 L141.878975,65.4876799 C141.902674,66.4795797 141.384506,67.4058136 140.526654,67.9042322 L123.743107,77.6593122 C122.672458,78.2816565 121.316433,78.1019394 120.444756,77.2223628 L116.220912,72.9597612 C115.170506,71.8997269 115.170506,70.1914276 116.220912,69.1313934 L127.733665,57.5129835 C128.042245,57.2014411 128.421922,56.969142 128.839862,56.8360823 M172.318547,16.4172774 L174.501566,18.6193048 C174.849151,18.9698517 175.09478,19.408776 175.212041,19.8884329 L181.597426,46.0283739 C182.126703,48.1948529 179.966889,50.0421366 177.908784,49.1835434 L164.895839,43.7550029 C163.764708,43.2832456 163.088794,42.1128632 163.245799,40.8975514 L165.978091,19.7114313 C166.054619,19.1194513 166.323454,18.5691914 166.743616,18.1453258 L168.455618,16.4177711 C169.519356,15.3439125 171.254563,15.3436656 172.318547,16.4172774 M231.544443,16.4130807 L232.431179,17.3079629 C232.766173,17.6464135 233.006619,18.0665761 233.128323,18.5269776 L235.01313,25.6556709 C235.264191,26.6060975 234.98326,27.6177464 234.277969,28.3023005 L224.120254,38.1605696 C222.665237,39.572632 220.232392,38.9532501 219.629796,37.0173422 L217.159428,29.0816503 C216.860476,28.1211022 217.116227,27.0739049 217.82448,26.3592335 L227.681021,16.4130807 C228.745005,15.3392221 230.480706,15.3392221 231.544443,16.4130807 M244.665515,44.5067039 L241.258544,31.6199065 C240.725564,29.6040146 243.206548,28.1847932 244.673908,29.6659775 L256.597936,41.7018345 C258.274389,43.3940876 257.119312,46.2710413 254.738309,46.3344854 L247.366701,46.5300017 C246.105966,46.5635752 244.987672,45.7259655 244.665515,44.5067039 M247.705399,51.0362582 L252.36323,50.9125793 C253.398577,50.8851774 254.359619,51.4480274 254.841745,52.3643868 L260.955086,63.9778594 C261.448321,64.9144616 261.353031,66.0520112 260.711184,66.8935707 L248.666934,82.6857112 C247.665653,83.9985342 245.735177,84.1234475 244.572941,82.9505963 L242.049249,80.4036999 C241.442951,79.7917239 241.162514,78.9286871 241.293105,78.077253 L245.089874,53.3422153 C245.28934,52.0422292 246.390601,51.0713129 247.705399,51.0362582 M210.233163,63.7759246 L215.301282,61.8748245 C216.314659,61.4946538 217.456899,61.7516393 218.209834,62.5290142 L224.606082,69.1323808 C225.636246,70.1958712 225.626124,71.8881243 224.583371,72.9395183 L215.752797,81.8431642 C214.21434,83.3944579 211.567216,82.5899279 211.151991,80.4449262 L208.518445,66.8390138 C208.26615,65.5363122 208.990943,64.2420039 210.233163,63.7759246 M194.407202,60.9562433 L202.172064,64.1953466 C203.012636,64.5461404 203.621897,65.2941385 203.794949,66.1882801 L205.271442,73.8158857 C205.602734,75.5266536 203.884807,76.9108204 202.283647,76.2230571 L189.827133,70.8727724 C188.389397,70.2553654 187.76804,68.554719 188.469134,67.1557404 L190.929135,62.2473424 C191.569253,60.9700677 193.088701,60.4059834 194.407202,60.9562433 M193.031429,55.4924012 L189.315631,53.9420949 C188.518013,53.6095691 187.926033,52.9173623 187.720889,52.0777776 L182.953451,32.5609523 C182.459476,30.5388888 184.940953,29.1500316 186.406338,30.6280067 L196.794378,41.1068921 C197.351797,41.6690016 197.636431,42.4458828 197.574221,43.2348603 L196.789687,53.1960718 C196.644284,55.04064 194.739234,56.204604 193.031429,55.4924012 M218.123679,55.9962508 L206.556123,60.3353802 C205.908599,60.5785413 205.192693,60.5654575 204.554056,60.2990912 L202.696403,59.524185 C201.611436,59.0716831 200.939966,57.9728912 201.032293,56.8007807 L202.109114,43.1316711 C202.159721,42.4905652 202.435715,41.88797 202.888464,41.4312715 L209.891503,34.3642942 C211.335164,32.9075494 213.810223,33.5121195 214.419731,35.4702452 L219.765078,52.641862 C220.193387,54.0183759 219.473285,55.4899326 218.123679,55.9962508 M238.484286,48.3585238 L227.458349,52.494731 C225.994939,53.0435098 224.371068,52.2491013 223.906716,50.756808 L222.945428,47.6682919 C222.640551,46.6897227 222.912348,45.6227763 223.648003,44.9088454 L234.73368,34.1497693 C235.632759,33.2771049 237.13863,33.6955395 237.458812,34.9066545 L240.158271,45.1171987 C240.515236,46.4672982 239.791678,47.8680049 238.484286,48.3585238 M170.196257,50.8560474 L185.200654,57.1152855 C186.655177,57.7220774 187.291099,59.4345733 186.584821,60.8436733 L180.507028,72.9711169 C179.673615,74.6339932 177.45406,74.9882431 176.144446,73.6670267 L172.743894,70.2363569 C172.470122,69.9603629 172.259053,69.6288245 172.124265,69.2644531 L166.59846,54.3084412 C165.775169,52.0799994 168.003857,49.9414161 170.196257,50.8560474 M150.066468,66.6568281 L162.071714,70.6641723 C163.983676,71.3023159 164.561091,73.726274 163.142363,75.1578387 L149.783068,88.6395785 C148.745745,89.6862821 146.959684,88.976301 146.924382,87.5027695 L146.486692,69.3017296 C146.441516,67.41791 148.279172,66.0601577 150.066468,66.6568281 M160.052613,49.6175304 L165.099502,63.2772592 C165.717156,64.9487757 164.125623,66.591656 162.435345,66.0275716 L148.090075,61.2391496 C147.002885,60.8762594 146.260071,59.8707821 146.232423,58.7248392 L146.1043,53.3901069 C146.07517,52.182448 146.846373,51.1001959 147.997501,50.7336028 L156.6765,47.9689723 C158.061654,47.5275793 159.54901,48.2538534 160.052613,49.6175304 M156.8182,43.1869687 L140.939904,48.2449663 C139.430824,48.7258575 138.289325,46.8605527 139.404163,45.7355932 L157.123077,27.8539953 C158.334192,26.6317714 160.405382,27.643914 160.185179,29.3504852 L158.689923,40.943715 C158.554642,41.9916529 157.824912,42.8662923 156.8182,43.1869687 M231.222286,69.4772499 L224.465123,62.5008717 C223.102186,61.0937466 223.629241,58.7507599 225.463441,58.0627498 L236.327681,53.9872711 C238.273711,53.2572941 240.286146,54.8915341 239.970901,56.9459368 L237.951059,70.1040378 C237.612362,72.311743 234.903769,73.1920602 233.331492,71.6057118 L231.223273,69.4779905 C231.223026,69.4777437 231.222779,69.4774968 231.222286,69.4772499 M288.558931,67.5507228 L231.215867,9.66850786 C230.792742,9.24093932 230.215327,9 229.612979,9 C229.010384,9 228.432969,9.24093932 228.010091,9.66850786 L201.934087,35.9824881 C200.87035,37.0560999 199.135143,37.0560999 198.071159,35.9827349 L171.989724,9.67369201 C171.140512,8.81855492 169.630198,8.81929551 168.783948,9.6744326 L111.441378,67.5433169 C109.519541,69.4826809 109.519541,72.6084736 111.441378,74.5480845 L139.167914,102.52815 C140.014164,103.383287 141.52744,103.383287 142.373937,102.52815 L168.449694,76.2139231 C169.513431,75.1400645 171.248638,75.1400645 172.312622,76.2134294 L198.394057,102.523954 C198.818663,102.951275 199.394597,103.191721 199.996945,103.191721 C200.599293,103.191721 201.175227,102.951275 201.599833,102.523954 L227.688427,76.2191073 C228.752658,75.1459892 230.487371,75.146483 231.551109,76.2200947 L257.625878,102.535803 C258.049003,102.963125 258.626418,103.204311 259.228766,103.204311 C259.831361,103.204311 260.408776,102.963125 260.831901,102.535803 L288.558684,74.5552435 C290.480274,72.6158795 290.480521,69.4903337 288.558931,67.5507228" id="path-2"></path>
        <filter x="-5.8%" y="-11.1%" width="111.7%" height="122.3%" filterUnits="objectBoundingBox" id="filter-3">
            <feMorphology radius="0.5" operator="dilate" in="SourceAlpha" result="shadowSpreadOuter1"></feMorphology>
            <feOffset dx="0" dy="0" in="shadowSpreadOuter1" result="shadowOffsetOuter1"></feOffset>
            <feGaussianBlur stdDeviation="3" in="shadowOffsetOuter1" result="shadowBlurOuter1"></feGaussianBlur>
            <feColorMatrix values="0 0 0 0 1   0 0 0 0 1   0 0 0 0 1  0 0 0 0.696596372 0" type="matrix" in="shadowBlurOuter1"></feColorMatrix>
        </filter>
        <linearGradient x1="38.2390203%" y1="50%" x2="100%" y2="50%" id="linearGradient-4">
            <stop stop-color="#FFFFFF" offset="24.107897%"></stop>
            <stop stop-color="#FFFFFF" stop-opacity="0" offset="100%"></stop>
        </linearGradient>
    </defs>
    <g id="Screens" stroke="none" stroke-width="1" fill="none" fill-rule="evenodd">
        <g id="1.2-Client-Connected" transform="translate(-226.000000, -261.000000)">
            <g id="Window" transform="translate(80.000000, 69.000000)">
                <g id="Connected" transform="translate(0.000000, 22.000000)">
                    <g id="Connection-graphic" transform="translate(120.000000, 168.000000)">
                        <g id="client-connected">
                            <rect id="Area" x="0" y="0" width="400" height="112"></rect>
                            <path d="M286,71 L316.542073,75.1326681 C316.843389,75.1734393 317.150034,75.1449713 317.438694,75.0494285 L372,56.9903722" id="Node-path" stroke="url(#linearGradient-1)" stroke-width="4" stroke-linecap="round" stroke-linejoin="round"></path>
                            <g id="Logo">
                                <use fill="black" fill-opacity="1" filter="url(#filter-3)" xlink:href="#path-2"></use>
                                <use fill="#FFFFFF" fill-rule="evenodd" xlink:href="#path-2"></use>
                            </g>
                            <path d="M28,56 L83.6184864,43.2818702 C83.8704396,43.2242567 84.1311713,43.2160243 84.3862572,43.2576285 L131.495473,50.9410815" id="Client-path" stroke="url(#linearGradient-4)" stroke-width="4" stroke-linecap="round" stroke-linejoin="round"></path>
                        </g>
                    </g>
                </g>
            </g>
        </g>
    </g>
</svg>