<?xml version="1.0" encoding="UTF-8"?>
<svg width="258px" height="143px" viewBox="0 0 258 143" version="1.1" xmlns="http://www.w3.org/2000/svg" xmlns:xlink="http://www.w3.org/1999/xlink">
    <!-- Generator: Sketch 54.1 (76490) - https://sketchapp.com -->
    <title>Logo</title>
    <desc>Created with Sketch.</desc>
    <defs>
        <path d="M226.089169,101.32979 L208.658592,68.2170912 C207.792264,66.5713309 208.954171,64.5881896 210.813222,64.5388168 L213.606077,64.4647576 C214.606699,64.4377671 215.573748,64.8261666 216.278133,65.537135 L239.705861,89.1850658 C241.106074,90.5984448 241.105745,92.8758479 239.705532,94.2888978 L231.873359,102.192827 C230.148602,103.933383 227.23034,103.497915 226.089169,101.32979 M204.396402,124.722628 L196.860136,117.11724 C195.586976,115.83223 195.455644,113.804653 196.552708,112.366259 L209.996595,94.739507 C211.603516,92.6326046 214.853892,92.9044842 216.088213,95.2490344 L222.713057,107.834493 C223.450028,109.235035 223.193948,110.951234 222.080097,112.075618 L209.547632,124.722628 C208.128986,126.154439 205.815047,126.154439 204.396402,124.722628 M125.421628,124.709132 L106.0507,105.167374 C104.954952,104.06241 104.687023,102.381431 105.384167,100.990434 L106.669506,98.4253519 C107.52958,96.709153 109.578222,95.9606612 111.342148,96.7183693 L135.686236,107.174543 C136.789883,107.648193 137.587089,108.637953 137.815191,109.816976 L138.680203,114.284557 C138.907976,115.462263 138.538997,116.675847 137.694722,117.527034 L130.570883,124.709791 C129.152238,126.140286 126.839616,126.139956 125.421628,124.709132 M47.3036376,125.572169 L31.577739,109.702431 C29.9072923,108.016843 30.2795633,105.20786 32.3311681,104.015342 L45.4222044,96.4066622 C47.8059237,95.0212612 50.8028533,96.6979618 50.8690129,99.4546104 L51.4542453,123.805281 C51.4703737,124.46556 51.2165975,125.103457 50.7518348,125.572169 C49.802231,126.53066 48.2532414,126.53066 47.3036376,125.572169 M33.1198165,72.781443 L45.4886931,68.8414927 C47.7927576,68.1074836 50.1560695,69.7917547 50.2143294,72.2090476 L50.5052999,84.3169066 C50.5368985,85.6394396 49.8460083,86.8744182 48.7022048,87.5389762 L26.3241428,100.54575 C24.8966102,101.375542 23.0885779,101.135919 21.9263419,99.9631504 L16.29455,94.2796815 C14.8940079,92.8663025 14.8940079,90.5885702 16.29455,89.1751912 L31.6448861,73.683978 C32.0563261,73.2685881 32.562562,72.958856 33.1198165,72.781443 M91.0913963,18.8897032 L94.0020881,21.8257397 C94.4655342,22.2931356 94.7930405,22.878368 94.9493877,23.5179105 L103.463235,58.3711652 C104.168937,61.2598038 101.289186,63.7228488 98.545045,62.5780579 L81.1944517,55.3400038 C79.6862769,54.7109942 78.7850586,53.1504842 78.9943993,51.5300686 L82.6374544,23.2819085 C82.7394916,22.4926018 83.0979382,21.7589218 83.658155,21.1937677 L85.9408246,18.8903615 C87.3591409,17.45855 89.6727508,17.4582208 91.0913963,18.8897032 M170.059258,18.8841076 L171.241572,20.0772839 C171.688231,20.5285514 172.008825,21.0887682 172.171097,21.7026368 L174.684173,31.2075612 C175.018921,32.4747967 174.644346,33.8236619 173.703959,34.7364006 L160.160338,47.8807595 C158.220316,49.7635094 154.976522,48.9376668 154.173062,46.3564563 L150.879237,35.7755337 C150.480634,34.494803 150.821636,33.0985399 151.765973,32.1456446 L164.908028,18.8841076 C166.326673,17.4522961 168.640941,17.4522961 170.059258,18.8841076 M187.55402,56.3422719 L183.011392,39.1598753 C182.300752,36.4720195 185.608731,34.5797242 187.565211,36.5546367 L203.463914,52.602446 C205.699186,54.8587835 204.159083,58.6947217 200.984412,58.7793138 L191.155601,59.0400023 C189.474622,59.0847669 187.983563,57.967954 187.55402,56.3422719 M191.607198,65.0483442 L197.817639,64.883439 C199.198103,64.8469031 200.479492,65.5973699 201.122326,66.8191824 L209.273448,82.3038125 C209.931094,83.5526155 209.804041,85.0693482 208.948246,86.1914276 L192.889245,107.247615 C191.554205,108.998046 188.980235,109.164597 187.430587,107.600795 L184.065666,104.204933 C183.257268,103.388965 182.883352,102.23825 183.057473,101.103004 L188.119832,68.1229537 C188.385787,66.3896389 189.854134,65.0950838 191.607198,65.0483442 M141.644217,82.0345661 L148.40171,79.499766 C149.752879,78.9928718 151.275865,79.3355191 152.279779,80.372019 L160.808109,89.1765078 C162.181661,90.5944949 162.168166,92.8508324 160.777827,94.2526911 L149.003729,106.124219 C146.952453,108.192611 143.422955,107.119904 142.869321,104.259902 L139.357927,86.118685 C139.021534,84.3817495 139.987924,82.6560052 141.644217,82.0345661 M120.542936,78.2749911 L130.896086,82.5937955 C132.016848,83.0615206 132.829196,84.0588514 133.059931,85.2510402 L135.02859,95.4211809 C135.470312,97.7022048 133.179743,99.5477605 131.044862,98.6307428 L114.436178,91.4970299 C112.519196,90.6738206 111.69072,88.4062919 112.625512,86.5409871 L115.905513,79.9964565 C116.759004,78.2934236 118.784935,77.5413112 120.542936,78.2749911 M118.708572,70.9898683 L113.754175,68.9227933 C112.690684,68.4794254 111.901378,67.556483 111.627852,66.4370368 L105.271268,40.414603 C104.612634,37.7185184 107.921271,35.8667088 109.875118,37.8373423 L123.725837,51.8091895 C124.469062,52.5586688 124.848575,53.5945104 124.765628,54.6464804 L123.719583,67.9280957 C123.525712,70.38752 120.985646,71.939472 118.708572,70.9898683 M152.164905,71.6616677 L136.741497,77.4471737 C135.878131,77.7713885 134.92359,77.7539434 134.072074,77.3987883 L131.595205,76.3655799 C130.148581,75.7622442 129.253288,74.2971883 129.376391,72.7343743 L130.812152,54.5088948 C130.879628,53.6540869 131.24762,52.8506267 131.851285,52.2416953 L141.188671,42.8190589 C143.113552,40.8767325 146.413631,41.682826 147.226307,44.2936602 L154.353437,67.1891493 C154.924516,69.0245013 153.96438,70.9865768 152.164905,71.6616677 M179.312381,61.4780317 L164.611133,66.9929747 C162.659919,67.7246797 160.494757,66.6654683 159.875622,64.6757441 L158.593903,60.5577225 C158.187401,59.2529637 158.549797,57.8303684 159.53067,56.8784606 L174.311573,42.5330258 C175.510345,41.3694732 177.518173,41.927386 177.945083,43.542206 L181.544361,57.1562649 C182.020315,58.9563976 181.05557,60.8240065 179.312381,61.4780317 M88.2616759,64.8080632 L108.267539,73.153714 C110.206903,73.9627698 111.054799,76.2460977 110.113095,78.1248978 L102.009371,94.2948225 C100.898153,96.5119909 97.9387469,96.9843241 96.1925951,95.2227022 L91.6585253,90.6484759 C91.2934956,90.2804839 91.0120706,89.8384326 90.8323536,89.3526042 L83.4646136,69.4112549 C82.3668914,66.4399992 85.3384763,63.5885548 88.2616759,64.8080632 M61.4219575,85.8757708 L77.428952,91.2188964 C79.9782348,92.0697545 80.7481215,95.3016987 78.8564846,97.2104516 L61.0440909,115.186105 C59.6609939,116.581709 57.2795787,115.635068 57.2325099,113.670359 L56.6489233,89.4023061 C56.5886885,86.8905466 59.0388965,85.0802102 61.4219575,85.8757708 M74.7368172,63.1567072 L81.4660022,81.3696789 C82.2895407,83.5983676 80.1674973,85.7888747 77.913793,85.0367622 L58.786766,78.6521994 C57.3371803,78.1683459 56.3467617,76.8277095 56.3098967,75.2997855 L56.1390667,68.1868092 C56.1002268,66.5765973 57.1284979,65.1335946 58.663334,64.6448038 L70.2353334,60.9586297 C72.0822057,60.3701058 74.065347,61.3384712 74.7368172,63.1567072 M70.4242667,54.5826249 L49.2532054,61.3266217 C47.2410987,61.96781 45.7190996,59.4807369 47.2055503,57.9807909 L70.8307695,34.1386605 C72.4455896,32.5090285 75.2071755,33.858552 74.9135719,36.1339803 L72.9198978,51.59162 C72.7395224,52.9888705 71.7665489,54.1550563 70.4242667,54.5826249 M169.629714,89.6363332 L160.620164,80.3344956 C158.802915,78.4583288 159.505655,75.3343465 161.951255,74.4169997 L176.436908,68.9830281 C179.031614,68.0097254 181.714862,70.1887121 181.294535,72.9279157 L178.601412,90.4720504 C178.149816,93.4156573 174.538359,94.5894136 172.44199,92.4742824 L169.631031,89.6373207 C169.630702,89.6369915 169.630373,89.6366624 169.629714,89.6363332 M246.078575,87.0676305 L169.621156,9.89134381 C169.05699,9.32125242 168.287103,9 167.483972,9 C166.680512,9 165.910625,9.32125242 165.346787,9.89134381 L130.578783,44.9766508 C129.160467,46.4081331 126.846857,46.4081331 125.428211,44.9769799 L90.6529657,9.89825601 C89.5206826,8.75807323 87.5069302,8.75906068 86.3785969,9.89924346 L9.92183667,87.0577559 C7.35938778,89.6435746 7.35938778,93.8112981 9.92183667,96.397446 L46.8905518,133.7042 C48.0188851,134.844383 50.0365873,134.844383 51.1652498,133.7042 L85.932925,98.6185642 C87.3512413,97.1867527 89.6648512,97.1867527 91.0834966,98.6179059 L125.858742,133.698605 C126.424884,134.268367 127.192796,134.588961 127.995927,134.588961 C128.799058,134.588961 129.56697,134.268367 130.133111,133.698605 L164.917902,98.6254764 C166.336877,97.1946523 168.649828,97.1953106 170.068145,98.626793 L204.834503,133.714404 C205.39867,134.284166 206.168557,134.605748 206.971688,134.605748 C207.775148,134.605748 208.545035,134.284166 209.109201,133.714404 L246.078246,96.4069914 C248.640365,93.8211727 248.640695,89.6537783 246.078575,87.0676305" id="path-1"></path>
        <filter x="-5.6%" y="-10.7%" width="111.2%" height="121.5%" filterUnits="objectBoundingBox" id="filter-2">
            <feMorphology radius="0.5" operator="dilate" in="SourceAlpha" result="shadowSpreadOuter1"></feMorphology>
            <feOffset dx="0" dy="0" in="shadowSpreadOuter1" result="shadowOffsetOuter1"></feOffset>
            <feGaussianBlur stdDeviation="4" in="shadowOffsetOuter1" result="shadowBlurOuter1"></feGaussianBlur>
            <feColorMatrix values="0 0 0 0 1   0 0 0 0 1   0 0 0 0 1  0 0 0 0.6 0" type="matrix" in="shadowBlurOuter1"></feColorMatrix>
        </filter>
    </defs>
    <g id="Screens" stroke="none" stroke-width="1" fill="none" fill-rule="evenodd">
        <g id="0.0-Onboarding-Intro" transform="translate(-271.000000, -203.000000)">
            <g id="Window" transform="translate(80.000000, 69.000000)">
                <g id="Logo" transform="translate(192.000000, 134.000000)">
                    <rect id="Area" x="0" y="0" width="256" height="144"></rect>
                    <g>
                        <use fill="black" fill-opacity="1" filter="url(#filter-2)" xlink:href="#path-1"></use>
                        <use fill="#FFFFFF" fill-rule="evenodd" xlink:href="#path-1"></use>
                    </g>
                </g>
            </g>
        </g>
    </g>
</svg>