<svg width="20" height="20" viewBox="0 0 20 20" fill="none" xmlns="http://www.w3.org/2000/svg">
  <circle cx="10" cy="10" r="10" fill="#F6F6FA"/>
  <path d="M11 6.8V6.8C11 6.05005 11 5.67508 10.809 5.41222C10.7473 5.32732 10.6727 5.25266 10.5878 5.19098C10.3249 5 9.94995 5 9.2 5H7C6.05719 5 5.58579 5 5.29289 5.29289C5 5.58579 5 6.05719 5 7V9.2C5 9.94995 5 10.3249 5.19098 10.5878C5.25266 10.6727 5.32732 10.7473 5.41222 10.809C5.67508 11 6.05005 11 6.8 11V11" stroke="#9090BB"/>
  <rect x="9" y="9" width="6" height="6" rx="1" stroke="#9090BB"/>
</svg>
