<svg width="20" height="20" viewBox="0 0 20 20" fill="none" xmlns="http://www.w3.org/2000/svg">
  <circle cx="10" cy="10" r="10" fill="#F6F6FA"/>
  <path d="M12 14H8C7.60218 14 7.22064 13.842 6.93934 13.5607C6.65804 13.2794 6.5 12.8978 6.5 12.5V7.5C6.5 7.36739 6.44732 7.24021 6.35355 7.14645C6.25979 7.05268 6.13261 7 6 7C5.86739 7 5.74021 7.05268 5.64645 7.14645C5.55268 7.24021 5.5 7.36739 5.5 7.5V12.5C5.5 13.163 5.76339 13.7989 6.23223 14.2678C6.70107 14.7366 7.33696 15 8 15H12C12.1326 15 12.2598 14.9473 12.3536 14.8536C12.4473 14.7598 12.5 14.6326 12.5 14.5C12.5 14.3674 12.4473 14.2402 12.3536 14.1464C12.2598 14.0527 12.1326 14 12 14ZM14.5 8.47C14.4948 8.42407 14.4847 8.37882 14.47 8.335V8.29C14.446 8.23859 14.4139 8.19133 14.375 8.15L11.375 5.15C11.3337 5.11111 11.2864 5.07904 11.235 5.055H11.19L11.03 5H9C8.60218 5 8.22064 5.15804 7.93934 5.43934C7.65804 5.72064 7.5 6.10218 7.5 6.5V11.5C7.5 11.8978 7.65804 12.2794 7.93934 12.5607C8.22064 12.842 8.60218 13 9 13H13C13.3978 13 13.7794 12.842 14.0607 12.5607C14.342 12.2794 14.5 11.8978 14.5 11.5V8.5C14.5 8.5 14.5 8.5 14.5 8.47ZM11.5 6.705L12.795 8H12C11.8674 8 11.7402 7.94732 11.6464 7.85355C11.5527 7.75979 11.5 7.63261 11.5 7.5V6.705ZM13.5 11.5C13.5 11.6326 13.4473 11.7598 13.3536 11.8536C13.2598 11.9473 13.1326 12 13 12H9C8.86739 12 8.74021 11.9473 8.64645 11.8536C8.55268 11.7598 8.5 11.6326 8.5 11.5V6.5C8.5 6.36739 8.55268 6.24021 8.64645 6.14645C8.74021 6.05268 8.86739 6 9 6H10.5V7.5C10.5 7.89782 10.658 8.27936 10.9393 8.56066C11.2206 8.84196 11.6022 9 12 9H13.5V11.5Z" fill="#9090BB"/>
</svg>
