<svg width="20" height="20" viewBox="0 0 20 20" fill="none" xmlns="http://www.w3.org/2000/svg">
  <circle cx="10" cy="10" r="10" fill="#F6F6FA"/>
  <path d="M13 9.41C12.8674 9.41 12.7402 9.46268 12.6464 9.55645C12.5527 9.65021 12.5 9.77739 12.5 9.91V13.5C12.5 13.6326 12.4473 13.7598 12.3536 13.8536C12.2598 13.9473 12.1326 14 12 14H6.5C6.36739 14 6.24021 13.9473 6.14645 13.8536C6.05268 13.7598 6 13.6326 6 13.5V8C6 7.86739 6.05268 7.74021 6.14645 7.64645C6.24021 7.55268 6.36739 7.5 6.5 7.5H10.09C10.2226 7.5 10.3498 7.44732 10.4436 7.35355C10.5373 7.25979 10.59 7.13261 10.59 7C10.59 6.86739 10.5373 6.74021 10.4436 6.64645C10.3498 6.55268 10.2226 6.5 10.09 6.5H6.5C6.10218 6.5 5.72064 6.65804 5.43934 6.93934C5.15804 7.22064 5 7.60218 5 8V13.5C5 13.8978 5.15804 14.2794 5.43934 14.5607C5.72064 14.842 6.10218 15 6.5 15H12C12.3978 15 12.7794 14.842 13.0607 14.5607C13.342 14.2794 13.5 13.8978 13.5 13.5V9.91C13.5 9.77739 13.4473 9.65021 13.3536 9.55645C13.2598 9.46268 13.1326 9.41 13 9.41ZM14.96 5.31C14.9093 5.18783 14.8122 5.09074 14.69 5.04C14.6299 5.01438 14.5653 5.00079 14.5 5H11.5C11.3674 5 11.2402 5.05268 11.1464 5.14645C11.0527 5.24021 11 5.36739 11 5.5C11 5.63261 11.0527 5.75979 11.1464 5.85355C11.2402 5.94732 11.3674 6 11.5 6H13.295L8.145 11.145C8.09814 11.1915 8.06094 11.2468 8.03555 11.3077C8.01017 11.3686 7.9971 11.434 7.9971 11.5C7.9971 11.566 8.01017 11.6314 8.03555 11.6923C8.06094 11.7532 8.09814 11.8085 8.145 11.855C8.19148 11.9019 8.24678 11.9391 8.30771 11.9644C8.36864 11.9898 8.43399 12.0029 8.5 12.0029C8.56601 12.0029 8.63136 11.9898 8.69229 11.9644C8.75322 11.9391 8.80852 11.9019 8.855 11.855L14 6.705V8.5C14 8.63261 14.0527 8.75979 14.1464 8.85355C14.2402 8.94732 14.3674 9 14.5 9C14.6326 9 14.7598 8.94732 14.8536 8.85355C14.9473 8.75979 15 8.63261 15 8.5V5.5C14.9992 5.43466 14.9856 5.37011 14.96 5.31Z" fill="#9090BB"/>
</svg>
