<svg width="48" height="48" viewBox="0 0 48 48" fill="none" xmlns="http://www.w3.org/2000/svg">
  <rect opacity="0.05" width="48" height="48" rx="24" fill="white"/>
  <path d="M18.4727 25.5262C18.4727 23.9457 18.4727 23.1554 18.8944 22.6136C18.9961 22.483 19.1136 22.3654 19.2442 22.2638C19.7861 21.842 20.5763 21.842 22.1569 21.842H25.8411C27.4216 21.842 28.2119 21.842 28.7537 22.2638C28.8844 22.3654 29.0019 22.483 29.1036 22.6136C29.5253 23.1554 29.5253 23.9457 29.5253 25.5263V27.3684C29.5253 28.7885 29.5253 29.4986 29.347 30.0756C28.9569 31.338 27.9686 32.3263 26.7062 32.7164C26.1292 32.8947 25.4191 32.8947 23.999 32.8947V32.8947C22.5788 32.8947 21.8687 32.8947 21.2918 32.7164C20.0294 32.3263 19.041 31.338 18.6509 30.0756C18.4727 29.4986 18.4727 28.7885 18.4727 27.3684V25.5262Z" stroke="white" stroke-width="2" stroke-linecap="round" stroke-linejoin="round"/>
  <path d="M20.6836 19.6315C20.6836 18.4019 20.6836 17.7872 20.9447 17.3276C21.1228 17.0143 21.3822 16.7548 21.6956 16.5768C22.1551 16.3157 22.7698 16.3157 23.9994 16.3157V16.3157C25.2289 16.3157 25.8437 16.3157 26.3032 16.5768C26.6166 16.7548 26.876 17.0143 27.0541 17.3276C27.3152 17.7872 27.3152 18.4019 27.3152 19.6315V21.842H20.6836V19.6315Z" stroke="white" stroke-width="2" stroke-linecap="round" stroke-linejoin="round"/>
  <path d="M24 21.842V26.2631" stroke="white" stroke-width="2" stroke-linecap="round" stroke-linejoin="round"/>
  <path d="M27.3164 13L25.1059 16.3158" stroke="white" stroke-width="2" stroke-linecap="round" stroke-linejoin="round"/>
  <path d="M20.6836 13L22.8941 16.3158" stroke="white" stroke-width="2" stroke-linecap="round" stroke-linejoin="round"/>
  <path d="M18.4727 27.3684H12.9463" stroke="white" stroke-width="2" stroke-linecap="round" stroke-linejoin="round"/>
  <path d="M35.0527 27.3684H29.5264" stroke="white" stroke-width="2" stroke-linecap="round" stroke-linejoin="round"/>
  <path d="M32.8418 19.6316V20.7369C32.8418 21.0301 32.8418 21.1767 32.8316 21.3004C32.7105 22.7617 31.5508 23.9213 30.0895 24.0424C29.9659 24.0526 29.8193 24.0526 29.526 24.0526V24.0526" stroke="white" stroke-width="2" stroke-linecap="round" stroke-linejoin="round"/>
  <path d="M32.8418 34V34C32.8418 33.7068 32.8418 33.5601 32.8316 33.4365C32.7105 31.9752 31.5508 30.8155 30.0895 30.6945C29.9659 30.6842 29.8193 30.6842 29.526 30.6842V30.6842" stroke="white" stroke-width="2" stroke-linecap="round" stroke-linejoin="round"/>
  <path d="M15.1582 19.6316V20.7369C15.1582 21.0301 15.1582 21.1767 15.1684 21.3004C15.2895 22.7617 16.4492 23.9213 17.9105 24.0424C18.0341 24.0526 18.1807 24.0526 18.474 24.0526V24.0526" stroke="white" stroke-width="2" stroke-linecap="round" stroke-linejoin="round"/>
  <path d="M15.1582 34V34C15.1582 33.7068 15.1582 33.5601 15.1684 33.4365C15.2895 31.9752 16.4492 30.8155 17.9105 30.6945C18.0341 30.6842 18.1807 30.6842 18.474 30.6842V30.6842" stroke="white" stroke-width="2" stroke-linecap="round" stroke-linejoin="round"/>
</svg>
