<svg xmlns="http://www.w3.org/2000/svg" width="30" height="30" viewBox="0 0 30 30" fill="none">
  <g clip-path="url(#clip0_1882_31825)">
    <path d="M30 0H0V30H30V0Z" fill="white" fill-opacity="0.01"/>
    <path fill-rule="evenodd" clip-rule="evenodd" d="M5.49825 5.49824C7.92897 3.06757 11.2896 1.5625 15 1.5625C18.7104 1.5625 22.071 3.06757 24.5017 5.49825L23.9068 6.09317L24.5017 5.49825C26.9324 7.92896 28.4375 11.2896 28.4375 15C28.4375 18.7104 26.9324 22.071 24.5017 24.5017C22.071 26.9324 18.7104 28.4375 15 28.4375C11.2896 28.4375 7.92896 26.9324 5.49825 24.5017L6.16116 23.8388L5.49825 24.5017C3.06757 22.071 1.5625 18.7104 1.5625 15C1.5625 11.2896 3.06757 7.92897 5.49824 5.49825L5.49825 5.49824ZM6.82407 6.82408C6.82407 6.82408 6.82408 6.82407 6.82408 6.82407C8.91754 4.73065 11.8069 3.4375 15 3.4375C18.1931 3.4375 21.0825 4.73065 23.1759 6.82408C25.2693 8.91754 26.5625 11.8069 26.5625 15C26.5625 18.1931 25.2693 21.0825 23.1759 23.1759C21.0825 25.2693 18.1931 26.5625 15 26.5625C11.8069 26.5625 8.91754 25.2693 6.82408 23.1759C4.73065 21.0825 3.4375 18.1931 3.4375 15C3.4375 11.8069 4.73065 8.91754 6.82407 6.82408Z" fill="currentColor"/>
    <path fill-rule="evenodd" clip-rule="evenodd" d="M10.3125 11.6406C10.3125 9.0518 12.4112 6.95312 15 6.95312C17.5888 6.95312 19.6875 9.0518 19.6875 11.6406C19.6875 13.9084 18.0771 15.8 15.9375 16.2344V17.8906C15.9375 18.4084 15.5178 18.8281 15 18.8281C14.4822 18.8281 14.0625 18.4084 14.0625 17.8906V15.3906C14.0625 14.8729 14.4822 14.4531 15 14.4531C16.5533 14.4531 17.8125 13.1939 17.8125 11.6406C17.8125 10.0873 16.5533 8.82813 15 8.82813C13.4467 8.82813 12.1875 10.0873 12.1875 11.6406C12.1875 12.1584 11.7678 12.5781 11.25 12.5781C10.7322 12.5781 10.3125 12.1584 10.3125 11.6406Z" fill="currentColor"/>
    <path fill-rule="evenodd" clip-rule="evenodd" d="M15 23.5156C15.8629 23.5156 16.5625 22.8161 16.5625 21.9531C16.5625 21.0902 15.8629 20.3906 15 20.3906C14.1371 20.3906 13.4375 21.0902 13.4375 21.9531C13.4375 22.8161 14.1371 23.5156 15 23.5156Z" fill="currentColor"/>
  </g>
  <defs>
    <clipPath id="clip0_1882_31825">
      <rect width="30" height="30" fill="white"/>
    </clipPath>
  </defs>
</svg>
