<svg xmlns="http://www.w3.org/2000/svg" width="30" height="30" viewBox="0 0 30 30" fill="none">
  <g clip-path="url(#clip0_1882_31813)">
    <path d="M30 16.7015C30 15.546 29.1971 14.5788 28.1192 14.3251C26.7013 8.70919 21.3577 4.52148 15 4.52148C4.78709 4.52148 1.99273 13.2685 1.75532 14.3582C0.741063 14.6549 0 15.5913 0 16.7015C0 18.05 1.09315 19.1434 2.44174 19.1434C3.79042 19.1434 4.88356 18.05 4.88356 16.7015C4.88356 15.8238 4.42018 15.0547 3.72508 14.6244C3.72508 14.6244 5.04897 9.2207 10.8139 9.2207C14.3095 9.2207 17.244 11.5054 18.0077 14.5629C17.2545 14.9787 16.7443 15.7803 16.7443 16.7015C16.7443 18.05 17.8375 19.1434 19.1861 19.1434C20.5347 19.1434 21.6278 18.05 21.6278 16.7015C21.6278 15.5913 20.8869 14.655 19.8726 14.3582C19.0034 10.3685 15.272 7.36014 10.8139 7.36014C10.5862 7.36014 10.3603 7.3683 10.1366 7.38372C11.6171 6.74116 13.2645 6.38189 15 6.38189C20.4297 6.38189 25.0016 9.89358 26.2748 14.6242C25.5798 15.0545 25.1164 15.8237 25.1164 16.7014C25.1164 17.5832 25.5841 18.3557 26.2847 18.785C25.3381 21.5838 22.5376 23.6182 19.2386 23.6182C15.9179 23.6182 13.1023 21.5567 12.1741 18.7292C12.8263 18.2909 13.2555 17.5462 13.2555 16.7014C13.2555 15.3528 12.1623 14.2595 10.8136 14.2595C9.46504 14.2595 8.3719 15.3528 8.3719 16.7014C8.3719 17.8875 9.21782 18.8755 10.3389 19.0965C11.4402 22.776 15.0132 25.4787 19.2387 25.4787C23.4738 25.4787 27.053 22.7638 28.1454 19.0717C29.2104 18.8086 30 17.8474 30 16.7015Z" fill="currentColor"/>
  </g>
  <defs>
    <clipPath id="clip0_1882_31813">
      <rect width="30" height="30" fill="white"/>
    </clipPath>
  </defs>
</svg>
