<svg xmlns="http://www.w3.org/2000/svg" width="30" height="30" viewBox="0 0 30 30" fill="none">
  <path fill-rule="evenodd" clip-rule="evenodd" d="M15 10.3125C12.4112 10.3125 10.3125 12.4112 10.3125 15C10.3125 17.5889 12.4112 19.6875 15 19.6875C17.5889 19.6875 19.6875 17.5889 19.6875 15C19.6875 12.4112 17.5889 10.3125 15 10.3125ZM12.1875 15C12.1875 13.4467 13.4467 12.1875 15 12.1875C16.5532 12.1875 17.8125 13.4467 17.8125 15C17.8125 16.5532 16.5532 17.8125 15 17.8125C13.4467 17.8125 12.1875 16.5532 12.1875 15Z" fill="currentColor"/>
  <path fill-rule="evenodd" clip-rule="evenodd" d="M14.9685 1.5625C14.413 1.56249 13.9491 1.56249 13.5684 1.58846C13.172 1.61551 12.7976 1.67381 12.4346 1.82416C11.5924 2.17305 10.9232 2.84224 10.5743 3.68453C10.3926 4.12303 10.3435 4.58515 10.3247 5.08745C10.3096 5.49124 10.1058 5.82814 9.80506 6.00176C9.50434 6.17539 9.11069 6.18341 8.75345 5.9946C8.30905 5.75971 7.88424 5.57124 7.41366 5.50929C6.50979 5.39029 5.59565 5.63524 4.87236 6.19024C4.56066 6.42941 4.32296 6.7245 4.10136 7.05425C3.88847 7.37101 3.65659 7.77269 3.3788 8.25384L3.34724 8.30851C3.06944 8.78965 2.83754 9.1913 2.66965 9.53404C2.49489 9.89084 2.35817 10.2442 2.30689 10.6338C2.18789 11.5377 2.43284 12.4518 2.98782 13.1751C3.27672 13.5515 3.65229 13.8253 4.07784 14.0926C4.42006 14.3076 4.60997 14.6526 4.60995 15C4.60994 15.3472 4.42002 15.6922 4.07784 15.9072C3.65224 16.1746 3.27664 16.4484 2.98771 16.8249C2.43271 17.5481 2.18777 18.4622 2.30676 19.3661C2.35805 19.7556 2.49476 20.1091 2.66952 20.4659C2.83741 20.8086 3.06931 21.2102 3.3471 21.6914L3.37867 21.7461C3.65646 22.2273 3.88835 22.6289 4.10124 22.9456C4.32284 23.2754 4.56054 23.5705 4.87224 23.8096C5.59552 24.3646 6.50966 24.6096 7.41354 24.4906C7.88409 24.4286 8.30887 24.2402 8.75325 24.0054C9.11054 23.8165 9.50424 23.8245 9.805 23.9983C10.1058 24.1719 10.3096 24.5087 10.3247 24.9126C10.3435 25.4149 10.3927 25.877 10.5743 26.3155C10.9232 27.1578 11.5924 27.827 12.4346 28.1759C12.7976 28.3263 13.172 28.3845 13.5684 28.4115C13.9491 28.4375 14.413 28.4375 14.9685 28.4375H15.0316C15.5872 28.4375 16.051 28.4375 16.4319 28.4115C16.8282 28.3845 17.2026 28.3263 17.5656 28.1759C18.4079 27.827 19.0771 27.1578 19.426 26.3155C19.6076 25.877 19.6567 25.4149 19.6755 24.9125C19.6906 24.5088 19.8944 24.1719 20.1951 23.9981C20.4959 23.8245 20.8896 23.8165 21.2469 24.0053C21.6912 24.2401 22.116 24.4286 22.5866 24.4905C23.4905 24.6095 24.4046 24.3646 25.1279 23.8096C25.4396 23.5704 25.6772 23.2754 25.8989 22.9456C26.1117 22.6289 26.3436 22.2273 26.6214 21.7461L26.653 21.6914C26.9307 21.2102 27.1627 20.8085 27.3306 20.4658C27.5054 20.109 27.642 19.7556 27.6934 19.3661C27.8124 18.4621 27.5674 17.548 27.0124 16.8247C26.7235 16.4482 26.3479 16.1746 25.9224 15.9072C25.5801 15.6922 25.3902 15.3472 25.3902 14.9999C25.3902 14.6526 25.5801 14.3078 25.9222 14.0928C26.348 13.8254 26.7236 13.5518 27.0125 13.1751C27.5675 12.4519 27.8125 11.5377 27.6935 10.6339C27.6421 10.2443 27.5055 9.89093 27.3307 9.53413C27.1629 9.19141 26.931 8.78979 26.6531 8.30869L26.6216 8.25398C26.3437 7.77281 26.1119 7.3711 25.899 7.05434C25.6774 6.72459 25.4397 6.4295 25.128 6.19031C24.4047 5.63533 23.4906 5.39038 22.5866 5.50938C22.1161 5.57133 21.6914 5.75978 21.247 5.99465C20.8897 6.18349 20.496 6.17545 20.1952 6.0018C19.8945 5.82816 19.6906 5.49121 19.6755 5.08739C19.6567 4.5851 19.6076 4.123 19.426 3.68453C19.0771 2.84224 18.4079 2.17305 17.5656 1.82416C17.2026 1.67381 16.8282 1.61551 16.4319 1.58846C16.051 1.56249 15.5872 1.56249 15.0316 1.5625H14.9685ZM13.1521 3.55644C13.2486 3.51649 13.3951 3.47965 13.696 3.45911C14.0054 3.43801 14.4049 3.4375 15.0001 3.4375C15.5954 3.4375 15.9949 3.43801 16.3041 3.45911C16.6051 3.47965 16.7516 3.51649 16.848 3.55644C17.2309 3.71503 17.5351 4.0192 17.6936 4.40206C17.7437 4.52283 17.7851 4.71109 17.8019 5.15746C17.8389 6.14794 18.3501 7.10161 19.2577 7.6256C20.1652 8.1496 21.2469 8.1155 22.1231 7.65235C22.518 7.44363 22.7019 7.3854 22.8314 7.36834C23.2422 7.31425 23.6577 7.42559 23.9865 7.67785C24.0694 7.7414 24.1745 7.84986 24.3427 8.1002C24.5157 8.35754 24.7159 8.70325 25.0135 9.21875C25.3111 9.73426 25.5105 10.0805 25.6469 10.3589C25.7795 10.6298 25.8209 10.7751 25.8345 10.8786C25.8886 11.2894 25.7772 11.705 25.525 12.0337C25.4454 12.1374 25.3031 12.2675 24.9247 12.5051C24.0856 13.0325 23.5154 13.952 23.5152 14.9999C23.5152 16.0479 24.0855 16.9675 24.9247 17.4949C25.303 17.7325 25.4452 17.8625 25.5249 17.9662C25.7771 18.295 25.8885 18.7105 25.8344 19.1214C25.8207 19.2249 25.7794 19.3701 25.6467 19.641C25.5104 19.9194 25.311 20.2656 25.0134 20.7811C24.7157 21.2966 24.5156 21.6424 24.3426 21.8997C24.1744 22.15 24.0692 22.2585 23.9864 22.322C23.6576 22.5744 23.2421 22.6856 22.8312 22.6316C22.7017 22.6145 22.5179 22.5562 22.123 22.3476C21.2467 21.8844 20.1651 21.8504 19.2575 22.3744C18.3501 22.8984 17.8389 23.852 17.8019 24.8425C17.7851 25.2889 17.7437 25.4771 17.6936 25.598C17.5351 25.9807 17.2309 26.285 16.848 26.4436C16.7516 26.4835 16.6051 26.5204 16.3041 26.5409C15.9949 26.562 15.5954 26.5625 15.0001 26.5625C14.4049 26.5625 14.0054 26.562 13.696 26.5409C13.3951 26.5204 13.2486 26.4835 13.1521 26.4436C12.7694 26.285 12.4651 25.9807 12.3065 25.598C12.2565 25.4771 12.2151 25.2889 12.1984 24.8425C12.1613 23.8521 11.6501 22.8984 10.7425 22.3744C9.83492 21.8504 8.7534 21.8845 7.8771 22.3476C7.48219 22.5564 7.29841 22.6146 7.16881 22.6316C6.75795 22.6858 6.34244 22.5744 6.01367 22.3221C5.93085 22.2586 5.82569 22.1501 5.65745 21.8997C5.48451 21.6425 5.28432 21.2967 4.9867 20.7812C4.68906 20.2658 4.48976 19.9195 4.35337 19.6411C4.2207 19.3703 4.17935 19.2249 4.16572 19.1214C4.11164 18.7105 4.22297 18.295 4.47525 17.9662C4.55482 17.8626 4.69714 17.7325 5.07537 17.4949C5.9146 16.9676 6.4849 16.048 6.48495 15.0001C6.48501 13.952 5.91469 13.0324 5.07539 12.505C4.69724 12.2674 4.55494 12.1373 4.47536 12.0336C4.2231 11.7049 4.11176 11.2894 4.16585 10.8785C4.17947 10.775 4.22082 10.6297 4.3535 10.3588C4.48989 10.0804 4.68919 9.73418 4.98681 9.21866C5.28445 8.70316 5.48462 8.35745 5.65757 8.10011C5.82581 7.84979 5.93097 7.74131 6.01379 7.67778C6.34256 7.4255 6.75807 7.31416 7.16892 7.36825C7.29854 7.38531 7.48232 7.44354 7.87729 7.6523C8.75354 8.11544 9.83501 8.14953 10.7425 7.62556C11.6501 7.1016 12.1613 6.14796 12.1984 5.15753C12.2151 4.71111 12.2565 4.52284 12.3065 4.40206C12.4651 4.0192 12.7694 3.71503 13.1521 3.55644Z" fill="currentColor"/>
</svg>
