<svg xmlns="http://www.w3.org/2000/svg" width="28" height="30" viewBox="0 0 28 30" fill="none">
  <g clip-path="url(#clip0_1882_31800)">
    <path d="M3.73333 25V26H5.6V25H3.73333ZM13.0667 25V26H14.9333V25H13.0667ZM5.6 25V23.9998H3.73333V25H5.6ZM13.0667 23.9994V25H14.9333V23.9994H13.0667ZM9.33333 20C11.3954 20 13.0667 21.7904 13.0667 23.9994H14.9333C14.9333 20.6854 12.426 18 9.33333 18V20ZM5.6 23.9998C5.6 21.7906 7.27141 20 9.33333 20V18C6.2406 18 3.73333 20.686 3.73333 23.9998H5.6ZM9.33333 8C7.27147 8 5.6 9.79086 5.6 12H7.46667C7.46667 10.8954 8.30241 10 9.33333 10V8ZM13.0667 12C13.0667 9.79086 11.3952 8 9.33333 8V10C10.3643 10 11.2 10.8954 11.2 12H13.0667ZM9.33333 16C11.3952 16 13.0667 14.2091 13.0667 12H11.2C11.2 13.1046 10.3643 14 9.33333 14V16ZM9.33333 14C8.30241 14 7.46667 13.1046 7.46667 12H5.6C5.6 14.2091 7.27147 16 9.33333 16V14ZM2.8 6H25.2V4H2.8V6ZM26.1333 7V23H28V7H26.1333ZM25.2 24H2.8V26H25.2V24ZM1.86667 23V7H0V23H1.86667ZM2.8 24C2.28454 24 1.86667 23.5522 1.86667 23H0C0 24.6568 1.2536 26 2.8 26V24ZM26.1333 23C26.1333 23.5522 25.7154 24 25.2 24V26C26.7463 26 28 24.6568 28 23H26.1333ZM25.2 6C25.7154 6 26.1333 6.44772 26.1333 7H28C28 5.34314 26.7463 4 25.2 4V6ZM2.8 4C1.2536 4 0 5.34314 0 7H1.86667C1.86667 6.44772 2.28454 6 2.8 6V4ZM16.8 12H22.4V10H16.8V12ZM16.8 18H22.4V16H16.8V18Z" fill="currentColor"/>
  </g>
  <defs>
    <clipPath id="clip0_1882_31800">
      <rect width="28" height="30" fill="white"/>
    </clipPath>
  </defs>
</svg>
