<svg width="48" height="48" viewBox="0 0 50 50" fill="none" xmlns="http://www.w3.org/2000/svg">
<rect opacity="0.05" x="1" y="1" width="48" height="48" rx="24" fill="white" stroke="none"/>
<path d="M34.9672 25.8531C35.4638 25.303 35.4638 24.4096 34.9672 23.8594L29.882 18.226C29.3854 17.6759 28.5789 17.6759 28.0824 18.226C27.5858 18.7762 27.5858 19.6696 28.0824 20.2197L30.9984 23.4501H22.6277C21.9245 23.4501 21.3564 24.0795 21.3564 24.8585C21.3564 25.6375 21.9245 26.2668 22.6277 26.2668H30.9984L28.0824 29.4973C27.5858 30.0474 27.5858 30.9408 28.0824 31.491C28.5789 32.0411 29.3854 32.0411 29.882 31.491L34.9672 25.8575V25.8531ZM21.3564 17.8167C22.0596 17.8167 22.6277 17.1874 22.6277 16.4084C22.6277 15.6294 22.0596 15 21.3564 15H18.8139C16.7083 15 15 16.8925 15 19.2251V30.4919C15 32.8245 16.7083 34.717 18.8139 34.717H21.3564C22.0596 34.717 22.6277 34.0876 22.6277 33.3086C22.6277 32.5296 22.0596 31.9003 21.3564 31.9003H18.8139C18.1107 31.9003 17.5426 31.2709 17.5426 30.4919V19.2251C17.5426 18.4461 18.1107 17.8167 18.8139 17.8167H21.3564Z" fill="white"/>
</svg>
