<svg width="48" height="48" viewBox="0 0 240 240" fill="none" xmlns="http://www.w3.org/2000/svg">
<g clip-path="url(#clip0_7144_23285)">
<path d="M236.382 106.64L164.833 10.7281L46.177 24.5625L2.58034 134.005L74.13 229.917L192.802 216.076L236.382 106.64Z" fill="#302925"/>
<path d="M164.833 10.7281L46.177 24.5625L2.58034 134.005L121.247 120.176L164.833 10.7281Z" fill="url(#paint0_linear_7144_23285)"/>
<path d="M236.38 106.64L164.83 10.7279L121.245 120.176L192.799 216.076L236.38 106.64Z" fill="url(#paint1_linear_7144_23285)"/>
<path d="M121.246 120.176L192.801 216.076L74.129 229.917L2.57935 134.005L121.246 120.176Z" fill="url(#paint2_linear_7144_23285)"/>
<path d="M145.426 27.6245L115.724 104.668L95.0209 107.303L111.841 63.6595L75.7613 109.775L61.8043 111.558L59.3699 70.3748L42.5327 114.025L21.8411 116.665L51.5378 39.6342L78.2672 36.2085L80.7253 80.2709L119.064 31.0016L145.426 27.6245Z" fill="#EDD5E7"/>
<path d="M216.5 103.61L185.905 182.512L173.536 166.945L172.174 98.9987L154.92 143.486L142.556 127.907L173.139 49L185.515 64.584L186.85 132.631L204.136 88.0309L216.5 103.61Z" fill="white"/>
</g>
<defs>
<linearGradient id="paint0_linear_7144_23285" x1="158.5" y1="8" x2="0.999993" y2="129.5" gradientUnits="userSpaceOnUse">
<stop stop-color="#4D0F3E"/>
<stop offset="1" stop-color="#8E3779"/>
</linearGradient>
<linearGradient id="paint1_linear_7144_23285" x1="233.998" y1="105.5" x2="124.498" y2="118.5" gradientUnits="userSpaceOnUse">
<stop stop-color="#681955"/>
<stop offset="1" stop-color="#A44C8E"/>
</linearGradient>
<linearGradient id="paint2_linear_7144_23285" x1="120.391" y1="119.824" x2="74.985" y2="230.269" gradientUnits="userSpaceOnUse">
<stop stop-color="#782665"/>
<stop offset="1" stop-color="#370A2D"/>
</linearGradient>
<clipPath id="clip0_7144_23285">
<rect width="240" height="240" fill="white"/>
</clipPath>
</defs>
</svg>
