<svg xmlns="http://www.w3.org/2000/svg" width="28" height="26" viewBox="0 0 28 26" fill="none">
  <path fill-rule="evenodd" clip-rule="evenodd" d="M2.33398 7.04175C2.33398 4.34936 4.68449 2.16675 7.58398 2.16675H14.0007C16.5779 2.16675 18.6673 4.10685 18.6673 6.50008V7.58341C18.6673 8.18172 18.145 8.66675 17.5007 8.66675C16.8563 8.66675 16.334 8.18172 16.334 7.58341V6.50008C16.334 5.30346 15.2894 4.33341 14.0007 4.33341H7.58398C5.97316 4.33341 4.66732 5.54598 4.66732 7.04175V18.9584C4.66732 20.4542 5.97316 21.6667 7.58398 21.6667H14.0007C15.2894 21.6667 16.334 20.6967 16.334 19.5001V18.4167C16.334 17.8184 16.8563 17.3334 17.5007 17.3334C18.145 17.3334 18.6673 17.8184 18.6673 18.4167V19.5001C18.6673 21.8933 16.5779 23.8334 14.0007 23.8334H7.58398C4.68449 23.8334 2.33398 21.6508 2.33398 18.9584V7.04175ZM21.3424 8.98404C21.798 8.56098 22.5367 8.56098 22.9923 8.98404L26.4923 12.2341C26.9478 12.6571 26.9478 13.3431 26.4923 13.7661L22.9923 17.0161C22.5367 17.4391 21.798 17.4391 21.3424 17.0161C20.8868 16.5931 20.8868 15.9071 21.3424 15.4841L22.8507 14.0834H12.834C12.1896 14.0834 11.6673 13.5984 11.6673 13.0001C11.6673 12.4018 12.1896 11.9167 12.834 11.9167H22.8507L21.3424 10.5161C20.8868 10.093 20.8868 9.40712 21.3424 8.98404Z" fill="currentColor"/>
</svg>
