<svg width="48" height="25" viewBox="0 0 48 25" fill="none" xmlns="http://www.w3.org/2000/svg">
  <mask id="mask0_9067_26007" style="mask-type:alpha" maskUnits="userSpaceOnUse" x="0" y="0" width="48" height="25">
    <path d="M31.4638 0.190281L24.5132 7.15701C24.2296 7.4412 23.7672 7.44126 23.4835 7.15708L16.5314 0.191673C16.3051 -0.0346375 15.9024 -0.0345135 15.6769 0.191925L0.392004 15.5127C-0.120251 16.0263 -0.120251 16.8538 0.392004 17.3673L7.78263 24.7751C8.00819 25.0015 8.41155 25.0015 8.63718 24.7751L15.5878 17.8082C15.8713 17.5241 16.3338 17.5241 16.6175 17.8082L23.5696 24.774C23.6827 24.8872 23.8363 24.9507 23.9968 24.9507C24.1574 24.9507 24.3109 24.8872 24.4241 24.774L31.3781 17.8097C31.6617 17.5256 32.1242 17.5258 32.4077 17.81L39.3581 24.7771C39.4708 24.8903 39.6248 24.9541 39.7854 24.9541C39.9459 24.9541 40.0998 24.8903 40.2126 24.7771L47.6033 17.3692C48.1155 16.8558 48.1156 16.0282 47.6034 15.5148L32.3184 0.190281C32.2056 0.0771255 32.0516 0.0133057 31.891 0.0133057C31.7305 0.0133057 31.5766 0.0771255 31.4638 0.190281ZM29.23 7.43095L28.5716 5.33C28.4918 5.07567 28.56 4.79838 28.7488 4.60926L31.3762 1.97599C31.6598 1.69168 32.1224 1.69168 32.4059 1.97605L32.6423 2.21293C32.7316 2.30249 32.7957 2.41375 32.8281 2.53563L33.3305 4.42298C33.3975 4.67453 33.3226 4.94246 33.1345 5.12368L30.427 7.73361C30.2827 7.8727 30.1025 7.93734 29.9246 7.93734C29.6243 7.93734 29.3309 7.7529 29.23 7.43095ZM18.1091 10.6521L14.6405 9.21482C14.339 9.0899 14.1588 8.78004 14.2007 8.45822L14.929 2.84923C14.9494 2.69256 15.0211 2.54683 15.133 2.43456L15.5893 1.97713C15.8729 1.69294 16.3355 1.69288 16.619 1.97706L17.201 2.56005C17.2936 2.6529 17.3591 2.76903 17.3903 2.8961L19.0924 9.81672C19.2092 10.2918 18.8342 10.709 18.3902 10.709C18.2982 10.709 18.2033 10.6911 18.1091 10.6521ZM7.84555 9.73911L12.5686 5.00502C12.8915 4.68143 13.4435 4.94936 13.3848 5.40116L12.9862 8.47055C12.9502 8.74797 12.7557 8.97953 12.4874 9.06448L8.2549 10.4035C8.21051 10.4176 8.16721 10.4241 8.12588 10.4241C7.79276 10.4241 7.58127 10.0041 7.84555 9.73911ZM35.9034 9.41381L34.9952 6.00198C34.8532 5.46833 35.5145 5.09256 35.9057 5.48472L39.084 8.67125C39.5309 9.11925 39.2231 9.88092 38.5883 9.89768L36.6234 9.94955C36.617 9.94968 36.6105 9.9498 36.6041 9.9498C36.276 9.9498 35.9877 9.73038 35.9034 9.41381ZM22.1402 12.3223L21.1497 11.9119C20.9371 11.8237 20.7793 11.6405 20.7246 11.4183L19.4539 6.25119C19.3221 5.71584 19.9836 5.34809 20.3742 5.73943L23.1432 8.51369C23.2916 8.66258 23.3676 8.86821 23.3511 9.07713L23.1419 11.7143C23.111 12.1036 22.7821 12.3783 22.4195 12.3783C22.3271 12.3783 22.2326 12.3606 22.1402 12.3223ZM25.2116 13.5949L24.7164 13.3897C24.4271 13.2699 24.2482 12.979 24.2729 12.6687L24.5599 9.0498C24.5733 8.88004 24.6469 8.72052 24.7675 8.59952L26.6343 6.72861C27.0191 6.34291 27.6788 6.50293 27.8413 7.0214L29.2661 11.5676C29.3802 11.932 29.1883 12.3217 28.8286 12.4557L25.7452 13.6045C25.6631 13.6351 25.5768 13.6504 25.4906 13.6504C25.3956 13.6504 25.3007 13.6319 25.2116 13.5949ZM30.37 11.0685L30.1138 10.2509C30.0326 9.9918 30.105 9.70932 30.3011 9.52026L33.256 6.67181C33.4957 6.44076 33.8971 6.55151 33.9824 6.87219L34.702 9.57548C34.7971 9.93285 34.6042 10.3037 34.2557 10.4335L31.3167 11.5287C31.2327 11.56 31.1467 11.5748 31.0622 11.5748C30.7545 11.5748 30.4672 11.3785 30.37 11.0685ZM13.9846 15.1115L10.1609 13.8437C9.87107 13.7477 9.67302 13.4814 9.6657 13.1781L9.63157 11.7657C9.6238 11.4459 9.82936 11.1594 10.1362 11.0624L12.4496 10.3304C12.8188 10.2136 13.2152 10.4059 13.3495 10.7669L14.6948 14.3833C14.8368 14.7652 14.5404 15.1414 14.167 15.1415C14.1076 15.1415 14.0464 15.132 13.9846 15.1115ZM43.6072 18.3468L40.1226 11.7718C39.9494 11.445 40.1816 11.0511 40.5533 11.0413L41.1116 11.0266C41.3116 11.0213 41.505 11.0984 41.6458 11.2396L46.3294 15.9353C46.6092 16.2158 46.6092 16.6681 46.3293 16.9487L44.7635 18.5182C44.6195 18.6625 44.4338 18.7315 44.2498 18.7315C43.9933 18.7315 43.7401 18.5974 43.6072 18.3468ZM17.6389 17.1341L16.7324 16.2258C16.6595 16.1527 16.6032 16.065 16.5673 15.9685L15.0943 12.0088C14.8749 11.4189 15.4689 10.8526 16.0533 11.0948L20.0528 12.752C20.4406 12.9126 20.61 13.366 20.4218 13.739L18.8017 16.9499C18.6713 17.2082 18.4135 17.3473 18.1523 17.3473C17.9685 17.3473 17.783 17.2785 17.6389 17.1341ZM35.8788 19.5919L35.206 18.9176C35.0444 18.7556 34.9696 18.5271 35.0045 18.3017L36.0164 11.753C36.0697 11.4088 36.3633 11.1518 36.7138 11.1425L37.9554 11.1098C38.2312 11.1026 38.4874 11.2516 38.6159 11.4941L40.2455 14.5688C40.3769 14.8168 40.3516 15.118 40.1804 15.3408L36.97 19.5217C36.8261 19.7091 36.6102 19.8051 36.3932 19.8051C36.2077 19.8051 36.0215 19.735 35.8788 19.5919ZM2.79191 18.0753L1.66602 16.9468C1.38601 16.6662 1.38601 16.2139 1.66602 15.9332L4.73471 12.8573C4.81705 12.7748 4.91817 12.7133 5.02962 12.6781L7.50237 11.8957C7.96298 11.75 8.43543 12.0844 8.44702 12.5643L8.50523 14.9686C8.5116 15.2312 8.37347 15.4764 8.14485 15.6084L3.67103 18.191C3.55742 18.2566 3.43178 18.2885 3.30703 18.2885C3.11834 18.2885 2.93175 18.2155 2.79191 18.0753ZM32.8823 16.5883L32.3203 16.0249C32.3202 16.0249 32.3202 16.0249 32.3201 16.0248L30.5189 14.1778C30.1556 13.8053 30.296 13.185 30.785 13.0028L33.6809 11.9239C34.1996 11.7305 34.7361 12.1632 34.652 12.7072L34.1136 16.1908C34.0549 16.5708 33.7292 16.8022 33.3933 16.8023C33.2125 16.8023 33.0289 16.7353 32.8823 16.5883ZM24.6064 17.8108L21.2861 16.3943C20.9028 16.2308 20.7372 15.7806 20.924 15.4102L21.5798 14.1107C21.7504 13.7726 22.1554 13.6232 22.5069 13.7688L24.5767 14.6265C24.8007 14.7193 24.9631 14.9174 25.0093 15.154L25.4028 17.1735C25.4752 17.5451 25.1799 17.8585 24.8359 17.8585C24.7607 17.8585 24.683 17.8435 24.6064 17.8108ZM26.9703 18.9285L26.2683 15.3263C26.201 14.9814 26.3942 14.6387 26.7254 14.5154L28.0762 14.012C28.3464 13.9114 28.6508 13.9795 28.8516 14.1852L30.5564 15.9335C30.831 16.2151 30.8284 16.6631 30.5505 16.9415L28.1966 19.2987C28.0504 19.4452 27.8665 19.5124 27.6855 19.5124C27.3589 19.5124 27.0415 19.2939 26.9703 18.9285ZM9.85006 20.7971L9.73352 15.9783C9.72142 15.4796 10.2113 15.1202 10.6877 15.2781L13.8877 16.339C14.3973 16.5081 14.5512 17.1497 14.1731 17.5287L10.6121 21.0981C10.5213 21.189 10.409 21.2299 10.2987 21.2299C10.0733 21.2299 9.85643 21.0591 9.85006 20.7971ZM39.2704 22.9917L37.7639 21.4815C37.5093 21.2263 37.483 20.8237 37.7024 20.5382L40.39 17.038C40.7112 16.6197 41.361 16.6738 41.6078 17.1394L42.9323 19.6384C43.0796 19.9163 43.0284 20.2573 42.8057 20.4805L40.3002 22.9917C40.1584 23.1339 39.9719 23.205 39.7854 23.205C39.5988 23.205 39.4123 23.1339 39.2704 22.9917ZM7.86517 23.1604L4.72133 20.0093C4.38739 19.6746 4.46183 19.1167 4.87194 18.88L7.48906 17.3692C7.96559 17.0941 8.56471 17.427 8.57802 17.9743L8.695 22.8096C8.69812 22.9406 8.64749 23.0673 8.55458 23.1604C8.45963 23.2555 8.33475 23.3031 8.20987 23.3031C8.08499 23.3031 7.96011 23.2555 7.86517 23.1604ZM23.4821 22.989L19.6096 19.1088C19.3906 18.8893 19.337 18.5556 19.4764 18.2793L19.7334 17.77C19.9053 17.4292 20.3149 17.2806 20.6675 17.4311L25.5343 19.5072C25.7549 19.6014 25.9142 19.7978 25.9598 20.032L26.1327 20.9191C26.1783 21.1529 26.1046 21.3938 25.9358 21.5629L24.5116 22.9891C24.3698 23.1311 24.1834 23.2021 23.997 23.2021C23.8105 23.2021 23.6239 23.1311 23.4821 22.989Z" fill="white"/>
  </mask>
  <g mask="url(#mask0_9067_26007)">
    <path d="M31.4638 0.190281L24.5132 7.15701C24.2296 7.4412 23.7672 7.44126 23.4835 7.15708L16.5314 0.191673C16.3051 -0.0346375 15.9024 -0.0345135 15.6769 0.191925L0.392004 15.5127C-0.120251 16.0263 -0.120251 16.8538 0.392004 17.3673L7.78263 24.7751C8.00819 25.0015 8.41155 25.0015 8.63718 24.7751L15.5878 17.8082C15.8713 17.5241 16.3338 17.5241 16.6175 17.8082L23.5696 24.774C23.6827 24.8872 23.8363 24.9507 23.9968 24.9507C24.1574 24.9507 24.3109 24.8872 24.4241 24.774L31.3781 17.8097C31.6617 17.5256 32.1242 17.5258 32.4077 17.81L39.3581 24.7771C39.4708 24.8903 39.6248 24.9541 39.7854 24.9541C39.9459 24.9541 40.0998 24.8903 40.2126 24.7771L47.6033 17.3692C48.1155 16.8558 48.1156 16.0282 47.6034 15.5148L32.3184 0.190281C32.2056 0.0771255 32.0516 0.0133057 31.891 0.0133057C31.7305 0.0133057 31.5766 0.0771255 31.4638 0.190281ZM29.23 7.43095L28.5716 5.33C28.4918 5.07567 28.56 4.79838 28.7488 4.60926L31.3762 1.97599C31.6598 1.69168 32.1224 1.69168 32.4059 1.97605L32.6423 2.21293C32.7316 2.30249 32.7957 2.41375 32.8281 2.53563L33.3305 4.42298C33.3975 4.67453 33.3226 4.94246 33.1345 5.12368L30.427 7.73361C30.2827 7.8727 30.1025 7.93734 29.9246 7.93734C29.6243 7.93734 29.3309 7.7529 29.23 7.43095ZM18.1091 10.6521L14.6405 9.21482C14.339 9.0899 14.1588 8.78004 14.2007 8.45822L14.929 2.84923C14.9494 2.69256 15.0211 2.54683 15.133 2.43456L15.5893 1.97713C15.8729 1.69294 16.3355 1.69288 16.619 1.97706L17.201 2.56005C17.2936 2.6529 17.3591 2.76903 17.3903 2.8961L19.0924 9.81672C19.2092 10.2918 18.8342 10.709 18.3902 10.709C18.2982 10.709 18.2033 10.6911 18.1091 10.6521ZM7.84555 9.73911L12.5686 5.00502C12.8915 4.68143 13.4435 4.94936 13.3848 5.40116L12.9862 8.47055C12.9502 8.74797 12.7557 8.97953 12.4874 9.06448L8.2549 10.4035C8.21051 10.4176 8.16721 10.4241 8.12588 10.4241C7.79276 10.4241 7.58127 10.0041 7.84555 9.73911ZM35.9034 9.41381L34.9952 6.00198C34.8532 5.46833 35.5145 5.09256 35.9057 5.48472L39.084 8.67125C39.5309 9.11925 39.2231 9.88092 38.5883 9.89768L36.6234 9.94955C36.617 9.94968 36.6105 9.9498 36.6041 9.9498C36.276 9.9498 35.9877 9.73038 35.9034 9.41381ZM22.1402 12.3223L21.1497 11.9119C20.9371 11.8237 20.7793 11.6405 20.7246 11.4183L19.4539 6.25119C19.3221 5.71584 19.9836 5.34809 20.3742 5.73943L23.1432 8.51369C23.2916 8.66258 23.3676 8.86821 23.3511 9.07713L23.1419 11.7143C23.111 12.1036 22.7821 12.3783 22.4195 12.3783C22.3271 12.3783 22.2326 12.3606 22.1402 12.3223ZM25.2116 13.5949L24.7164 13.3897C24.4271 13.2699 24.2482 12.979 24.2729 12.6687L24.5599 9.0498C24.5733 8.88004 24.6469 8.72052 24.7675 8.59952L26.6343 6.72861C27.0191 6.34291 27.6788 6.50293 27.8413 7.0214L29.2661 11.5676C29.3802 11.932 29.1883 12.3217 28.8286 12.4557L25.7452 13.6045C25.6631 13.6351 25.5768 13.6504 25.4906 13.6504C25.3956 13.6504 25.3007 13.6319 25.2116 13.5949ZM30.37 11.0685L30.1138 10.2509C30.0326 9.9918 30.105 9.70932 30.3011 9.52026L33.256 6.67181C33.4957 6.44076 33.8971 6.55151 33.9824 6.87219L34.702 9.57548C34.7971 9.93285 34.6042 10.3037 34.2557 10.4335L31.3167 11.5287C31.2327 11.56 31.1467 11.5748 31.0622 11.5748C30.7545 11.5748 30.4672 11.3785 30.37 11.0685ZM13.9846 15.1115L10.1609 13.8437C9.87107 13.7477 9.67302 13.4814 9.6657 13.1781L9.63157 11.7657C9.6238 11.4459 9.82936 11.1594 10.1362 11.0624L12.4496 10.3304C12.8188 10.2136 13.2152 10.4059 13.3495 10.7669L14.6948 14.3833C14.8368 14.7652 14.5404 15.1414 14.167 15.1415C14.1076 15.1415 14.0464 15.132 13.9846 15.1115ZM43.6072 18.3468L40.1226 11.7718C39.9494 11.445 40.1816 11.0511 40.5533 11.0413L41.1116 11.0266C41.3116 11.0213 41.505 11.0984 41.6458 11.2396L46.3294 15.9353C46.6092 16.2158 46.6092 16.6681 46.3293 16.9487L44.7635 18.5182C44.6195 18.6625 44.4338 18.7315 44.2498 18.7315C43.9933 18.7315 43.7401 18.5974 43.6072 18.3468ZM17.6389 17.1341L16.7324 16.2258C16.6595 16.1527 16.6032 16.065 16.5673 15.9685L15.0943 12.0088C14.8749 11.4189 15.4689 10.8526 16.0533 11.0948L20.0528 12.752C20.4406 12.9126 20.61 13.366 20.4218 13.739L18.8017 16.9499C18.6713 17.2082 18.4135 17.3473 18.1523 17.3473C17.9685 17.3473 17.783 17.2785 17.6389 17.1341ZM35.8788 19.5919L35.206 18.9176C35.0444 18.7556 34.9696 18.5271 35.0045 18.3017L36.0164 11.753C36.0697 11.4088 36.3633 11.1518 36.7138 11.1425L37.9554 11.1098C38.2312 11.1026 38.4874 11.2516 38.6159 11.4941L40.2455 14.5688C40.3769 14.8168 40.3516 15.118 40.1804 15.3408L36.97 19.5217C36.8261 19.7091 36.6102 19.8051 36.3932 19.8051C36.2077 19.8051 36.0215 19.735 35.8788 19.5919ZM2.79191 18.0753L1.66602 16.9468C1.38601 16.6662 1.38601 16.2139 1.66602 15.9332L4.73471 12.8573C4.81705 12.7748 4.91817 12.7133 5.02962 12.6781L7.50237 11.8957C7.96298 11.75 8.43543 12.0844 8.44702 12.5643L8.50523 14.9686C8.5116 15.2312 8.37347 15.4764 8.14485 15.6084L3.67103 18.191C3.55742 18.2566 3.43178 18.2885 3.30703 18.2885C3.11834 18.2885 2.93175 18.2155 2.79191 18.0753ZM32.8823 16.5883L32.3203 16.0249C32.3202 16.0249 32.3202 16.0249 32.3201 16.0248L30.5189 14.1778C30.1556 13.8053 30.296 13.185 30.785 13.0028L33.6809 11.9239C34.1996 11.7305 34.7361 12.1632 34.652 12.7072L34.1136 16.1908C34.0549 16.5708 33.7292 16.8022 33.3933 16.8023C33.2125 16.8023 33.0289 16.7353 32.8823 16.5883ZM24.6064 17.8108L21.2861 16.3943C20.9028 16.2308 20.7372 15.7806 20.924 15.4102L21.5798 14.1107C21.7504 13.7726 22.1554 13.6232 22.5069 13.7688L24.5767 14.6265C24.8007 14.7193 24.9631 14.9174 25.0093 15.154L25.4028 17.1735C25.4752 17.5451 25.1799 17.8585 24.8359 17.8585C24.7607 17.8585 24.683 17.8435 24.6064 17.8108ZM26.9703 18.9285L26.2683 15.3263C26.201 14.9814 26.3942 14.6387 26.7254 14.5154L28.0762 14.012C28.3464 13.9114 28.6508 13.9795 28.8516 14.1852L30.5564 15.9335C30.831 16.2151 30.8284 16.6631 30.5505 16.9415L28.1966 19.2987C28.0504 19.4452 27.8665 19.5124 27.6855 19.5124C27.3589 19.5124 27.0415 19.2939 26.9703 18.9285ZM9.85006 20.7971L9.73352 15.9783C9.72142 15.4796 10.2113 15.1202 10.6877 15.2781L13.8877 16.339C14.3973 16.5081 14.5512 17.1497 14.1731 17.5287L10.6121 21.0981C10.5213 21.189 10.409 21.2299 10.2987 21.2299C10.0733 21.2299 9.85643 21.0591 9.85006 20.7971ZM39.2704 22.9917L37.7639 21.4815C37.5093 21.2263 37.483 20.8237 37.7024 20.5382L40.39 17.038C40.7112 16.6197 41.361 16.6738 41.6078 17.1394L42.9323 19.6384C43.0796 19.9163 43.0284 20.2573 42.8057 20.4805L40.3002 22.9917C40.1584 23.1339 39.9719 23.205 39.7854 23.205C39.5988 23.205 39.4123 23.1339 39.2704 22.9917ZM7.86517 23.1604L4.72133 20.0093C4.38739 19.6746 4.46183 19.1167 4.87194 18.88L7.48906 17.3692C7.96559 17.0941 8.56471 17.427 8.57802 17.9743L8.695 22.8096C8.69812 22.9406 8.64749 23.0673 8.55458 23.1604C8.45963 23.2555 8.33475 23.3031 8.20987 23.3031C8.08499 23.3031 7.96011 23.2555 7.86517 23.1604ZM23.4821 22.989L19.6096 19.1088C19.3906 18.8893 19.337 18.5556 19.4764 18.2793L19.7334 17.77C19.9053 17.4292 20.3149 17.2806 20.6675 17.4311L25.5343 19.5072C25.7549 19.6014 25.9142 19.7978 25.9598 20.032L26.1327 20.9191C26.1783 21.1529 26.1046 21.3938 25.9358 21.5629L24.5116 22.9891C24.3698 23.1311 24.1834 23.2021 23.997 23.2021C23.8105 23.2021 23.6239 23.1311 23.4821 22.989Z" fill="white"/>
  </g>
</svg>
