<svg width="48" height="48" viewBox="0 0 240 240" fill="none" xmlns="http://www.w3.org/2000/svg">
<path d="M237.382 106.64L165.833 10.7281L47.177 24.5625L3.58033 134.005L75.13 229.917L193.802 216.076L237.382 106.64Z" fill="#302925"/>
<path d="M165.833 10.7281L47.177 24.5625L3.58033 134.005L122.247 120.176L165.833 10.7281Z" fill="url(#paint0_linear_7144_23288)"/>
<path d="M237.382 106.64L165.832 10.7279L122.247 120.176L193.801 216.076L237.382 106.64Z" fill="url(#paint1_linear_7144_23288)"/>
<path d="M122.246 120.176L193.801 216.076L75.129 229.917L3.57935 134.005L122.246 120.176Z" fill="url(#paint2_linear_7144_23288)"/>
<path d="M145.426 27.6245L115.724 104.668L95.0209 107.303L111.841 63.6595L75.7613 109.775L61.8043 111.558L59.3699 70.3748L42.5327 114.025L21.8411 116.665L51.5378 39.6342L78.2672 36.2085L80.7253 80.2709L119.064 31.0016L145.426 27.6245Z" fill="#F2F2F9"/>
<path d="M216.5 103.61L185.905 182.512L173.536 166.945L172.174 98.9986L154.92 143.486L142.556 127.907L173.139 49L185.515 64.584L186.85 132.631L204.136 88.0309L216.5 103.61Z" fill="white"/>
<defs>
<linearGradient id="paint0_linear_7144_23288" x1="161.5" y1="13.5" x2="6.49999" y2="130.5" gradientUnits="userSpaceOnUse">
<stop offset="0.307292" stop-color="#AF156B"/>
<stop offset="1" stop-color="#F24EA9"/>
</linearGradient>
<linearGradient id="paint1_linear_7144_23288" x1="232" y1="106.5" x2="125" y2="120" gradientUnits="userSpaceOnUse">
<stop offset="0.260417" stop-color="#D61F85"/>
<stop offset="1" stop-color="#E953A7"/>
</linearGradient>
<linearGradient id="paint2_linear_7144_23288" x1="121.391" y1="119.824" x2="75.985" y2="230.269" gradientUnits="userSpaceOnUse">
<stop stop-color="#9F1763"/>
<stop offset="1" stop-color="#6F0C43"/>
</linearGradient>
</defs>
</svg>
