<svg xmlns="http://www.w3.org/2000/svg" width="32" height="32" viewBox="0 0 32 32" fill="none">
  <path d="M15.6333 22.8026C15.5013 22.5126 15.2279 22.301 14.8971 22.2634C14.617 22.2314 14.3427 22.1714 14.0819 22.0849C13.965 22.0455 13.8553 22.0026 13.7537 21.9566L13.9225 21.4965C14.0417 21.5497 14.1645 21.5983 14.2902 21.6423L14.2954 21.6442L14.3007 21.6459C14.7042 21.7793 15.1013 21.8469 15.4806 21.8469C15.8615 21.8469 16.1377 21.7958 16.3498 21.6863L16.3625 21.6798L16.3749 21.6726C16.6962 21.4882 16.8806 21.1713 16.8806 20.8029C16.8806 20.3941 16.6601 20.0547 16.2754 19.8714C16.0819 19.7773 15.8071 19.6874 15.4113 19.589C15.0053 19.4863 14.6642 19.3774 14.3997 19.2658C14.2063 19.1783 14.0386 19.0387 13.8874 18.8391C13.7573 18.661 13.6914 18.3931 13.6914 18.0426C13.6914 17.6197 13.8105 17.2706 14.0555 16.9754C14.2737 16.7167 14.5834 16.541 14.9991 16.4425C15.3075 16.3694 15.5481 16.1493 15.6562 15.865C15.7785 16.1531 16.0386 16.3674 16.3623 16.419C16.6327 16.4621 16.881 16.5307 17.1042 16.6237L16.9489 17.0746C16.5274 16.9054 16.1126 16.8199 15.7114 16.8199C14.379 16.8199 14.3115 17.7391 14.3115 17.9234C14.3115 18.3229 14.5273 18.6578 14.9034 18.8425L14.9139 18.8477L14.9246 18.8525C15.1146 18.9373 15.3842 19.019 15.7733 19.1097C16.1755 19.2006 16.511 19.3047 16.7746 19.4202L16.7801 19.4226L16.7855 19.4249C16.9813 19.5063 17.1491 19.6423 17.2987 19.8407L17.3011 19.8438L17.3035 19.847C17.4343 20.0161 17.5007 20.2775 17.5007 20.6242C17.5007 21.0243 17.3849 21.363 17.1465 21.6597C16.9397 21.917 16.651 22.0951 16.2637 22.2042C15.9646 22.2885 15.7326 22.5171 15.6333 22.8026Z" fill="#5C7D8D"/>
  <path d="M15.9709 24.0001H15.3289C15.1853 24.0001 15.0689 23.8807 15.0689 23.7334V23.1981C15.0689 23.0573 14.9621 22.9415 14.8256 22.9259C14.5005 22.889 14.1861 22.8201 13.8823 22.7193C13.5871 22.6198 13.3313 22.5019 13.115 22.3653C13.0156 22.3025 12.9795 22.175 13.0206 22.063L13.4609 20.8622C13.5203 20.7006 13.7116 20.6387 13.8589 20.7223C14.0579 20.835 14.2717 20.9314 14.5003 21.0114C14.8409 21.1239 15.1679 21.1802 15.4809 21.1802C15.7501 21.1802 15.9425 21.1505 16.0579 21.0909C16.1732 21.0246 16.2309 20.9286 16.2309 20.8029C16.2309 20.6573 16.154 20.5481 16.0001 20.4753C15.8519 20.4025 15.6045 20.323 15.2585 20.237C14.8135 20.1245 14.4427 20.0053 14.146 19.8795C13.8493 19.7471 13.5911 19.5353 13.3713 19.2441C13.1516 18.9462 13.0417 18.5457 13.0417 18.0426C13.0417 17.4601 13.2148 16.9603 13.5608 16.5433C13.8728 16.1734 14.3035 15.9233 14.8531 15.793C14.9768 15.7637 15.0689 15.6535 15.0689 15.5234V14.9334C15.0689 14.7861 15.1853 14.6667 15.3289 14.6667H15.9709C16.1145 14.6667 16.2309 14.7861 16.2309 14.9334V15.4897C16.2309 15.6259 16.3312 15.7394 16.4624 15.7603C16.9439 15.837 17.3669 15.9822 17.7315 16.1959C17.8349 16.2566 17.876 16.3857 17.8363 16.5009L17.4241 17.6967C17.3696 17.8553 17.1876 17.9223 17.0412 17.8466C16.5769 17.6066 16.1339 17.4866 15.7117 17.4866C15.2117 17.4866 14.9617 17.6322 14.9617 17.9234C14.9617 18.0625 15.036 18.1683 15.1843 18.2413C15.3327 18.3074 15.5771 18.3802 15.9177 18.4597C16.3572 18.559 16.7281 18.6747 17.0303 18.8071C17.3324 18.9329 17.5933 19.1414 17.8132 19.4327C18.0384 19.7239 18.1511 20.1211 18.1511 20.6242C18.1511 21.1802 17.9835 21.6667 17.6483 22.0838C17.3564 22.4473 16.9523 22.7017 16.4361 22.8471C16.3175 22.8806 16.2309 22.9883 16.2309 23.1145V23.7334C16.2309 23.8807 16.1145 24.0001 15.9709 24.0001Z" fill="currentColor"/>
  <path fill-rule="evenodd" clip-rule="evenodd" d="M12.9898 7.82029C13.0614 8.38932 13.3512 9.16609 13.6424 9.84419L14.2918 11.363L14.2929 11.3656L14.3958 11.6043C14.5325 11.9215 14.4959 12.2867 14.2989 12.5703C14.102 12.854 13.7726 13.016 13.4277 12.9988C13.0427 12.9797 12.6597 13.0819 12.3297 13.294C10.4971 15.0264 9.00717 17.1079 7.94345 19.4241C7.94064 19.4302 7.93777 19.4363 7.93484 19.4424C7.57798 20.1797 7.43572 21.0091 7.5268 21.8298C7.52891 21.8487 7.53047 21.8678 7.53148 21.8868C7.64176 23.9537 9.24846 25.564 11.2089 25.6667H19.9989C21.9585 25.5609 23.5626 23.9489 23.6706 21.8826C23.6716 21.8631 23.6732 21.8438 23.6753 21.8245C23.7664 21.0038 23.6241 20.1744 23.2673 19.437C23.2644 19.4309 23.2615 19.4248 23.2587 19.4187C22.1963 17.1048 20.7084 15.0254 18.8786 13.2939C18.5489 13.0819 18.1658 12.9797 17.7808 12.9988C17.4362 13.016 17.1071 12.8543 16.9101 12.5711C16.7131 12.2879 16.676 11.9232 16.8119 11.6061L16.9017 11.3968L17.5657 9.84527L17.5668 9.84269C17.8586 9.16616 18.148 8.38939 18.2192 7.82094C18.2268 7.76049 18.2309 7.70941 18.2329 7.66675H12.9761C12.978 7.70928 12.9822 7.76015 12.9898 7.82029ZM19.1543 11.2166C19.4782 11.3311 19.7878 11.489 20.0743 11.6878C20.1146 11.7157 20.1528 11.7466 20.1886 11.7802C22.2332 13.699 23.8917 16.0074 25.0721 18.5752C25.5862 19.6421 25.7918 20.8358 25.6662 22.0161C25.4927 25.0614 23.0991 27.5202 20.0723 27.6656C20.0563 27.6664 20.0403 27.6667 20.0243 27.6667H11.1843C11.1688 27.6667 11.1533 27.6664 11.1378 27.6657C8.10991 27.5246 5.71255 25.068 5.53592 22.022C5.41025 20.8415 5.61577 19.6477 6.13004 18.5805C7.3118 16.0103 8.97261 13.6997 11.0203 11.7799C11.056 11.7464 11.0942 11.7156 11.1344 11.6877C11.4208 11.4891 11.7302 11.3311 12.0541 11.2167L11.8046 10.6333C11.8045 10.633 11.8044 10.6328 11.8043 10.6325C11.5144 9.95726 11.1161 8.94849 11.0054 8.07021C10.9522 7.6472 10.9397 7.0767 11.2019 6.57291C11.3445 6.29898 11.5638 6.05508 11.8672 5.88833C12.1628 5.72593 12.4829 5.66675 12.7898 5.66675H18.4188C18.7257 5.66675 19.0457 5.72599 19.3412 5.88837C19.6445 6.05505 19.8637 6.29879 20.0063 6.57247C20.2687 7.07597 20.2568 7.64626 20.2037 8.06956C20.0937 8.94806 19.6959 9.95639 19.404 10.6332C19.4038 10.6337 19.4035 10.6343 19.4033 10.6348L19.1543 11.2166Z" fill="currentColor"/>
  <path d="M17.7313 13C18.2835 13 18.7313 12.5523 18.7313 12C18.7313 11.4477 18.2835 11 17.7313 11V13ZM13.4777 11C12.9254 11 12.4777 11.4477 12.4777 12C12.4777 12.5523 12.9254 13 13.4777 13V11ZM21.3037 11.5332C21.7822 11.2575 21.9467 10.6461 21.671 10.1675C21.3953 9.68897 20.7839 9.5245 20.3054 9.80018L21.3037 11.5332ZM17.821 11.7907L18.0139 12.7719L18.0169 12.7713L17.821 11.7907ZM13.3737 11.7587L13.5807 10.7803L13.5717 10.7785L13.3737 11.7587ZM10.8882 9.79145C10.4048 9.52432 9.79639 9.69961 9.52925 10.183C9.26211 10.6664 9.4374 11.2748 9.92079 11.5419L10.8882 9.79145ZM17.7313 11H13.4777V13H17.7313V11ZM20.3054 9.80018C19.4694 10.2817 18.5646 10.6225 17.6251 10.8101L18.0169 12.7713C19.1706 12.5409 20.2803 12.1227 21.3037 11.5332L20.3054 9.80018ZM17.6281 10.8095C16.2902 11.0726 14.915 11.0626 13.5807 10.7803L13.1667 12.737C14.7645 13.0751 16.4117 13.087 18.0139 12.7719L17.6281 10.8095ZM13.5717 10.7785C12.6347 10.5893 11.7301 10.2568 10.8882 9.79145L9.92079 11.5419C10.9405 12.1055 12.0378 12.5091 13.1758 12.7389L13.5717 10.7785Z" fill="currentColor"/>
</svg>
