<svg width="48" height="48" viewBox="0 0 48 48" fill="none" xmlns="http://www.w3.org/2000/svg">
  <g opacity="0.5">
    <path
      d="M29.0135 28.5971L29.3644 27.6607L29.0135 28.5971ZM30.6049 29.3321L29.8381 29.9741L30.6049 29.3321ZM30.6369 30.5757L29.8381 29.9741L30.6369 30.5757ZM24.2762 14.7773L23.2838 14.9003L24.2762 14.7773ZM24.7108 23.2417C23.786 21.1148 23.831 18.8124 24.6527 16.8244L22.8043 16.0605C21.7842 18.5286 21.7269 21.395 22.8767 24.0392L24.7108 23.2417ZM29.3644 27.6607C27.3502 26.9058 25.6356 25.3686 24.7108 23.2417L22.8767 24.0392C24.0264 26.6833 26.1618 28.5963 28.6626 29.5335L29.3644 27.6607ZM29.1844 30.2584C25.0218 32.0683 20.1802 30.1611 18.3703 25.9986L16.5362 26.7961C18.7865 31.9716 24.8064 34.3428 29.9819 32.0925L29.1844 30.2584ZM18.3703 25.9986C16.5604 21.8361 18.4675 16.9944 22.6301 15.1845L21.8326 13.3504C16.6571 15.6008 14.2858 21.6206 16.5362 26.7961L18.3703 25.9986ZM28.6626 29.5335C29.1488 29.7157 29.4717 29.8372 29.6971 29.9368C29.8074 29.9855 29.8677 30.0176 29.8978 30.0359C29.9312 30.0563 29.8924 30.0389 29.8381 29.9741L31.3716 28.6902C31.121 28.3909 30.7563 28.2183 30.5055 28.1075C30.2146 27.9789 29.8264 27.8339 29.3644 27.6607L28.6626 29.5335ZM29.9819 32.0925C30.2643 31.9697 30.5342 31.8532 30.7492 31.7372C30.9713 31.6174 31.2306 31.4496 31.4358 31.1772L29.8381 29.9741C29.8848 29.9121 29.9156 29.9145 29.7996 29.977C29.6766 30.0434 29.4988 30.1216 29.1844 30.2584L29.9819 32.0925ZM29.8381 29.9741L31.4358 31.1772C31.9953 30.4342 31.9687 29.4033 31.3716 28.6902L29.8381 29.9741ZM24.6527 16.8244C24.8411 16.3685 24.9998 15.9857 25.1042 15.6852C25.1942 15.4262 25.3166 15.0417 25.2687 14.6543L23.2838 14.9003C23.2734 14.8163 23.2872 14.7761 23.2793 14.8145C23.2722 14.8489 23.2545 14.9149 23.2149 15.0288C23.1341 15.2616 23.0026 15.5806 22.8043 16.0605L24.6527 16.8244ZM22.6301 15.1845C22.9445 15.0478 23.123 14.9711 23.2554 14.9264C23.3803 14.8843 23.361 14.9084 23.2838 14.9003L23.4935 12.9113C23.1544 12.8755 22.8549 12.9507 22.6157 13.0315C22.3842 13.1096 22.115 13.2276 21.8326 13.3504L22.6301 15.1845ZM25.2687 14.6543C25.1543 13.7313 24.4185 13.0088 23.4935 12.9113L23.2838 14.9003L25.2687 14.6543Z"
      fill="#CBCBE4"/>
  </g>
</svg>
