<svg xmlns="http://www.w3.org/2000/svg" width="32" height="32" viewBox="0 0 32 32" fill="none">
  <path d="M16.7188 9.55385C17.3857 9.338 17.9211 8.83007 18.1743 8.18091L23.8189 13.8255C23.1697 14.0787 22.6617 14.6141 22.4459 15.2809L16.7188 9.55385Z" fill="currentColor"/>
  <path d="M22.4458 16.7192L16.7188 22.4463C17.3855 22.6622 17.921 23.1702 18.1742 23.8192L23.8188 18.1747C23.1696 17.9215 22.6615 17.3862 22.4458 16.7192Z" fill="currentColor"/>
  <path d="M15.2817 22.4462L9.55447 16.719C9.33867 17.3858 8.83077 17.9214 8.18164 18.1746L13.8261 23.819C14.0793 23.1698 14.6147 22.6619 15.2817 22.4462Z" fill="currentColor"/>
  <path d="M15.2817 9.55375L9.55447 15.281C9.33868 14.6141 8.83077 14.0786 8.18164 13.8254L13.8261 8.18091C14.0793 8.83005 14.6147 9.33795 15.2817 9.55375Z" fill="currentColor"/>
  <path fill-rule="evenodd" clip-rule="evenodd" d="M15.9993 6C15.2629 6 14.666 6.59696 14.666 7.33333C14.666 8.06971 15.2629 8.66667 15.9993 8.66667C16.7357 8.66667 17.3327 8.06971 17.3327 7.33333C17.3327 6.59696 16.7357 6 15.9993 6ZM12.666 7.33333C12.666 5.49239 14.1584 4 15.9993 4C17.8403 4 19.3327 5.49239 19.3327 7.33333C19.3327 9.17428 17.8403 10.6667 15.9993 10.6667C14.1584 10.6667 12.666 9.17428 12.666 7.33333Z" fill="currentColor"/>
  <path fill-rule="evenodd" clip-rule="evenodd" d="M15.9993 23.3333C15.2629 23.3333 14.666 23.9302 14.666 24.6666C14.666 25.403 15.2629 25.9999 15.9993 25.9999C16.7357 25.9999 17.3327 25.403 17.3327 24.6666C17.3327 23.9302 16.7357 23.3333 15.9993 23.3333ZM12.666 24.6666C12.666 22.8257 14.1584 21.3333 15.9993 21.3333C17.8403 21.3333 19.3327 22.8257 19.3327 24.6666C19.3327 26.5075 17.8403 27.9999 15.9993 27.9999C14.1584 27.9999 12.666 26.5075 12.666 24.6666Z" fill="currentColor"/>
  <path fill-rule="evenodd" clip-rule="evenodd" d="M7.33333 14.6667C6.59696 14.6667 6 15.2637 6 16.0001C6 16.7365 6.59696 17.3334 7.33333 17.3334C8.06971 17.3334 8.66667 16.7365 8.66667 16.0001C8.66667 15.2637 8.06971 14.6667 7.33333 14.6667ZM4 16.0001C4 14.1591 5.49239 12.6667 7.33333 12.6667C9.17428 12.6667 10.6667 14.1591 10.6667 16.0001C10.6667 17.841 9.17428 19.3334 7.33333 19.3334C5.49239 19.3334 4 17.841 4 16.0001Z" fill="currentColor"/>
  <path fill-rule="evenodd" clip-rule="evenodd" d="M24.6673 14.6667C23.9309 14.6667 23.334 15.2637 23.334 16.0001C23.334 16.7365 23.9309 17.3334 24.6673 17.3334C25.4037 17.3334 26.0007 16.7365 26.0007 16.0001C26.0007 15.2637 25.4037 14.6667 24.6673 14.6667ZM21.334 16.0001C21.334 14.1591 22.8264 12.6667 24.6673 12.6667C26.5083 12.6667 28.0007 14.1591 28.0007 16.0001C28.0007 17.841 26.5083 19.3334 24.6673 19.3334C22.8264 19.3334 21.334 17.841 21.334 16.0001Z" fill="currentColor"/>
</svg>
