<svg width="64" height="64" viewBox="0 0 64 64" fill="none" xmlns="http://www.w3.org/2000/svg">
<circle cx="32" cy="32" r="32" fill="#D61F85"/>
<path d="M31.9785 29.7988L33.0392 30.8595L31.9785 31.9201L30.9179 30.8595L31.9785 29.7988ZM30.4785 11.0002C30.4785 10.1718 31.1501 9.50018 31.9785 9.50018C32.8069 9.50018 33.4785 10.1718 33.4785 11.0002H30.4785ZM25.5197 21.2187L33.0392 28.7382L30.9179 30.8595L23.3984 23.34L25.5197 21.2187ZM30.9179 28.7382L38.4373 21.2187L40.5586 23.34L33.0392 30.8595L30.9179 28.7382ZM30.4785 29.7988L30.4785 11.0002H33.4785L33.4785 29.7988H30.4785Z" fill="white"/>
<path d="M21.6393 30.2191L21.1822 30.6762C19.1822 32.6762 18.1822 33.6762 18.1822 34.9188C18.1822 36.1614 19.1822 37.1614 21.1822 39.1614L27.7359 45.7151C29.7359 47.7151 30.7359 48.7151 31.9785 48.7151C33.2212 48.7151 34.2212 47.7151 36.2212 45.7151L42.7748 39.1614C44.7748 37.1614 45.7748 36.1614 45.7748 34.9188C45.7748 33.6762 44.7748 32.6762 42.7748 30.6762L42.3178 30.2191" stroke="white" stroke-width="3" stroke-linecap="round"/>
</svg>
